<svg fill="#FFFFFF" xmlns="http://www.w3.org/2000/svg" xmlns:xlink="http://www.w3.org/1999/xlink" style="isolation:isolate;" viewBox="0 0 100 100" x="0px" y="0px"><defs><clipPath id="a"><rect width="100" height="100"></rect></clipPath></defs><g clip-path="url(#a)"><path d=" M 68.6 81.6 C 68.6 78.4 69.9 75.3 72.2 73 C 74.4 70.8 77.5 69.5 80.8 69.5 C 84 69.5 87.1 70.8 89.4 73 C 91.7 75.3 92.9 78.4 92.9 81.6 C 92.9 84.9 91.7 88 89.4 90.3 C 87.1 92.5 84 93.8 80.8 93.8 L 80.8 93.8 C 77.5 93.8 74.4 92.5 72.2 90.3 C 69.9 88 68.6 84.9 68.6 81.6 Z  M 71.6 81.6 C 71.6 79.2 72.6 76.9 74.3 75.2 C 76 73.4 78.3 72.5 80.8 72.5 C 83.2 72.5 85.5 73.4 87.3 75.2 C 89 76.9 89.9 79.2 89.9 81.6 C 89.9 84.1 89 86.4 87.3 88.1 C 85.5 89.9 83.2 90.8 80.8 90.8 L 80.8 90.8 C 78.3 90.8 76 89.9 74.3 88.1 C 72.6 86.4 71.6 84.1 71.6 81.6 Z " fill-rule="evenodd" fill="#FFFFFF"></path><path d=" M 64 80.6 C 63.8 80.9 63.4 81.1 63 81.1 C 62.6 81.1 62.2 80.9 61.9 80.6 C 61.6 80.3 61.5 80 61.5 79.6 C 61.5 79.2 61.6 78.8 61.9 78.5 C 63.1 77.3 64.8 76.6 66.5 76.6 C 68.3 76.6 69.9 77.3 71.2 78.5 C 71.4 78.8 71.6 79.2 71.6 79.6 C 71.6 80 71.4 80.3 71.2 80.6 C 70.9 80.9 70.5 81.1 70.1 81.1 C 69.7 81.1 69.3 80.9 69 80.6 C 68.4 80 67.5 79.6 66.5 79.6 C 65.6 79.6 64.7 80 64 80.6 Z " fill="#FFFFFF"></path><path d=" M 40.1 81.6 C 40.1 78.4 41.4 75.3 43.7 73 C 46 70.8 49.1 69.5 52.3 69.5 C 55.5 69.5 58.6 70.8 60.9 73 C 63.2 75.3 64.5 78.4 64.5 81.6 C 64.5 84.9 63.2 88 60.9 90.3 C 58.6 92.5 55.5 93.8 52.3 93.8 L 52.3 93.8 C 49.1 93.8 46 92.5 43.7 90.3 C 41.4 88 40.1 84.9 40.1 81.6 Z  M 43.1 81.6 C 43.1 79.2 44.1 76.9 45.8 75.2 C 47.5 73.4 49.9 72.5 52.3 72.5 C 54.7 72.5 57.1 73.4 58.8 75.2 C 60.5 76.9 61.5 79.2 61.5 81.6 C 61.5 84.1 60.5 86.4 58.8 88.1 C 57.1 89.9 54.7 90.8 52.3 90.8 L 52.3 90.8 C 49.9 90.8 47.5 89.9 45.8 88.1 C 44.1 86.4 43.1 84.1 43.1 81.6 Z " fill-rule="evenodd" fill="#FFFFFF"></path><path d=" M 91.9 79.5 C 91.6 79.6 91.2 79.6 90.8 79.4 C 90.4 79.3 90.2 79 90 78.6 C 89.9 78.2 89.9 77.8 90.1 77.4 C 90.3 77.1 90.6 76.8 91 76.7 C 91.7 76.4 92.4 76.3 93.2 76.3 C 94 76.3 94.7 76.4 95.5 76.7 C 95.9 76.8 96.2 77.1 96.3 77.4 C 96.5 77.8 96.6 78.2 96.4 78.6 C 96.3 78.9 96 79.3 95.7 79.4 C 95.3 79.6 94.9 79.6 94.5 79.5 C 94.1 79.4 93.6 79.3 93.2 79.3 C 92.8 79.3 92.3 79.4 91.9 79.5 Z " fill="#FFFFFF"></path><path d=" M 38.5 79.2 C 38.2 79.3 37.7 79.3 37.4 79.1 C 37 79 36.8 78.6 36.6 78.3 C 36.5 77.9 36.5 77.5 36.7 77.1 C 36.9 76.8 37.2 76.5 37.6 76.4 C 38.3 76.1 39.1 76 39.9 76 C 40.6 76 41.4 76.1 42.1 76.4 C 42.5 76.5 42.8 76.8 43 77.1 C 43.1 77.5 43.2 77.9 43 78.3 C 42.9 78.7 42.6 79 42.3 79.1 C 41.9 79.3 41.5 79.3 41.1 79.2 C 40.7 79.1 40.3 79 39.9 79 C 39.4 79 39 79.1 38.5 79.2 Z " fill="#FFFFFF"></path><path d=" M 47.3 81 C 47.1 81.2 46.8 81.3 46.6 81.3 C 46.3 81.3 46.1 81.2 45.9 81 C 45.7 80.8 45.6 80.5 45.6 80.3 C 45.6 80 45.7 79.7 45.9 79.6 L 50.4 75 C 50.6 74.8 50.8 74.7 51.1 74.7 C 51.4 74.7 51.6 74.8 51.8 75 C 52 75.2 52.1 75.5 52.1 75.7 C 52.1 76 52 76.2 51.8 76.4 L 47.3 81 L 47.3 81 L 47.3 81 Z " fill="#FFFFFF"></path><path d=" M 80.3 76.4 L 75.8 81 C 75.6 81.2 75.3 81.3 75.1 81.3 C 74.8 81.3 74.5 81.2 74.4 81 C 74.2 80.8 74.1 80.5 74.1 80.3 C 74.1 80 74.2 79.7 74.4 79.6 L 78.9 75 C 79.1 74.8 79.3 74.7 79.6 74.7 C 79.9 74.7 80.1 74.8 80.3 75 C 80.5 75.2 80.6 75.5 80.6 75.7 C 80.6 76 80.5 76.2 80.3 76.4 Z " fill="#FFFFFF"></path><path d=" M 47.2 85.3 C 47 85.5 46.8 85.6 46.5 85.6 C 46.3 85.6 46 85.5 45.8 85.3 C 45.6 85.1 45.5 84.8 45.5 84.6 C 45.5 84.3 45.6 84.1 45.8 83.9 L 54.9 74.8 C 55.1 74.6 55.3 74.5 55.6 74.5 C 55.9 74.5 56.1 74.6 56.3 74.8 C 56.5 75 56.6 75.2 56.6 75.5 C 56.6 75.8 56.5 76 56.3 76.2 L 47.2 85.3 L 47.2 85.3 L 47.2 85.3 Z " fill="#FFFFFF"></path><path d=" M 75.7 85.3 C 75.5 85.5 75.3 85.6 75 85.6 C 74.7 85.6 74.5 85.5 74.3 85.3 C 74.1 85.1 74 84.8 74 84.6 C 74 84.3 74.1 84.1 74.3 83.9 L 83.4 74.8 C 83.6 74.6 83.8 74.5 84.1 74.5 C 84.4 74.5 84.6 74.6 84.8 74.8 C 85 75 85.1 75.2 85.1 75.5 C 85.1 75.8 85 76 84.8 76.2 L 75.7 85.3 L 75.7 85.3 L 75.7 85.3 Z " fill="#FFFFFF"></path><path d=" M 36.1 85.3 C 36.5 85.3 36.9 85.4 37.2 85.7 C 37.5 86 37.6 86.4 37.6 86.8 C 37.6 87.2 37.5 87.6 37.2 87.9 C 36.9 88.1 36.5 88.3 36.1 88.3 L 14.9 88.3 C 12.3 88.3 9.8 87.3 7.9 85.6 C 6 83.8 5 81.4 5 78.9 C 5 76.3 6 73.9 7.9 72.2 C 9.8 70.4 12.3 69.5 14.9 69.5 L 39.1 69.5 C 39.5 69.5 39.9 69.6 40.2 69.9 C 40.5 70.2 40.6 70.6 40.6 71 C 40.6 71.4 40.5 71.8 40.2 72 C 39.9 72.3 39.5 72.5 39.1 72.5 L 14.9 72.5 C 14.9 72.5 14.9 72.5 14.9 72.5 C 13.1 72.5 11.3 73.1 9.9 74.4 C 8.7 75.5 8 77.2 8 78.9 C 8 80.6 8.7 82.2 9.9 83.4 C 11.3 84.6 13.1 85.3 14.9 85.3 C 14.9 85.3 14.9 85.3 14.9 85.3 L 36.1 85.3 L 36.1 85.3 L 36.1 85.3 Z " fill="#FFFFFF"></path><path d=" M 68.1 9.1 L 14.5 9.1 C 12.7 9.1 11.1 9.8 9.9 11 C 8.6 12.2 8 13.9 8 15.6 L 8 78.9 C 8 79.3 7.8 79.7 7.5 79.9 C 7.2 80.2 6.9 80.4 6.5 80.4 C 6.1 80.4 5.7 80.2 5.4 79.9 C 5.1 79.7 5 79.3 5 78.9 L 5 15.6 C 5 13.1 6 10.7 7.7 8.9 C 9.5 7.1 11.9 6.1 14.5 6.1 L 68.6 6.1 C 69.2 6.1 69.9 6.4 70.3 6.9 C 70.8 7.3 71.1 8 71.1 8.6 L 71.1 64.1 C 71.1 64.5 70.9 64.9 70.6 65.2 C 70.3 65.5 70 65.6 69.6 65.6 C 69.2 65.6 68.8 65.5 68.5 65.2 C 68.2 64.9 68.1 64.5 68.1 64.1 L 68.1 9.1 L 68.1 9.1 L 68.1 9.1 Z " fill="#FFFFFF"></path><path d=" M 12 17 C 12 16.6 12.2 16.2 12.4 15.9 C 12.7 15.7 13.1 15.5 13.5 15.5 C 13.9 15.5 14.3 15.7 14.6 15.9 C 14.8 16.2 15 16.6 15 17 L 15 71 C 15 71.4 14.8 71.8 14.6 72 C 14.3 72.3 13.9 72.5 13.5 72.5 C 13.1 72.5 12.7 72.3 12.4 72 C 12.2 71.8 12 71.4 12 71 L 12 17 L 12 17 L 12 17 Z " fill="#FFFFFF"></path><path d=" M 26.5 8.3 L 26.5 21.4 L 28.2 19.6 C 28.7 19.2 29.3 18.9 30 18.9 C 30.7 18.9 31.3 19.2 31.8 19.6 L 33.5 21.4 L 33.5 8.3 C 33.5 7.9 33.7 7.5 33.9 7.2 C 34.2 7 34.6 6.8 35 6.8 C 35.4 6.8 35.8 7 36.1 7.2 C 36.3 7.5 36.5 7.9 36.5 8.3 L 36.5 23 C 36.5 23.5 36.4 24 36.2 24.5 C 35.8 25.1 35.2 25.6 34.4 25.6 C 34 25.6 33.6 25.4 33.3 25.2 C 33 25.1 32.8 24.9 32.5 24.7 L 30 22.1 L 27.5 24.7 C 27.3 24.9 27 25.1 26.7 25.2 C 26.4 25.4 26 25.6 25.6 25.6 C 24.9 25.6 24.2 25.1 23.8 24.5 C 23.6 24 23.5 23.5 23.5 23 L 23.5 8.3 C 23.5 7.9 23.7 7.5 23.9 7.2 C 24.2 7 24.6 6.8 25 6.8 C 25.4 6.8 25.8 7 26.1 7.2 C 26.3 7.5 26.5 7.9 26.5 8.3 Z " fill="#FFFFFF"></path></g></svg>