<svg fill="#FFFFFF" xmlns="http://www.w3.org/2000/svg" viewBox="0 0 1200 1200" version="1.1" x="0px" y="0px"><g><path fill="#FFFFFF" opacity="1.00" d=" M 205.31 42.50 C 209.41 41.22 213.78 41.89 218.00 41.76 C 489.65 41.75 761.31 41.78 1032.96 41.75 C 1039.04 41.40 1045.07 45.02 1047.48 50.63 C 1050.01 55.36 1049.36 60.84 1049.40 65.99 C 1049.40 422.32 1049.40 778.66 1049.40 1134.99 C 1049.64 1141.77 1044.72 1148.36 1038.07 1149.82 C 1033.44 1150.73 1028.70 1150.32 1024.03 1150.40 C 756.00 1150.40 487.97 1150.40 219.94 1150.40 C 215.32 1150.35 210.61 1150.75 206.09 1149.57 C 199.79 1147.86 195.06 1141.59 195.39 1135.03 C 195.42 778.03 195.39 421.03 195.40 64.03 C 195.55 59.55 194.54 54.79 196.53 50.58 C 198.17 46.82 201.44 43.85 205.31 42.50 M 225.19 71.69 C 225.20 421.27 225.22 770.85 225.18 1120.44 C 382.79 1120.35 540.40 1120.43 698.01 1120.40 C 805.17 1120.47 912.34 1120.26 1019.50 1120.50 C 1019.26 1024.01 1019.47 927.51 1019.40 831.02 C 1019.43 577.90 1019.35 324.77 1019.44 71.65 C 1009.62 71.79 999.79 71.68 989.97 71.72 C 735.05 71.70 480.12 71.75 225.19 71.69 Z"></path><path fill="#FFFFFF" opacity="1.00" d=" M 300.54 110.71 C 302.00 110.51 303.49 110.49 304.97 110.47 C 347.67 110.52 390.38 110.44 433.08 110.51 C 439.67 110.55 445.76 115.56 447.16 121.98 C 448.87 128.38 445.55 135.62 439.70 138.66 C 435.53 141.04 430.57 140.36 425.99 140.45 C 387.01 140.43 348.04 140.43 309.07 140.45 C 304.27 140.43 299.00 141.05 294.82 138.16 C 288.38 134.27 285.93 125.23 289.54 118.62 C 291.67 114.43 295.87 111.36 300.54 110.71 Z"></path><path fill="#FFFFFF" opacity="1.00" d=" M 272.14 180.12 C 274.76 175.64 279.83 172.77 285.02 172.86 C 508.67 172.83 732.32 172.85 955.97 172.85 C 961.94 172.60 967.76 176.33 970.09 181.82 C 972.88 187.89 970.89 195.63 965.57 199.64 C 963.06 201.78 959.75 202.43 956.61 203.02 C 956.58 261.35 956.60 319.68 956.60 378.01 C 956.84 383.35 954.26 388.77 949.66 391.60 C 946.27 393.95 941.92 393.57 938.24 395.18 C 934.03 396.95 929.39 396.25 924.97 396.36 C 884.66 396.36 844.35 396.35 804.04 396.36 C 799.85 396.49 795.51 395.40 792.39 392.49 C 787.31 388.07 785.91 380.11 789.19 374.23 C 791.62 369.62 796.62 366.41 801.88 366.39 C 843.46 366.41 885.05 366.39 926.64 366.41 C 926.65 311.87 926.65 257.33 926.64 202.80 C 725.49 202.80 524.35 202.79 323.20 202.80 C 323.19 259.09 323.21 315.39 323.19 371.68 C 439.45 371.70 555.70 371.66 671.96 371.70 C 680.10 371.42 687.29 378.87 686.96 386.96 C 686.96 394.82 679.92 401.83 672.02 401.63 C 561.69 401.65 451.36 401.63 341.03 401.64 C 332.61 401.47 324.17 401.99 315.78 401.37 C 311.43 400.59 306.84 402.15 302.68 400.28 C 296.98 398.10 293.03 392.17 293.24 386.06 C 293.24 324.97 293.25 263.88 293.24 202.79 C 287.71 202.68 281.56 203.72 276.73 200.32 C 270.16 196.18 267.98 186.69 272.14 180.12 Z"></path><path fill="#FFFFFF" opacity="1.00" d=" M 724.27 372.32 C 730.85 371.98 737.45 372.25 744.04 372.15 C 749.43 371.91 754.85 374.67 757.60 379.36 C 761.74 385.79 759.77 395.13 753.43 399.39 C 748.13 403.34 741.18 401.86 735.05 402.10 C 729.66 401.86 723.76 403.08 718.91 400.11 C 712.76 396.74 709.83 388.75 712.25 382.18 C 714.01 377.00 718.82 372.98 724.27 372.32 Z"></path><path fill="#FFFFFF" opacity="1.00" d=" M 826.29 483.36 C 862.50 483.11 898.73 483.27 934.95 483.28 C 943.56 483.36 949.79 491.71 949.79 499.87 C 949.82 595.25 949.78 690.64 949.81 786.02 C 950.13 792.19 946.45 798.27 940.76 800.73 C 936.19 803.16 930.89 802.57 925.91 802.60 C 895.27 802.60 864.62 802.58 833.98 802.61 C 829.66 802.56 825.03 803.06 821.11 800.87 C 816.02 798.29 812.85 792.67 813.02 787.01 C 812.96 692.66 813.03 598.31 812.99 503.97 C 813.05 499.82 812.48 495.37 814.52 491.57 C 816.70 487.07 821.29 483.80 826.29 483.36 M 843.00 513.20 C 843.00 599.67 842.99 686.14 843.01 772.60 C 868.62 772.63 894.22 772.53 919.83 772.66 C 919.79 686.15 919.75 599.64 919.86 513.13 C 894.24 513.29 868.62 513.16 843.00 513.20 Z"></path><path fill="#FFFFFF" opacity="1.00" d=" M 644.40 488.60 C 646.21 488.06 648.11 488.00 650.00 487.98 C 688.36 488.06 726.73 487.93 765.09 488.04 C 773.43 487.97 780.13 495.84 779.79 503.97 C 779.79 537.65 779.85 571.33 779.76 605.01 C 779.44 610.78 775.20 615.98 769.75 617.76 C 765.01 619.45 759.91 618.93 754.99 618.99 C 720.29 618.98 685.60 618.99 650.92 618.99 C 641.82 619.45 633.45 611.08 633.80 602.01 C 633.81 569.02 633.78 536.02 633.81 503.03 C 633.62 496.55 638.20 490.40 644.40 488.60 M 663.80 517.95 C 663.80 541.64 663.80 565.32 663.80 589.00 C 692.53 589.00 721.27 589.00 750.00 589.00 C 750.00 565.32 750.00 541.64 750.00 517.96 C 721.27 517.95 692.53 517.96 663.80 517.95 Z"></path><path fill="#FFFFFF" opacity="1.00" d=" M 305.40 489.60 C 308.52 488.74 311.79 489.02 314.99 488.98 C 352.04 489.05 389.08 488.94 426.12 489.04 C 434.04 489.01 440.68 496.19 440.74 503.98 C 440.90 537.33 440.72 570.68 440.83 604.03 C 441.14 609.41 438.24 614.78 433.57 617.48 C 429.78 619.69 425.28 620.08 420.98 620.02 C 384.62 619.95 348.25 620.01 311.89 619.99 C 302.81 620.44 294.46 612.08 294.80 603.02 C 294.79 572.03 294.82 541.03 294.79 510.03 C 294.82 506.70 294.55 503.32 295.29 500.05 C 296.57 495.13 300.54 491.06 305.40 489.60 M 324.80 518.95 C 324.80 542.63 324.80 566.32 324.80 590.00 C 353.53 590.00 382.27 590.00 411.00 590.00 C 411.00 566.32 411.00 542.64 411.00 518.96 C 382.27 518.95 353.53 518.96 324.80 518.95 Z"></path><path fill="#FFFFFF" opacity="1.00" d=" M 475.45 490.58 C 478.87 489.68 482.46 490.04 485.97 489.99 C 522.33 490.01 558.69 490.00 595.05 489.99 C 600.97 489.72 606.84 493.27 609.24 498.71 C 611.32 503.19 610.74 508.24 610.81 513.03 C 610.79 544.02 610.80 575.01 610.80 605.99 C 610.87 611.60 607.25 616.96 602.15 619.21 C 598.97 620.65 595.45 621.02 592.00 621.01 C 554.97 620.94 517.93 621.06 480.90 620.95 C 474.48 621.00 468.88 616.45 466.15 610.90 C 464.43 607.19 464.82 602.99 464.78 599.02 C 464.83 567.69 464.77 536.36 464.81 505.02 C 464.62 498.52 469.23 492.38 475.45 490.58 M 494.80 519.95 C 494.80 543.64 494.80 567.32 494.80 591.00 C 523.53 591.00 552.27 591.00 581.00 591.00 C 581.00 567.32 581.00 543.64 581.00 519.96 C 552.27 519.95 523.53 519.96 494.80 519.95 Z"></path><path fill="#FFFFFF" opacity="1.00" d=" M 648.43 686.59 C 651.87 685.67 655.46 686.04 658.98 685.99 C 693.33 686.01 727.68 686.00 762.03 685.99 C 766.72 686.06 771.82 685.38 776.03 687.94 C 781.04 690.66 783.80 696.35 783.79 701.93 C 783.82 735.29 783.79 768.66 783.80 802.02 C 783.83 806.13 781.91 810.14 778.83 812.83 C 775.10 816.18 769.86 817.06 765.01 817.01 C 728.33 816.97 691.64 817.00 654.96 816.99 C 645.85 817.47 637.45 809.10 637.80 800.01 C 637.79 768.67 637.82 737.32 637.78 705.97 C 637.82 702.30 637.45 698.43 639.01 694.99 C 640.72 690.98 644.26 687.84 648.43 686.59 M 667.80 715.95 C 667.80 739.63 667.80 763.32 667.80 787.00 C 696.53 787.00 725.27 787.00 754.00 787.00 C 754.00 763.32 754.00 739.64 754.00 715.96 C 725.27 715.95 696.53 715.96 667.80 715.95 Z"></path><path fill="#FFFFFF" opacity="1.00" d=" M 309.37 687.61 C 311.19 687.06 313.11 687.00 315.00 686.98 C 353.36 687.06 391.72 686.93 430.08 687.04 C 438.02 686.98 444.69 694.18 444.74 701.99 C 444.90 735.34 444.72 768.69 444.82 802.04 C 445.02 806.24 443.40 810.47 440.34 813.37 C 436.85 816.81 431.77 817.97 427.01 817.99 C 389.98 817.99 352.95 817.99 315.92 817.99 C 309.43 818.36 303.54 814.18 300.53 808.65 C 298.39 804.80 298.82 800.24 298.78 796.01 C 298.83 764.66 298.77 733.32 298.81 701.98 C 298.64 695.52 303.21 689.42 309.37 687.61 M 328.80 716.95 C 328.80 740.63 328.80 764.32 328.80 788.00 C 357.53 788.00 386.27 788.00 415.00 788.00 C 415.00 764.32 415.00 740.64 415.00 716.96 C 386.27 716.95 357.53 716.96 328.80 716.95 Z"></path><path fill="#FFFFFF" opacity="1.00" d=" M 479.38 688.60 C 481.18 688.06 483.08 688.00 484.95 687.98 C 522.98 688.03 561.01 687.99 599.04 688.00 C 604.72 687.74 610.36 690.96 612.93 696.05 C 614.69 699.39 614.88 703.26 614.83 706.97 C 614.73 739.64 614.88 772.31 614.76 804.98 C 614.41 813.40 606.06 819.20 598.07 818.95 C 560.69 819.04 523.30 818.96 485.91 818.99 C 476.83 819.45 468.46 811.09 468.80 802.02 C 468.81 769.01 468.78 735.99 468.81 702.97 C 468.64 696.51 473.22 690.41 479.38 688.60 M 498.80 717.95 C 498.80 741.63 498.80 765.32 498.80 789.00 C 527.53 789.00 556.27 789.00 585.00 789.00 C 585.00 765.32 585.00 741.64 585.00 717.96 C 556.27 717.95 527.53 717.96 498.80 717.95 Z"></path><path fill="#FFFFFF" opacity="1.00" d=" M 822.40 840.63 C 826.11 839.31 830.11 839.73 833.98 839.67 C 868.00 839.70 902.03 839.68 936.05 839.68 C 943.23 839.34 949.43 844.84 951.79 851.30 C 952.95 855.08 952.55 859.08 952.61 862.98 C 952.58 913.01 952.63 963.03 952.58 1013.05 C 952.94 1021.97 944.59 1029.48 935.92 1029.39 C 900.62 1029.42 865.32 1029.38 830.02 1029.41 C 823.56 1029.50 816.89 1025.80 814.17 1019.82 C 812.27 1015.81 812.87 1011.26 812.79 1006.98 C 812.79 956.00 812.83 905.01 812.77 854.03 C 812.80 848.12 816.92 842.66 822.40 840.63 M 842.76 869.62 C 842.82 912.88 842.83 956.15 842.76 999.42 C 869.39 999.42 896.02 999.32 922.64 999.47 C 922.57 956.17 922.58 912.87 922.63 869.57 C 896.01 869.71 869.39 869.62 842.76 869.62 Z"></path><path fill="#FFFFFF" opacity="1.00" d=" M 651.40 900.60 C 654.54 899.73 657.84 900.02 661.07 899.98 C 698.07 900.05 735.07 899.94 772.06 900.04 C 780.00 899.97 786.68 907.17 786.74 914.98 C 786.90 948.33 786.72 981.69 786.83 1015.05 C 786.99 1018.98 785.61 1022.98 782.86 1025.83 C 779.39 1029.65 774.03 1030.97 769.04 1030.99 C 732.01 1030.99 694.98 1030.99 657.95 1030.99 C 648.86 1031.47 640.47 1023.11 640.80 1014.04 C 640.79 982.68 640.83 951.32 640.78 919.97 C 640.83 916.29 640.45 912.42 642.01 908.99 C 643.72 905.00 647.24 901.85 651.40 900.60 M 670.80 929.95 C 670.80 953.63 670.80 977.32 670.80 1001.00 C 699.53 1001.00 728.27 1001.00 757.00 1001.00 C 757.00 977.32 757.00 953.64 757.00 929.96 C 728.27 929.95 699.53 929.96 670.80 929.95 Z"></path><path fill="#FFFFFF" opacity="1.00" d=" M 312.37 901.60 C 315.51 900.74 318.81 901.01 322.04 900.98 C 359.06 901.05 396.08 900.94 433.10 901.04 C 441.40 900.97 448.09 908.78 447.78 916.89 C 447.83 950.28 447.79 983.67 447.80 1017.06 C 447.86 1022.90 443.89 1028.43 438.46 1030.50 C 433.55 1032.48 428.16 1031.94 422.99 1031.99 C 390.00 1032.00 357.00 1031.97 324.01 1032.01 C 319.36 1031.98 314.30 1032.43 310.21 1029.77 C 306.88 1027.56 304.00 1024.42 302.63 1020.62 C 301.44 1016.85 301.84 1012.85 301.79 1008.97 C 301.82 977.98 301.77 946.98 301.81 915.99 C 301.64 909.53 306.21 903.42 312.37 901.60 M 331.80 930.95 C 331.80 954.63 331.80 978.32 331.80 1002.00 C 360.53 1002.00 389.27 1002.00 418.00 1002.00 C 418.00 978.32 418.00 954.64 418.00 930.96 C 389.27 930.95 360.53 930.96 331.80 930.95 Z"></path><path fill="#FFFFFF" opacity="1.00" d=" M 482.43 902.59 C 485.88 901.67 489.49 902.04 493.03 901.99 C 527.35 902.01 561.67 902.00 595.99 901.99 C 600.68 902.07 605.79 901.37 610.01 903.93 C 615.00 906.62 617.79 912.28 617.78 917.85 C 617.75 951.81 617.93 985.77 617.70 1019.72 C 617.08 1025.22 612.95 1030.08 607.71 1031.78 C 602.98 1033.45 597.89 1032.93 592.97 1032.99 C 558.30 1032.98 523.62 1032.99 488.95 1032.99 C 481.95 1033.39 475.60 1028.53 472.89 1022.30 C 471.36 1018.37 471.86 1014.07 471.79 1009.97 C 471.81 981.32 471.80 952.67 471.80 924.03 C 471.82 920.69 471.58 917.33 472.09 914.03 C 473.03 908.67 477.24 904.13 482.43 902.59 M 501.80 931.95 C 501.80 955.63 501.80 979.32 501.80 1003.00 C 530.53 1003.00 559.27 1003.00 588.00 1003.00 C 588.00 979.32 588.00 955.64 588.00 931.96 C 559.27 931.95 530.53 931.96 501.80 931.95 Z"></path></g></svg>