<svg fill="#FFFFFF" xmlns="http://www.w3.org/2000/svg" viewBox="0 0 64 64" x="0px" y="0px"><title>customer service-call center</title><g><path d="M52,60V45a3,3,0,0,0-3-3H48V36h3a3,3,0,0,0,3-3V31.816A3,3,0,0,0,56,29V25a2.994,2.994,0,0,0-2.083-2.842,21.994,21.994,0,0,0-43.9,1.019A3,3,0,0,0,8,26v4a3,3,0,0,0,3,3h2a3,3,0,0,0,3-3V42H15a3,3,0,0,0-3,3V60H2v2H62V60ZM46,42H38.619A12.048,12.048,0,0,0,43.3,36H46ZM42,32a10,10,0,0,1-.2,2H38v2h3.159A10,10,0,0,1,22,32V22H42Zm9,2H48V29a3,3,0,0,0,3,3h1v1A1,1,0,0,1,51,34Zm3-5a1,1,0,0,1-1,1H51a1,1,0,0,1-1-1V25a1,1,0,0,1,1-1h2a1,1,0,0,1,1,1ZM14,30a1,1,0,0,1-1,1H11a1,1,0,0,1-1-1V26a1,1,0,0,1,1-1h2a1,1,0,0,1,1,1Zm-1-7h-.949A19.986,19.986,0,0,1,51.9,22H51a3,3,0,0,0-3,3,16,16,0,0,0-32,0v1A3,3,0,0,0,13,23Zm5,2a14,14,0,0,1,28,0v9H43.819A11.982,11.982,0,0,0,44,32V20H20V32a12,12,0,0,0,5.381,10H18ZM14,60V45a1,1,0,0,1,1-1H49a1,1,0,0,1,1,1V60Z"></path><path d="M26,27a1,1,0,0,1,2,0v1h2V27a3,3,0,0,0-6,0v1h2Z"></path><path d="M36,27a1,1,0,0,1,2,0v1h2V27a3,3,0,0,0-6,0v1h2Z"></path><path d="M28,34a4,4,0,0,0,8,0V32H28Zm6,0a2,2,0,0,1-4,0Z"></path><polygon points="46 56 42 56 42 58 48 58 48 50 46 50 46 56"></polygon><rect x="38" y="56" width="2" height="2"></rect><rect x="30" y="46" width="4" height="2"></rect></g></svg>