<svg fill="#FFFFFF" xmlns="http://www.w3.org/2000/svg" xmlns:xlink="http://www.w3.org/1999/xlink" version="1.1" x="0px" y="0px" viewBox="0 0 70 70" enable-background="new 0 0 70 70" xml:space="preserve"><g><path d="M59.5,39c-1.5-1.5-4.1-1.5-5.7,0l-7.5,7.5c-0.5-1.7-2-3-3.9-3h-16c-1.6,0-3.1,0.6-4.2,1.8l-4.5,4.5l1.4,1.4l4.5-4.5   c0.8-0.8,1.8-1.2,2.8-1.2h16c1.1,0,2,0.9,2,2c0,0.6-0.2,1.1-0.6,1.4l0,0c-0.4,0.4-0.9,0.6-1.4,0.6H35v2h7.5c1.1,0,2-0.4,2.8-1.1   l0,0l10-10c0.8-0.8,2.1-0.8,2.8,0c0.4,0.4,0.6,0.9,0.6,1.4s-0.2,1-0.6,1.4L45.4,55.9c-1.3,1.3-3.1,2.1-4.9,2.1h-17v2h17   c2.4,0,4.7-0.9,6.4-2.6l12.7-12.7c0.8-0.8,1.2-1.8,1.2-2.8S60.3,39.7,59.5,39z"></path><path d="M17.3,23.5c-0.8,1.1-1,2.5-0.6,3.9c0.4,1.3,1.5,2.3,2.8,2.8l0.9,0.3c1,0.3,1.6,1.2,1.6,2.2l0,0.9c0,1.4,0.7,2.7,1.8,3.5   c1.1,0.8,2.5,1,3.9,0.6l0.9-0.3c0.9-0.3,2,0,2.6,0.8l0.5,0.7c0.8,1.1,2.1,1.8,3.5,1.8s2.7-0.7,3.5-1.8l0.5-0.7   c0.6-0.8,1.6-1.1,2.6-0.8l0.9,0.3c1.3,0.4,2.7,0.2,3.9-0.6c1.1-0.8,1.8-2.1,1.8-3.5l0-0.9c0-1,0.6-1.9,1.6-2.2l0.9-0.3   c1.3-0.4,2.3-1.5,2.8-2.8c0.4-1.3,0.2-2.7-0.6-3.9l-0.5-0.7c-0.6-0.8-0.6-1.9,0-2.7l0.5-0.7c0.8-1.1,1-2.5,0.6-3.9   c-0.4-1.3-1.5-2.3-2.8-2.8l-0.9-0.3c-1-0.3-1.6-1.2-1.6-2.2l0-0.9c0-1.4-0.7-2.7-1.8-3.5c-1.1-0.8-2.6-1-3.9-0.6l-0.9,0.3   c-0.9,0.3-2,0-2.6-0.8L38.5,4c-0.8-1.1-2.1-1.8-3.5-1.8S32.3,2.9,31.5,4L31,4.7c-0.6,0.8-1.6,1.1-2.6,0.8l-0.9-0.3   c-1.3-0.4-2.7-0.2-3.9,0.6S21.9,8,21.9,9.4l0,0.9c0,1-0.6,1.9-1.6,2.2l-0.9,0.3c-1.3,0.4-2.3,1.5-2.8,2.8c-0.4,1.3-0.2,2.7,0.6,3.9   l0.5,0.7c0.6,0.8,0.6,1.9,0,2.7L17.3,23.5z M19.5,18.9l-0.5-0.7c-0.4-0.6-0.6-1.4-0.3-2.1c0.2-0.7,0.8-1.2,1.5-1.5l0.9-0.3   c1.8-0.6,3-2.2,3-4.1l0-0.9c0-0.7,0.4-1.4,0.9-1.9c0.6-0.4,1.4-0.6,2.1-0.3l0.9,0.3c1.8,0.6,3.7,0,4.8-1.6l0.5-0.7v0   c0.4-0.6,1.1-0.9,1.9-0.9s1.4,0.4,1.9,0.9l0.5,0.7c1.1,1.5,3,2.1,4.8,1.6l0.9-0.3c0.7-0.2,1.5-0.1,2.1,0.3s0.9,1.1,0.9,1.9l0,0.9   c0,1.9,1.2,3.5,3,4.1l0.9,0.3c0.7,0.2,1.2,0.8,1.5,1.5c0.2,0.7,0.1,1.5-0.3,2.1l-0.5,0.7c-1.1,1.5-1.1,3.5,0,5.1l0.5,0.7   c0.4,0.6,0.6,1.4,0.3,2.1c-0.2,0.7-0.8,1.2-1.5,1.5L49,28.5c-1.8,0.6-3,2.2-3,4.1l0,0.9c0,0.7-0.4,1.4-0.9,1.9   c-0.6,0.4-1.4,0.6-2.1,0.3l-0.9-0.3c-1.8-0.6-3.7,0-4.8,1.6l-0.5,0.7c-0.4,0.6-1.1,0.9-1.9,0.9s-1.4-0.4-1.9-0.9L32.6,37   c-0.8-1.1-2.1-1.8-3.5-1.8c-0.4,0-0.9,0.1-1.3,0.2l-0.9,0.3c-0.7,0.2-1.5,0.1-2.1-0.3c-0.6-0.4-0.9-1.1-0.9-1.9l0-0.9   c0-1.9-1.2-3.5-3-4.1l-0.9-0.3c-0.7-0.2-1.2-0.8-1.5-1.5c-0.2-0.7-0.1-1.5,0.3-2.1l0.5-0.7C20.6,22.5,20.6,20.4,19.5,18.9z"></path><path d="M15.9,50.3c-0.9-1.4-2.8-1.8-4.2-0.9l-4.2,2.7l10.4,15.9l4.2-2.7c1.4-0.9,1.8-2.8,0.9-4.2L15.9,50.3z M21.1,63.7l-2.5,1.6   l-8.2-12.6l2.5-1.6c0.2-0.1,0.5-0.2,0.8-0.1c0.3,0.1,0.5,0.2,0.6,0.4l7.1,10.9C21.6,62.8,21.5,63.4,21.1,63.7z"></path><path d="M31,30.5h2v-4h5v-2h-5v-2h4c2.8,0,5-2.2,5-5s-2.2-5-5-5h-6v12h-2v2h2V30.5z M33,14.5h4c1.7,0,3,1.3,3,3s-1.3,3-3,3h-4V14.5   z"></path></g></svg>