<svg id="Слой_1" data-name="Слой 1" xmlns="http://www.w3.org/2000/svg" xmlns:xlink="http://www.w3.org/1999/xlink" viewBox="0 0 59 60"><defs><style>.cls-1{fill:none;}.cls-2{clip-path:url(#clip-path);}.cls-3{fill:#fff;}</style><clipPath id="clip-path"><rect class="cls-1" width="59" height="60"/></clipPath></defs><title>planet</title><g class="cls-2"><path class="cls-3" d="M28.8,28.4H26.9l-1.5-.9-.4-1,1.7-.4a2.12,2.12,0,0,0,.7-.3l3.8-2.6a2,2,0,0,0,.9-1.7V20.4a2.1,2.1,0,0,0-.5-1.3l-1.4-1.5c-.2-.2-.3-.4-.5-.5l-2.2-1.6c-.1-.1-.2-.3-.3-.4l-.4-.8a2,2,0,0,0-2.4-1l-2.1.7-3.8.5H15.7l-3.8-.8a2.57,2.57,0,0,0-1.5.1l-2,.7a1.94,1.94,0,0,0-1.3,2.3l.4,1.9A2.76,2.76,0,0,0,8.6,20l1.3.6a2,2,0,0,0,1.5.1l2.2-.7,1.3.6.7,2.2a2.4,2.4,0,0,0,.7,1.2l6.6,6.4.9,1.9,1.8,2.8-1,4.8.8,4.9a2.57,2.57,0,0,0,2.5,2.1,2.63,2.63,0,0,0,2.6-2.5V42.2l1.1-1.8,3.6-6.2V31.3L32.9,30ZM17.7,22.6a.76.76,0,0,1-.2-.4L16.8,20a1.76,1.76,0,0,0-1-1.2l-1.3-.6a2.92,2.92,0,0,0-.9-.2,2,2,0,0,0-.7.1l-2.2.7-1.2-.6-.4-1.9,2-.7h.5l3.9.8h3.2l4.1-.5,2.4-.8.4.8a3.13,3.13,0,0,0,.9,1.1l2,1.7c.1,0,.2,0,.2.1l1.4,1.5v1.1L26.3,24a.35.35,0,0,1-.2.1l-1.7.6a2.16,2.16,0,0,0-1.2,1.1,2.21,2.21,0,0,0,0,1.6l.6,1.3ZM33.2,33.7l-3.3,5.7-1.4,2.2v2.8a.47.47,0,0,1-.5.5.46.46,0,0,1-.5-.4l-.8-4.6,1-5.2-2.2-3.3-1-2.1-.2-.2,2.1,1.3h2.1L32,31.8l1.2.8Z"/><path class="cls-3" d="M38.3,18.5l.2-.2V18a3.66,3.66,0,0,1,1.9-2.9l.7-.8.8-2.1a2.2,2.2,0,0,0-.6-2.2l-.9-.8a3.73,3.73,0,0,0-2-.7H35.1l-4.4.4A1.84,1.84,0,0,0,29,10.1l-.5,1.3a1.89,1.89,0,0,0,.5,2.2l1.5,1.3,2,1.1L34,18.5a2,2,0,0,0,1.7.9h.9a2,2,0,0,0,1.7-.9m-2.5-.9-1.6-2.5a2.34,2.34,0,0,0-.7-.7l-1.7-1-1.3-1,.5-1.3,4.3-.4h3.2a.84.84,0,0,1,.7.2l.9.8-.6,1.7-.3.4a5.89,5.89,0,0,0-2.6,3.8Z"/><path class="cls-3" d="M17.6,11.9c.2,0,.3,0,.4.1l4.8-1,.2-.4A3.19,3.19,0,0,0,23.5,8a1.44,1.44,0,0,0-1.1-.9A12.13,12.13,0,0,1,21,6.6,6.74,6.74,0,0,0,19.3,6a2.93,2.93,0,0,0-2.9,1.3,2.59,2.59,0,0,0-.6,3.5,2.11,2.11,0,0,0,1.8,1.1m.2-3.1.1-.1.1-.1c.2-.2.6-.6.9-.6a9.83,9.83,0,0,1,1.6.5c.4.1.8.3,1.2.4a.35.35,0,0,0-.1.2l-3.9.8c-.4-.8-.1-1,.1-1.1"/><path class="cls-3" d="M53,26H52A26,26,0,1,0,26,52a24,24,0,0,0,6-.7V54a6,6,0,0,0,6,6h2a6,6,0,0,0,6-6V42.6A20.24,20.24,0,0,0,49,38h4a6,6,0,0,0,0-12M32,42v7.3A24,24,0,1,1,26,2,24.07,24.07,0,0,1,50,26a24.32,24.32,0,0,1-2.2,10H42a4,4,0,0,0-4,4v2Zm6,6H34V44h4Zm6,6a4,4,0,0,1-4,4H38a4,4,0,0,1-4-4V50H44Zm0-6H40V44h4Zm-.1-6H40V40a2,2,0,0,1,2-2h4.8a29.18,29.18,0,0,1-2.9,4M53,36H50a26.74,26.74,0,0,0,1.9-8H53a4,4,0,0,1,0,8"/></g></svg>