<svg fill="#FFFFFF" xmlns="http://www.w3.org/2000/svg" xmlns:xlink="http://www.w3.org/1999/xlink" version="1.1" x="0px" y="0px" viewBox="0 0 100 100" enable-background="new 0 0 100 100" xml:space="preserve"><g><path d="M23.961,31.499c-0.214,0.718-0.325,1.468-0.325,2.222c0,3.792,2.741,6.938,6.318,7.531   c3.083,8.101,10.909,13.883,20.079,13.883c9.248,0,16.916-5.695,19.891-13.869c3.62-0.555,6.408-3.722,6.408-7.545   c0-0.754-0.11-1.504-0.325-2.222c2.102-1.371,3.438-3.771,3.438-6.362c0-2.036-0.811-3.967-2.217-5.374   c0.299-0.782,0.454-1.617,0.454-2.467c0-3.673-2.876-6.677-6.466-6.82c-0.758-2.941-3.376-5.07-6.513-5.07   c-1.054,0-2.04,0.27-2.929,0.709C58.409,3.833,54.37,2.5,50.031,2.5c-4.385,0-8.463,1.33-11.867,3.601   c-0.882-0.432-1.858-0.695-2.901-0.695c-3.137,0-5.754,2.129-6.513,5.07c-3.589,0.144-6.465,3.148-6.465,6.82   c0,0.85,0.155,1.685,0.454,2.467c-1.406,1.407-2.217,3.338-2.217,5.374C20.523,27.729,21.859,30.128,23.961,31.499z M50.031,52.135   c-2.71,0-5.278-0.601-7.6-1.652v-6.062c0-2.669,2.547-4.84,5.677-4.84h3.497c3.13,0,5.677,2.171,5.677,4.84v6.244   c-2.212,0.945-4.658,1.47-7.25,1.47H50.031z M64.703,8.405c2.032,0,3.673,1.629,3.733,3.709c0.013,0.442,0.221,0.856,0.566,1.131   c0.347,0.275,0.795,0.385,1.23,0.295c0.231-0.047,0.471-0.07,0.713-0.07c2.061,0,3.735,1.717,3.735,3.826   c0,0.732-0.203,1.445-0.587,2.06c-0.424,0.676-0.242,1.565,0.41,2.023c1.215,0.851,1.939,2.256,1.939,3.758   c0,1.884-1.157,3.596-2.879,4.261c-0.401,0.154-0.717,0.474-0.866,0.876s-0.12,0.851,0.082,1.229   c0.36,0.676,0.551,1.442,0.551,2.218c0,1.787-0.999,3.326-2.453,4.094c0.249-1.335,0.389-2.714,0.389-4.133v-9.581   c0-6.175-2.564-11.748-6.662-15.688C64.639,8.411,64.67,8.405,64.703,8.405z M50.033,5.5c10.054,0,18.235,8.344,18.235,18.601   v9.581c0,6.473-3.135,12.068-7.985,15.352v-4.612c0-4.323-3.893-7.84-8.677-7.84h-3.497c-4.785,0-8.677,3.517-8.677,7.84v4.352   c-4.767-3.349-7.896-8.878-7.896-15.134v-9.574C31.535,13.828,39.833,5.5,50.033,5.5z M25.462,21.378   c0.653-0.458,0.833-1.347,0.41-2.022c-0.384-0.614-0.586-1.326-0.586-2.06c0-2.109,1.675-3.826,3.735-3.826   c0.242,0,0.481,0.023,0.712,0.07c0.432,0.088,0.883-0.02,1.23-0.295c0.347-0.274,0.554-0.688,0.567-1.131   c0.061-2.08,1.7-3.709,3.732-3.709c0.01,0,0.021,0.002,0.031,0.002c-4.151,3.935-6.759,9.49-6.759,15.657v9.574   c0,1.398,0.145,2.762,0.401,4.087c-1.369-0.794-2.3-2.282-2.3-4.005c0-0.776,0.19-1.543,0.55-2.218   c0.202-0.379,0.232-0.827,0.082-1.229s-0.465-0.722-0.866-0.876c-1.722-0.665-2.879-2.377-2.879-4.261   C23.523,23.635,24.248,22.229,25.462,21.378z"></path><path d="M35.201,26.972c0,3.277,2.667,5.944,5.944,5.944c3.099,0,5.648-2.386,5.917-5.416h5.941   c0.269,3.03,2.818,5.416,5.917,5.416c3.278,0,5.944-2.667,5.944-5.944s-2.666-5.943-5.944-5.943c-2.538,0-4.704,1.603-5.555,3.847   V24.5h-6.822c-0.94-2.045-3.004-3.472-5.398-3.472C37.867,21.028,35.201,23.694,35.201,26.972z M58.92,24.028   c1.624,0,2.944,1.32,2.944,2.943c0,1.624-1.32,2.944-2.944,2.944c-1.623,0-2.944-1.32-2.944-2.944   C55.976,25.349,57.297,24.028,58.92,24.028z M41.145,24.028c1.623,0,2.944,1.32,2.944,2.943c0,1.624-1.321,2.944-2.944,2.944   s-2.944-1.32-2.944-2.944C38.201,25.349,39.521,24.028,41.145,24.028z"></path><rect x="48.336" y="41.553" transform="matrix(-0.0023 -1 1 -0.0023 4.9411 94.9464)" width="3" height="6.91"></rect><path d="M50.559,71.843c-3.098,0-5.619,2.521-5.619,5.62s2.521,5.619,5.619,5.619s5.62-2.521,5.62-5.619   S53.657,71.843,50.559,71.843z M50.559,80.082c-1.444,0-2.619-1.175-2.619-2.619s1.175-2.62,2.619-2.62   c1.444,0,2.62,1.176,2.62,2.62S52.003,80.082,50.559,80.082z"></path><path d="M82.799,65.645l0.476-3.375c0.178-1.255-0.168-2.424-1-3.383c-0.831-0.956-1.94-1.461-3.207-1.461H68.007l-4.531-2.518   l-1.398,2.518H39.045l0.037-0.02l-1.42-2.643l-4.956,2.662H22.052c-1.267,0-2.376,0.505-3.209,1.462   c-0.831,0.958-1.176,2.127-1,3.382l0.412,2.918l-7.634,4.101v13.117h3V71.082l5.081-2.729l2.527,17.908h-0.732   c-0.998,0-1.854,0.085-2.543,0.253c-0.38,0.092-1.389,0.337-1.747,1.257c-0.194,0.5-0.13,1.068,0.173,1.521l4.699,7.018   c0.218,0.325,0.798,1.189,4.118,1.189h1.312h48.105h1.311c3.319,0,3.899-0.864,4.119-1.19l4.697-7.018   c0.303-0.452,0.368-1.021,0.174-1.521c-0.358-0.92-1.368-1.165-1.748-1.258c-0.689-0.167-1.545-0.252-2.544-0.252H79.89   l2.46-17.434l4.029,2.239v11.338h3V69.302L82.799,65.645z M19.975,89.271c0.16-0.006,0.333-0.01,0.521-0.01h1.155l0.45,3.186   L19.975,89.271z M80.621,89.262c0.188,0,0.362,0.004,0.522,0.01l-2.127,3.176l0.449-3.186H80.621z M80.304,61.85l-4.455,31.575   c-0.088,0.623-0.607,1.075-1.236,1.075H26.507c-0.629,0-1.15-0.452-1.238-1.076l-4.455-31.573   c-0.054-0.386,0.039-0.702,0.293-0.995c0.255-0.293,0.556-0.43,0.945-0.43h57.016c0.389,0,0.688,0.137,0.942,0.429   C80.265,61.148,80.358,61.465,80.304,61.85z"></path></g></svg>