<?xml version="1.0"?>
<svg xmlns="http://www.w3.org/2000/svg" height="512px" viewBox="0 0 480 480.00859" width="512px"><path d="m102.003906 382.167969c1.441406 1.191406 3.25 1.84375 5.121094 1.839843h265.757812c1.871094.003907 3.683594-.648437 5.121094-1.839843 70.011719-58.144531 96.070313-153.929688 65.160156-239.527344-30.910156-85.597656-112.152343-142.640625-203.160156-142.640625-91.007812 0-172.25 57.042969-203.160156 142.640625s-4.851562 181.382813 65.160156 239.527344zm194-262.160157c8.601563.398438 16.976563-2.84375 23.066406-8.933593 6.089844-6.089844 9.332032-14.460938 8.933594-23.066407 0-4.417968 3.582032-8 8-8 4.417969 0 8 3.582032 8 8-.398437 8.605469 2.84375 16.976563 8.933594 23.066407 6.089844 6.089843 14.464844 9.332031 23.066406 8.933593 4.417969 0 8 3.582032 8 8 0 4.417969-3.582031 8-8 8-8.601562-.398437-16.976562 2.84375-23.066406 8.933594s-9.332031 14.464844-8.933594 23.066406c0 4.417969-3.582031 8-8 8-4.417968 0-8-3.582031-8-8 .398438-8.601562-2.84375-16.976562-8.933594-23.066406-6.089843-6.089844-14.464843-9.332031-23.066406-8.933594-4.417968 0-8-3.582031-8-8 0-4.417968 3.582032-8 8-8zm-24 88h16v-16h16v16h16v16h-16v16h-16v-16h-16zm-32-160v16c-69.320312-.011718-129.871094 46.878907-147.199218 114l-15.488282-4c19.152344-74.183593 86.070313-126.007812 162.6875-126zm-166.113281 142.808594 15.816406 2.398438c-1.132812 7.546875-1.699219 15.164062-1.703125 22.792968h-16c.003906-8.433593.632813-16.851562 1.886719-25.191406zm0 0" fill="#ffffff"/><path d="m88.003906 400.007812c-17.671875 0-32 14.328126-32 32h368c0-17.671874-14.328125-32-32-32zm0 0" fill="#ffffff"/><path d="m456.003906 448.007812h-432c-13.253906 0-23.99999975 10.746094-23.99999975 24 0 4.417969 3.58203175 8 7.99999975 8h464c4.417969 0 8-3.582031 8-8 0-13.253906-10.746094-24-24-24zm0 0" fill="#ffffff"/></svg>
