<?xml version="1.0"?>
<svg xmlns="http://www.w3.org/2000/svg" height="512px" viewBox="0 -31 512 512" width="512px"><path d="m0 375c0 41.351562 34.648438 75 76 75s75-33.648438 75-75c0-36.214844-25.808594-66.511719-60-73.480469v-211.519531h60v211.75c18.5 18.9375 30 44.753906 30 73.25 0 28.5625-11.535156 54.433594-30.109375 73.382812 4.9375 1.015626 9.988281 1.617188 15.109375 1.617188 47.261719 0 82.984375-43.132812 73.433594-90.496094-5.714844-28.289062-28.449219-51.445312-56.558594-57.644531-.628906-.136719-1.246094-.042969-1.875-.164063v-211.695312h60v211.550781c13.878906 14.175781 23.839844 32.199219 27.832031 52.019531 6.34375 31.375-1.523437 63.410157-21.546875 87.890626-2.097656 2.566406-4.699218 4.523437-7.003906 6.855468 5.125 1.097656 10.390625 1.683594 15.71875 1.683594 47.261719 0 82.984375-43.132812 73.433594-90.496094-5.710938-28.289062-28.445313-51.445312-56.558594-57.644531-.628906-.136719-1.242188-.042969-1.871094-.164063v-211.695312h69.316406l60.769532 219.570312c-23.171875 12.777344-39.089844 37.152344-39.089844 65.429688 0 41.351562 33.648438 75 75 75s75-33.648438 75-75-33.648438-75-75-75c-2.476562 0-4.8125.492188-7.226562.730469l-58.324219-210.730469h140.550781v-15c0-41.351562-33.648438-75-75-75h-361c-41.351562 0-76 33.648438-76 75v15h61v211.519531c-34.191406 6.96875-61 37.265625-61 73.480469zm0 0" fill="#ffffff"/></svg>
