<?xml version="1.0"?>
<svg xmlns="http://www.w3.org/2000/svg" height="512px" viewBox="-30 0 512 512" width="512px"><path d="m238.863281 311.441406-12.886719 12.886719-12.886718-12.886719c-5.0625-5.0625-11.714844-7.597656-18.367188-7.597656-6.648437 0-13.300781 2.53125-18.363281 7.597656-4.90625 4.90625-7.605469 11.425782-7.605469 18.363282s2.699219 13.460937 7.605469 18.367187l49.617187 49.617187 49.617188-49.617187c4.902344-4.90625 7.605469-11.429687 7.605469-18.367187s-2.703125-13.457032-7.605469-18.363282c-10.128906-10.128906-26.605469-10.128906-36.730469 0zm0 0" fill="#ffffff"/><path d="m385.765625 66.1875c-42.683594-42.679688-99.429687-66.1875-159.789063-66.1875-60.359374 0-117.109374 23.507812-159.789062 66.1875s-66.1875 99.429688-66.1875 159.789062v139.019532c0 81.058594 65.945312 147.003906 147.003906 147.003906h157.941406c81.058594 0 147.003907-65.945312 147.003907-147.007812v-139.015626c.003906-60.363281-23.503907-117.109374-66.183594-159.789062zm-159.789063-36.1875c39.992188 0 78.144532 11.839844 110.824219 34.316406l-.003906 36.644532c0 61.109374-49.714844 110.824218-110.820313 110.824218-61.105468 0-110.820312-49.714844-110.820312-110.820312v-36.648438c32.675781-22.476562 70.832031-34.316406 110.820312-34.316406zm87.222657 299.804688c0 14.953124-5.820313 29.007812-16.394531 39.578124l-70.828126 70.832032-70.832031-70.832032c-10.570312-10.570312-16.394531-24.625-16.394531-39.578124 0-14.949219 5.824219-29.003907 16.394531-39.578126 19.226563-19.226562 49.078125-21.511718 70.832031-6.863281 21.753907-14.644531 51.605469-12.359375 70.828126 6.863281 10.574218 10.574219 16.394531 24.628907 16.394531 39.578126zm0 0" fill="#ffffff"/></svg>
