<svg id="logo" xmlns="http://www.w3.org/2000/svg" viewBox="0 0 3882.7 693.33"><defs><style>.cls-1{fill:#cc722a;}.cls-2{fill:#9a1f1d;}.cls-3{fill:#a21c26;}</style></defs><title>logo</title><path class="cls-1" d="M72,491.45Q49.44,513,44.66,542.38q0,25.29,7.52,45.8t27.35,30.76l4.1-3.42c-.91-2.73-5.7-8.45-14.36-17.09q-11.62-11.62-14-25a130,130,0,0,1-2.39-22.22,65.94,65.94,0,0,1,10.6-35.89q10.6-16.75,29.74-31.11A33.2,33.2,0,0,1,99,481.2q5.13-2.39,10.6-5.13a76.35,76.35,0,0,0,10.25-6.15q4.79-3.42,5.47-6.84A110.49,110.49,0,0,0,72,491.45ZM106.52,90.84A73.4,73.4,0,0,0,96.61,71,61.63,61.63,0,0,0,82.94,57q-7.52-5.47-15-5.47-15,0-22.56,12.31L46,74.09q3.42-7.52,15-7.52H74.74Q89.09,71.36,94.9,83.32t11.28,34.52q0,4.1-2.73,14.7t-5.81,22.9Q94.56,167.75,91.83,179T89.09,195.1q11.62-26,16.41-43.75a144.06,144.06,0,0,0,4.79-37.6A72,72,0,0,0,106.52,90.84Zm-26.32,322Q63.8,399.5,63.8,374.21a51.59,51.59,0,0,1,6.84-26.66q-12.31,0-18.12,8.55t-5.81,20.85q0,1.37,2.39,10.25t10.25,19.14q7.86,10.25,22.22,19.83t39,11.62Q96.61,426.16,80.2,412.83Zm22.56-149.37a160,160,0,0,1-29.05-50.59,175,175,0,0,1-9.91-58.79A160.4,160.4,0,0,1,74.05,98.7q-10.25,14.36-14.36,28t-4.1,32.13A163.14,163.14,0,0,0,60,195.78q4.44,19.14,10.6,37.6,25.29,38.28,67.68,72.46l5.47-2.05Zm74.52-36.92q-6.15-2.05-14-4.1T146.86,219a105.91,105.91,0,0,0-16.75-1.37,68.17,68.17,0,0,0-21.53,3.08,55.33,55.33,0,0,0-18.12,10.6q10.25-4.1,15.72-4.79a179.52,179.52,0,0,1,19.14-.68q4.1,0,12.65.68t18.12,1q9.57.34,18.12,1t12.65.68A86,86,0,0,1,177.28,226.54ZM129.43,555.37q-14.36,8.89-23.24,28A204,204,0,0,0,92.51,623q4.79-16.41,18.12-33.84a241.87,241.87,0,0,1,29.05-31.79ZM163.61,541q-15.72-10.94-32.13-10.94-6.15,0-8.2.68-.68,1.37-4.44,4.79T111,543.06a77,77,0,0,0-7.18,8.2q-3.08,4.1-3.08,6.15a18.2,18.2,0,0,0,2.05,8.2l14.36-17.77a49.68,49.68,0,0,1,15.72-2.73,42.75,42.75,0,0,1,9.23,1.37A25.6,25.6,0,0,1,153,552.29a37.28,37.28,0,0,1,8.89,12.31q3.76,7.86,3.76,20.85v6.84q-9.57,16.41-26,22.9T100,621.68a5.52,5.52,0,0,0,3.08,5.13,23,23,0,0,0,6.49,2.39q3.42.65,6.49,1t3.76,1q19.83-2.73,33.5-10.6t21.88-24.27q4.1-8.89,4.1-21.19Q179.33,552,163.61,541ZM268.89,89.48q-7.52-22.9-20.51-36.23A74.49,74.49,0,0,0,217.27,34.1q-18.12-5.81-41.36-5.81a139.91,139.91,0,0,0-29.4,3.08,200.59,200.59,0,0,0-27.35,7.86q17.09-6.15,40.33-6.15,36.92,0,59.13,12t34.18,29.4a101.8,101.8,0,0,1,16.07,37.26,180.06,180.06,0,0,1,4.1,36.23,45,45,0,0,1-1.37,10.94q3.42-3.42,5.47-5.81t2.05-7.18Q276.41,112.38,268.89,89.48ZM180.7,199.88a193.73,193.73,0,0,1-18.46-26,31.42,31.42,0,0,1,5.47-17.77q5.47-8.2,17.09-8.2,10.25,0,14.36,10.94,4.1-2.73,4.1-8.89a14,14,0,0,0-6.15-12,25,25,0,0,0-15-4.44,30.34,30.34,0,0,0-19.48,6.84Q154,147.24,154,158.86q0,38.28,32.81,55.37a34.41,34.41,0,0,1,7.86-.68q5.13,0,7.18-1.37Q189.59,210.14,180.7,199.88Zm86.14,283.71Q243.59,461,226.16,440.86a282.16,282.16,0,0,1-29.05-39.65,166.57,166.57,0,0,1-17.43-40,162.47,162.47,0,0,1-5.81-44.44q0-11.62.68-18.12T178,278.5A83.24,83.24,0,0,0,167,300q-4.1,12-4.1,29.05a133.92,133.92,0,0,0,8.55,46.49A223,223,0,0,0,194,420.35a257.42,257.42,0,0,0,32.13,40,229.6,229.6,0,0,0,37.94,31.45q3.42,2.05,10.6,10.25t15.72,17.43q8.55,9.23,17.43,17.77t16.41,12v-6.15Q312.64,528.71,266.84,483.59Zm-64.94-32.13a24,24,0,0,0-13-3.42q-4.79,0-8.89,6.84,4.79,2.05,15,2.05h15.72Q207.36,454.88,201.89,451.46ZM303.75,212.87q-4.1,0-12,5.13t-16.41,11.62q-8.55,6.49-16.75,11.62t-14.36,5.13q-6.84-3.42-6.84-6.84a8.1,8.1,0,0,1,3.08-6.15,36.69,36.69,0,0,1,6.84-4.79,37.76,37.76,0,0,1,7.18-3.08,19.91,19.91,0,0,1,4.79-1,149.92,149.92,0,0,0,17.77-12.31q7.52-6.15,7.52-12.31,0-4.79-4.1-8.89-3.42,11.62-15.72,16.41a136.31,136.31,0,0,1-26,7.18A251.63,251.63,0,0,0,214.2,220q-10.94,3.08-10.94,11.28,0,2.73,3.08,4.79a32,32,0,0,0,6.84,3.42q3.76,1.37,7.52,2.39a11.9,11.9,0,0,1,5.13,2.39,53.79,53.79,0,0,1,8.55,1.37q6.49,1.37,7.86,3.42-4.1,9.57-4.1,13.67a11.77,11.77,0,0,0,2.73,7.52q2.73,3.42,9.57,3.42,4.79,0,12-5.13T275,252.52q6.84-15,12.65-21.19t9.91-8.2a56.27,56.27,0,0,1,7.18-3.08q3.08-1,5.13-5.81Q307.85,212.87,303.75,212.87Zm-57.42,196.2q-28-48.54-34.52-90.92t15.38-65.63l.68-4.1a78.58,78.58,0,0,0-20.51,37.26,109.27,109.27,0,0,0-1,43.07A156.94,156.94,0,0,0,221,372.84a239.78,239.78,0,0,0,26,41Zm-26,61.19q-9.57-2.39-10.94-3.08a14.32,14.32,0,0,0,5.13,4.1A83.36,83.36,0,0,0,222.4,475q4.1,1.71,10.94,4.44Q229.92,472.65,220.35,470.26ZM404.93,370.11q-4.1-15-12-23.93T367.33,326.7q-17.77-10.6-36.92-10.6-7.52,0-22.56,4.1t-33.5,23.59q-18.46,19.48-18.46,49.56,0,6.84,1.37,20.85t9.57,29.4a42.62,42.62,0,0,0,15.06,16,59.38,59.38,0,0,0,13,6.18c1.82-1.37,3.24-.55,2.32-1.46-.36-.27-.71-.55-1-.82-20.76-16.38-32-40.11-32-67.45a102.24,102.24,0,0,1,4.44-29.74q4.44-14.7,14.7-22.56a79.15,79.15,0,0,1,23.93-12.31A82.26,82.26,0,0,1,332.46,327a60.3,60.3,0,0,1,24.61,5.13q11.62,5.13,29.05,17.77t17.43,35.89q0,9.57-5.47,19.83-8.89,13-18.12,18.8t-25,5.81a74,74,0,0,1-12.65-9.91q-5.13-5.13-5.13-11.28a15.76,15.76,0,0,1,1.37-5.47,19.21,19.21,0,0,0,4.44.68h2.39q6.84,0,6.84-4.79-.68-6.15-.68-8.89a11,11,0,0,1,1.37-4.79q-4.79-3.42-4.79-7.52,0-3.42,2.73-8.2t2.73-6.15q0-2.05-2.73-4.1-8.89,2.73-8.89,13,.68,8.89,1.37,17.09-4.79,3.42-18.46,3.42-6.15-3.42-6.15-8.89,0-3.42,7.86-11.28t8.55-13.33q-8.89-2.73-16.07,9.91t-8.55,13.33a27.86,27.86,0,0,0-2.05,9.57,34.7,34.7,0,0,0,1.37,9.57,45.11,45.11,0,0,0,2.73,7.52,30.64,30.64,0,0,1,8.2-1.37q7.52,0,14.36,8.2t13,15.72a45.22,45.22,0,0,0,13,2.05,68.62,68.62,0,0,0,18.12-2.73A93.2,93.2,0,0,0,396,425.48q12.31-10.94,12.31-31.45A89.22,89.22,0,0,0,404.93,370.11ZM281.88,593q-.68.68-4.79,1.71a73.59,73.59,0,0,0-8.55,2.73,46,46,0,0,0-8.2,4.1c-2.51,1.6-3.76,3.51-3.76,5.81l1.37,5.47a41.82,41.82,0,0,1,21.88-6.15,36.28,36.28,0,0,1,26.66,10.94Zm27-124.08a115.46,115.46,0,0,0-12.74-5.36,106.47,106.47,0,0,0-14.24-3.9,103,103,0,0,0-20.53-2,400.34,400.34,0,0,1,43.07,19.14q21.19,10.94,43.75,21.88A127.17,127.17,0,0,0,308.88,468.89Zm29.05-254q-8.2-18.46-13.33-30.42A219,219,0,0,0,314.69,164q-4.79-8.55-9.91-16.41t-13.33-18.8q6.15,15.72,12.65,32.13T317.42,193a253.58,253.58,0,0,0,15,29.4,123.41,123.41,0,0,0,18.46,23.93Q346.82,226.54,337.93,214.92Zm2.73,382.15a7.61,7.61,0,0,0-3.42.68L334.52,623h13V603.22Q345.45,597.07,340.67,597.07Zm29.4-403.34-30.76-8.2-2.73,2.73,28.71,15q14.36,7.52,28,15Q388.52,201.25,370.06,193.73Zm3-163.14c-19.39,0-31.11,20.9-31.61,21.83.62-.34,10.32-5.81,15.38-7.88,5.22-2.16,20.37-3.69,30.83-.75s20,13.22,20,13.22C404.52,40.37,392.85,30.59,373,30.59Zm13.44,123.49q-5.47-4.1-12.31-8.55A108.19,108.19,0,0,1,361.52,136c-3.87-3.42-12-9.23-12-9.23q9.57,34.18,43.07,34.18Q391.94,158.18,386.47,154.08ZM364.6,602.54q-6.84,0-8.55,7.18T352.29,623l13,.68,2.05-21.19ZM420,434.37q-30.76,11.62-46.15,39t-15.38,60.84a40.84,40.84,0,0,0,3.42,15.72q2.73-.68,4.44-4.1a26.5,26.5,0,0,0,2.39-7.86q.68-4.44,1.37-8.2t2.05-5.13a53,53,0,0,1,22.26,13.33A141.64,141.64,0,0,1,381,522.56a42.2,42.2,0,0,0-12.31-11.62,117.39,117.39,0,0,1,17.09-44.78A93.46,93.46,0,0,1,420,434.37Zm167.49,42.39q-12.31-27.35-36.23-43.07l27.35,34.87q11.62,21.88,11.62,52a149.35,149.35,0,0,1-3.42,31.11,87.52,87.52,0,0,1-12.31,29.74,73.33,73.33,0,0,1-23.24,22.56q-14.36,8.85-36.23,8.89c-12.31,0-22.79-1.62-31.45-4.79s-15.72-7.29-21.19-12.31a45.16,45.16,0,0,1-12-17.43,54.69,54.69,0,0,1-3.76-19.48q0-21.88,13.67-33.5t33.5-11.62q8.2,4.1,8.2,8.2,0,2.05-2.39,4.44a58.65,58.65,0,0,1-5.47,4.79q-3.08,2.39-5.47,4.44T486.28,539q0,2.05,6.84,5.47t15,6.84a137.76,137.76,0,0,1,15.38,7.52q7.18,4.1,8.55,7.52-.68-3.42-4.79-8.2a119.75,119.75,0,0,0-9.23-9.57,119.73,119.73,0,0,1-9.23-9.57q-4.1-4.79-4.79-8.2,6.84-8.89,12.31-8.89,2.05,0,5.81,5.47t8.2,12.31a139.25,139.25,0,0,0,9.23,12.65q4.79,5.81,10.25,6.49-4.79-8.89-9.57-18.8t-4.79-17.43a23.08,23.08,0,0,1,2.73-11.62q-3.42-6.15-5.47-9.91a6.61,6.61,0,0,0-6.15-3.76q-4.1,0-7.86,4.1t-15.38,4.1q-7.52-.68-11.62-.68h-7.52a35.41,35.41,0,0,0-17.09,4.44,53.33,53.33,0,0,0-14.36,11.28,51.29,51.29,0,0,0-9.57,15.38A43.37,43.37,0,0,0,439.79,552a63.55,63.55,0,0,0,5.13,24.61,68.51,68.51,0,0,0,15,22.22,74.11,74.11,0,0,0,23.59,15.72,76.53,76.53,0,0,0,30.08,5.81,79.82,79.82,0,0,0,26-4.44,106.8,106.8,0,0,0,23.93-11.62A92.88,92.88,0,0,0,583,587.16a69.14,69.14,0,0,0,12.65-20.85,119.65,119.65,0,0,0,4.1-32.81A136.82,136.82,0,0,0,587.46,476.75ZM473.63,545.12a43.89,43.89,0,0,1-2.39-13v-2.05l-6.84,8.2A32.39,32.39,0,0,0,460.3,554q0,10.25,4.1,17.09l19.14-15A17.44,17.44,0,0,1,473.63,545.12ZM574.81,168.43Q561.48,143.82,530,137.67q-2.73,1.37-9.57,1t-8.89,1q.68,3.42,5.47,5.47a48,48,0,0,0,10.6,3.08q5.81,1,10.6,1.71t6.84,2.73q10.94,4.1,19.83,18.8t8.89,43.41q0,24.61-9.91,40a70.56,70.56,0,0,1-25.29,23.93,104.68,104.68,0,0,1-34.52,11.62,236.72,236.72,0,0,1-37.6,3.08l1.37,4.1q32.81,0,55.72-7.18t37.26-18.12q14.36-10.94,20.85-23.59t6.49-24.27Q588.14,193,574.81,168.43ZM577.2,67.6a95.11,95.11,0,0,1-7.52-9.23,11.73,11.73,0,0,0-.68,4.79,59.31,59.31,0,0,0,.68,8.2,58.49,58.49,0,0,1,.68,6.15q0,9.57-11.62,10.94-8.2-1.37-10.25-6.49t-2.05-14.7V56.32q0-16.41-7.86-21.88T519.1,29A37.7,37.7,0,0,0,502,32.73q-7.52,3.76-9.57,10.6-.68,3.42-1,6.49t-.34,4.44q0,21.88,16.41,39t47.17,28.71q-8.89-7.52-18.12-15.38a225.54,225.54,0,0,1-16.75-15.72,81.22,81.22,0,0,1-12.31-16.41,36.52,36.52,0,0,1-4.79-18.12q0-13.67,6.84-17.43c4.56-2.51,7-2.89,9.23-2.89,3.65,0,7.63,2,9.91,7.68s4.56,12.19,6.84,19.48A142.06,142.06,0,0,0,544,84.35c3.42,6.84,9.3,12.67,14.7,13s12.31-2.48,16.73-5.77,5.83-8.36,5.83-14.74Q581.31,72,577.2,67.6Zm-52,145.27-5.47,20.51a28.59,28.59,0,0,0,6.49-5.47,11,11,0,0,0,3.08-7.52Q529.35,216.29,525.25,212.87Z" transform="translate(-44.66 -28.29)"/><path class="cls-2" d="M252.48,100.76H245q-4.1,1.37-12.65,5.13t-18.8,7.86q-10.25,4.1-20.17,7.52t-16.75,3.42a62.57,62.57,0,0,1-19.83-3.42q-8.2,3.42-12.31,14.36a124.18,124.18,0,0,0-6.15,23.24q-2.05,12.31-3.42,22.9t-3.42,13.33q0-44.44-5.13-79.64a432.44,432.44,0,0,0-18.12-74.17A66,66,0,0,0,134.9,61.45q15.72,6.49,36.92,9.23,4.79,3.42,17.09,3.42A123.39,123.39,0,0,0,207.36,72,123.38,123.38,0,0,1,225.82,70q13,0,19.83,6.49T252.48,100.76Z" transform="translate(-44.66 -28.29)"/><path class="cls-2" d="M545.07,451.12q-3.42,18.12-10.6,29.74t-16.07,11.62a7.57,7.57,0,0,1-2.39-.34,7.58,7.58,0,0,0-2.39-.34,207.21,207.21,0,0,1-31.11,4.79,126.93,126.93,0,0,0-30.76,6.15,52.81,52.81,0,0,0-23.24,15.38q-9,10.37-9.22,30.88a18.8,18.8,0,0,0,5,13L434,572.4a272.13,272.13,0,0,1-80.39,12.37A299.58,299.58,0,0,1,252.48,567a340.87,340.87,0,0,1-86.13-45.5A22.75,22.75,0,0,0,153,517.09h-2.37q-13.67,0-18.46-4.44t-4.79-14q0-.68,1.37-7.86c.91-4.79,18.55-41.29-2.16-60,8-11.66,3-23.08.45-32.65a144.74,144.74,0,0,0-12-30.07h0l-12.3,4.1h0a7.75,7.75,0,0,1-5.13-2.05,6.84,6.84,0,0,1-2.39-5.47v-7.52h0q3.42-7.52,10.25-7.52a19.18,19.18,0,0,1,7.86,2.05q4.44,2.05,10.94,9.91t15.38,23.24q8.89,15.38,22.56,42.73,13,26.66,24.27,46.49a204.62,204.62,0,0,0,23.93,34.18,109.57,109.57,0,0,0,28.37,23.24q15.72,8.89,36.91,13.67h0q17.77,6.15,29,8.88t29.05,2.73q23.24,0,42-7.18a108.41,108.41,0,0,0,20.05-10A89.15,89.15,0,0,0,408,530.42a101.18,101.18,0,0,0,21.88-28,105.86,105.86,0,0,0,11.28-33.84h0q2.73-41.7-4.79-73.49t-27-52q-19.48-20.17-51.61-28.71t-78.61-5.13h0l-2.73-15h0l2.73-6.83h0q45.8-.68,73.83-12.31t42.73-29.4a92.58,92.58,0,0,0,19.48-39,186.05,186.05,0,0,0,4.79-41q0-9.57-3.76-22.9a71.42,71.42,0,0,0-13.33-25.29q-9.57-12-26.32-20.51t-43.41-8.55q-4.1,0-9.57.34t-10.94,1q-5.47.68-9.91,1t-5.81.34q-12.31,0-18.46-4.79T272.31,68v0a199,199,0,0,1,37.93-7.86,387.14,387.14,0,0,1,44.09-2.39q21.88,0,39.31,1.71a216.59,216.59,0,0,1,35.2,6.49h0A140.28,140.28,0,0,1,460,82.3a138.14,138.14,0,0,1,26.32,23.93A142.37,142.37,0,0,1,505.77,136,135.73,135.73,0,0,1,517,169.11h0q0,47.17-26.32,79.64T417.24,297a36,36,0,0,0,15-1.71,27.73,27.73,0,0,1,14.34-1,0,0,0,0,1,0,0,14.51,14.51,0,0,0-3.07,9.56,11.91,11.91,0,0,0,3.42,7.86q3.08,3.08,8.55,2.73t13-5.81h0q26.66,6.84,43.4,23.24a112.35,112.35,0,0,1,25.29,36.57,128,128,0,0,1,9.91,42.39A163.77,163.77,0,0,1,545.07,451.12Z" transform="translate(-44.66 -28.29)"/><path class="cls-1" d="M940.16,471.28q-5.34-6.91-25.62-6.94A20,20,0,0,0,903.86,467q-2.13,1.09-4,2.14a6.36,6.36,0,0,1-2.94,1.07c-1.42,0-3.38-.87-5.87-2.67h.53q-8-24.53-13.61-47t-9.87-39.5L866,372q-3.74-13.85-7.21-26.15A141,141,0,0,0,851,324.5l-8-16q-16-32-25.09-47.5t-17.08-15.48a35.24,35.24,0,0,0-12.28,2.67,74.24,74.24,0,0,0-12.81,6.4q-17.08,11.21-17.08,18.15,0,4.8,13.34,22.42-3.2,8-6.4,17.61T759,332q-3.47,9.61-6.41,18.41l-5.07,15.21q-1.6,4.3-2.94,8.54t-2.4,8.54L735.2,403.5q-4.27,14.41-7.21,25.62t-5.07,19.22c-2.49,12.12-4.09,18.68-4.8,19.75a14.82,14.82,0,0,1-3.74-.53,23.67,23.67,0,0,0-3.47-.8,17.07,17.07,0,0,1-3.47-.8H708a38.8,38.8,0,0,0-13.88-2.67q-16,0-24,10.41t-8,39.23q0,31,4.27,46.17t17.08,15.21q18.68,0,26.69-21.88l8.54-39.5a102,102,0,0,1,8.81-15.48q4.54-6.4,8.81-6.4H744a66.62,66.62,0,0,1,7.74.53l25.09,1.6c6,.37,10.59.62,13.61.8a74.7,74.7,0,0,1,7.74.8,24.74,24.74,0,0,0,4.8.53h6.94q6.41,0,15.75-.8c6.23-.53,13.43-1.14,21.62-1.87l13.88-2.14c.71,0,1.16-.07,1.33-.27a1.17,1.17,0,0,1,.8-.27,45.93,45.93,0,0,1,8-.53q14.95,0,14.95,13.34v4.8a73.23,73.23,0,0,1,.53,9.07,60.15,60.15,0,0,1-1.07,10.68q-3.2,17.08-3.2,25.09,0,7.47,7.21,13.34a25.82,25.82,0,0,0,16.81,5.87q12.28,0,18.41-8.27t12-22.68a77.88,77.88,0,0,0,6.4-24q1.07-11.74,1.07-23Q944.43,477.69,940.16,471.28Zm-110.49,3.2c-.36,0-.53.11-.53.27s-.18.27-.53.27q-8.54,1.6-14.41,2.4a154.06,154.06,0,0,1-18.68.8,171.43,171.43,0,0,1-25.09-1.6q-10.68-1.6-27.22-4.8h3.74l9.61-41.63c1.07-3.9,2.14-7.74,3.2-11.48s2-7.54,2.67-11.48q5.87-25.62,11.74-48.57a264.55,264.55,0,0,1,13.34-40A165.54,165.54,0,0,1,807,362.93q6.67,24,13.08,52.31,3.2,13.9,6.94,28t8,29.62h.53Z" transform="translate(-44.66 -28.29)"/><path class="cls-2" d="M949.06,465.38c-.14-.21-.28-.41-.43-.6-5.84-7.56-16.67-11.1-34.09-11.1a30.81,30.81,0,0,0-15.05,3.56c-4.29-13.56-8-26.72-11.16-39.23l-3.77-15.09q-3.31-13.29-6.08-24.34l-2.12-9c0-.11-.05-.21-.07-.34-2.49-9.18-4.91-18-7.24-26.26a151.51,151.51,0,0,0-8.36-23c0-.07-.07-.14-.11-.23l-8-16c-10.69-21.4-19.25-37.59-25.42-48.13-3-5.14-12.19-20.76-26.3-20.76a45.15,45.15,0,0,0-16.1,3.38A85.44,85.44,0,0,0,770,245.58a.75.75,0,0,1-.12.09c-15.14,9.93-21.9,18.27-21.9,27.06,0,4.68,2.1,10.51,11.94,24.05-1.48,4-3,8.18-4.45,12.61-2.06,6.19-4.29,12.58-6.58,19s-4.54,12.76-6.49,18.66l-.3.89c-1.8,5.41-3.38,10.12-4.71,14.14-1.14,3.06-2.17,6.07-3.06,8.91s-1.73,5.84-2.46,8.72l-6.81,20.44c0,.11-.07.21-.11.34-2.86,9.64-5.32,18.38-7.29,26s-3.65,13.84-5.07,19.16c-.05.2-.09.39-.12.59-.82,3.91-1.46,7-2,9.32a48.9,48.9,0,0,0-16.39-2.9c-17.58,0-27.36,7.94-32.47,14.59-7,9.06-10.23,23.59-10.23,45.72,0,21.85,1.53,37.9,4.68,49.07,5.6,20,19.54,23,27.35,23,11.94,0,28-5,36.72-28.88a13,13,0,0,0,.41-1.42l8.27-38.29a87.58,87.58,0,0,1,7.35-12.76,15,15,0,0,1,1.55-1.92H744a53.8,53.8,0,0,1,6.44.46l.62.05,25.09,1.6,7.53.44,6.12.36c2.6.16,4.77.37,6.49.66A34.34,34.34,0,0,0,803,506h6.94c4.55,0,10.16-.27,16.65-.84l2-.16,19.66-1.71c.23,0,.46-.05.69-.09l13.25-2a13.09,13.09,0,0,0,3.93-.82,44.38,44.38,0,0,1,5.2-.23,9.42,9.42,0,0,1,4,.6,6.33,6.33,0,0,1,.25,2.06v4.8a10.9,10.9,0,0,0,.09,1.32,63.46,63.46,0,0,1,.44,7.76,51,51,0,0,1-.89,8.79c-2.26,12.08-3.38,20.92-3.38,27,0,5.73,1.94,14.11,11.14,21.62a36.35,36.35,0,0,0,23.56,8.27c14.59,0,22.72-6.83,27-12.58,4.66-6.3,9-14.43,13.27-24.91A89.23,89.23,0,0,0,954,517.63c.73-8.15,1.1-16.19,1.1-23.93C955.1,480.59,953.18,471.59,949.06,465.38Zm-5.69,51.28a77.88,77.88,0,0,1-6.4,24q-5.87,14.41-12,22.68t-18.41,8.27a25.82,25.82,0,0,1-16.81-5.87q-7.21-5.87-7.21-13.34,0-8,3.2-25.09a60.15,60.15,0,0,0,1.07-10.68,73.23,73.23,0,0,0-.53-9.07v-4.8q0-13.34-14.95-13.34a45.93,45.93,0,0,0-8,.53,1.17,1.17,0,0,0-.8.27c-.18.2-.62.27-1.33.27l-13.88,2.14c-8.18.73-15.39,1.33-21.62,1.87s-11.48.8-15.75.8H803a24.74,24.74,0,0,1-4.8-.53,74.7,74.7,0,0,0-7.74-.8c-3-.18-7.56-.43-13.61-.8l-25.09-1.6A66.62,66.62,0,0,0,744,491h-7.74q-4.27,0-8.81,6.4a102,102,0,0,0-8.81,15.48l-8.54,39.5q-8,21.88-26.69,21.88-12.81,0-17.08-15.21t-4.27-46.17q0-28.82,8-39.23t24-10.41A38.8,38.8,0,0,1,708,465.95h-.53a17.07,17.07,0,0,0,3.47.8,23.67,23.67,0,0,1,3.47.8,14.82,14.82,0,0,0,3.74.53c.71-1.07,2.31-7.63,4.8-19.75q2.13-8,5.07-19.22t7.21-25.62l6.94-20.82q1.07-4.24,2.4-8.54t2.94-8.54l5.07-15.21q2.94-8.81,6.41-18.41t6.67-19.22q3.2-9.61,6.4-17.61-13.34-17.61-13.34-22.42,0-6.91,17.08-18.15a74.24,74.24,0,0,1,12.81-6.4,35.24,35.24,0,0,1,12.28-2.67q8,0,17.08,15.48T843,308.49l8,16a141,141,0,0,1,7.74,21.35q3.47,12.3,7.21,26.15l2.14,9.07q4.27,17.11,9.87,39.5t13.61,47h-.53c2.49,1.8,4.45,2.67,5.87,2.67a6.36,6.36,0,0,0,2.94-1.07q1.87-1,4-2.14a20,20,0,0,1,10.68-2.67q20.28,0,25.62,6.94,4.27,6.4,4.27,22.42Q944.43,504.91,943.36,516.65ZM827,443.26q-3.74-14.12-6.94-28Q813.66,387,807,362.93a165.54,165.54,0,0,0-19.48-44.3,264.55,264.55,0,0,0-13.34,40q-5.87,23-11.74,48.57c-.71,3.93-1.6,7.74-2.67,11.48s-2.13,7.58-3.2,11.48l-9.61,41.63h-3.74q16.55,3.2,27.22,4.8a171.43,171.43,0,0,0,25.09,1.6,154.06,154.06,0,0,0,18.68-.8q5.87-.8,14.41-2.4c.36,0,.53-.07.53-.27s.18-.27.53-.27l5.87-1.6H835Q830.74,457.43,827,443.26Zm-14.25,23.59c-2.35.32-7.26.69-17.24.69a162.59,162.59,0,0,1-23.5-1.48c-3.56-.53-7.69-1.21-12.31-2l7.21-31.24c1-3.81,2.1-7.56,3.11-11.16,1.12-3.91,2.08-8,2.86-12.24,3.86-16.88,7.77-33.06,11.64-48.09,1.48-5.82,3.06-11.39,4.71-16.64a160.37,160.37,0,0,1,7.47,21.12c4.39,15.82,8.75,33.25,13,51.81,2.19,9.45,4.54,19,7,28.4,1.65,6.23,3.38,12.72,5.21,19.39C818.41,466,815.35,466.5,812.75,466.85Zm22.26,6q-4.27-15.45-8-29.62t-6.94-28Q813.66,387,807,362.93a165.54,165.54,0,0,0-19.48-44.3,264.55,264.55,0,0,0-13.34,40q-5.87,23-11.74,48.57c-.71,3.93-1.6,7.74-2.67,11.48s-2.13,7.58-3.2,11.48l-9.61,41.63h-3.74q16.55,3.2,27.22,4.8a171.43,171.43,0,0,0,25.09,1.6,154.06,154.06,0,0,0,18.68-.8q5.87-.8,14.41-2.4c.36,0,.53-.07.53-.27s.18-.27.53-.27l5.87-1.6Zm-22.26-6c-2.35.32-7.26.69-17.24.69a162.59,162.59,0,0,1-23.5-1.48c-3.56-.53-7.69-1.21-12.31-2l7.21-31.24c1-3.81,2.1-7.56,3.11-11.16,1.12-3.91,2.08-8,2.86-12.24,3.86-16.88,7.77-33.06,11.64-48.09,1.48-5.82,3.06-11.39,4.71-16.64a160.37,160.37,0,0,1,7.47,21.12c4.39,15.82,8.75,33.25,13,51.81,2.19,9.45,4.54,19,7,28.4,1.65,6.23,3.38,12.72,5.21,19.39C818.41,466,815.35,466.5,812.75,466.85Zm22.26,6q-4.27-15.45-8-29.62t-6.94-28Q813.66,387,807,362.93a165.54,165.54,0,0,0-19.48-44.3,264.55,264.55,0,0,0-13.34,40q-5.87,23-11.74,48.57c-.71,3.93-1.6,7.74-2.67,11.48s-2.13,7.58-3.2,11.48l-9.61,41.63h-3.74q16.55,3.2,27.22,4.8a171.43,171.43,0,0,0,25.09,1.6,154.06,154.06,0,0,0,18.68-.8q5.87-.8,14.41-2.4c.36,0,.53-.07.53-.27s.18-.27.53-.27l5.87-1.6Zm-22.26-6c-2.35.32-7.26.69-17.24.69a162.59,162.59,0,0,1-23.5-1.48c-3.56-.53-7.69-1.21-12.31-2l7.21-31.24c1-3.81,2.1-7.56,3.11-11.16,1.12-3.91,2.08-8,2.86-12.24,3.86-16.88,7.77-33.06,11.64-48.09,1.48-5.82,3.06-11.39,4.71-16.64a160.37,160.37,0,0,1,7.47,21.12c4.39,15.82,8.75,33.25,13,51.81,2.19,9.45,4.54,19,7,28.4,1.65,6.23,3.38,12.72,5.21,19.39C818.41,466,815.35,466.5,812.75,466.85Z" transform="translate(-44.66 -28.29)"/><path class="cls-1" d="M1160.42,345.86q0,32.56-17.08,64.58t-48,61.91q-3.74,3.2-7.74,6.67t-6.67,5.6a41.18,41.18,0,0,1-8,5.07,95.44,95.44,0,0,1-9.07,4h2.67q3.73,56.57,5.34,86.2t1.6,32.29q0,42.16-26.69,75.79-18.15,22.94-36.29,23-16,0-16-6.94,27.22-33.63,27.22-87,0-7.48-2.94-37.36T1011,504.92q-3.74-30.95-5.34-59t-1.6-51q0-20.28,6.41-43.5a264,264,0,0,1,18.68-47.77q13.87-27.75,32-43t37.9-15.21q18.14,0,36.83,22.42Q1160.41,297.83,1160.42,345.86ZM1106,359.2q0-53.9-35.9-71-13.21,33.63-13.2,63.52,0,6.4,7.47,118.49,17.61-4.8,29.89-45.37Q1106,390.17,1106,359.2Z" transform="translate(-44.66 -28.29)"/><path class="cls-2" d="M1099,245.51q18.14,0,36.83,22.42,24.54,29.9,24.55,77.93,0,32.56-17.08,64.58t-48,61.91q-3.74,3.2-7.74,6.67t-6.67,5.6a41.18,41.18,0,0,1-8,5.07,95.44,95.44,0,0,1-9.07,4h2.67q3.73,56.57,5.34,86.2t1.6,32.29q0,42.16-26.69,75.79-18.15,22.94-36.29,23-16,0-16-6.94,27.22-33.63,27.22-87,0-7.48-2.94-37.36T1011,504.92q-3.74-30.95-5.34-59t-1.6-51q0-20.28,6.41-43.5a264,264,0,0,1,18.68-47.77q13.87-27.75,32-43t37.9-15.21m-34.69,224.71q17.61-4.8,29.89-45.37Q1106,390.17,1106,359.2q0-53.9-35.9-71-13.21,33.63-13.2,63.52,0,6.4,7.47,118.49M1099,234.84c-15.69,0-30.74,6-44.76,17.71-13.17,11-24.85,26.64-34.71,46.37a276,276,0,0,0-19.42,49.71A175.42,175.42,0,0,0,993.36,395c0,15.42.54,32.78,1.62,51.58s2.89,38.89,5.39,59.58c3.15,29.4,5.75,54.49,7.72,74.56C1010.47,605,1011,613.87,1011,617c0,32.91-8.36,59.92-24.84,80.29a10.68,10.68,0,0,0-2.38,6.72c0,6.56,3.9,12.16,10.43,15,4.06,1.76,9.38,2.62,16.26,2.62,15.46,0,30.49-9.09,44.67-27,19.23-24.24,29-52,29-82.42,0-.89,0-3-1.62-32.87-1-18.48-2.61-44.7-4.93-80l.11-.06a51.45,51.45,0,0,0,10-6.35c1.9-1.52,4.23-3.48,6.93-5.82s5.2-4.5,7.68-6.62l.47-.43c21.34-20.6,38.17-42.33,50-64.57,12.17-22.82,18.34-46.24,18.34-69.61,0-34.4-9.08-62.9-27-84.7-14.58-17.49-29.73-26.32-45.08-26.32Zm-25.5,212.79c-5.17-78.08-6-93.78-6-95.9,0-14.9,2.72-30.81,8.09-47.43,13.21,11,19.66,29.09,19.66,54.9,0,19.36-3.76,40.3-11.18,62.23l-.1.33c-3.62,12-7.22,20.2-10.48,25.87Z" transform="translate(-44.66 -28.29)"/><path class="cls-1" d="M1433.17,488.37q0,10.67-29.36,10.68-23.49,0-27.22-6.94l-28.29-50.17A133.4,133.4,0,0,1,1324,463.55a197,197,0,0,1-30.69,17.88,211.85,211.85,0,0,1-32,12q-16,4.53-28.82,4.54-13.35,0-23.75-11.74a39.11,39.11,0,0,1-10.41-26.69q0-12.27,9.34-31.49a325.45,325.45,0,0,1,23.22-39.76,430.92,430.92,0,0,1,29.62-39,337.6,337.6,0,0,1,28-29.62H1288q-21.35-32-27.49-49.64t-6.14-20.28q0-5.33,33.09-5.34,29.89,0,33.09,5.87l107.28,221.51Q1433.16,480.91,1433.17,488.37Zm-135-151.05q-6.4,8-14.41,19.75t-14.94,24.29A231.55,231.55,0,0,0,1257,405.64q-4.8,11.75-4.8,19.75,0,27.22,22.42,27.22,16.54,0,34.43-8a87.29,87.29,0,0,0,30.16-21.88Z" transform="translate(-44.66 -28.29)"/><path class="cls-2" d="M1287.46,244.45q29.89,0,33.09,5.87l107.28,221.51q5.33,9.08,5.34,16.55,0,10.67-29.36,10.68-23.49,0-27.22-6.94l-28.29-50.17A133.4,133.4,0,0,1,1324,463.55a197,197,0,0,1-30.69,17.88,211.85,211.85,0,0,1-32,12q-16,4.53-28.82,4.54-13.35,0-23.75-11.74a39.11,39.11,0,0,1-10.41-26.69q0-12.27,9.34-31.49a325.45,325.45,0,0,1,23.22-39.76,430.92,430.92,0,0,1,29.62-39,337.6,337.6,0,0,1,28-29.62H1288q-21.35-32-27.49-49.64t-6.14-20.28q0-5.33,33.09-5.34m-12.81,208.16q16.54,0,34.43-8a87.29,87.29,0,0,0,30.16-21.88l-41.1-85.4q-6.4,8-14.41,19.75t-14.94,24.29A231.55,231.55,0,0,0,1257,405.64q-4.8,11.75-4.8,19.75,0,27.22,22.42,27.22m12.81-218.84c-11.71,0-20.38.48-26.52,1.47a32.9,32.9,0,0,0-9.15,2.6c-7.3,3.53-8.09,9.53-8.09,11.94s.5,5.91,6.73,23.8c3.93,11.3,11.8,26,24,44.86-6.72,6.67-14.09,14.7-22,24A443.58,443.58,0,0,0,1222,382.32a337.67,337.67,0,0,0-24,41.08c-7,14.41-10.41,26.23-10.41,36.15,0,12.61,4.41,24,13.1,33.77,9,10.17,19.7,15.33,31.74,15.33,9.46,0,20.14-1.66,31.73-4.94a223.55,223.55,0,0,0,33.64-12.61,208.61,208.61,0,0,0,32.35-18.84A163.54,163.54,0,0,0,1346,459.58l21.26,37.7c6,11,22.7,12.44,36.56,12.44,11.14,0,19.53-1.08,25.66-3.31,13-4.72,14.37-14.19,14.37-18,0-6.76-2.21-14-6.58-21.57L1330.16,245.67l-.24-.46c-4.55-8.33-16.06-11.43-42.46-11.43Zm-12.81,208.16c-5,0-11.74,0-11.74-16.55,0-2.69.7-7.61,4-15.71a221.9,221.9,0,0,1,11.2-23.16c4.42-8,9.28-15.89,14.43-23.44q1.85-2.72,3.62-5.23l30.22,62.79a78.71,78.71,0,0,1-21.67,14.23c-10.49,4.69-20.6,7.07-30.06,7.07Z" transform="translate(-44.66 -28.29)"/><path class="cls-1" d="M1692.39,455.28q0,24-18.68,33.09-10.68,5.34-41.1,5.34H1514.12q-18.69,0-18.68-13.88V262.6q0-12.81,18.15-12.81h105.15a94.48,94.48,0,0,1,36.83,6.94q23.48,9.61,23.49,25.62,0,11.21-10.14,24t-27.76,23.48a138.28,138.28,0,0,1-28.56,14.41,270.33,270.33,0,0,1-31.22,9.61h.53q18.68,9.61,36,20.28a307.89,307.89,0,0,1,30.69,21.35q20.28,16.55,32,32T1692.39,455.28Zm-66.72-1.6q0-26.15-28-56.58a228.28,228.28,0,0,0-25-21.62q-12.63-9.33-22.31-10.94v84.87q0,31,44.08,31Q1625.66,480.37,1625.67,453.68Zm-16.55-162.26q0-13.33-10.77-19.75a75.5,75.5,0,0,0-11.58-4.54,38.94,38.94,0,0,0-11-1.87q-24.24,0-24.24,31v47a66,66,0,0,0,19.67-4.27,89.53,89.53,0,0,0,18-9.07A61.11,61.11,0,0,0,1603.74,313,42.52,42.52,0,0,0,1609.13,291.42Z" transform="translate(-44.66 -28.29)"/><path class="cls-2" d="M1618.73,249.78a94.48,94.48,0,0,1,36.83,6.94q23.48,9.61,23.49,25.62,0,11.21-10.14,24t-27.76,23.48a138.28,138.28,0,0,1-28.56,14.41,270.33,270.33,0,0,1-31.22,9.61h.53q18.68,9.61,36,20.28a307.89,307.89,0,0,1,30.69,21.35q20.28,16.55,32,32t11.74,27.76q0,24-18.68,33.09-10.68,5.34-41.1,5.34H1514.12q-18.69,0-18.68-13.88V262.6q0-12.81,18.15-12.81h105.15m-67.25,93.41a66,66,0,0,0,19.67-4.27,89.53,89.53,0,0,0,18-9.07A61.11,61.11,0,0,0,1603.74,313a42.52,42.52,0,0,0,5.39-21.62q0-13.33-10.77-19.75a75.5,75.5,0,0,0-11.58-4.54,38.94,38.94,0,0,0-11-1.87q-24.24,0-24.24,31v47m43,137.17q31.18,0,31.18-26.69,0-26.15-28-56.58a228.28,228.28,0,0,0-25-21.62q-12.63-9.33-22.31-10.94v84.87q0,31,44.08,31m24.24-241.26H1513.58c-26.74,0-28.82,18-28.82,23.49V479.83c0,5.76,2.12,24.55,29.36,24.55h118.49c22.43,0,37-2,45.82-6.44,11.25-5.48,24.64-17.33,24.64-42.67,0-10.66-4.55-21.85-13.91-34.2-8.31-10.95-19.67-22.33-33.78-33.85l-.08-.07a320,320,0,0,0-31.76-22.1q-6.9-4.24-14-8.34,3.42-1.18,6.84-2.46a149.7,149.7,0,0,0,30.55-15.4c12.68-7.71,22.9-16.41,30.39-25.87,8.26-10.44,12.45-20.75,12.45-30.65,0-10.57-5.23-25.32-30.12-35.5a105.41,105.41,0,0,0-40.87-7.73Zm-56.58,91.53V296.22c0-20.28,8.17-20.28,13.57-20.28a28.76,28.76,0,0,1,8,1.42,65.5,65.5,0,0,1,9.52,3.69c3.71,2.32,5.23,5.36,5.23,10.37a31.77,31.77,0,0,1-4,16.29,50.54,50.54,0,0,1-11.63,13.53,79.65,79.65,0,0,1-15.46,7.69q-2.64,1-5.25,1.71Zm32.33,139.05c-33.4,0-33.4-13.7-33.4-20.28v-69c1.62,1,3.39,2.21,5.29,3.62A218.38,218.38,0,0,1,1590,404.5c16.57,18.09,25,34.64,25,49.18,0,8.1-1.58,16-20.51,16Z" transform="translate(-44.66 -28.29)"/><path class="cls-1" d="M1945.21,491q0,8-23,8-31.5,0-31.49-8.54l1.07-74.73h.53l-81.66-82.73V488.37q0,10.67-26.15,10.68-27.76,0-27.76-9.07V257.79q0-11.21,27.76-11.21,26.15,0,26.15,9.07l-1.07,48.57h-.53L1890.76,387V256.72q0-10.13,26.15-10.14,28.29,0,28.29,9.07Z" transform="translate(-44.66 -28.29)"/><path class="cls-2" d="M1916.92,246.58q28.29,0,28.29,9.07V491q0,8-23,8-31.5,0-31.49-8.54l1.07-74.73h.53l-81.66-82.73V488.37q0,10.67-26.15,10.68-27.76,0-27.76-9.07V257.79q0-11.21,27.76-11.21,26.15,0,26.15,9.07l-1.07,48.57h-.53L1890.76,387V256.72q0-10.13,26.15-10.14m0-10.68c-10.14,0-17.82,1.07-23.48,3.26-12.05,4.67-13.35,13.83-13.35,17.56V360.95l-59.7-60.48,1-44.58q0-.12,0-.23c0-3.65-1.34-12.59-13.72-16.89-5.55-1.92-13.11-2.86-23.11-2.86-10.73,0-18.85,1.17-24.81,3.58-12.29,5-13.62,14.45-13.62,18.3V490c0,3.69,1.39,12.73,14.29,17,5.76,1.88,13.65,2.8,24.14,2.8,10.21,0,17.94-1.13,23.65-3.46,11.9-4.86,13.18-14.13,13.18-17.89V359.06l59.73,60.51-1,70.79q0,.08,0,.15c0,4.64,2,13,15.75,16.71,6.22,1.69,14.86,2.51,26.42,2.51,8.94,0,15.72-.85,20.73-2.6,11.64-4.06,12.9-12.6,12.9-16.08V255.66c0-3.7-1.41-12.77-14.49-17-5.83-1.87-13.84-2.78-24.48-2.78Z" transform="translate(-44.66 -28.29)"/><path class="cls-1" d="M2026.69,255.12q0-9.61,29.08-9.61,27,0,27,10.68V395.5l41.9-42.7,43-44.3h-.53V255.12q0-9.61,27.5-9.61,28.55,0,28.55,11.74V489.44q0,9.61-34.37,9.61-21.68,0-21.68-11.21l-.38-150-84.48,87.54h.53v65.12q0,8.53-29.08,8.54-27,0-27-8.54Z" transform="translate(-44.66 -28.29)"/><path class="cls-2" d="M2194.56,245.51q28.55,0,28.55,11.74V489.44q0,9.61-34.37,9.61-21.68,0-21.68-11.21l-.38-150-84.48,87.54h.53v65.12q0,8.53-29.08,8.54-27,0-27-8.54V255.12q0-9.61,29.08-9.61,27,0,27,10.68V395.5l41.9-42.7,43-44.3h-.53V255.12q0-9.61,27.5-9.61m0-10.68c-10.47,0-18.37,1-24.14,3-12.66,4.42-14,13.56-14,17.28v49.6L2117,345.37l-23.56,24V256.19c0-3.79-1.31-13.11-13.49-17.93-5.81-2.3-13.71-3.42-24.15-3.42-10.94,0-19.17,1-25.16,2.94-13.17,4.35-14.6,13.58-14.6,17.34V490.51c0,3.63,1.38,12.52,14.19,16.58,5.6,1.77,13.27,2.64,23.45,2.64,10.81,0,18.93-.84,24.82-2.57,13.48-4,14.94-13,14.94-16.64V429.15l62.67-64.93.32,123.65c0,7.66,4.08,14.18,11.19,17.86,5.2,2.69,12.12,4,21.16,4,12.55,0,21.92-.91,28.65-2.8,14.26-4,16.39-12.67,16.39-17.49V257.26c0-3.91-1.34-13.57-13.75-18.68-6.12-2.52-14.45-3.74-25.47-3.74Z" transform="translate(-44.66 -28.29)"/><path class="cls-1" d="M2548,496.38q0,71-50.17,71a21.72,21.72,0,0,1-16-6.41q-8-8-6.94-10.14,3.2-8.54,5.87-18.41a82.86,82.86,0,0,0,2.67-21.62q0-17.09-11.18-17.08h-157q-17,0-17-16.55V259.93q0-13.87,27-13.88,29.07,0,29.08,12.28v206q0,12.81,7.51,12.81h79.45q7.51,0,7.51-11.74V259.93q0-8.53,9.52-12.81,5.28-1.06,18.51-1.07,13.74,0,18,1.6,10,3.74,10,13.88v207.1q0,4.8,5.6,6.94a135.51,135.51,0,0,0,17.88,4.8q9.07,1.08,14.41,5.6T2548,496.38Z" transform="translate(-44.66 -28.29)"/><path class="cls-2" d="M2476.72,246q13.74,0,18,1.6,10,3.74,10,13.88v207.1q0,4.8,5.6,6.94a135.51,135.51,0,0,0,17.88,4.8q9.07,1.08,14.41,5.6t5.34,10.41q0,71-50.17,71a21.72,21.72,0,0,1-16-6.41q-8-8-6.94-10.14,3.2-8.54,5.87-18.41a82.86,82.86,0,0,0,2.67-21.62q0-17.09-11.18-17.08h-157q-17,0-17-16.55V259.93q0-13.87,27-13.88,29.07,0,29.08,12.28v206q0,12.81,7.51,12.81h79.45q7.51,0,7.51-11.74V259.93q0-8.53,9.52-12.81,5.28-1.06,18.51-1.07m0-10.68c-9.74,0-16.29.41-20.61,1.28a10.67,10.67,0,0,0-2.27.73c-13.76,6.18-15.82,16.78-15.82,22.55V465.42c0,.4,0,.75,0,1.07h-73c0-.58-.08-1.28-.08-2.14v-206c0-8.4-5-15.34-13.8-19-6.23-2.63-14.73-3.91-26-3.91-32.75,0-37.64,15.38-37.64,24.55V477.16c0,17,10.36,27.22,27.7,27.22h156.71a19.07,19.07,0,0,1,.79,6.41,72.61,72.61,0,0,1-2.3,18.84c-1.66,6.13-3.49,11.89-5.44,17.12-3.76,8.74,4.36,16.86,9.26,21.76a32.56,32.56,0,0,0,23.56,9.53c20.31,0,35.9-7.49,46.34-22.26,9.76-13.81,14.5-33.24,14.5-59.4,0-4.92-1.58-12.13-9.09-18.53-5.08-4.3-11.64-7-19.54-8a141.77,141.77,0,0,1-14.61-3.79V261.53c0-11.15-6.2-19.86-17-23.88-2.94-1.11-7.87-2.27-21.7-2.27Zm37.06,230.05h0Z" transform="translate(-44.66 -28.29)"/><path class="cls-1" d="M2832.28,488.37q0,10.67-29.36,10.68-23.49,0-27.22-6.94l-28.29-50.17a133.4,133.4,0,0,1-24.29,21.62,197,197,0,0,1-30.69,17.88,211.85,211.85,0,0,1-32,12q-16,4.53-28.82,4.54-13.35,0-23.75-11.74a39.11,39.11,0,0,1-10.41-26.69q0-12.27,9.34-31.49A325.45,325.45,0,0,1,2630,388.29a430.92,430.92,0,0,1,29.62-39,337.6,337.6,0,0,1,28-29.62h-.53q-21.35-32-27.49-49.64t-6.14-20.28q0-5.33,33.09-5.34,29.89,0,33.09,5.87l107.28,221.51Q2832.28,480.91,2832.28,488.37Zm-135-151.05q-6.4,8-14.41,19.75t-14.94,24.29a231.55,231.55,0,0,0-11.74,24.29q-4.8,11.75-4.8,19.75,0,27.22,22.42,27.22,16.54,0,34.43-8a87.29,87.29,0,0,0,30.16-21.88Z" transform="translate(-44.66 -28.29)"/><path class="cls-2" d="M2686.57,244.45q29.89,0,33.09,5.87l107.28,221.51q5.33,9.08,5.34,16.55,0,10.67-29.36,10.68-23.49,0-27.22-6.94l-28.29-50.17a133.4,133.4,0,0,1-24.29,21.62,197,197,0,0,1-30.69,17.88,211.85,211.85,0,0,1-32,12q-16,4.53-28.82,4.54-13.35,0-23.75-11.74a39.11,39.11,0,0,1-10.41-26.69q0-12.27,9.34-31.49A325.45,325.45,0,0,1,2630,388.29a430.92,430.92,0,0,1,29.62-39,337.6,337.6,0,0,1,28-29.62h-.53q-21.35-32-27.49-49.64t-6.14-20.28q0-5.33,33.09-5.34m-12.81,208.16q16.54,0,34.43-8a87.29,87.29,0,0,0,30.16-21.88l-41.1-85.4q-6.4,8-14.41,19.75t-14.94,24.29a231.55,231.55,0,0,0-11.74,24.29q-4.8,11.75-4.8,19.75,0,27.22,22.42,27.22m12.81-218.84c-11.71,0-20.38.48-26.52,1.47a32.9,32.9,0,0,0-9.15,2.6c-7.3,3.53-8.09,9.53-8.09,11.94s.5,5.91,6.73,23.8c3.93,11.3,11.8,26,24,44.86-6.72,6.67-14.09,14.7-22,24a443.58,443.58,0,0,0-30.35,39.92,337.67,337.67,0,0,0-24,41.08c-7,14.41-10.41,26.23-10.41,36.15,0,12.61,4.41,24,13.1,33.77,9,10.17,19.7,15.33,31.74,15.33,9.46,0,20.14-1.66,31.73-4.94A223.55,223.55,0,0,0,2697,491.1a208.61,208.61,0,0,0,32.35-18.84,163.56,163.56,0,0,0,15.81-12.68l21.26,37.7c6,11,22.7,12.44,36.56,12.44,11.14,0,19.53-1.08,25.66-3.31,13-4.72,14.37-14.19,14.37-18,0-6.76-2.21-14-6.58-21.57L2729.27,245.67l-.24-.46c-4.55-8.33-16.06-11.43-42.46-11.43Zm-12.81,208.16c-5,0-11.74,0-11.74-16.55,0-2.69.7-7.61,4-15.71a221.93,221.93,0,0,1,11.2-23.16c4.42-8,9.28-15.89,14.43-23.44q1.85-2.72,3.62-5.23l30.22,62.79a78.71,78.71,0,0,1-21.67,14.23c-10.49,4.69-20.6,7.07-30.06,7.07Z" transform="translate(-44.66 -28.29)"/><path class="cls-1" d="M2926.13,459q0-6.4,9.34-10.14a58,58,0,0,1,21.62-3.74,56,56,0,0,1,21.35,3.74q9.07,3.74,9.07,9.61v32q0,5.87-9.07,9.87t-21.35,4a54.45,54.45,0,0,1-21.62-4q-9.34-4-9.34-10.41Z" transform="translate(-44.66 -28.29)"/><path class="cls-2" d="M2957.09,445.14a56,56,0,0,1,21.35,3.74q9.07,3.74,9.07,9.61v32q0,5.87-9.07,9.87t-21.35,4a54.45,54.45,0,0,1-21.62-4q-9.34-4-9.34-10.41V459q0-6.4,9.34-10.14a58,58,0,0,1,21.62-3.74m0-6a64.2,64.2,0,0,0-23.84,4.16c-10.84,4.34-13.12,10.94-13.12,15.71v31c0,4.73,2.25,11.33,13,15.92a60.63,60.63,0,0,0,24,4.49,58.75,58.75,0,0,0,23.77-4.51c10.46-4.62,12.65-10.9,12.65-15.36v-32c0-4.51-2.22-10.8-12.78-15.15a62.19,62.19,0,0,0-23.64-4.19Z" transform="translate(-44.66 -28.29)"/><path class="cls-2" d="M3171.65,125.9c1.27-4.64-.14-6,3.16-10.15,1.53-1.92,5.62-4.2,5.62-4.2s-5.74,0-13.64,4.92c-4,2.45-7.25,10.84-4.1,13.73C3165.23,132.54,3170.6,129.71,3171.65,125.9Z" transform="translate(-44.66 -28.29)"/><path class="cls-2" d="M3154.17,131c1.27-4.64-.14-6,3.16-10.15,1.53-1.92,5.62-4.2,5.62-4.2s-5.74,0-13.64,4.92c-4,2.45-7.25,10.84-4.1,13.73C3147.76,137.67,3153.13,134.84,3154.17,131Z" transform="translate(-44.66 -28.29)"/><path class="cls-2" d="M3186,122.48c1.12-4.07-.12-5.29,2.77-8.91,1.34-1.68,4.93-3.69,4.93-3.69s-5,0-12,4.32c-3.48,2.15-6.36,9.51-3.6,12C3180.36,128.3,3185.06,125.82,3186,122.48Z" transform="translate(-44.66 -28.29)"/><path class="cls-2" d="M3162.37,143.59c-1.74-3.84-3.47-4-3.56-8.62,0-2.15,1.44-6,1.44-6s-3.85,3.25-6.45,11c-1.31,3.87,1.18,11.38,4.92,11.56C3161.76,151.67,3163.8,146.75,3162.37,143.59Z" transform="translate(-44.66 -28.29)"/><path class="cls-2" d="M3197,118c.71-2.59-.08-3.37,1.77-5.67a14,14,0,0,1,3.14-2.35s-3.21,0-7.62,2.75c-2.22,1.37-4.05,6.06-2.29,7.67C3193.41,121.7,3196.41,120.12,3197,118Z" transform="translate(-44.66 -28.29)"/><path class="cls-2" d="M3167.56,137.76c-1.75-.75-2.38-.27-3.81-1.79a9.9,9.9,0,0,1-1.34-2.43,11.57,11.57,0,0,0,1.19,5.62c.75,1.69,3.86,3.43,5.17,2.35C3169.81,140.63,3169,138.37,3167.56,137.76Z" transform="translate(-44.66 -28.29)"/><path class="cls-2" d="M3166.65,101.26c2.08,3.37,1.89,4.26,5.75,6.94,1.8,1.25,5.29,1.66,5.29,1.66s-5.45,1.93-13.76-.66c-4.17-1.3-8.85-7.26-6.48-9.93C3159.39,97.1,3164.93,98.49,3166.65,101.26Z" transform="translate(-44.66 -28.29)"/><path class="cls-2" d="M3154.53,105c2.08,3.37,1.89,4.26,5.75,6.94,1.8,1.25,5.29,1.66,5.29,1.66s-5.45,1.93-13.76-.66c-4.17-1.3-8.85-7.26-6.48-9.93C3147.27,100.85,3152.82,102.24,3154.53,105Z" transform="translate(-44.66 -28.29)"/><path class="cls-2" d="M3137.75,106c2.59,4.19,2.35,5.3,7.16,8.63,2.24,1.55,6.58,2.07,6.58,2.07s-6.78,2.4-17.11-.83c-5.19-1.62-11-9-8.05-12.35C3128.72,100.79,3135.62,102.51,3137.75,106Z" transform="translate(-44.66 -28.29)"/><path class="cls-2" d="M3181.62,100.87c2.38,2.61,2.35,3.42,6.17,5.14a13.07,13.07,0,0,0,4.91.59s-4.46,2.58-12.16,1.67c-3.87-.46-8.94-4.91-7.3-7.64C3174.58,98.41,3179.66,98.72,3181.62,100.87Z" transform="translate(-44.66 -28.29)"/><path class="cls-2" d="M3234.3,133.46c-.28-4.8,1.39-5.87-1-10.59-1.1-2.19-4.61-5.28-4.61-5.28s5.61,1.24,12.31,7.66c3.37,3.22,4.82,12.11,1.14,14.28C3239.18,141.3,3234.53,137.41,3234.3,133.46Z" transform="translate(-44.66 -28.29)"/><path class="cls-2" d="M3250.31,142.12c-.28-4.8,1.39-5.87-1-10.59-1.1-2.19-4.61-5.28-4.61-5.28s5.61,1.24,12.31,7.66c3.37,3.22,4.82,12.11,1.14,14.28C3255.2,150,3250.54,146.07,3250.31,142.12Z" transform="translate(-44.66 -28.29)"/><path class="cls-2" d="M3221,127.12c-.24-4.21,1.22-5.15-.85-9.29-1-1.92-4-4.63-4-4.63s4.92,1.09,10.8,6.72c3,2.83,4.23,10.63,1,12.53C3225.28,134,3221.2,130.58,3221,127.12Z" transform="translate(-44.66 -28.29)"/><path class="cls-2" d="M3211.16,120.43c-.15-2.68.78-3.28-.54-5.92a14,14,0,0,0-2.58-3s3.13.69,6.88,4.28c1.88,1.8,2.7,6.77.64,8C3213.89,124.81,3211.29,122.64,3211.16,120.43Z" transform="translate(-44.66 -28.29)"/><path class="cls-2" d="M3200.68,102.41c.91,1.67.49,2.34,2.14,3.63a9.9,9.9,0,0,0,2.55,1.11,11.57,11.57,0,0,1-5.71-.66c-1.75-.58-3.78-3.52-2.82-4.92C3197.61,100.43,3199.93,101,3200.68,102.41Z" transform="translate(-44.66 -28.29)"/><path class="cls-2" d="M3214.74,104c-1.53,1.13-1.44,1.91-3.48,2.38a9.9,9.9,0,0,1-2.78-.07,11.57,11.57,0,0,0,5.45,1.82c1.83.21,4.92-1.59,4.65-3.26C3218.36,103.49,3216,103,3214.74,104Z" transform="translate(-44.66 -28.29)"/><path class="cls-2" d="M3244.34,110.41c-2.74,2.86-2.74,3.77-7.08,5.59-2,.84-5.52.52-5.52.52s4.93,3,13.6,2.23c4.35-.4,10.18-5.24,8.41-8.36C3252.31,107.86,3246.59,108.06,3244.34,110.41Z" transform="translate(-44.66 -28.29)"/><path class="cls-2" d="M3255.4,116.61c-2.74,2.86-2.74,3.77-7.08,5.59-2,.84-5.52.52-5.52.52s4.93,3,13.6,2.23c4.35-.4,10.18-5.24,8.41-8.36C3263.37,114.06,3257.66,114.26,3255.4,116.61Z" transform="translate(-44.66 -28.29)"/><path class="cls-2" d="M3271.61,121c-3.41,3.56-3.4,4.69-8.8,6.95-2.51,1-6.87.65-6.87.65s6.13,3.76,16.91,2.77c5.41-.5,12.65-6.52,10.46-10.39C3281.52,117.88,3274.42,118.12,3271.61,121Z" transform="translate(-44.66 -28.29)"/><path class="cls-2" d="M3229.78,106.9c-2.87,2.06-3,2.86-7.11,3.74a13.07,13.07,0,0,1-4.92-.45s3.82,3.45,11.54,4.17c3.88.36,9.77-2.93,8.73-5.94C3237.18,106,3232.14,105.2,3229.78,106.9Z" transform="translate(-44.66 -28.29)"/><path class="cls-2" d="M3314.89,162.53c-8.49,1.89-9.52,5.26-18.9,3.58-4.37-.78-11.49-5.23-11.49-5.23s5,8.91,19.48,17.14c7.29,4.13,23.48,2.22,25.41-5.1C3331,167,3321.87,161,3314.89,162.53Z" transform="translate(-44.66 -28.29)"/><path class="cls-2" d="M3326.74,187.22c-8.26,1.37-7.92,3.53-16.86,1.42-4.16-1-13.37-8.62-13.37-8.62s5.15,15.46,18.68,24.14c6.79,4.36,23.06,7.72,24.94-6.19C3340.93,192.1,3333.54,186.09,3326.74,187.22Z" transform="translate(-44.66 -28.29)"/><path class="cls-2" d="M3299.49,144.79c-7.16,1.59-8,4.43-15.95,3-3.68-.66-12.62-3-12.62-3s5.29,6.56,17.53,13.51c6.15,3.49,20.07,3.49,23.26-4.74C3313.59,148.71,3305.38,143.48,3299.49,144.79Z" transform="translate(-44.66 -28.29)"/><path class="cls-2" d="M3284,130.47c-5.69,3.09-5.74,5.76-12.81,6.4-3.29.3-9.32-1.54-9.32-1.54s5.4,5.54,17.5,8.67c6.08,1.57,17.29-3.06,17.16-8.82C3296.41,130.51,3288.66,127.93,3284,130.47Z" transform="translate(-44.66 -28.29)"/><path class="cls-2" d="M3270.78,191.64c4.95-5.72,6.71-5.89,9.3-14.43,1.21-4,1-12.74,1-12.74s5.73,10.93,6,27.44c.13,8.29-8,20.21-14.37,17.48C3267.51,207.17,3266.71,196.35,3270.78,191.64Z" transform="translate(-44.66 -28.29)"/><path class="cls-2" d="M3275.53,216.6c6.46-6.44,12.23-8,16.11-18,1.81-4.67,1.36-16.77,1.36-16.77s10,19.57,5.85,40c-2,9.79-16.16,18.06-23.58,14.21C3269.26,232.87,3270.22,221.9,3275.53,216.6Z" transform="translate(-44.66 -28.29)"/><path class="cls-2" d="M3264.69,166.65c2.14-5,3.32-5.5,3.22-11.94,0-3-2.42-7.22-2.42-7.22s6.64,4.53,10.47,15.86c1.92,5.68-1,15.64-6,15.13C3265.88,178.06,3262.93,170.77,3264.69,166.65Z" transform="translate(-44.66 -28.29)"/><path class="cls-2" d="M3111.78,134.91c-4.61,4.59-5.65,9.92-5.5,15.6.1,3.8,4.11,7.95,4.11,7.95a17.18,17.18,0,0,1-14.58-14.52c-2.17-12.07,4.45-22.35,11.41-22.13C3114.8,122,3114.57,132.13,3111.78,134.91Z" transform="translate(-44.66 -28.29)"/><path class="cls-2" d="M3099.49,157.52c1.06,3.43,3.64,4.92,6.79,5.77,2.1.57,5.62-1.07,5.62-1.07s-4.46,6.86-12.49,6c-7.27-.74-10.8-6.28-8.5-10.28C3093.41,153.65,3098.85,155.45,3099.49,157.52Z" transform="translate(-44.66 -28.29)"/><path class="cls-2" d="M3116.51,108.63c-.09,3.59,1.88,5.82,4.59,7.64,1.81,1.21,5.67.79,5.67.79s-6.42,5.08-13.76,1.74c-6.65-3-8.23-9.4-4.77-12.45C3112,103,3116.56,106.46,3116.51,108.63Z" transform="translate(-44.66 -28.29)"/><path class="cls-2" d="M3099.86,171.84c3.8.81,7.06-.81,10.2-3.28,2.1-1.65,3.34-5.78,3.34-5.78s2.61,7.73-4.21,14.76c-6.17,6.36-13.69,6.73-15.44,2.51C3091.85,175.44,3097.56,171.35,3099.86,171.84Z" transform="translate(-44.66 -28.29)"/><path class="cls-2" d="M3110.74,182.44c3.82-1.79,5.74-5,7-8.73.87-2.5-.46-6.25-.46-6.25s6.84,3.94,5,13.26c-1.69,8.43-8.08,13.39-12.1,11.44C3105.82,190,3108.43,183.52,3110.74,182.44Z" transform="translate(-44.66 -28.29)"/><path class="cls-2" d="M3124.34,190.64c4.24-4.45,5.08-9.5,4.78-14.84-.2-3.57-4.12-7.36-4.12-7.36a16.22,16.22,0,0,1,14.23,13.23c2.39,11.29-3.6,21.15-10.21,21.15C3121.83,202.83,3121.77,193.33,3124.34,190.64Z" transform="translate(-44.66 -28.29)"/><path class="cls-2" d="M3153.75,160c-4.18,4.51-9.07,5.56-14.28,5.45-3.49-.08-7.32-4-7.32-4s1.16,11.85,13.41,14.1c11.09,2,20.48-4.47,20.24-11.24C3165.54,157,3156.28,157.3,3153.75,160Z" transform="translate(-44.66 -28.29)"/><path class="cls-2" d="M3132.5,136.39c-5.79-.92-10.59,1.73-15.14,5.65-3,2.62-4.63,8.85-4.63,8.85s-4.48-11.31,5.3-22.27c8.85-9.92,20.16-11,23.09-4.89C3144.31,130.42,3136,136.94,3132.5,136.39Z" transform="translate(-44.66 -28.29)"/><path class="cls-2" d="M3136.85,156c.25-5.27-2.32-8.6-5.89-11.33-2.39-1.82-7.58-1.28-7.58-1.28s8.79-7.32,18.54-2.25c8.82,4.59,10.71,14,6,18.41C3142.71,164.39,3136.7,159.23,3136.85,156Z" transform="translate(-44.66 -28.29)"/><ellipse class="cls-2" cx="3122.22" cy="156.09" rx="10.07" ry="8.8" transform="translate(1010.92 2473.35) rotate(-51.48)"/><ellipse class="cls-1" cx="3122.22" cy="156.09" rx="4.89" ry="4.27" transform="translate(1010.92 2473.35) rotate(-51.48)"/><ellipse class="cls-2" cx="3318.24" cy="227.16" rx="16.06" ry="16.32" transform="translate(1029.25 2653.52) rotate(-51.48)"/><ellipse class="cls-1" cx="3318.24" cy="227.16" rx="7.8" ry="7.93" transform="translate(1029.25 2653.52) rotate(-51.48)"/><path class="cls-2" d="M3196.08,318.88c-1.38,4.61,0,6-3.38,10.08-1.57,1.88-5.71,4.08-5.71,4.08s5.74.08,13.75-4.62c4-2.36,7.49-10.67,4.41-13.63C3202.63,312.38,3197.21,315.09,3196.08,318.88Z" transform="translate(-44.66 -28.29)"/><path class="cls-2" d="M3213.66,314.15c-1.38,4.61,0,6-3.38,10.08-1.57,1.88-5.71,4.08-5.71,4.08s5.74.08,13.75-4.62c4-2.36,7.49-10.67,4.41-13.63C3220.22,307.65,3214.79,310.36,3213.66,314.15Z" transform="translate(-44.66 -28.29)"/><path class="cls-2" d="M3181.67,322c-1.21,4,0,5.29-3,8.84-1.38,1.65-5,3.57-5,3.57s5,.07,12.06-4c3.53-2.07,6.57-9.36,3.86-12C3187.42,316.28,3182.66,318.66,3181.67,322Z" transform="translate(-44.66 -28.29)"/><path class="cls-2" d="M3170.56,326.22c-.77,2.57,0,3.37-1.89,5.63a14,14,0,0,1-3.19,2.28s3.21,0,7.68-2.58c2.25-1.32,4.19-6,2.46-7.62C3174.22,322.59,3171.19,324.1,3170.56,326.22Z" transform="translate(-44.66 -28.29)"/><path class="cls-2" d="M3170.24,343.06c-1.23-1.45-1-2.19-2.83-3.12a9.9,9.9,0,0,0-2.72-.57,11.57,11.57,0,0,1,5.72-.52c1.83.22,4.42,2.68,3.77,4.24C3173.65,344.37,3171.25,344.25,3170.24,343.06Z" transform="translate(-44.66 -28.29)"/><path class="cls-2" d="M3200.52,343.62c-2-3.41-1.79-4.3-5.6-7.07-1.77-1.29-5.25-1.78-5.25-1.78s5.49-1.8,13.74,1c4.14,1.39,8.69,7.45,6.25,10.07C3207.69,347.94,3202.18,346.43,3200.52,343.62Z" transform="translate(-44.66 -28.29)"/><path class="cls-2" d="M3212.72,340.15c-2-3.41-1.79-4.3-5.6-7.07-1.77-1.29-5.25-1.78-5.25-1.78s5.49-1.8,13.74,1c4.14,1.39,8.69,7.45,6.25,10.07C3219.89,344.47,3214.37,343,3212.72,340.15Z" transform="translate(-44.66 -28.29)"/><path class="cls-2" d="M3229.52,339.57c-2.5-4.25-2.23-5.35-7-8.79-2.2-1.6-6.53-2.22-6.53-2.22s6.83-2.24,17.09,1.21c5.15,1.73,10.81,9.26,7.78,12.52C3238.43,344.94,3231.57,343.06,3229.52,339.57Z" transform="translate(-44.66 -28.29)"/><path class="cls-2" d="M3185.55,343.69c-2.32-2.66-2.27-3.47-6.06-5.28a13.07,13.07,0,0,0-4.89-.7s4.51-2.48,12.2-1.4c3.85.54,8.83,5.11,7.12,7.8C3192.53,346.3,3187.45,345.88,3185.55,343.69Z" transform="translate(-44.66 -28.29)"/><path class="cls-2" d="M3281.2,309.19c-7.82-3.8-8-7.31-17.57-7.84-4.43-.25-12.39,2.44-12.39,2.44s6.88-7.52,22.91-12.18c8-2.34,23.36,3.26,23.55,10.83C3297.86,308.59,3287.63,312.32,3281.2,309.19Z" transform="translate(-44.66 -28.29)"/><path class="cls-2" d="M3298.43,287.91c-7.72-3.24-6.89-5.27-16.08-5.27-4.27,0-15,5.3-15,5.3s8.58-13.85,23.75-19.18c7.61-2.67,24.22-2.19,22.84,11.78C3313.36,286.44,3304.78,290.57,3298.43,287.91Z" transform="translate(-44.66 -28.29)"/><path class="cls-2" d="M3262.13,322.9c-6.6-3.2-6.79-6.17-14.82-6.61-3.74-.21-13,0-13,0s6.66-5.17,20.18-9.1c6.78-2,20.34,1.23,21.53,10C3276.74,322.34,3267.55,325.54,3262.13,322.9Z" transform="translate(-44.66 -28.29)"/><path class="cls-2" d="M3243.72,333.26c-4.83-4.32-4.25-6.93-11-9.19-3.13-1.05-9.42-.65-9.42-.65s6.53-4.14,19-4.39c6.28-.13,16.11,7,14.66,12.54C3255.83,336.09,3247.69,336.81,3243.72,333.26Z" transform="translate(-44.66 -28.29)"/><path class="cls-2" d="M3244.45,277.84c2.06,6.29,3.39,7,2.73,14.84-.31,3.66-3.23,10.8-3.23,10.8s7.91-7.18,13.3-20.7c2.71-6.78.1-19.19-5.73-19C3246.78,264,3242.75,272.67,3244.45,277.84Z" transform="translate(-44.66 -28.29)"/><path class="cls-2" d="M3256,258.79c3,7.36,7.05,10.44,6.93,19.95-.06,4.42-4.21,14.25-4.21,14.25s13.92-13,17.11-31c1.53-8.69-6.95-20-13.94-19.2C3256.21,243.4,3253.52,252.74,3256,258.79Z" transform="translate(-44.66 -28.29)"/><path class="cls-2" d="M3145.57,197.06c1.57,8.23,3.72,7.83,1.82,16.82-.88,4.18-8.3,13.57-8.3,13.57s15.33-5.52,23.69-19.25c4.19-6.89,7.17-23.24-6.78-24.79C3150.1,182.76,3144.27,190.29,3145.57,197.06Z" transform="translate(-44.66 -28.29)"/><path class="cls-2" d="M3114.59,208.05c.47,7.94-1.83,12.47,2.4,21,2,4,10,11,10,11s-18.16-5.64-28.88-20.57c-5.15-7.17-2.42-21,4.24-23.34C3107.73,194.27,3114.21,201.52,3114.59,208.05Z" transform="translate(-44.66 -28.29)"/><path class="cls-2" d="M3133.59,212.06c1.11,3.63,2.06,3.34,1.64,7.48-.19,1.92-3.07,6.51-3.07,6.51s6.63-3.23,9.72-9.82c1.55-3.31,2.09-10.81-4.26-10.82C3134.93,205.4,3132.67,209.08,3133.59,212.06Z" transform="translate(-44.66 -28.29)"/><path class="cls-2" d="M3128.52,215.1c-.52,3.69-2,5.55-.83,9.85.54,2,3.56,6,3.56,6s-7.81-4.26-11.36-12.1c-1.7-3.76.83-9.88,4.1-10.32C3126.64,208.14,3128.94,212.07,3128.52,215.1Z" transform="translate(-44.66 -28.29)"/><path class="cls-2" d="M3105.27,258.78c8.14,5,14.24,5.16,20.85,14.47,3.07,4.33,6,16.82,6,16.82s4.36-22.43-5.35-42.27c-4.66-9.53-20.91-14.53-27.13-8.78C3094.58,243.68,3098.58,254.65,3105.27,258.78Z" transform="translate(-44.66 -28.29)"/><path class="cls-2" d="M3104,279.33c4.2,1.55,8.3,1.26,12.19,4.92,1.81,1.71,10.17,10,10.17,10s-4.89-14.85-11.18-23.06c-3-3.94-12.49-5.43-14.82-2.22C3098.51,271.59,3100.58,278.05,3104,279.33Z" transform="translate(-44.66 -28.29)"/><path class="cls-2" d="M3105.74,308.69c7.76,2.5,12.85,1.38,20.22,7.75,3.43,3,8.39,12.72,8.39,12.72s1.24-18-10.83-32.44c-5.8-6.95-22.48-9.29-26.47-3.26C3093.81,298.35,3099.35,306.63,3105.74,308.69Z" transform="translate(-44.66 -28.29)"/><path class="cls-2" d="M3106,328.78c4.77-.8,7.78-2.89,13.4-1.54,2.61.63,16.31,8.8,16.31,8.8s-11.6-15.81-21.9-20.13c-4.95-2.08-14.91-2-16.3,3.61C3095.87,326.09,3102.06,329.43,3106,328.78Z" transform="translate(-44.66 -28.29)"/><path class="cls-2" d="M3161.4,244.23c-7.13,4.39-12.49,4.52-18.28,12.69-2.69,3.8-5.26,14.75-5.26,14.75S3134,252,3142.55,234.6c4.09-8.36,18.34-12.74,23.79-7.7C3170.77,231,3167.27,240.62,3161.4,244.23Z" transform="translate(-44.66 -28.29)"/><path class="cls-2" d="M3161.34,275.14c-6.36,2.35-10.09.47-16,6-2.74,2.58-11.79,16.69-11.79,16.69s4.67-23,14.19-35.44c4.57-6,16.57-7.19,20.1-2.32C3170.71,264,3166.58,273.2,3161.34,275.14Z" transform="translate(-44.66 -28.29)"/><path class="cls-2" d="M3158.29,301c-6,2.64-8.31.56-14,6.52-2.63,2.77-6.17,14.44-6.17,14.44s-3.38-17.59,5.88-30.84c4.45-6.36,17.07-10.12,20.21-5.16C3166.77,290,3163.22,298.83,3158.29,301Z" transform="translate(-44.66 -28.29)"/><path class="cls-2" d="M3161.08,316.15c-3.23,2.47-5,1.66-7.46,6-1.14,2-1.3,9.19-1.3,9.19s-5.11-9.43-1.72-18.44c1.63-4.33,8.74-8.5,11.52-6.19C3164.39,308.53,3163.74,314.12,3161.08,316.15Z" transform="translate(-44.66 -28.29)"/><path class="cls-2" d="M3148.65,333.12c.65,4.46,2.71,6.08,6.59,8.25,2.26,1.27,8,2.33,8,2.33s-11.22,7.07-20.24-.09c-3.17-2.51-5.2-10.34-2.85-13C3143,327.49,3148.18,329.86,3148.65,333.12Z" transform="translate(-44.66 -28.29)"/><path class="cls-2" d="M3161.72,326.69a9.67,9.67,0,0,0-1.09,4.87c0,1.12,3,5.47,3,5.47s-6.38-3-7.08-9.31c-.25-2.23,1.73-5.58,3.46-5.32C3162,322.73,3162.38,325.21,3161.72,326.69Z" transform="translate(-44.66 -28.29)"/><path class="cls-2" d="M3231.86,296.49c.1,4.8.86,5.58-1.24,10.86-1,2.45-4.16,5.18-4.16,5.18s6.61-1.62,13.15-9.73c3.28-4.07,4.1-13.22,0-14.38C3236.36,287.47,3231.78,292.53,3231.86,296.49Z" transform="translate(-44.66 -28.29)"/><path class="cls-2" d="M3280.85,257.12c1.38,3.36,2.87,3.55,2.8,7.54a18.89,18.89,0,0,1-1.42,5.11s3.42-2.68,5.89-9.24c1.24-3.3-.66-9.83-3.88-10.11C3281.62,250.18,3279.72,254.35,3280.85,257.12Z" transform="translate(-44.66 -28.29)"/><path class="cls-2" d="M3276.86,245.31c2.44-.17,2.87-1.08,5.4-.19a12.69,12.69,0,0,1,3,2,14.83,14.83,0,0,0-4.65-5.71c-1.84-1.49-6.41-1.65-7.27.34C3272.61,243.35,3274.86,245.45,3276.86,245.31Z" transform="translate(-44.66 -28.29)"/><path class="cls-2" d="M3289.35,240.39c1.07,2.62,2.23,2.76,2.18,5.86a14.69,14.69,0,0,1-1.11,4s2.66-2.08,4.59-7.19c1-2.56-.52-7.65-3-7.86C3289.95,235,3288.47,238.24,3289.35,240.39Z" transform="translate(-44.66 -28.29)"/><path class="cls-2" d="M3308.48,267c-4.56-1.58-5-2.58-10.85-2.14-2.71.2-8.55,1.08-8.55,1.08a59.67,59.67,0,0,1,16.41-9.35c5.13-2,16.06.56,15.64,4.92C3320.8,265,3312.23,268.3,3308.48,267Z" transform="translate(-44.66 -28.29)"/><path class="cls-2" d="M3307.6,254.08c-4.89-.25-5.79-2.05-10.82-.18-2.34.87-5.85,4.09-5.85,4.09s1.87-5.54,9.11-11.62c3.63-3.05,16.63-2.49,16.82,1.86C3317.06,252.77,3311.62,254.28,3307.6,254.08Z" transform="translate(-44.66 -28.29)"/><path class="cls-2" d="M3112.29,447s-7.13-11.73-22.83-4.4c-14.66,6.85-28.22,44.84-3.51,61.65,25.82,17.57,88.36,12.24,88.65-13.28,1.4-120.91-76.3-159.69-76.3-159.69,25.21,29.29,49.13,64.8,53,79.35,5.75,21.62,3.89,34.62-2.87,50.23-17.66,40.81-41,33.1-49.07,24.48C3090.63,476.06,3087.14,451.15,3112.29,447Z" transform="translate(-44.66 -28.29)"/><path class="cls-2" d="M3111.44,454c.11,2.33.55,4.5,1.48,5.71a3.77,3.77,0,0,0,1.54,1.23,4.15,4.15,0,0,0,1.76.35,12.21,12.21,0,0,0,4.44-.85,12,12,0,0,0,4.61-3.08,22.74,22.74,0,0,0,1.93-2.34,28.51,28.51,0,0,0,1.61-2.7l.75-1.42.64-1.49c.45-1,.82-2,1.18-3.08a43.13,43.13,0,0,0,1.7-6.43,92.4,92.4,0,0,0,1.13-14.87s2.21,13.06.8,20.37c-.81,4.61-2.58,11.09-5.73,15.29a21.2,21.2,0,0,1-5.84,5.63,11.43,11.43,0,0,1-8.6,1.56,8.6,8.6,0,0,1-4.21-2.33,7.81,7.81,0,0,1-2.16-4.19,8.86,8.86,0,0,1,.39-4.24,9.55,9.55,0,0,1,2-3.36.35.35,0,0,1,.5,0,.34.34,0,0,1,.11.23Z" transform="translate(-44.66 -28.29)"/><path class="cls-2" d="M3106.57,462.57c.09,3.35-1.59,6.61,1.88,9.94s10.27,2.12,13.48.81a28.68,28.68,0,0,0,10.47-8.49c6-8,5.85-15.54,6.42-21.86.58-6.48-2.16-18.17-2.16-18.17s6.63,15.15,5.55,27.32c-1,6.17-2.45,13.06-7.6,19.26a35.24,35.24,0,0,1-9.48,8.39,20.21,20.21,0,0,1-13.69,2.65,13.16,13.16,0,0,1-6.59-3.16,10.19,10.19,0,0,1-3.25-5.93,11.9,11.9,0,0,1,.78-6.13,14.62,14.62,0,0,1,3.25-4.93.6.6,0,0,1,.79-.06.45.45,0,0,1,.16.33Z" transform="translate(-44.66 -28.29)"/><path class="cls-1" d="M3098.87,393.24c3-12.88,4.94-19.37,4.38-28.38-.26-4.19-5.48-26.12-5.48-26.12s16,20.55,24.27,32.35c9.25,13.21,10.23,21.35,10.39,22.76.08.69.14,1.44.17,2.17,0,.35,0,.75,0,1.17v.61l0,.86c-.07,6.8-5.72,10.87-11.62,12.23C3105.76,414.4,3096.83,402.07,3098.87,393.24Z" transform="translate(-44.66 -28.29)"/><path class="cls-2" d="M3135.95,353.57c-2.41-4.49-4.67-6.5-7.38-9.4-1.26-1.35-9.94-8.14-9.94-8.14s11.88,5.2,18.35,8.28c7.24,3.44,10,7.06,11,9.46,1.82,4.45.23,9-1.81,9.64C3141.63,364.9,3137.6,356.65,3135.95,353.57Z" transform="translate(-44.66 -28.29)"/><path class="cls-2" d="M3158.8,364.08a13.62,13.62,0,0,0-1.48-6.36c-1.1-2.45-6.69-7.52-6.69-7.52s7.35,3.84,11.08,7c4.17,3.5,5.22,6.59,5.32,8.54.2,3.61-1.69,5-3.26,5.27C3160.3,371.55,3158.83,366.72,3158.8,364.08Z" transform="translate(-44.66 -28.29)"/><path class="cls-2" d="M3161.13,381.56a16.33,16.33,0,0,1-5.75-5.32c-1.9-2.6-3.88-11.44-3.88-11.44s-.35,9.94.7,15.68c1.18,6.43,3.78,9.35,5.74,10.61,3.64,2.35,6.23,1.2,7.43-.28C3168,387.56,3163.86,383.16,3161.13,381.56Z" transform="translate(-44.66 -28.29)"/><path class="cls-2" d="M3107.72,389c1.69-6.73,2.78-10.13,2.57-14.82-.1-2.18-2.62-13.54-2.62-13.54s8.18,10.54,12.39,16.6c4.72,6.78,5.15,11,5.22,11.75,0,.36.06.75.07,1.13,0,.18,0,.39,0,.61V391l0,.45c-.11,3.54-3.1,5.71-6.21,6.48C3111.12,399.91,3106.57,393.58,3107.72,389Z" transform="translate(-44.66 -28.29)"/><path class="cls-2" d="M3114,439.91s.08.06,0,0l-.16,0-.34-.1c-.26-.07-.5-.18-.79-.26l-1.7-.6-1.76-.63c-.6-.18-1.2-.4-1.81-.62s-1.23-.39-1.86-.65-1.27-.42-1.93-.68a20.81,20.81,0,0,0-4.1-1l-1.08-.17-1.07,0c-.72,0-1.49-.11-2.23-.06l-2.26.22c-.39,0-2.25.52-2.25.52-1.53.38-6.11,3.93-7.78,5.8-2.3,2.58-6.35,8.68-6.35,8.68a82.61,82.61,0,0,1,3.73-10,46.58,46.58,0,0,1,5.47-8.1c2.43-2.89,7.6-6.8,11.06-8.82a40.06,40.06,0,0,1,5.45-2.73c1-.34,1.93-.66,2.92-.93s2-.35,3-.49,2-.1,3-.1,2,.09,3,.27a22.94,22.94,0,0,1,3,.65c.5.14,1,.32,1.55.51l.82.33.42.19.59.28c4.67,2.14,7,8,5.13,13.13S3118.65,442,3114,439.91Z" transform="translate(-44.66 -28.29)"/><path class="cls-2" d="M3138.16,418.71l1.49-4.58a44.34,44.34,0,0,0,1.29-4.82,23.31,23.31,0,0,0,.44-5.08,19.12,19.12,0,0,0-.93-5.22.09.09,0,0,1,0-.11.09.09,0,0,1,.09,0,17.79,17.79,0,0,1,2.73,4.85,22.09,22.09,0,0,1,1.25,5.71,25.21,25.21,0,0,1-.18,5.9,21.07,21.07,0,0,1-.67,2.86,14.16,14.16,0,0,1-1.12,2.81,2.39,2.39,0,0,1-3.38,1,2.76,2.76,0,0,1-1.11-3.19Z" transform="translate(-44.66 -28.29)"/><path class="cls-2" d="M3142.7,427.87c.32-.91.87-2,1.32-3.06s1-2.12,1.38-3.24a17,17,0,0,0,.86-3.54,13.86,13.86,0,0,0-.09-3.88.08.08,0,0,1,.15-.07,12.87,12.87,0,0,1,1.92,3.69,16.14,16.14,0,0,1,.77,4.34,17.56,17.56,0,0,1-.37,4.43,13.86,13.86,0,0,1-.66,2.1,9.17,9.17,0,0,1-1,2,2.37,2.37,0,0,1-3.47.55,2.78,2.78,0,0,1-.84-3.08Z" transform="translate(-44.66 -28.29)"/><path class="cls-2" d="M3401.92,619.42s14.9-4.76,12-25.09c-2.7-19-30.87-33.67-62.28-19.95-19.54,8.53-39,60.29,4.73,93.75,68.71,52.6,143.31,20.22,166.52-18.49,31.74-52.91,31.42-145.43,31.42-145.43s-13.9,103.75-58.25,150.21c-17.84,18.69-45.62,22.69-62.51,22.85-25.1.24-43.43-7.74-58.08-20.18-38.3-32.52-22.58-57.18-10.71-64C3377.55,585.75,3405.48,589.12,3401.92,619.42Z" transform="translate(-44.66 -28.29)"/><path class="cls-2" d="M3394.66,616.36c-2.54-.56-5-.7-6.62,0a4.49,4.49,0,0,0-1.81,1.42,5.3,5.3,0,0,0-.94,1.93,15.61,15.61,0,0,0-.5,5.38,14.52,14.52,0,0,0,1.85,6.25,25.88,25.88,0,0,0,1.91,2.93,31.44,31.44,0,0,0,2.4,2.66l1.29,1.29,1.4,1.18a35.49,35.49,0,0,0,2.94,2.27,45.51,45.51,0,0,0,6.38,3.88c6.19,3.19,15.64,5.72,15.64,5.72s-14.76-1.32-22.18-5.11c-4.7-2.31-11.11-6.28-14.63-11.16a24.71,24.71,0,0,1-4.2-8.42,14.56,14.56,0,0,1,1.06-10.4,10.55,10.55,0,0,1,3.85-4.18,8.53,8.53,0,0,1,5.19-1.25,9.25,9.25,0,0,1,4.44,1.7,10.52,10.52,0,0,1,3,3.27.44.44,0,0,1-.13.58.37.37,0,0,1-.28.05Z" transform="translate(-44.66 -28.29)"/><path class="cls-2" d="M3387,608.19c-3.64-.89-6.6-3.8-11.3-.77s-5.55,11.25-5.16,15.34a34.07,34.07,0,0,0,5.81,14.62c6.71,9.33,14.87,11.37,21.48,13.9,6.79,2.59,20.25,2.89,20.25,2.89s-18.41,3.17-31.17-1.68c-6.33-3-13.28-6.7-18.31-14.5a41.45,41.45,0,0,1-6-13.44,25.76,25.76,0,0,1,1.51-16.62,16.3,16.3,0,0,1,5.5-6.68,11.18,11.18,0,0,1,7.42-2,12.44,12.44,0,0,1,6.35,2.72,16.28,16.28,0,0,1,4.28,5.22.76.76,0,0,1-.19.93.49.49,0,0,1-.41.09Z" transform="translate(-44.66 -28.29)"/><path class="cls-1" d="M3450.49,634.35c6.95,4.59,16.55,16.58,44.43-.51,2.67-1.64,4.29-3.79,6.34-5.37l0,0a.34.34,0,0,1,.46,0,.3.3,0,0,1,0,.35c-.63,1.09-1.21,2.23-1.84,3.37a27.84,27.84,0,0,1-1.92,3.44,63.23,63.23,0,0,1-17.62,18.63,68,68,0,0,1-8.26,4.68c-1.47.63-3,1.23-4.51,1.76s-3.11.82-4.7,1.17-3.2.48-4.82.64-3.25.22-4.89.13a41.81,41.81,0,0,1-5-.38c-.81-.11-1.7-.27-2.54-.45-.41-.08-.87-.19-1.35-.32l-.7-.19-1-.29c-7.77-2.17-12.32-9.9-10.18-17.26S3443.55,629.76,3450.49,634.35Z" transform="translate(-44.66 -28.29)"/><path class="cls-1" d="M3409,623.48s-.09.08,0,0l.09-.17.22-.37c.16-.28.36-.52.53-.84l1.19-1.79,1.24-1.85c.38-.64.81-1.27,1.25-1.91s.81-1.3,1.29-2,.86-1.34,1.35-2a26.48,26.48,0,0,0,2.43-4.44l.52-1.2.39-1.23c.24-.83.6-1.69.77-2.56l.49-2.68a7.3,7.3,0,0,0,.12-1.37l0-1.39a29.61,29.61,0,0,0-.51-5.65,41,41,0,0,0-1.62-5.61v0a.24.24,0,0,1,.16-.3.26.26,0,0,1,.27.08c.64.76,1.33,1.49,2,2.26a22.65,22.65,0,0,1,2,2.34,42.19,42.19,0,0,1,3.66,5.21,40.72,40.72,0,0,1,5.39,12.48,49.55,49.55,0,0,1,1.21,7.11c.06,1.2.09,2.42.07,3.65s-.25,2.4-.43,3.61-.53,2.36-.86,3.54-.74,2.32-1.26,3.44a29.3,29.3,0,0,1-1.67,3.33c-.31.53-.68,1.1-1,1.64-.18.26-.39.55-.61.85l-.34.43-.49.59a11.53,11.53,0,0,1-15.77,2A10.6,10.6,0,0,1,3409,623.48Z" transform="translate(-44.66 -28.29)"/><path class="cls-1" d="M3419.12,261.09s-.09-.1,0-.05l.21.1.45.24c.35.18.64.39,1,.59l2.18,1.31,2.26,1.37c.78.42,1.55.9,2.33,1.38s1.59.9,2.39,1.43,1.64,1,2.48,1.49a34.24,34.24,0,0,0,5.43,2.69l1.47.59,1.51.44c1,.28,2.08.68,3.15.88l3.3.57a10.28,10.28,0,0,0,1.69.15l1.71.06a41.77,41.77,0,0,0,7-.46,56.59,56.59,0,0,0,7-1.65h0a.31.31,0,0,1,.37.18.26.26,0,0,1-.1.29c-.95.68-1.87,1.41-2.83,2.13a27.4,27.4,0,0,1-2.93,2.16,53.1,53.1,0,0,1-6.51,3.85,54.54,54.54,0,0,1-15.52,5.6,69.49,69.49,0,0,1-8.8,1.18c-1.49,0-3,.06-4.51,0s-3-.31-4.45-.53-2.91-.61-4.35-1-2.85-.84-4.22-1.42a38.33,38.33,0,0,1-4.09-1.86c-.65-.34-1.35-.75-2-1.16-.32-.2-.67-.43-1-.68l-.52-.37-.72-.54c-5.81-4.17-6.8-11.8-2.21-17A14.38,14.38,0,0,1,3419.12,261.09Z" transform="translate(-44.66 -28.29)"/><path class="cls-2" d="M3460.65,646.23c-.07-.06.32.18.54.27s.57.24.86.34a13.07,13.07,0,0,0,1.92.53,17.07,17.07,0,0,0,4.19.27A32.34,32.34,0,0,0,3477,646c1.5-.41,2.93-1.07,4.42-1.62,1.42-.71,2.89-1.35,4.31-2.13s2.77-1.68,4.12-2.62,2.66-1.93,4-2.94h0a.28.28,0,0,1,.42.11.38.38,0,0,1,0,.46q-1.82,1.74-3.59,3.58c-1.21,1.19-2.49,2.27-3.74,3.42s-2.59,2.19-3.9,3.31-2.74,2.05-4.22,2.91a26.35,26.35,0,0,1-9.69,3.74,19.48,19.48,0,0,1-5.52.06,17.69,17.69,0,0,1-2.89-.71c-.49-.19-1-.4-1.47-.64a10.26,10.26,0,0,1-1.68-1,4,4,0,0,1-1-4.86A2.66,2.66,0,0,1,3460.65,646.23Z" transform="translate(-44.66 -28.29)"/><path class="cls-2" d="M3424.14,657.73l4.45,3.08a46.8,46.8,0,0,0,4.77,2.92,24.27,24.27,0,0,0,5.33,2,20,20,0,0,0,5.91.47.1.1,0,0,1,.11.09.11.11,0,0,1-.06.1,19.54,19.54,0,0,1-6.09,1.72,23.21,23.21,0,0,1-6.54-.24,26.22,26.22,0,0,1-6.29-2,22.16,22.16,0,0,1-2.87-1.62,15.18,15.18,0,0,1-2.67-2.13,3,3,0,0,1,3.8-4.54Z" transform="translate(-44.66 -28.29)"/><path class="cls-3" d="M3399.81,623c-.12,2.72-.16,4.07-.15,6.51a12.18,12.18,0,0,0,1.23,5.53,22.51,22.51,0,0,0,3.24,4.39,34,34,0,0,0,4.28,4.1.1.1,0,0,1,0,.14.11.11,0,0,1-.11,0,23.4,23.4,0,0,1-5.81-2.62,26.15,26.15,0,0,1-5.2-4,25.32,25.32,0,0,1-4-5.53,31.06,31.06,0,0,1-1.78-3.62,9.17,9.17,0,0,1-.89-4.18c.1-2.08,2.58-4.26,5.33-4.24,2.44,0,4,1.53,3.9,3.29Z" transform="translate(-44.66 -28.29)"/><path class="cls-3" d="M3645.13,289.45c4.56-2.78,6.81-4.19,10.76-6.87a23.91,23.91,0,0,0,7.68-8,44.14,44.14,0,0,0,3.61-10.08,66.57,66.57,0,0,0,2-11.45.19.19,0,0,1,.2-.19.21.21,0,0,1,.18.14,45.68,45.68,0,0,1,2.08,12.34,51.32,51.32,0,0,1-.84,12.86,49.67,49.67,0,0,1-4.59,12.63,60.9,60.9,0,0,1-4,6.86,18,18,0,0,1-5.83,6c-3.5,2.11-9.75.44-12.74-4-2.65-4-1.86-8.15,1.11-9.94Z" transform="translate(-44.66 -28.29)"/><path class="cls-3" d="M3634.29,273.4c4.41-.21,6.6-.34,10.53-.72a19.75,19.75,0,0,0,8.75-2.79,36.49,36.49,0,0,0,6.61-5.88,55.05,55.05,0,0,0,6-7.51.16.16,0,0,1,.22-.06.17.17,0,0,1,.08.17,38.16,38.16,0,0,1-3.38,9.77,42.41,42.41,0,0,1-5.71,9,41,41,0,0,1-8.34,7.34,50.37,50.37,0,0,1-5.59,3.41,14.87,14.87,0,0,1-6.61,2.05c-3.37.14-7.25-3.54-7.64-8-.34-3.93,1.88-6.65,4.74-6.77Z" transform="translate(-44.66 -28.29)"/><path class="cls-3" d="M3630,254.63c4.16,1.46,6.24,2.17,10,3.3a19.75,19.75,0,0,0,9.16.71,36.5,36.5,0,0,0,8.34-3,55,55,0,0,0,8.37-4.7.16.16,0,0,1,.22,0,.17.17,0,0,1,0,.19,38.08,38.08,0,0,1-6.81,7.78,42.43,42.43,0,0,1-8.67,6.18,41,41,0,0,1-10.49,3.66,50.39,50.39,0,0,1-6.46,1.05,14.87,14.87,0,0,1-6.9-.59c-3.18-1.14-5.38-6-4.07-10.27,1.16-3.77,4.24-5.45,6.94-4.49Z" transform="translate(-44.66 -28.29)"/><path class="cls-2" d="M3412.83,660.26c.88.64,1.91,1.62,2.88,2.44s2,1.74,3,2.55a17.85,17.85,0,0,0,3.53,2,14.41,14.41,0,0,0,4.2,1,.1.1,0,0,1,.09.1.11.11,0,0,1-.06.09,14,14,0,0,1-4.58,1.12,16.91,16.91,0,0,1-4.91-.4,18.28,18.28,0,0,1-4.64-1.74,14.7,14.7,0,0,1-2-1.38,10,10,0,0,1-1.85-1.81,3,3,0,0,1,4.09-4.24Z" transform="translate(-44.66 -28.29)"/><path class="cls-2" d="M3654.35,228.64c9.06,8.94,15.85,10.6,20.26,20.61,2.94,6.69,1.72,19.78,1.72,19.78s11.45-19.2,4.91-46.61c-2.84-11.89-21.26-28.08-30.82-21.19C3642.65,206.83,3646.47,220.87,3654.35,228.64Z" transform="translate(-44.66 -28.29)"/><path class="cls-1" d="M3659.59,225.74c5.66,3.52,8.67,4.7,11.42,9.65,1.84,3.31,5.47,12.44,5.47,12.44a69.5,69.5,0,0,0-3.33-26.58c-2-6-9.75-13.74-16.89-9.45C3652,214.36,3654.73,222.72,3659.59,225.74Z" transform="translate(-44.66 -28.29)"/><path class="cls-2" d="M3645,225c-1-8.11-3.71-11.66-1.91-18.44,1.2-4.53,7.06-10.61,7.06-10.61s-13.43,5-21.12,21.4c-3.34,7.1-.58,22.59,7,23C3642.18,240.66,3645.89,232.09,3645,225Z" transform="translate(-44.66 -28.29)"/><path class="cls-2" d="M3646.24,238.73c-5.85,3.79-7.55,7.23-13.42,8.4-3.93.78-10.79-1.42-10.79-1.42s8.92,8.4,24.36,8.14c6.7-.11,17.54-8.06,15-14C3659.29,235,3651.33,235.43,3646.24,238.73Z" transform="translate(-44.66 -28.29)"/><path class="cls-2" d="M3581.53,249.93c-5.52,2.75-9.18,2.71-12.4,6.41-2.15,2.47-2.77,8.06-2.77,8.06s-4.07-9.23,1.91-20c2.6-4.65,13.63-9.42,17.9-5.52C3589.64,242.09,3586.33,247.53,3581.53,249.93Z" transform="translate(-44.66 -28.29)"/><path class="cls-2" d="M3584.18,266.46c-5.52,2.75-9.18,2.71-12.4,6.41-2.15,2.47-2.77,8.06-2.77,8.06s-4.07-9.23,1.91-20c2.6-4.65,13.63-9.42,17.9-5.52C3592.28,258.62,3589,264.07,3584.18,266.46Z" transform="translate(-44.66 -28.29)"/><path class="cls-2" d="M3573.4,236.72c-3.56,2.25-5.84,2.29-8,5.25-1.44,2-2,6.35-2,6.35a22.93,22.93,0,0,1,2-15.63c1.8-3.68,8.89-7.62,11.41-4.65C3578.76,230.45,3576.49,234.76,3573.4,236.72Z" transform="translate(-44.66 -28.29)"/><path class="cls-2" d="M3447.65,298.18c-2.28,2.11-3.93,2.45-5.1,4.88-.78,1.63-.63,4.88-.63,4.88a16.92,16.92,0,0,1-.68-11.6c.81-2.92,5.42-6.72,7.65-4.91C3450.7,292.9,3449.63,296.34,3447.65,298.18Z" transform="translate(-44.66 -28.29)"/><path class="cls-2" d="M3427.32,347.13c3.47,0,5.08-.88,7.89.11,1.87.66,4.22,3.15,4.22,3.15s-1.62-5.32-8.26-9c-2.88-1.59-9.55-1.24-10,1.6C3420.81,345.34,3424.3,347.13,3427.32,347.13Z" transform="translate(-44.66 -28.29)"/><path class="cls-2" d="M3445.23,374.7c-3.36.79-4.67,2-7.66,1.68-2-.21-5-2.09-5-2.09s3.07,4.77,10.53,6.8c3.23.88,9.59-1,9.21-3.82C3452,375,3448.15,374,3445.23,374.7Z" transform="translate(-44.66 -28.29)"/><path class="cls-2" d="M3428.67,197.74c-6.67-.77-11.65,1.82-16.15,5.6-3,2.53-3.78,8.44-3.78,8.44a17.75,17.75,0,0,1,2.35-21.13c8.36-9.52,20.92-10.78,25.23-5C3441,191.9,3432.71,198.21,3428.67,197.74Z" transform="translate(-44.66 -28.29)"/><path class="cls-2" d="M3401.74,197.64c-2.72,4-2.12,7.95-.38,12,1.16,2.69,5.83,5,5.83,5s-11,1.06-16.82-8.07c-5.31-8.26-2.44-16.61,3.69-17.54C3400.73,188,3403.38,195.23,3401.74,197.64Z" transform="translate(-44.66 -28.29)"/><path class="cls-2" d="M3391.15,211.86c1.79,3.6,5.2,5.19,9.22,6.14,2.69.63,6.82-1,6.82-1s-4.57,7.08-14.64,6.09c-9.11-.9-14.25-6.73-12-10.87C3383.08,207.71,3390.07,209.69,3391.15,211.86Z" transform="translate(-44.66 -28.29)"/><path class="cls-2" d="M3389.58,227.48c3.9,1.94,7.72,1.43,11.59.08,2.58-.9,4.76-4.39,4.76-4.39s1.21,8.06-7.52,12.55c-7.9,4.06-16,2.08-17-2.42C3380.28,228.39,3387.22,226.31,3389.58,227.48Z" transform="translate(-44.66 -28.29)"/><path class="cls-2" d="M3391.7,243.75c6.33.56,10.95-2,15.07-5.68,2.76-2.46,3.3-8.06,3.3-8.06a16.76,16.76,0,0,1-1.54,20c-7.59,9.2-19.41,10.7-23.67,5.36C3380.24,249.57,3387.88,243.41,3391.7,243.75Z" transform="translate(-44.66 -28.29)"/><path class="cls-2" d="M3435.38,247.83c-6.34-.48-10.33-3.75-13.59-8-2.18-2.87-1.51-8.46-1.51-8.46s-8.83,8.56-2.76,19.91c5.49,10.28,16.79,13.68,22.11,9.12C3445.4,255.41,3439.21,248.11,3435.38,247.83Z" transform="translate(-44.66 -28.29)"/><path class="cls-2" d="M3440.81,215.44c-3-5.27-8.21-7.45-14.31-8.61-4.08-.77-10.13,2-10.13,2s6.26-10.9,21.41-10c13.71.77,21.9,9.19,18.81,15.52C3453.23,221.14,3442.61,218.62,3440.81,215.44Z" transform="translate(-44.66 -28.29)"/><path class="cls-2" d="M3427.72,231.59c4.42-3.19,5.46-7.41,5.37-12.05-.06-3.1-3.84-7-3.84-7s11.58,2.4,13.75,13.54c2,10.08-4.42,17.67-11,16.67C3424.74,241.71,3425,233.52,3427.72,231.59Z" transform="translate(-44.66 -28.29)"/><path class="cls-2" d="M3450.49,259.37c.35-5-2.65-8.57-6.86-11.72-2.81-2.1-9-2.38-9-2.38a24.2,24.2,0,0,1,22,.67c10.39,5.73,12.53,15,6.87,18.5C3457.34,268.25,3450.27,262.39,3450.49,259.37Z" transform="translate(-44.66 -28.29)"/><path class="cls-2" d="M3454.46,226.9a6.77,6.77,0,0,0-5.3,2.79,5.94,5.94,0,0,0-.85,3.28,6.92,6.92,0,0,1-.32-7.88c2.38-3.88,6.67-4.92,8.48-3C3458.43,224.19,3455.89,226.89,3454.46,226.9Z" transform="translate(-44.66 -28.29)"/><path class="cls-2" d="M3447,264.63c.09,2.06,1.48,3.41,3.35,4.55a8.58,8.58,0,0,0,3.77.65,9.88,9.88,0,0,1-9,.51c-4.51-2-5.82-5.69-3.66-7.32C3443.83,261.25,3447,263.39,3447,264.63Z" transform="translate(-44.66 -28.29)"/><path class="cls-2" d="M3457.27,234.2a5.36,5.36,0,0,0-4.27,1.94,4.67,4.67,0,0,0-.85,2.5,5.36,5.36,0,0,1,.19-6.12c2.07-2.91,5.45-3.53,6.74-2S3458.38,234.25,3457.27,234.2Z" transform="translate(-44.66 -28.29)"/><path class="cls-2" d="M3446.19,237a3.26,3.26,0,0,1,2.59,1.18,2.84,2.84,0,0,1,.51,1.52,3.25,3.25,0,0,0-.12-3.72c-1.26-1.77-3.31-2.14-4.09-1.19S3445.52,237,3446.19,237Z" transform="translate(-44.66 -28.29)"/><path class="cls-2" d="M3458.65,239.22a4.08,4.08,0,0,0-3.25,1.48,3.56,3.56,0,0,0-.65,1.91,4.08,4.08,0,0,1,.15-4.66c1.57-2.22,4.15-2.69,5.13-1.49S3459.5,239.26,3458.65,239.22Z" transform="translate(-44.66 -28.29)"/><path class="cls-2" d="M3566.39,314.93c-4.2.26-6.23-.8-9.54.75-2.21,1-4.85,4.58-4.85,4.58a22.93,22.93,0,0,1,9.25-12.76c3.35-2.36,11.46-2.4,12.24,1.41C3574.11,312,3570,314.71,3566.39,314.93Z" transform="translate(-44.66 -28.29)"/><path class="cls-2" d="M3550.76,266.77c4,5.14,6.68,4.83,8.48,11.64.84,3.17,0,9.3,0,9.3s4.63-6,5.75-18.23c.56-6.14-5.9-16.46-11.61-15.57C3548.76,254.63,3547.47,262.54,3550.76,266.77Z" transform="translate(-44.66 -28.29)"/><path class="cls-2" d="M3409.53,303.62c7.9,1.65,10.25-.49,17.32,4.16,3.29,2.16,7.27,8.06,7.27,8.06s-.21-8.45-8.68-19.84c-4.25-5.72-18.58-10.14-23.42-5.37C3398.1,294.51,3403,302.26,3409.53,303.62Z" transform="translate(-44.66 -28.29)"/><path class="cls-2" d="M3541.86,283.13c4,5.14,6.68,4.83,8.48,11.64.84,3.17,0,9.3,0,9.3s4.63-6,5.75-18.23c.56-6.14-5.9-16.46-11.61-15.57C3539.85,271,3538.56,278.9,3541.86,283.13Z" transform="translate(-44.66 -28.29)"/><path class="cls-2" d="M3535.84,309.85c4,5.14,6.68,4.83,8.48,11.64.84,3.17,0,9.3,0,9.3s4.63-6,5.75-18.23c.56-6.14-5.9-16.46-11.61-15.57C3533.83,297.72,3532.54,305.62,3535.84,309.85Z" transform="translate(-44.66 -28.29)"/><path class="cls-2" d="M3527.42,334.4c4,5.14,6.68,4.83,8.48,11.64.84,3.17,0,9.3,0,9.3s4.63-6,5.75-18.23c.56-6.14-5.9-16.46-11.61-15.57C3525.41,322.27,3524.12,330.17,3527.42,334.4Z" transform="translate(-44.66 -28.29)"/><path class="cls-2" d="M3525,367.56c4.52,4.69,7.15,4.1,9.65,10.7,1.17,3.07,1,9.25,1,9.25s4-6.45,3.82-18.73c-.08-6.16-7.58-15.75-13.17-14.27C3521.77,355.7,3521.31,363.69,3525,367.56Z" transform="translate(-44.66 -28.29)"/><path class="cls-2" d="M3525.14,396.4c3.82,3,5.7,2.31,8.22,6.92,1.17,2.15,1.66,6.73,1.66,6.73s2.28-5.17.92-14.23c-.68-4.55-7.2-10.87-11.18-9.21C3521.52,388,3522,393.92,3525.14,396.4Z" transform="translate(-44.66 -28.29)"/><path class="cls-2" d="M3524.2,420.11c4.73,1.15,6.14-.27,10.35,2.88,2,1.46,4.31,5.44,4.31,5.44s-.07-5.65-5.08-13.33c-2.51-3.85-11.07-6.89-14-3.72C3517.4,414,3520.31,419.17,3524.2,420.11Z" transform="translate(-44.66 -28.29)"/><path class="cls-2" d="M3530,440.57c4.51-1.81,4.84-3.79,10.1-3.67,2.45.05,6.66,1.92,6.66,1.92s-3.34-4.56-11.88-7.9c-4.28-1.68-13,.82-13.56,5.1C3520.86,439.5,3526.25,442.06,3530,440.57Z" transform="translate(-44.66 -28.29)"/><path class="cls-2" d="M3571.45,297.26c-5.65,1.85-6.89,1.25-12.17,5.94-2.46,2.18-4.3,7.13-4.3,7.13s-.88-8.64,5.84-19.85c3.37-5.63,13.72-10.35,16.78-5.94C3580.09,288.14,3576.1,295.74,3571.45,297.26Z" transform="translate(-44.66 -28.29)"/><path class="cls-2" d="M3563.15,338.87c-7.28,2.38-8.86,1.6-15.66,7.65-3.16,2.81-5.54,9.18-5.54,9.18s-1.14-11.11,7.52-25.54c4.34-7.24,17.66-13.32,21.6-7.64C3574.27,327.12,3569.14,336.91,3563.15,338.87Z" transform="translate(-44.66 -28.29)"/><path class="cls-2" d="M3416.55,331.92c9.71,3.27,13.07.91,21.17,7.85,3.77,3.23,7.71,11.3,7.71,11.3s1.31-10.73-7.3-26.43c-4.32-7.88-21.65-15.62-28.66-10.3C3403.76,318.67,3408.56,329.23,3416.55,331.92Z" transform="translate(-44.66 -28.29)"/><path class="cls-2" d="M3434.39,370.68c8.28.47,10.14-2.09,18.26,1.59,3.77,1.72,9.06,7.17,9.06,7.17s-2.08-8.67-13.08-19.08c-5.52-5.23-20.84-7.56-24.62-1.9C3420.93,363.06,3427.59,370.29,3434.39,370.68Z" transform="translate(-44.66 -28.29)"/><path class="cls-2" d="M3470.33,310.83c-7.08,8.29-9.58,8.52-13.35,20.91-1.76,5.76.08,15.26.08,15.26s-9.63-12.66-9.82-36.61c-.1-12,11.57-29.29,20.58-25.31C3475.12,288.31,3476.15,304,3470.33,310.83Z" transform="translate(-44.66 -28.29)"/><path class="cls-2" d="M3481.72,343.81c-7.06,6.69-9.31,6.66-13.83,17.3-2.1,4.95-1.37,13.55-1.37,13.55s-7.35-12.15-5.26-33.43c1-10.68,13-24.91,20.65-20.53C3488.11,324.27,3487.53,338.3,3481.72,343.81Z" transform="translate(-44.66 -28.29)"/><path class="cls-2" d="M3465.76,415.5c3.27-.58,4.61-1.67,7.46-1.21a14.9,14.9,0,0,1,4.64,2.27s-2.63-4.74-9.65-7.08c-3-1-9.26.42-9.09,3.17C3459.25,414.89,3462.91,416,3465.76,415.5Z" transform="translate(-44.66 -28.29)"/><path class="cls-2" d="M3452.45,403c9.83,1.47,12.51-1.32,21.59,3.88,4.22,2.42,9.61,9.37,9.61,9.37s-1-10.34-12.37-23.7c-5.71-6.71-23.66-11.13-29.17-4.94C3437.64,392.58,3444.36,401.74,3452.45,403Z" transform="translate(-44.66 -28.29)"/><path class="cls-2" d="M3478,436.52c7.07-.93,8.17-3.66,15.7-1.53,3.5,1,9,5.26,9,5.26s-3.37-7.82-14.59-15.82c-5.63-4-19-3.67-21.13,2.3C3465.21,431.58,3472.17,437.29,3478,436.52Z" transform="translate(-44.66 -28.29)"/><path class="cls-2" d="M3490.92,454.15c6.2-.82,7.17-3.21,13.78-1.34,3.07.87,7.88,4.61,7.88,4.61s-3-6.86-12.8-13.88c-4.94-3.52-16.66-3.22-18.54,2C3479.72,449.82,3485.82,454.82,3490.92,454.15Z" transform="translate(-44.66 -28.29)"/><path class="cls-2" d="M3503.4,466.62c4-.52,4.57-2,8.78-.86a20.72,20.72,0,0,1,5,2.94s-1.88-4.37-8.15-8.84c-3.15-2.24-10.61-2-11.81,1.29C3496.26,463.86,3500.15,467.05,3503.4,466.62Z" transform="translate(-44.66 -28.29)"/><path class="cls-2" d="M3495.87,374.38c-5.13,9.13-7.45,9.82-8.71,22.2-.58,5.76,2.91,14.37,2.91,14.37s-11.43-10.15-16.06-32.7c-2.33-11.32,5.47-29.77,14.7-27.69C3496.21,352.24,3500.09,366.86,3495.87,374.38Z" transform="translate(-44.66 -28.29)"/><path class="cls-2" d="M3511.67,406.65c-4.87,6.85-6.78,7.2-8.83,17-1,4.55,1.11,11.72,1.11,11.72s-8.26-9.07-10-27.46c-.9-9.23,6.89-23.3,14.08-20.85C3513.82,389,3515.68,401,3511.67,406.65Z" transform="translate(-44.66 -28.29)"/><path class="cls-2" d="M3538.87,464.31c-4.87,6.85-6.78,7.2-8.83,17-1,4.55,1.11,11.72,1.11,11.72s-8.26-9.07-10-27.46c-.9-9.23,6.89-23.3,14.08-20.85C3541,446.67,3542.88,458.67,3538.87,464.31Z" transform="translate(-44.66 -28.29)"/><path class="cls-2" d="M3536.92,508.15c3.41,5.56,4.87,5.93,6,13.61.5,3.57-1.47,9-1.47,9s6.87-6.59,9.22-20.74c1.18-7.1-4.12-18.4-9.82-16.89C3536.18,494.38,3534.11,503.57,3536.92,508.15Z" transform="translate(-44.66 -28.29)"/><path class="cls-2" d="M3508.69,586.14c2.34,9.21,4.21,9.91,2.39,22.34-.84,5.78-5.93,14.38-5.93,14.38s12.39-10.06,21.74-32.62c4.7-11.32,2.22-29.9-6.34-27.9C3513.6,563.95,3506.76,578.56,3508.69,586.14Z" transform="translate(-44.66 -28.29)"/><path class="cls-2" d="M3520.69,554.08c5.48,4.15,6.93,3.79,11.27,11.38,2,3.53,2.66,10.31,2.66,10.31s3.2-10.5-1-26.69c-2.08-8.13-11.75-17.39-16.13-12.87C3514,539.87,3516.18,550.67,3520.69,554.08Z" transform="translate(-44.66 -28.29)"/><path class="cls-2" d="M3527.09,534.89c4.54,2.46,5.59,2,9.67,7.17,1.9,2.39,3.16,7.36,3.16,7.36s1.18-8.17-3.75-19.74c-2.47-5.81-10.72-11.59-13.46-7.73C3520.48,525.09,3523.35,532.87,3527.09,534.89Z" transform="translate(-44.66 -28.29)"/><path class="cls-2" d="M3530,501.48c0,6.3-1,7.34,2.06,14.19,1.41,3.18,5.8,6.64,5.8,6.64s-9-1.9-18.12-12.3c-4.58-5.22-6-17.18-.56-18.84C3523.59,489.82,3530,496.3,3530,501.48Z" transform="translate(-44.66 -28.29)"/><path class="cls-2" d="M3546,453.9c1,4.7,1.94,5.31.82,10.91-.52,2.6-3.22,5.91-3.22,5.91s6.39-2.91,11.46-12.17c2.55-4.65,1.62-13.8-2.71-14.13C3548.81,444.14,3545.13,450,3546,453.9Z" transform="translate(-44.66 -28.29)"/><path class="cls-2" d="M3545.88,476.34c-2.31,4.22-2,5.29-6.53,8.78-2.1,1.63-6.31,2.36-6.31,2.36s6.73,2,16.64-1.69c5-1.84,10.27-9.36,7.21-12.45C3554.41,470.84,3547.78,472.88,3545.88,476.34Z" transform="translate(-44.66 -28.29)"/><path class="cls-2" d="M3518,435.73c-2.2,4.75-3.33,5.18-3.47,11.4-.07,2.89,2,7,2,7s-6.09-4.61-9.29-15.67c-1.6-5.55,1.56-15.05,6.24-14.38C3517.26,424.69,3519.77,431.82,3518,435.73Z" transform="translate(-44.66 -28.29)"/><path class="cls-2" d="M3560.34,366.23c-6.78,3.56-8.47,3.06-14.16,10.15-2.65,3.3-3.93,10-3.93,10s-3-10.77,3.15-26.44c3.07-7.86,15.19-16.08,20-11.13C3569.35,352.79,3565.91,363.3,3560.34,366.23Z" transform="translate(-44.66 -28.29)"/><path class="cls-2" d="M3558.06,399c-6.35,4.28-8.09,4-13,11.63-2.27,3.57-2.82,10.34-2.82,10.34s-4.13-10.38.26-26.62c2.2-8.15,13.35-17.64,18.69-13.25C3565.55,384.68,3563.28,395.5,3558.06,399Z" transform="translate(-44.66 -28.29)"/><path class="cls-2" d="M3555,423.46c-3.82.68-4.56.18-8.4,2.73a14.37,14.37,0,0,0-3.43,4.21s.22-5.66,5.58-12.28c2.69-3.33,9.81-5.43,11.38-2.3C3561.46,418.36,3558.19,422.91,3555,423.46Z" transform="translate(-44.66 -28.29)"/><path class="cls-2" d="M3555.5,437.22c-2.4.43-2.86.11-5.27,1.71a9,9,0,0,0-2.15,2.64s.14-3.55,3.5-7.71c1.69-2.09,6.15-3.41,7.14-1.45C3559.52,434,3557.47,436.87,3555.5,437.22Z" transform="translate(-44.66 -28.29)"/><path class="cls-2" d="M3556.54,251.47c1.78.92,3,.83,4.33,2.39a11,11,0,0,1,2.25,5.14s1.41-5.85-.9-8.84c-2-2.62-5.07-3.48-6.61-2.4C3554.36,248.64,3555,250.67,3556.54,251.47Z" transform="translate(-44.66 -28.29)"/><path class="cls-2" d="M3625.73,235.2c-1.27-3.44-2.83-4.71-2.75-7.86.05-2.11,2-5.37,2-5.37a19.15,19.15,0,0,0-7,11.55c-.72,3.45,2.09,9.93,5.43,9.31C3626.1,242.32,3626.83,238.19,3625.73,235.2Z" transform="translate(-44.66 -28.29)"/><path class="cls-2" d="M3615.74,203.66c2.22-2.92,2.44-4.93,5.13-6.56,1.8-1.09,5.59-1.23,5.59-1.23a19.15,19.15,0,0,0-13.5.34c-3.29,1.26-7.23,7.13-4.91,9.6C3609.95,207.82,3613.82,206.21,3615.74,203.66Z" transform="translate(-44.66 -28.29)"/><path class="cls-2" d="M3628.78,210.92c1.76-4.83,1.29-7.69,4.16-10.88,1.92-2.13,6.78-3.59,6.78-3.59s-8.65-1.58-17.39,5c-3.79,2.86-6.67,12.37-2.71,15C3622.84,218.67,3627.25,215.11,3628.78,210.92Z" transform="translate(-44.66 -28.29)"/><path class="cls-2" d="M3620.28,249c-1.93-3.12-3.72-4-4.28-7.15-.37-2.07.86-5.66.86-5.66a19.15,19.15,0,0,0-4.54,12.72c0,3.52,4,9.31,7.19,8C3622.07,255.86,3622,251.67,3620.28,249Z" transform="translate(-44.66 -28.29)"/><path class="cls-2" d="M3600.23,241.58a17.88,17.88,0,1,1,17.88-17.88A17.9,17.9,0,0,1,3600.23,241.58Zm0-27.58a9.7,9.7,0,1,0,9.7,9.7A9.71,9.71,0,0,0,3600.23,214Z" transform="translate(-44.66 -28.29)"/><circle class="cls-1" cx="3555.57" cy="195.4" r="6.14"/><ellipse class="cls-2" cx="3373.61" cy="191.52" rx="10.41" ry="9.09"/><ellipse class="cls-1" cx="3373.61" cy="191.52" rx="5.05" ry="4.41"/><circle class="cls-2" cx="3492.95" cy="448.22" r="3.61"/><path class="cls-3" d="M3874.85,289.47c5.78-3.44,8.65-5.18,13.64-8.46a28.66,28.66,0,0,0,9.51-9.6c2-3.61,3-7.53,4-11.67a66,66,0,0,0,1.81-13.12.23.23,0,0,1,.24-.23.28.28,0,0,1,.25.14,46.51,46.51,0,0,1,3.61,13.88,46.69,46.69,0,0,1-5.33,29.28,66.24,66.24,0,0,1-4.71,8,21.66,21.66,0,0,1-7.23,7.19c-4.44,2.61-12.78,1.1-17-3.81-3.76-4.36-3-9.14.74-11.36Z" transform="translate(-44.66 -28.29)"/><path class="cls-3" d="M3859.47,271.92c5.77-.51,8.64-.79,13.77-1.46a28.52,28.52,0,0,0,11.3-3.71,45.41,45.41,0,0,0,8.27-7.09,63.6,63.6,0,0,0,7.33-8.89.23.23,0,0,1,.28-.08.19.19,0,0,1,.11.19,38.8,38.8,0,0,1-3.74,11.3,46.86,46.86,0,0,1-6.86,10.56,51.14,51.14,0,0,1-10.42,8.85,67.6,67.6,0,0,1-7.1,4.21,21.51,21.51,0,0,1-8.54,2.73c-4.42.37-9.77-3.58-10.6-8.59-.73-4.45,2-7.66,5.75-8Z" transform="translate(-44.66 -28.29)"/><path class="cls-2" d="M3885.75,223.83c12.23,9.28,19.94,11.55,26.55,22.48,4.41,7.3,4.6,35.41,4.6,35.41s19.07-25.17,1.29-67.44c-5.48-13-29.51-29.82-40.5-21.13C3868.78,200.22,3875.13,215.77,3885.75,223.83Z" transform="translate(-44.66 -28.29)"/><path class="cls-1" d="M3890.41,219c6.37,3.73,15.73,7.2,19.26,11.46,5.42,6.55,9.54,20.19,9.54,20.19a68.36,68.36,0,0,0-8.38-36.73c-3.63-6.43-16.84-17.58-25.15-12.05C3880.74,205.15,3884.43,215.5,3890.41,219Z" transform="translate(-44.66 -28.29)"/><path class="cls-2" d="M3870.82,216.51c-1.27-9.22-4.87-13.26-2.51-21,1.58-5.15,9.28-12.06,9.28-12.06a53.82,53.82,0,0,0-27.77,24.34c-4.39,8.07-.76,25.68,9.17,26.1C3867.05,234.26,3871.93,224.52,3870.82,216.51Z" transform="translate(-44.66 -28.29)"/><path class="cls-3" d="M3852.47,250.88c5.57,1.41,8.35,2.08,13.4,3.13a29.94,29.94,0,0,0,12.08.24,52.37,52.37,0,0,0,10.74-3.87,74.76,74.76,0,0,0,10.66-5.85.23.23,0,0,1,.29,0,.18.18,0,0,1,0,.21,44.75,44.75,0,0,1-8.39,9.25,55.21,55.21,0,0,1-11,7.55,59,59,0,0,1-13.51,4.8,75.39,75.39,0,0,1-8.41,1.59,22.53,22.53,0,0,1-9.1-.25c-4.25-1.1-7.5-6.5-6.08-11.41,1.26-4.36,5.19-6.45,8.8-5.52Z" transform="translate(-44.66 -28.29)"/><path class="cls-2" d="M3872.4,232.07c-7.7,4.31-9.92,8.22-17.65,9.55-5.16.89-14.19-1.61-14.19-1.61s11.73,9.55,32,9.25c8.81-.13,23.07-9.16,19.7-15.9C3889.56,227.88,3879.09,228.32,3872.4,232.07Z" transform="translate(-44.66 -28.29)"/><path class="cls-2" d="M3845.42,228.05c-1.66-3.91-3.72-5.36-3.62-8.94.07-2.39,2.61-6.1,2.61-6.1a22,22,0,0,0-9.21,13.13c-.95,3.92,2.75,11.29,7.15,10.59C3845.9,236.15,3846.86,231.46,3845.42,228.05Z" transform="translate(-44.66 -28.29)"/><path class="cls-2" d="M3832.28,192.2c2.91-3.32,3.21-5.6,6.75-7.46,2.37-1.24,7.35-1.4,7.35-1.4a28.88,28.88,0,0,0-17.76.38c-4.33,1.43-9.51,8.1-6.45,10.91C3824.66,196.93,3829.75,195.09,3832.28,192.2Z" transform="translate(-44.66 -28.29)"/><path class="cls-2" d="M3849.43,200.45c2.32-5.49,1.69-8.75,5.48-12.37,2.53-2.42,8.92-4.09,8.92-4.09a35.4,35.4,0,0,0-22.87,5.69c-5,3.25-8.77,14.07-3.56,17.11C3841.62,209.26,3847.42,205.22,3849.43,200.45Z" transform="translate(-44.66 -28.29)"/><path class="cls-2" d="M3838.25,243.7c-2.54-3.55-4.89-4.6-5.62-8.13-.49-2.36,1.13-6.43,1.13-6.43a20.37,20.37,0,0,0-6,14.47c0,4,5.32,10.58,9.46,9.13C3840.61,251.55,3840.46,246.78,3838.25,243.7Z" transform="translate(-44.66 -28.29)"/><path class="cls-2" d="M3811.88,235.31c-13,0-23.51-9.12-23.51-20.33s10.55-20.33,23.51-20.33,23.52,9.12,23.52,20.33S3824.85,235.31,3811.88,235.31Zm0-31.36c-7,0-12.75,4.95-12.75,11s5.72,11,12.75,11,12.75-4.95,12.75-11S3818.92,204,3811.88,204Z" transform="translate(-44.66 -28.29)"/><ellipse class="cls-1" cx="3767.23" cy="186.69" rx="8.07" ry="6.98"/><path class="cls-2" d="M3795.06,253.06c-7.88,2.55-12.84,2.08-17.73,6-3.27,2.62-4.87,9-4.87,9s-4.27-11.21,5.33-23c4.16-5.1,19.81-9.36,25.08-4.32C3807.15,244.9,3801.91,250.84,3795.06,253.06Z" transform="translate(-44.66 -28.29)"/><path class="cls-2" d="M3793.73,274c-6.94,2.85-11.55,2.79-15.6,6.64-2.7,2.57-3.44,8.42-3.44,8.42s-5.19-9.68,2.28-20.86c3.24-4.85,17.12-9.77,22.53-5.67C3803.9,265.89,3799.77,271.57,3793.73,274Z" transform="translate(-44.66 -28.29)"/><path class="cls-2" d="M3781,237.48c-4.86,2.63-8,2.68-10.93,6.13-2,2.3-2.79,7.42-2.79,7.42s-3-8.34,2.68-18.27c2.46-4.31,12.14-8.9,15.58-5.43C3788.33,230.15,3785.22,235.19,3781,237.48Z" transform="translate(-44.66 -28.29)"/><path class="cls-2" d="M3779.82,329.27c-8,.43-11.47-.19-17.79,2.33-4.22,1.69-9.63,8.65-9.63,8.65A38.52,38.52,0,0,1,3770,317.17c6.39-3.85,21.83-3.91,23.31,2.3C3794.54,324.52,3786.79,328.9,3779.82,329.27Z" transform="translate(-44.66 -28.29)"/><path class="cls-2" d="M3750.09,272.58c5.48,6,9.12,5.64,11.59,13.6,1.15,3.7,0,10.86,0,10.86s6.32-7,7.86-21.3c.77-7.17-8.05-19.23-15.85-18.19C3747.35,258.41,3745.59,267.64,3750.09,272.58Z" transform="translate(-44.66 -28.29)"/><path class="cls-2" d="M3737.93,291.71c5.48,6,9.12,5.64,11.59,13.6,1.15,3.7,0,10.86,0,10.86s6.32-7,7.86-21.3c.77-7.17-8.05-19.23-15.85-18.19C3735.18,277.53,3733.42,286.76,3737.93,291.71Z" transform="translate(-44.66 -28.29)"/><path class="cls-2" d="M3729.71,322.92c5.48,6,9.89,7.52,12.61,13.66,1.58,3.58,3.45,13.16,3.45,13.16s4.68-11.78,3.39-23.66c-.78-7.17-8.05-19.23-15.85-18.19C3727,308.75,3725.2,318,3729.71,322.92Z" transform="translate(-44.66 -28.29)"/><path class="cls-2" d="M3718.65,353.54c8.09,5.55,13.19,5.48,16,13.5,1.3,3.67,4.67,13.39,4.67,13.39s3.09-8.17,1.6-22.46c-.91-8.75-6.9-21.39-19.16-21.38C3715.38,336.59,3712.94,349.62,3718.65,353.54Z" transform="translate(-44.66 -28.29)"/><path class="cls-2" d="M3725.55,397c7.92,1.73,13.19,2.74,17,6.44,3,2.88,6.65,9.48,6.65,9.48s1.25-6.46-4.17-20c-2.72-6.81-18.49-23.2-26-13.62C3715.44,383.8,3718.45,395.44,3725.55,397Z" transform="translate(-44.66 -28.29)"/><path class="cls-2" d="M3743.34,424.76c4-1.81,6.59-3.07,9.76-2.76a40.41,40.41,0,0,1,6.84,1.77s-2.29-3-10.41-6.88c-4.07-1.92-17.64-3.63-16.56,2.68C3733.47,422.57,3739.76,426.38,3743.34,424.76Z" transform="translate(-44.66 -28.29)"/><path class="cls-2" d="M3786.4,306.67c-8.53,2.38-10.92-.27-20.66,4.9-4.21,2.24-9.93,9.49-9.93,9.49a37.89,37.89,0,0,1,11.75-22.88c6.8-6.15,23.29-17.53,28.13-7.91C3799.76,298.38,3793.41,304.71,3786.4,306.67Z" transform="translate(-44.66 -28.29)"/><path class="cls-2" d="M3784.6,359.47c-8.9.9-18,1.14-25.64,5.88-5.83,3.62-14.55,19.09-14.55,19.09s-3.1-20.1,15.07-39.06c9.12-9.51,33.07-15.44,38.3-6.41C3802,346.3,3795.25,358.39,3784.6,359.47Z" transform="translate(-44.66 -28.29)"/><path class="cls-2" d="M3789.63,384.93c-7.77.11-15.65-.36-22.72,3.16-5.4,2.69-14.5,15.39-14.5,15.39s-.62-17.58,17-32.58c8.84-7.53,30.11-10.86,33.7-2.68C3806,374.87,3798.94,384.79,3789.63,384.93Z" transform="translate(-44.66 -28.29)"/><path class="cls-2" d="M3801.5,395.39c2-1.78,4.3-3.43,5.11-6,.62-1.94-.85-7.38-.85-7.38a16.84,16.84,0,0,1,5.47,12.55c-.05,4-4.72,9.69-8.2,8.3C3800.21,401.77,3799,397.52,3801.5,395.39Z" transform="translate(-44.66 -28.29)"/><path class="cls-2" d="M3758,254.71c2.42,1.07,4.12,1,5.91,2.79a11.87,11.87,0,0,1,3.08,6s1.93-6.84-1.23-10.33c-2.77-3.06-6.93-4.07-9-2.8C3755,251.4,3755.87,253.77,3758,254.71Z" transform="translate(-44.66 -28.29)"/><path class="cls-2" d="M3771.37,473.45c9.65-.83,11.25-4,21.41-1.23,4.72,1.29,12,6.49,12,6.49s-4.28-9.29-19.24-19.06c-7.51-4.9-25.68-5-28.81,1.94C3754.19,467.2,3763.43,474.13,3771.37,473.45Z" transform="translate(-44.66 -28.29)"/><path class="cls-2" d="M3761.6,447.93c9.33-.35,9.24-2.5,18.85.63,4.47,1.46,13.63,10,13.63,10s-3.6-15.71-17.4-25.8c-6.92-5.07-24.48-10.3-28.44,3.06C3746.56,441.47,3753.93,448.22,3761.6,447.93Z" transform="translate(-44.66 -28.29)"/><path class="cls-2" d="M3786,492.61c8.14-.7,9.49-3.37,18.06-1,4,1.09,13.55,4.45,13.55,4.45s-5-7-17.57-15.29c-6.33-4.14-21.74-5.81-26.38,1.85C3770.94,487.1,3779.31,493.19,3786,492.61Z" transform="translate(-44.66 -28.29)"/><path class="cls-2" d="M3807.68,511.63c6.9-.59,8-2.85,15.32-.87,3.38.92,11.5,3.78,11.5,3.78s-4.21-6-14.9-13c-5.37-3.51-18.44-4.93-22.38,1.57C3794.9,507,3802,512.12,3807.68,511.63Z" transform="translate(-44.66 -28.29)"/><path class="cls-2" d="M3853.3,498.61c-3,3.64-2.07,5.3-7,7.85-2.27,1.18-8.16,3.71-8.16,3.71s6,.9,15.92-.84c5-.87,12.34-6.51,10-11.61C3862.68,494.72,3855.77,495.62,3853.3,498.61Z" transform="translate(-44.66 -28.29)"/><path class="cls-2" d="M3824.14,450.31c-6.25,5-8.22,4.95-12.25,13-1.88,3.73-2.82,12.32-2.82,12.32s-4.86-11.36-2.91-27.51c1-8.11,11.6-18.77,18.28-15.34C3829.86,435.54,3829.28,446.2,3824.14,450.31Z" transform="translate(-44.66 -28.29)"/><path class="cls-2" d="M3822.26,425.37c-8,5.51-14.62,6.31-20.28,15.64-2.63,4.34-3.78,16.21-3.78,16.21s-8.37-20.3-1.05-39.71c3.51-9.32,20.34-15.7,28-11.05C3831.41,410.24,3828.86,420.84,3822.26,425.37Z" transform="translate(-44.66 -28.29)"/><path class="cls-2" d="M3827.48,475.44c-3,4.63-4.42,5-5.18,11.27-.35,2.93,1.7,7.34,1.7,7.34s-6.74-5.22-9.44-16.73c-1.36-5.78,3.28-15.15,8.73-14C3827.72,464.16,3830,471.63,3827.48,475.44Z" transform="translate(-44.66 -28.29)"/><path class="cls-2" d="M3868.93,457.6c1.46,9.16,3.44,10.46-.1,21.08-1.65,4.94-8.73,14-8.73,14a94.21,94.21,0,0,0,28.52-25c6.61-8.61,6.15-26.31-3.6-27.51C3877.11,439.22,3867.72,450.06,3868.93,457.6Z" transform="translate(-44.66 -28.29)"/><path class="cls-2" d="M3894,434.44c2.71,10.88,8.44,16.16,5.27,29.17-1.47,6.05-11.43,18.47-11.43,18.47S3915,467.91,3926,443.89c5.26-11.54-5.28-29.27-17.14-30C3899.19,413.37,3891.8,425.49,3894,434.44Z" transform="translate(-44.66 -28.29)"/><path class="cls-2" d="M3842.21,479.93c-1.34,6.62-.31,7.89-5.44,14.59-2.39,3.12-8.51,6-8.51,6s11.47-.52,24.86-10c6.72-4.74,10.92-17.08,4.55-19.73C3852.5,468.72,3843.31,474.49,3842.21,479.93Z" transform="translate(-44.66 -28.29)"/><path class="cls-2" d="M3763.65,421c-7-6.32-7-16.41,0-22.52s18.49-5.95,25.53.38,7,16.41,0,22.52S3770.69,427.35,3763.65,421Z" transform="translate(-44.66 -28.29)"/><path class="cls-1" d="M3770.22,415.33a7.11,7.11,0,0,1,0-10.94,9.62,9.62,0,0,1,12.4.18,7.11,7.11,0,0,1,0,10.94A9.62,9.62,0,0,1,3770.22,415.33Z" transform="translate(-44.66 -28.29)"/><path class="cls-2" d="M3835.18,465.43c-5.61-5-5.63-13.06,0-17.91s14.69-4.7,20.3.34,5.63,13.06,0,17.91S3840.8,470.47,3835.18,465.43Z" transform="translate(-44.66 -28.29)"/><path class="cls-1" d="M3840.4,460.92a5.65,5.65,0,0,1,0-8.7,7.65,7.65,0,0,1,9.86.17,5.65,5.65,0,0,1,0,8.7A7.65,7.65,0,0,1,3840.4,460.92Z" transform="translate(-44.66 -28.29)"/><path class="cls-2" d="M3843.35,458.36a2.27,2.27,0,0,1,0-3.49,3.07,3.07,0,0,1,4,.07,2.27,2.27,0,0,1,0,3.49A3.07,3.07,0,0,1,3843.35,458.36Z" transform="translate(-44.66 -28.29)"/></svg>