<svg id="Elements" xmlns="http://www.w3.org/2000/svg" viewBox="0 0 47.87 1.89"><defs><style>.cls-1{fill:#231a14;}</style></defs><title>title-decor</title><path class="cls-1" d="M26.58.83a.26.26,0,0,0-.23-.14h0A.77.77,0,0,0,26.22.4.69.69,0,0,0,26,.17a.77.77,0,0,0-.28-.11l-.29,0a.44.44,0,0,0-.23,0,.45.45,0,0,0-.13.11A.51.51,0,0,0,25,.35a.36.36,0,0,0-.14-.19l-.19-.1-.12,0h-.32l.16.05.14.06.11.06.09.08.09.11a.49.49,0,0,0,.12.1.28.28,0,0,0,.16,0A.17.17,0,0,0,25.23.5a.23.23,0,0,0,0-.14.08.08,0,0,0,0-.06l0,0h-.07L25.24.2l.12,0,.16,0a.92.92,0,0,1,.23,0,.6.6,0,0,1,.2.09.52.52,0,0,1,.15.17.56.56,0,0,1,.07.25A.54.54,0,0,0,25.9.59l-.17,0a.5.5,0,0,0-.18.07.46.46,0,0,0-.14.14.38.38,0,0,0-.06.22.35.35,0,0,0,.07.24.3.3,0,0,0,.15.09.55.55,0,0,0,.22,0,.5.5,0,0,1-.18-.1A.28.28,0,0,1,25.52,1a.31.31,0,0,1,0-.14v0a.17.17,0,0,0,.05.14.19.19,0,0,0,.14.06A.18.18,0,0,0,25.88,1a.2.2,0,0,0,0-.26.17.17,0,0,0-.1-.07h.13l.12,0a.42.42,0,0,1,.24.21.37.37,0,0,1,0,.19.42.42,0,0,1-.06.21.66.66,0,0,1-.15.18.72.72,0,0,1-.2.12.56.56,0,0,1-.21,0,.7.7,0,0,1-.21,0,.72.72,0,0,1-.22-.12A1.21,1.21,0,0,1,25,1.3a2.27,2.27,0,0,1-.22-.36A2.84,2.84,0,0,0,24.51.4a1.39,1.39,0,0,0-.29-.28A.66.66,0,0,0,24,0l-.22,0a.73.73,0,0,0-.24.05.89.89,0,0,0-.27.16,1,1,0,0,0-.22.3A.79.79,0,0,0,23,.69h-.08a.26.26,0,0,0-.23.14L.68.94l22,.12a.26.26,0,0,0,.23.15h.07a.75.75,0,0,0,.06.2.87.87,0,0,0,.22.29.83.83,0,0,0,.29.16,1,1,0,0,0,.29,0A.3.3,0,0,0,24,1.83a.38.38,0,0,0,.1-.11.4.4,0,0,0,0-.16.39.39,0,0,0,.15.19l.19.1.12,0h.34l-.17-.07-.14-.07-.12-.06-.09-.08-.09-.11a.54.54,0,0,0-.12-.1.3.3,0,0,0-.16,0,.18.18,0,0,0-.15.06.21.21,0,0,0,0,.14.06.06,0,0,0,0,.06l0,0H24a.14.14,0,0,1,0,.06l-.08,0-.15,0a.48.48,0,0,1-.31-.13,1,1,0,0,1-.25-.3.52.52,0,0,0,.22.15.46.46,0,0,0,.18,0,.44.44,0,0,0,.17,0,.53.53,0,0,0,.14-.09A.33.33,0,0,0,24,1.26.46.46,0,0,0,24,.9a.34.34,0,0,0-.24-.2.26.26,0,0,0-.13,0l-.11,0-.1.07.1,0h.09l.1,0a.2.2,0,0,1,.11.1.36.36,0,0,1,0,.16A.18.18,0,0,0,23.65,1a.18.18,0,0,0-.13.05.18.18,0,0,0-.06.13.19.19,0,0,0,.06.14.17.17,0,0,0,.13.06h0l-.13.06a.29.29,0,0,1-.16,0,.43.43,0,0,1-.23-.2,1.13,1.13,0,0,1-.12-.3.75.75,0,0,1,.07-.24.63.63,0,0,1,.14-.2A.68.68,0,0,1,23.46.3a.53.53,0,0,1,.23-.05.4.4,0,0,1,.24.07.79.79,0,0,1,.18.19,1.61,1.61,0,0,1,.16.26l.16.31a3.37,3.37,0,0,0,.18.3,1.44,1.44,0,0,0,.22.26,1.07,1.07,0,0,0,.28.18.88.88,0,0,0,.36.07,1,1,0,0,0,.38-.07,1.07,1.07,0,0,0,.3-.18.84.84,0,0,0,.2-.24.67.67,0,0,0,.07-.2.27.27,0,0,0,.17-.14l22-.12Zm-3.65,0h0Z" transform="translate(-0.68)"/></svg>