<?xml version="1.0"?>
<svg xmlns="http://www.w3.org/2000/svg" id="Layer_5" enable-background="new 0 0 64 64" height="512px" viewBox="0 0 64 64" width="512px"><path d="m55 13c-1.654 0-3 1.346-3 3s1.346 3 3 3 3-1.346 3-3-1.346-3-3-3zm0 4c-.551 0-1-.448-1-1s.449-1 1-1 1 .448 1 1-.449 1-1 1z" fill="#e1e1e1"/><path d="m63.153 1h-16.306l1.742 12.198c-.376.859-.589 1.806-.589 2.802 0 .492.052.972.15 1.436l-5.739 5.738c-.453-.109-.924-.174-1.411-.174-1.223 0-2.36.369-3.31 1h-5.649c-2.228 0-4.323.868-5.898 2.443-2.027 2.026-2.867 4.908-2.245 7.708l.189.849h-4.087v-13.087l6.453-.586c2.592-.236 4.547-2.377 4.547-4.98v-11.847c0-1.93-1.57-3.5-3.5-3.5s-3.5 1.57-3.5 3.5v9.587l-5.748.525c1.085-1.234 1.748-2.845 1.748-4.612 0-3.859-3.14-7-7-7s-7 3.141-7 7c0 2.236 1.058 4.226 2.696 5.509-4.456 1.406-7.696 5.577-7.696 10.491v7c0 2.757 2.243 5 5 5v13.09c-2.833.479-5 2.943-5 5.91 0 3.309 2.691 6 6 6h42c3.309 0 6-2.691 6-6s-2.691-6-6-6h-17v-5.753l3.849.856c.608.135 1.219.2 1.825.2 2.185 0 4.295-.858 5.882-2.445 1.576-1.576 2.444-3.67 2.444-5.899v-5.649c.631-.95 1-2.087 1-3.31 0-.487-.065-.958-.174-1.411l5.242-5.242c.893.415 1.884.653 2.932.653 3.86 0 7-3.141 7-7 0-.996-.213-1.943-.59-2.802zm-2.306 2-1.121 7.851c-1.247-1.145-2.904-1.851-4.726-1.851s-3.479.706-4.726 1.851l-1.121-7.851zm-19.847 22c2.206 0 4 1.794 4 4s-1.794 4-4 4-4-1.794-4-4 1.794-4 4-4zm-12 10c0-1.654 1.346-3 3-3h3.812c.526.907 1.282 1.662 2.188 2.188v3.812c0 1.654-1.346 3-3 3h-3v-6zm-3.15-1.282c-.473-2.129.165-4.319 1.707-5.86 1.197-1.198 2.79-1.858 4.484-1.858h3.771c-.513.884-.812 1.907-.812 3 0 .341.035.674.09 1h-3.09c-2.757 0-5 2.243-5 5h-.865zm-5.85 5.282v2h-2v-4h6v4h-2v-2zm-12-29c0-2.757 2.243-5 5-5s5 2.243 5 5-2.243 5-5 5-5-2.243-5-5zm5 7c.013 0 .025-.002.038-.002l1.052-.002 1.777-.162c-.364 1.247-1.504 2.166-2.867 2.166-1.221 0-2.273-.748-2.731-1.829.561-.11 1.139-.171 1.731-.171l.964-.002c.012 0 .024.002.036.002zm-10 16v-7c0-3.668 2.209-6.826 5.364-8.226.72 1.899 2.528 3.226 4.636 3.226 2.535 0 4.614-1.904 4.935-4.354l8.065-.733v-11.413c0-.827.673-1.5 1.5-1.5s1.5.673 1.5 1.5v11.847c0 1.562-1.173 2.847-2.728 2.988l-8.272.752v14.913h-8v16h-2v-30h-2v15c-1.654 0-3-1.346-3-3zm41 27c-1.654 0-3-1.346-3-3s1.346-3 3-3 3 1.346 3 3-1.346 3-3 3zm-5-3c0 1.641.806 3.088 2.031 4h-4.062c1.225-.912 2.031-2.359 2.031-4s-.806-3.088-2.031-4h4.062c-1.225.912-2.031 2.359-2.031 4zm-8 0c0-1.654 1.346-3 3-3s3 1.346 3 3-1.346 3-3 3-3-1.346-3-3zm-2 0c0 1.641.806 3.088 2.031 4h-16.062c1.225-.912 2.031-2.359 2.031-4s-.806-3.088-2.031-4h16.062c-1.225.912-2.031 2.359-2.031 4zm-17-3c1.654 0 3 1.346 3 3s-1.346 3-3 3-3-1.346-3-3 1.346-3 3-3zm-9 3c0-2.206 1.794-4 4-4h2.031c-1.225.912-2.031 2.359-2.031 4s.806 3.088 2.031 4h-2.031c-2.206 0-4-1.794-4-4zm50 0c0 2.206-1.794 4-4 4h-2.031c1.225-.912 2.031-2.359 2.031-4s-.806-3.088-2.031-4h2.031c2.206 0 4 1.794 4 4zm-41-6v-14h4v6h10v-6h4v14zm30.143-8.557c-1.541 1.54-3.732 2.179-5.86 1.706l-4.283-.951v-.198h3c2.757 0 5-2.243 5-5v-3.09c.326.055.659.09 1 .09 1.093 0 2.116-.299 3-.812v3.771c0 1.694-.66 3.286-1.857 4.484zm3.816-16.815c-.425-.623-.964-1.161-1.586-1.586l4.562-4.562c.379.658.861 1.246 1.425 1.747zm9.041-4.628c-2.757 0-5-2.243-5-5s2.243-5 5-5 5 2.243 5 5-2.243 5-5 5z" fill="#e1e1e1"/><path d="m52 5h2v2h-2z" fill="#e1e1e1"/><path d="m56 5h2v2h-2z" fill="#e1e1e1"/></svg>
