<?xml version="1.0"?>
<svg xmlns="http://www.w3.org/2000/svg" viewBox="0 0 64 64" width="512px" height="512px"><g><g id="Packages"><path d="M61,50H3a1,1,0,0,0-1,1v6a1,1,0,0,0,1,1H7v3a1,1,0,0,0,1,1h8a1,1,0,0,0,1-1V58H47v3a1,1,0,0,0,1,1h8a1,1,0,0,0,1-1V58h4a1,1,0,0,0,1-1V51A1,1,0,0,0,61,50ZM15,60H9V58h6Zm40,0H49V58h6Zm5-4H4V52H60Z" data-original="#000000" class="active-path" data-old_color="#000000" fill="#e1e1e1"/><path d="M6,48H58a1,1,0,0,0,1-1V25a1,1,0,0,0-1-1H46V3a1,1,0,0,0-1-1H19a1,1,0,0,0-1,1V24H6a1,1,0,0,0-1,1V47A1,1,0,0,0,6,48Zm51-2H33V26h8v5a1,1,0,0,0,1,1h6a1,1,0,0,0,1-1V26h8ZM47,30H43V26h4ZM34,4V8H30V4ZM20,4h8V9a1,1,0,0,0,1,1h6a1,1,0,0,0,1-1V4h8V24H20Zm1,22v4H17V26ZM7,26h8v5a1,1,0,0,0,1,1h6a1,1,0,0,0,1-1V26h8V46H7Z" data-original="#000000" class="active-path" data-old_color="#000000" fill="#e1e1e1"/><path d="M14,42H10a1,1,0,0,0,0,2h4a1,1,0,0,0,0-2Z" data-original="#000000" class="active-path" data-old_color="#000000" fill="#e1e1e1"/><path d="M14,39H10a1,1,0,0,0,0,2h4a1,1,0,0,0,0-2Z" data-original="#000000" class="active-path" data-old_color="#000000" fill="#e1e1e1"/><path d="M18,39H17a1,1,0,0,0,0,2h1a1,1,0,0,0,0-2Z" data-original="#000000" class="active-path" data-old_color="#000000" fill="#FFFFFF"/><path d="M18,42H17a1,1,0,0,0,0,2h1a1,1,0,0,0,0-2Z" data-original="#000000" class="active-path" data-old_color="#000000" fill="#FFFFFF"/><path d="M23,22h4a1,1,0,0,0,0-2H23a1,1,0,0,0,0,2Z" data-original="#000000" class="active-path" data-old_color="#000000" fill="#FFFFFF"/><path d="M23,19h4a1,1,0,0,0,0-2H23a1,1,0,0,0,0,2Z" data-original="#000000" class="active-path" data-old_color="#000000" fill="#FFFFFF"/><path d="M30,19h1a1,1,0,0,0,0-2H30a1,1,0,0,0,0,2Z" data-original="#000000" class="active-path" data-old_color="#000000" fill="#FFFFFF"/><path d="M30,22h1a1,1,0,0,0,0-2H30a1,1,0,0,0,0,2Z" data-original="#000000" class="active-path" data-old_color="#000000" fill="#FFFFFF"/><path d="M40,42H36a1,1,0,0,0,0,2h4a1,1,0,0,0,0-2Z" data-original="#000000" class="active-path" data-old_color="#000000" fill="#FFFFFF"/><path d="M40,39H36a1,1,0,0,0,0,2h4a1,1,0,0,0,0-2Z" data-original="#000000" class="active-path" data-old_color="#000000" fill="#FFFFFF"/><path d="M44,39H43a1,1,0,0,0,0,2h1a1,1,0,0,0,0-2Z" data-original="#000000" class="active-path" data-old_color="#000000" fill="#FFFFFF"/><path d="M44,42H43a1,1,0,0,0,0,2h1a1,1,0,0,0,0-2Z" data-original="#000000" class="active-path" data-old_color="#000000" fill="#FFFFFF"/></g></g> </svg>
