<?xml version="1.0" encoding="utf-8"?>
<!-- Generator: Adobe Illustrator 22.0.1, SVG Export Plug-In . SVG Version: 6.00 Build 0)  -->
<svg version="1.1" id="Слой_1" xmlns="http://www.w3.org/2000/svg" xmlns:xlink="http://www.w3.org/1999/xlink" x="0px" y="0px"
	 viewBox="0 0 406 406" style="enable-background:new 0 0 406 406;" fill="#e84544" xml:space="preserve">
<path d="M145.7,103c0-44.1,27.4-79.7,61.1-79.7c33.8,0,61.1,35.8,61.1,79.7v50h14v-50c0-54.2-33.6-98-75.1-98s-75.1,43.9-75.1,98v50
	h14L145.7,103L145.7,103z"/>
<path d="M88.3,398.9c-28.6,0-52.2-23.3-52.7-51.9l0-1.8l38.6-217.9c0.9-6.7,4.1-13,8.9-17.9c6-6.2,14.2-9.6,23-9.6h180.5v0.1h21.3
	c8.7,0,17.1,3.5,23,9.7l0.2,0.2c0.5,0.5,0.9,1,1.2,1.3l0.9,0.9l1,1.6c0.2,0.3,0.5,0.7,0.7,1l0.7,1.1c0.5,0.9,1.2,2.1,1.9,3.6
	c0.4,0.9,0.7,1.7,1,2.6l0.2,0.4l1.3,5.4v0.8l38.2,216.7l0,1.8c-0.5,28.5-24.1,51.8-52.6,51.9H88.3z M52.6,346.6l0,0.1
	c0.3,19.4,16.3,35.2,35.7,35.2h237.1c19.4-0.1,35.4-15.9,35.7-35.2l0-0.1L322.9,130v-0.2l-0.7-2.4c-0.1-0.3-0.2-0.6-0.3-0.9
	l-0.1-0.2c-0.3-0.7-0.7-1.4-1.1-2.1l-0.1-0.1c-0.1-0.2-0.2-0.3-0.4-0.5l-0.9-1.1c-0.1-0.1-0.3-0.3-0.5-0.5l-0.4-0.4
	c-2.7-2.8-6.6-4.5-10.7-4.5h-38.3v-0.1H106c-4.2,0-8,1.6-10.8,4.5c-2.3,2.3-3.7,5.2-4.1,8.3l-0.1,0.6L52.6,346.6z"/>
</svg>
