<svg id="Слой_1" data-name="Слой 1" xmlns="http://www.w3.org/2000/svg" viewBox="0 0 193.93 36.83"><defs><style>.cls-1{fill:none;}.cls-2,.cls-4,.cls-6{fill:#fff;}.cls-3{fill:#009fe3;}.cls-4{font-size:23px;}.cls-4,.cls-6{font-family:Montserrat-Black, Montserrat;}.cls-5{letter-spacing:-0.01em;}.cls-6{font-size:6px;}.cls-7{letter-spacing:0em;}.cls-8{letter-spacing:-0.01em;}.cls-9{letter-spacing:0em;}</style></defs><title>logo-5</title><polygon class="cls-1" points="27.08 18.67 27.05 18.63 7.92 24.84 7.94 24.89 27.08 18.67"/><polygon class="cls-1" points="22.24 11.06 4.2 14.32 4.21 14.34 22.25 11.07 22.24 11.06"/><polygon class="cls-1" points="34.17 8.9 22.86 10.94 22.87 10.96 34.18 8.91 34.17 8.9"/><polygon class="cls-1" points="21.92 10.56 21.91 10.55 3.96 13.63 3.96 13.65 21.92 10.56"/><polygon class="cls-1" points="27.7 18.42 27.72 18.46 39.08 14.76 39.06 14.74 27.7 18.42"/><polygon class="cls-1" points="22.55 10.45 33.84 8.51 33.83 8.5 22.54 10.44 22.55 10.45"/><path class="cls-2" d="M46.18,7.48l-.28-.33L16,9.12l.14.42,0,.1,2.73,8.09.23.68,3.64,10.76.06.19.25.73L55.9,19l-.39-.46h0l-9.33-11Zm-26.24,10-2.82-8L34.07,8.35l3.88,6.09h0L20,17.55v0Zm4,11.21L20.19,18.24h0v0l18-3.26h0l4.81,7.55h0l0,0L23.94,28.79l0-.05Zm19.81-6.39,0,0h0l-4.82-7.47h0l11.3-2h0l4.88,5.82,0,0Zm6.11-10h0L38.55,14.35h0l-3.9-6,11.13-.8Z" transform="translate(-16 -3.9)"/><path class="cls-3" d="M34.61,8.31l3.9,6h0L49.83,12.4l-4.1-4.89Zm14.83,3.92L38.66,14,35.06,8.5l10.6-.8Z" transform="translate(-16 -3.9)"/><path class="cls-3" d="M37.95,14.44,34.07,8.35,17.12,9.57l2.82,8h0l18-3.08Zm-.5-.2L20.36,17.09,17.72,9.81,33.88,8.59Z" transform="translate(-16 -3.9)"/><polygon class="cls-2" points="4.36 13.19 21.45 10.34 17.89 4.69 1.73 5.91 4.36 13.19"/><polygon class="cls-2" points="22.66 10.13 33.44 8.33 29.66 3.8 19.06 4.6 22.66 10.13"/><path class="cls-3" d="M43.09,22.52,38.28,15h0l-18,3.26h0l3.72,10.51h0l19.13-6.21Zm-.55-.22-18.2,5.78L20.87,18.5l17.25-3.2Z" transform="translate(-16 -3.9)"/><polygon class="cls-2" points="8.34 24.19 26.54 18.4 22.11 11.39 4.87 14.6 8.34 24.19"/><path class="cls-3" d="M50.18,12.81l-11.3,2h0l4.82,7.47h0l11.36-3.69Zm4.45,5.65L43.79,21.91l-4.45-6.84,10.8-2Z" transform="translate(-16 -3.9)"/><polygon class="cls-2" points="27.79 18.01 38.63 14.56 34.13 9.16 23.34 11.17 27.79 18.01"/><polygon class="cls-1" points="43.19 27.33 43.16 27.28 18.97 35.13 19 35.2 43.19 27.33"/><polygon class="cls-1" points="37.07 17.71 14.26 21.83 14.27 21.85 37.08 17.73 37.07 17.71"/><polygon class="cls-1" points="52.16 14.98 37.86 17.57 37.87 17.58 52.17 15 52.16 14.98"/><polygon class="cls-1" points="36.67 17.08 36.66 17.06 13.96 20.96 13.97 20.98 36.67 17.08"/><polygon class="cls-1" points="43.97 27.02 44 27.07 58.36 22.39 58.33 22.36 43.97 27.02"/><polygon class="cls-1" points="37.46 16.94 51.74 14.49 51.73 14.47 37.45 16.93 37.46 16.94"/><path class="cls-2" d="M63.11,12.16l-.35-.42L25,14.23l.18.53,0,.13,3.46,10.22.29.86,4.6,13.61.08.24.31.92,41.49-14-.5-.59h0l-11.8-14ZM29.94,24.86,26.38,14.79,47.8,13.25,52.7,21h0v0L30,24.89v0ZM35,39l-4.7-13.28h0v0l22.8-4.12v0h0l6.08,9.55,0,0,0,0L35,39.1,35,39ZM60,31l0,0,0,0-6.1-9.44h0v0l14.29-2.58h0l6.17,7.36,0,0Zm7.73-12.59h0L53.46,20.84v0h0L48.48,13.2l14.07-1Z" transform="translate(-16 -3.9)"/><path class="cls-3" d="M48.48,13.2l4.93,7.63h0l14.28-2.45-5.18-6.18Zm18.75,5L53.61,20.44l-4.55-7,13.4-1Z" transform="translate(-16 -3.9)"/><path class="cls-3" d="M52.7,21l-4.9-7.7L26.38,14.79l3.56,10.07h0L52.66,21Zm-.63-.26-21.6,3.61L27.14,15.1l20.43-1.54Z" transform="translate(-16 -3.9)"/><polygon class="cls-2" points="14.47 20.41 36.07 16.8 31.57 9.66 11.13 11.2 14.47 20.41"/><polygon class="cls-2" points="37.61 16.54 51.23 14.26 46.46 8.54 33.05 9.54 37.61 16.54"/><path class="cls-3" d="M59.21,31.17l-6.08-9.55h0L30.27,25.75h0L35,39h0l24.18-7.85Zm-.7-.27-23,7.31L31.11,26.08l21.8-4Z" transform="translate(-16 -3.9)"/><polygon class="cls-2" points="19.5 34.31 42.51 27 36.91 18.13 15.11 22.18 19.5 34.31"/><path class="cls-3" d="M68.17,18.9,53.87,21.48h0l6.1,9.44,0,0,14.36-4.66ZM73.8,26,60.09,30.39l-5.63-8.65,13.65-2.53Z" transform="translate(-16 -3.9)"/><polygon class="cls-2" points="44.09 26.49 57.8 22.14 52.11 15.31 38.46 17.85 44.09 26.49"/><text class="cls-4" transform="translate(64 25.1)">ОкноПрав</text><text class="cls-6" transform="translate(65 5.1)">Быстрая помощь Вашим окнам</text></svg>