<svg height="512pt" fill= "#666666" viewBox="0 -102 512 512" width="512pt" xmlns="http://www.w3.org/2000/svg"><path d="m503.464844 307.199219h-494.929688c-4.710937 0-8.535156-3.820313-8.535156-8.53125v-290.132813c0-4.710937 3.824219-8.535156 8.535156-8.535156h494.929688c4.710937 0 8.535156 3.824219 8.535156 8.535156v290.132813c0 4.710937-3.824219 8.53125-8.535156 8.53125zm-486.398438-17.066407h477.867188v-273.066406h-477.867188zm0 0"/><path d="m268.800781 162.132812h-21.335937c-4.707032 0-8.53125-3.824218-8.53125-8.53125v-59.734374c0-4.710938 3.824218-8.535157 8.53125-8.535157h21.335937c21.171875 0 38.398438 17.230469 38.398438 38.402344s-17.226563 38.398437-38.398438 38.398437zm-12.800781-17.066406h12.800781c11.757813 0 21.332031-9.574218 21.332031-21.332031 0-11.761719-9.574218-21.335937-21.332031-21.335937h-12.800781zm0 0"/><path d="m273.066406 196.265625h-42.667968c-4.707032 0-8.53125-3.820313-8.53125-8.53125s3.824218-8.535156 8.53125-8.535156h42.667968c4.710938 0 8.535156 3.824219 8.535156 8.535156s-3.824218 8.53125-8.535156 8.53125zm0 0"/><path d="m247.464844 213.332031c-4.707032 0-8.53125-3.820312-8.53125-8.53125v-51.199219c0-4.710937 3.824218-8.535156 8.53125-8.535156 4.710937 0 8.535156 3.824219 8.535156 8.535156v51.199219c0 4.710938-3.824219 8.53125-8.535156 8.53125zm0 0"/><path d="m247.464844 162.132812h-17.066406c-4.707032 0-8.53125-3.824218-8.53125-8.53125 0-4.710937 3.824218-8.535156 8.53125-8.535156h17.066406c4.710937 0 8.535156 3.824219 8.535156 8.535156 0 4.707032-3.824219 8.53125-8.535156 8.53125zm0 0"/><path d="m247.464844 102.398438h-17.066406c-4.707032 0-8.53125-3.820313-8.53125-8.53125 0-4.710938 3.824218-8.535157 8.53125-8.535157h17.066406c4.710937 0 8.535156 3.824219 8.535156 8.535157 0 4.710937-3.824219 8.53125-8.535156 8.53125zm0 0"/><path d="m401.066406 162.132812h-51.199218c-4.710938 0-8.535157-3.824218-8.535157-8.53125 0-4.710937 3.824219-8.535156 8.535157-8.535156h51.199218c4.710938 0 8.535156 3.824219 8.535156 8.535156 0 4.707032-3.824218 8.53125-8.535156 8.53125zm0 0"/><path d="m256 307.199219c-56.464844 0-102.398438-68.90625-102.398438-153.597657 0-84.695312 45.933594-153.601562 102.398438-153.601562s102.398438 68.90625 102.398438 153.601562c0 84.691407-45.933594 153.597657-102.398438 153.597657zm0-290.132813c-47.054688 0-85.332031 61.253906-85.332031 136.535156s38.277343 136.53125 85.332031 136.53125 85.332031-61.25 85.332031-136.53125-38.277343-136.535156-85.332031-136.535156zm0 0"/><path d="m413.039062 213.332031h-69.300781c-2.617187 0-5.09375-1.203125-6.714843-3.257812-1.613282-2.066407-2.199219-4.753907-1.578126-7.296875 3.910157-15.984375 5.886719-32.527344 5.886719-49.175782 0-16.648437-1.976562-33.195312-5.878906-49.179687-.621094-2.542969-.042969-5.230469 1.578125-7.296875 1.613281-2.054688 4.089844-3.257812 6.707031-3.257812h65.863281c2.917969 0 5.640626 1.492187 7.199219 3.957031 2.902344 4.585937 10.71875 16.191406 14.628907 21.992187 16.347656 2.398438 29.371093 16.894532 29.371093 33.785156 0 16.636719-12.636719 30.957032-28.648437 33.671876-3.140625 6.175781-8.90625 17.371093-11.910156 22.101562-1.5625 2.464844-4.285157 3.957031-7.203126 3.957031zm-58.710937-17.066406h53.8125c3.574219-6.417969 8.78125-16.671875 10.890625-20.878906 1.441406-2.894531 4.402344-4.71875 7.636719-4.71875 9.085937 0 17.066406-7.980469 17.066406-17.066407 0-9.089843-7.980469-17.066406-17.066406-17.066406-2.835938 0-5.480469-1.410156-7.066407-3.746094 0 0-9.277343-13.699218-14.636718-21.855468h-50.636719c2.707031 13.984375 4.070313 28.289062 4.070313 42.667968 0 14.378907-1.363282 28.679688-4.070313 42.664063zm0 0"/><path d="m162.132812 162.132812h-51.199218c-4.710938 0-8.535156-3.824218-8.535156-8.53125 0-4.710937 3.824218-8.535156 8.535156-8.535156h51.199218c4.710938 0 8.535157 3.824219 8.535157 8.535156 0 4.707032-3.824219 8.53125-8.535157 8.53125zm0 0"/><path d="m168.261719 213.332031h-65.863281c-2.917969 0-5.640626-1.492187-7.199219-3.957031-2.902344-4.582031-10.71875-16.1875-14.628907-21.992188-16.347656-2.398437-29.371093-16.894531-29.371093-33.78125 0-16.640624 12.636719-30.960937 28.648437-33.675781 3.140625-6.175781 8.90625-17.371093 11.910156-22.101562 1.5625-2.464844 4.285157-3.957031 7.203126-3.957031h69.300781c2.617187 0 5.09375 1.203124 6.714843 3.257812 1.613282 2.066406 2.199219 4.753906 1.578126 7.296875-3.910157 15.984375-5.886719 32.53125-5.886719 49.179687 0 16.648438 1.976562 33.191407 5.878906 49.175782.621094 2.542968.042969 5.230468-1.578125 7.296875-1.613281 2.054687-4.089844 3.257812-6.707031 3.257812zm-61.226563-17.066406h50.636719c-2.707031-13.984375-4.070313-28.285156-4.070313-42.664063 0-14.378906 1.363282-28.683593 4.070313-42.667968h-53.820313c-3.578124 6.417968-8.78125 16.675781-10.890624 20.878906-1.433594 2.894531-4.394532 4.722656-7.628907 4.722656-9.085937 0-17.066406 7.976563-17.066406 17.066406 0 9.085938 7.980469 17.066407 17.066406 17.066407 2.835938 0 5.480469 1.40625 7.066407 3.746093 0 0 9.277343 13.695313 14.636718 21.851563zm0 0"/><path d="m8.535156 85.332031c-4.710937 0-8.535156-3.820312-8.535156-8.53125v-68.265625c0-4.710937 3.824219-8.535156 8.535156-8.535156h68.265625c4.710938 0 8.53125 3.824219 8.53125 8.535156 0 42.339844-34.457031 76.796875-76.796875 76.796875zm8.53125-68.265625v50.59375c26.121094-3.753906 46.839844-24.472656 50.59375-50.59375zm0 0"/><path d="m503.464844 85.332031c-42.339844 0-76.796875-34.457031-76.796875-76.796875 0-4.710937 3.820312-8.535156 8.53125-8.535156h68.265625c4.710937 0 8.535156 3.824219 8.535156 8.535156v68.265625c0 4.710938-3.824219 8.53125-8.535156 8.53125zm-59.125-68.265625c3.753906 26.121094 24.472656 46.839844 50.59375 50.59375v-50.59375zm0 0"/><path d="m503.464844 307.199219h-68.265625c-4.710938 0-8.53125-3.820313-8.53125-8.53125 0-42.34375 34.457031-76.800781 76.796875-76.800781 4.710937 0 8.535156 3.824218 8.535156 8.53125v68.269531c0 4.710937-3.824219 8.53125-8.535156 8.53125zm-59.125-17.066407h50.59375v-50.59375c-26.121094 3.753907-46.839844 24.472657-50.59375 50.59375zm0 0"/><path d="m76.800781 307.199219h-68.265625c-4.710937 0-8.535156-3.820313-8.535156-8.53125v-68.269531c0-4.707032 3.824219-8.53125 8.535156-8.53125 42.339844 0 76.796875 34.457031 76.796875 76.800781 0 4.710937-3.820312 8.53125-8.53125 8.53125zm-59.734375-17.066407h50.59375c-3.753906-26.121093-24.472656-46.839843-50.59375-50.59375zm0 0"/></svg>