<?xml version="1.0" encoding="iso-8859-1"?>
<!-- Generator: Adobe Illustrator 19.0.0, SVG Export Plug-In . SVG Version: 6.00 Build 0)  -->
<svg  fill= "#ffffff" version="1.1" id="Capa_1" xmlns="http://www.w3.org/2000/svg" xmlns:xlink="http://www.w3.org/1999/xlink" x="0px" y="0px"
	 viewBox="0 0 512 512" style="enable-background:new 0 0 512 512;" xml:space="preserve">
<g>
	<g>
		<g>
			<path d="M256,0C114.615,0,0,114.615,0,256s114.615,256,256,256s256-114.615,256-256C511.84,114.682,397.318,0.16,256,0z
				 M256,494.933C124.041,494.933,17.067,387.959,17.067,256S124.041,17.067,256,17.067S494.933,124.041,494.933,256
				C494.785,387.898,387.898,494.785,256,494.933z"/>
			<path d="M256,34.133C133.466,34.133,34.133,133.466,34.133,256S133.466,477.867,256,477.867S477.867,378.534,477.867,256
				C477.73,133.523,378.477,34.27,256,34.133z M256,460.8c-113.108,0-204.8-91.692-204.8-204.8S142.892,51.2,256,51.2
				S460.8,142.892,460.8,256C460.671,369.054,369.054,460.671,256,460.8z"/>
			<path d="M375.467,300.092c0-27.883-21.53-50.692-44.325-74.842c-31.35-33.208-63.762-67.541-53.15-121.192
				c0.731-3.682-1.03-7.409-4.339-9.182s-7.387-1.175-10.048,1.473c-51.738,51.425-89.292,131.65-89.292,190.767
				c0,0.3,0,0.6,0.004,0.9c-14.969-2.099-28.933-8.746-40-19.042c-2.37-2.611-6.102-3.496-9.391-2.226
				c-3.29,1.27-5.459,4.433-5.459,7.959c0,67.689,39.381,101.233,76.342,117.825H179.2c-4.713,0-8.533,3.821-8.533,8.533
				s3.82,8.533,8.533,8.533h170.667c4.713,0,8.533-3.82,8.533-8.533s-3.82-8.533-8.533-8.533h-24.141
				C356.774,372.024,375.458,337.302,375.467,300.092z M266.615,392.319c-0.796-0.033-1.455-0.049-2.415-0.111
				c-0.389,0.03-0.775,0.088-1.155,0.172c-23.122-0.999-41.313-20.104-41.179-43.247c0-9.158,9.129-18.608,19.696-29.55
				c12.583-13.033,27.442-28.417,31.563-49.367c18.066,23.733,34.075,56.408,34.075,78.917
				C307.323,372.036,289.482,391.021,266.615,392.319z M317.053,377.919c4.75-8.85,7.229-18.741,7.214-28.786
				c0-34.308-27.921-82.658-53.787-107.792c-2.684-2.604-6.749-3.158-10.032-1.367c-3.283,1.791-5.017,5.509-4.281,9.175
				c5.125,25.433-11.146,42.283-26.879,58.575c-12.592,13.042-24.488,25.35-24.488,41.409c-0.005,11.567,3.302,22.894,9.529,32.642
				c-33.605-11.874-69.914-36.802-76.679-89.125c13.795,7.962,29.255,12.601,45.154,13.55c2.493,0.138,4.927-0.793,6.692-2.558
				c1.749-1.793,2.622-4.264,2.388-6.758c-0.3-3.191-0.504-6.475-0.504-9.767c0-48.508,27.558-112.667,67.554-160.433
				c1.125,48.133,33.237,82.15,59.8,110.283c21.283,22.55,39.667,42.025,39.667,63.125
				C358.42,331.296,342.922,360.468,317.053,377.919z"/>
		</g>
	</g>
</g>
<g>
</g>
<g>
</g>
<g>
</g>
<g>
</g>
<g>
</g>
<g>
</g>
<g>
</g>
<g>
</g>
<g>
</g>
<g>
</g>
<g>
</g>
<g>
</g>
<g>
</g>
<g>
</g>
<g>
</g>
</svg>
