<svg id="Слой_1" data-name="Слой 1" xmlns="http://www.w3.org/2000/svg" xmlns:xlink="http://www.w3.org/1999/xlink" viewBox="0 0 413 26.44"><defs><style>.cls-1{fill:none;}.cls-2{clip-path:url(#clip-path);}.cls-3{fill:#0060ff;}</style><clipPath id="clip-path" transform="translate(0 0)"><rect class="cls-1" width="413" height="26.44"/></clipPath></defs><title>Векторный смарт-объект</title><g class="cls-2"><path class="cls-3" d="M399.37,22.6l-1.19-.14a24.53,24.53,0,0,1,3.19,0c-12.53-1.11-29-.44-39.67.67-3.84,0-7.25.29-7.61.75s2.47.85,6.34.9c.85.05,1.85.09,2.46.17,5.52.7,12.27,1.18,19.71,1.54l-4.36-.4c2.15.11,4.27.22,6.67.23l-.83-.25c7.4.6,17.54.39,22.66-.48s3.32-2.05-4.08-2.65Z" transform="translate(0 0)"/><path class="cls-3" d="M385.56,20c4.43.3,8.68.62,12.94.94l.84.15-.28-.7-.08,0c-4,.58-10.56.82-16.62,1l-2.16.1a5.67,5.67,0,0,0-1.94.37c-.5.33,1.38.65,4.2.71l3.25.06c7.92.4,20.39.42,24.81-.76,1-.27.12-.62-.09-.94.3-.46-2.68-.86-6.64-.9s-7.37.32-7.64.78l-2-.1,1.59-.17c-1.12.4-4.73.49-7.42.71l-4,.11,2.27,1.08,2.1-.14c-.16,0-.47-.11-.44-.12,4-.29,7.74-.59,12.11-.78l5.5-.39c1.49-.2,1.35-.51-.28-.7l-2.44-.23,1.1.14c-5.62-.24-11.55-.39-17.11-.65a10.91,10.91,0,0,0-2.41.1c-.39.11,0,.23.89.28" transform="translate(0 0)"/><path class="cls-3" d="M405.41,19.83a26.22,26.22,0,0,0,3.08.15l.55-.09-1.78-.19c-1.28-.13-1.94,0-1.86.12" transform="translate(0 0)"/><path class="cls-3" d="M409,19.89l.74.08-.5-.1h-.15l-.1,0" transform="translate(0 0)"/><path class="cls-3" d="M163.5,21.88q-26.09-.34-52.31-.5a2.8,2.8,0,0,0-1.11.11c0,.06.43.12,1,.12,17.47.12,34.84.28,52.23.51a3.53,3.53,0,0,0,1.15-.11c0-.07-.38-.13-.93-.13" transform="translate(0 0)"/><path class="cls-3" d="M33.2,15.23c.41-.05.4-.12,0-.17a7.5,7.5,0,0,0-1.44,0c-.35,0-.33.13,0,.17a7.53,7.53,0,0,0,1.43,0" transform="translate(0 0)"/><path class="cls-3" d="M36.94,10c2.44-.1,4.76-.21,6.82-.39a8.15,8.15,0,0,1,1.14,0c-.14-.11.32-.21,1.2-.25,17.33-.9,36-1.25,54.34-1.73a2.21,2.21,0,0,1,.78-.25A34.65,34.65,0,0,1,107.69,7l2,.07c8.06.16,16.11.28,24.13.45,1.64-.12,3.54-.21,5.61-.23,6.93-.33,13.89-.65,21-.9-.45-.07-.72-.16-.71-.26s1.78-.4,3.71-.4h2.91L158,5.54l-1.11,0c-3,0-6.13,0-9.26,0C120.26,5.73,94.55,6.61,69,7.62a7.48,7.48,0,0,1-1.45,0c-.25-.06-.2-.13.26-.16C83.93,6.27,97.85,4.74,116,4c21.64-.91,43-1.68,65.19-2.27,23.2,0,44.66-.56,68.31-1,32-.57,62.14-.66,93.4-.71,11.71-.18,22.44.78,24,2.15.88.83-1.77,1.62-6.58,2.15l2.86,0,4.53.16a71.43,71.43,0,0,1,10.25,1l3.17.58c4.22,1.09,11,2,14.5,3.15l-.77.43.82.12c2.69.32,4.51.73,5.13,1.17l-.26.52c-.56.6-1.91,1.16-4.07,1.68.07.22-.19.44-.75.64,1.85.53,2.72,1.09,1.26,1.71,1.11.15.93.38-.4.51-.46,0-1,.07-1.57.08h0c.61.14.79.18,1.61.33l1.74.08,5.48.18c2.19.18,3.54.44,3.54.44,2.42.93,2.42.93,2,1.33l-.47.11,2.6.19c.55.07.92.15.92.15.08.22.08.22.42.29.11.08.08.16.08.16-1.08.24-1.08.24-1.11.31-.26.06-.61.12-.61.12l-2,.11-2.73-.56-.59.19-.63-.26.36.24-1.38-.14,1.57.21c-3.25-.09-3.25-.09-4.56-.08s-2.51,0-2.65,0c.11.07.12.13.12.13l-6.87-.19-.8-.15a8.83,8.83,0,0,1-1.64.08l-1.78,0-.38,0a0,0,0,0,0,0,0l-1.5.11-.31,0h0L379,20c-1.05,0-2-.07-3-.11l.86.11c.55.08,0,.28.35.3,7.43.44,15.53.62,23.51.85a9.16,9.16,0,0,1,3,.27c.19.17-.84.32-2.3.35a462.6,462.6,0,0,1-52.66.07q-6.56-.16-13.19-.29l.63.1-3.42-.16h-.37l2.59.38,1.8.11c10.23.16,19.51.74,29.4,1.12,5.31.2,9.88.56,14.9.83,1.29,0,2.19.16,2,.31a7.93,7.93,0,0,1-2.62.23c-16.76.26-35.89,0-49.3-1.27-3.06,0-6-.11-8.45-.35h-.14l1.88.32c-2.29-.08-3.51-.34-5.59-.45.24.14.53.29.77.43-11.29-.27-23.49-.15-33.94-.77l-1.21,0c-4.5.3-9,.59-14.39.63l5.38.14c-3.88.18-7.72.31-11.86.29-11.23,0-23.79-.7-29.73-1.83-21.76.14-43.55.24-65.26.52a7.48,7.48,0,0,1-2.33-.2c-.12-.13.62-.25,1.75-.27,15.57-.44,31.37-.68,47.2-.88-13.23-.22-26.52-.43-40.08-.48L170,20.3c-1.72,0-3.43,0-5.13-.07-17.32,0-33.75-.08-51.42.24-15.09.28-28.29.57-43.32,1C49.05,22,29.83,22.57,9,22.57c-2.77,0-5.34-.2-5.67-.52s1.68-.62,4.46-.66c43.49-1,86.18-2.23,131.65-2.07l14.53.06c-.06,0-.12-.09-.12-.13s.46-.34,1.22-.48q-8.18-.07-16.45-.21c-15.32.37-30.67.75-47,.55-11.22-.14-21.38-.52-31.75-.88-13.15.2-26.26.46-39.54.63A5,5,0,0,1,19,18.79c-.19-.06.1-.13.63-.15,9.13-.4,18.49-.71,27.94-1-1.49-.2-2.38-.47-2.26-.76s1.27-.57,3-.76l-6.42,0c-1.32,0-2.36-.13-2.33-.27A5.22,5.22,0,0,1,42,15.57l26.17.07c10.47-.16,20.9-.31,31.38-.42a10.67,10.67,0,0,1-3-.72h0l-4.86,0C62,15.35,31.67,15.82,1.1,15.65A2.57,2.57,0,0,1,0,15.53c0-.07.45-.13,1-.12q13.84.08,27.61,0h0c-.37,0-.44-.12,0-.17a8.22,8.22,0,0,1,1.44,0c.43,0,.39.12,0,.17,17.09-.11,34.06-.4,50.81-.82-15.56.07-31.13.11-46.67,0L29,14.8a5.36,5.36,0,0,1-1.27-.09c-.13-.06.21-.13.69-.14l1.43-.06c-2.94,0-5.21-.31-5.16-.67s2.69-.65,5.75-.63q12.28-.1,24.5-.12L57.62,13l2.66-.17q-19-.21-37.93-.5a4.85,4.85,0,0,1-2-.23c0-.13.85-.23,1.93-.24,22.17-.51,44.62-.85,67.17-1.08,7.4-.55,14.82-1.1,22.38-1.64l-2.88,0c-24.51,0-45.31,1.56-69,1.88a3.33,3.33,0,0,1-1.17-.1c-.06-.06.34-.13.94-.13,11.58-.21,22.15-.75,33.64-1.12,9.52-.31,18.57-.6,27.42-1-18.09.15-35.43.82-53.34,1.13a13.44,13.44,0,0,1-2.07-.07,1.15,1.15,0,0,1-.44.09c-2.24.17-4.68.3-7.18.41a5.38,5.38,0,0,1-1.33-.07c-.25-.06,0-.12.57-.16m314.67,7.49.45.08-1.58-.13-2.21-.52,3.34.57m27.7-1.9h0l1.27.29-1.26-.29M202.43,20.08c9.51,0,18.93.13,28.32.46l-6.88.08q-10.69-.23-21.44-.54m167.75-.65c-2.5-.27-4.45-.6-6.3-.94-1.65.06-3.37.08-5.11.07-4.68,0-9.24-.11-13.73-.2.58.18-.49.16-1,.18l-1.69,0c4.79.13,9.59.27,14.48.43,4.41.14,9.19.22,13.39.42m33.45-.7.41.07-.9.27.49-.34m1.41-.46-.69,0a.8.8,0,0,1,.69,0m-6.29-.34c.37.07.6.12.89.15l-.89-.15m-4.47-8-2.45,1.36L394.5,10Z" transform="translate(0 0)"/></g></svg>