<svg id="Слой_1" data-name="Слой 1" xmlns="http://www.w3.org/2000/svg" xmlns:xlink="http://www.w3.org/1999/xlink" viewBox="0 0 491 49.73"><defs><style>.cls-1{fill:none;}.cls-2{clip-path:url(#clip-path);}.cls-3{fill:#0060ff;}</style><clipPath id="clip-path" transform="translate(0 0)"><rect class="cls-1" width="491" height="49.73"/></clipPath></defs><title>line</title><g class="cls-2"><path class="cls-3" d="M474.8,42.52l-1.42-.26a18.47,18.47,0,0,1,3.79-.09c-14.9-2.1-34.51-.83-47.16,1.26-4.56-.07-8.61.55-9.05,1.4s2.94,1.61,7.54,1.69c1,.1,2.19.17,2.93.31a201.78,201.78,0,0,0,23.43,2.9L449.67,49c2.56.21,5.08.42,7.93.43-.3-.16-.68-.31-1-.47,8.8,1.13,20.86.73,26.93-.9s4-3.86-4.85-5Z" transform="translate(0 0)"/><path class="cls-3" d="M458.38,37.57c5.27.56,10.32,1.16,15.39,1.77l1,.29-.34-1.31-.1.08c-4.74,1.1-12.56,1.55-19.76,1.86l-2.57.19a4.71,4.71,0,0,0-2.31.7c-.6.63,1.64,1.22,5,1.33l3.87.11c9.42.75,24.24.79,29.5-1.43,1.18-.51.15-1.16-.11-1.76.36-.87-3.18-1.62-7.89-1.69s-8.76.59-9.09,1.47L468.57,39l1.89-.31c-1.33.76-5.62.93-8.82,1.33l-4.79.21,2.7,2L462,42c-.19-.09-.56-.21-.52-.22,4.74-.55,9.2-1.11,14.4-1.46l6.53-.74c1.77-.38,1.6-1-.34-1.31l-2.9-.44,1.31.26c-6.68-.46-13.73-.73-20.34-1.22a8.28,8.28,0,0,0-2.87.19c-.47.2,0,.43,1.06.52" transform="translate(0 0)"/><path class="cls-3" d="M482,37.3a19.84,19.84,0,0,0,3.67.28l.66-.16-2.12-.35c-1.52-.25-2.3-.06-2.21.23" transform="translate(0 0)"/><path class="cls-3" d="M486.3,37.42l.88.15-.59-.19-.17,0-.12,0" transform="translate(0 0)"/><path class="cls-3" d="M194.38,41.15q-31-.65-62.2-.93c-.7,0-1.28.08-1.32.21s.51.22,1.15.22c20.76.23,41.42.52,62.1,1a2.75,2.75,0,0,0,1.36-.2c0-.13-.45-.24-1.1-.25" transform="translate(0 0)"/><path class="cls-3" d="M39.47,28.64c.49-.1.47-.23,0-.32a5.66,5.66,0,0,0-1.71,0c-.41.08-.4.24,0,.32a5.68,5.68,0,0,0,1.71,0" transform="translate(0 0)"/><path class="cls-3" d="M43.92,18.79c2.9-.18,5.65-.39,8.11-.73a6.14,6.14,0,0,1,1.36,0c-.17-.2.39-.39,1.43-.47,20.61-1.69,42.77-2.36,64.6-3.26a2.08,2.08,0,0,1,.92-.47,26.34,26.34,0,0,1,7.69-.68l2.37.13c9.58.29,19.15.52,28.68.84,2-.23,4.21-.39,6.67-.43,8.24-.63,16.51-1.23,25-1.69-.53-.14-.85-.31-.85-.49.16-.44,2.12-.76,4.41-.75l3.45,0c-3.31-.1-6.62-.22-9.92-.34-.48,0-.92,0-1.32-.07-3.63,0-7.29,0-11,0-32.51.39-63.09,2-93.42,4a5.64,5.64,0,0,1-1.72,0c-.29-.1-.24-.25.31-.31,19.12-2.19,35.66-5.07,57.28-6.5,25.73-1.72,51.13-3.16,77.51-4.27,27.58,0,53.09-1,81.21-1.83,38-1.07,73.88-1.24,111-1.34,13.92-.35,26.68,1.48,28.49,4,1,1.56-2.1,3-7.83,4l3.4,0,5.38.31a54.93,54.93,0,0,1,12.18,1.82l3.77,1.08c5,2,13.13,3.77,17.24,5.92l-.92.81,1,.24c3.2.59,5.36,1.37,6.1,2.19l-.31,1c-.67,1.12-2.27,2.17-4.84,3.16.09.42-.22.82-.89,1.2,2.2,1,3.23,2.06,1.5,3.22,1.32.29,1.1.72-.47,1a15.76,15.76,0,0,1-1.86.15h0c.72.26.94.33,1.92.62,1.31.08,2.07.15,2.07.15l6.51.34a30.25,30.25,0,0,1,4.21.82c2.88,1.75,2.88,1.75,2.43,2.51l-.56.22,3.09.35a9.47,9.47,0,0,1,1.1.29c.1.41.1.41.5.55a.4.4,0,0,1,.1.31c-1.29.45-1.29.45-1.32.58a6.47,6.47,0,0,1-.73.22l-2.36.21-3.24-1.05-.7.36-.75-.48.43.44-1.64-.27,1.87.39c-3.87-.16-3.87-.16-5.42-.15s-3,.05-3.15.06a.44.44,0,0,1,.14.24c-4.14-.17-4.14-.17-8.17-.36-.37-.1-.67-.19-.95-.29a6.7,6.7,0,0,1-2,.16l-2.12-.08-.45.06a.09.09,0,0,0,0,0l-1.79.21-.37,0h0l-7.73.9c-1.25-.05-2.42-.12-3.52-.21l1,.2c.66.14.06.53.42.57,8.83.83,18.46,1.17,27.95,1.61,1.7,0,3.3.18,3.55.5s-1,.61-2.74.65C458,43,434.42,42.71,414.67,41q-7.8-.31-15.68-.55l.75.2-4.07-.3h-.44l3.08.71,2.14.21c12.17.3,23.2,1.4,34.95,2.1,6.32.38,11.74,1.06,17.71,1.56,1.54,0,2.6.29,2.42.58s-1.61.48-3.11.44c-19.92.5-42.67,0-58.62-2.39a72,72,0,0,1-10-.65h-.16l2.24.6c-2.72-.15-4.17-.64-6.65-.85.28.27.63.54.92.81-13.42-.5-27.93-.27-40.35-1.44-.5,0-1,0-1.43-.07-5.35.56-10.76,1.11-17.11,1.18l6.4.26c-4.61.35-9.17.58-14.1.55-13.35-.08-28.29-1.32-35.34-3.44-25.87.25-51.77.46-77.58,1a5.8,5.8,0,0,1-2.77-.37c-.14-.24.74-.47,2.08-.5C218.39,39.8,237.17,39.36,256,39c-15.73-.42-31.53-.81-47.65-.9l-6.19.1c-2,0-4.08,0-6.1-.13-20.59,0-40.13-.15-61.14.45-17.94.52-33.64,1.07-51.5,1.82-25.09,1.05-47.94,2.12-72.74,2.12-3.3.07-6.35-.37-6.74-1s2-1.17,5.3-1.25c51.7-1.9,102.46-4.19,156.52-3.89l17.27.11a.43.43,0,0,1-.14-.25c0-.33.54-.64,1.45-.9q-9.72-.12-19.56-.39c-18.22.7-36.46,1.4-55.89,1-13.34-.26-25.41-1-37.75-1.65-15.63.38-31.22.87-47,1.19a3.78,3.78,0,0,1-1.51-.14c-.23-.12.11-.24.75-.28,10.86-.76,22-1.33,33.21-1.85-1.77-.38-2.82-.88-2.68-1.42s1.51-1.07,3.61-1.42l-7.64,0c-1.57,0-2.81-.24-2.77-.52s1.29-.52,2.78-.51L81,29.42c12.44-.31,24.84-.57,37.31-.8a9.12,9.12,0,0,1-3.61-1.34h0l-5.77,0C73.71,28.88,37.66,29.75,1.31,29.44c-.71,0-1.3-.1-1.31-.23S.54,29,1.18,29q16.46.14,32.82,0h0c-.44-.08-.52-.22,0-.32a6.2,6.2,0,0,1,1.71,0c.51.09.46.23,0,.31,20.32-.21,40.5-.75,60.41-1.54-18.5.13-37,.21-55.48,0l-6.07.48A4.1,4.1,0,0,1,33,27.68c-.16-.11.25-.24.82-.27l1.7-.12c-3.5-.05-6.2-.59-6.14-1.26s3.2-1.21,6.83-1.19q14.6-.2,29.12-.23l3.15-.12,3.16-.32q-22.62-.4-45.09-.94c-1.28,0-2.38-.19-2.41-.43s1-.44,2.3-.44c26.36-1,53.05-1.61,79.85-2,8.8-1,17.62-2.07,26.61-3.09l-3.42,0c-29.14,0-53.86,2.93-82.08,3.53A2.59,2.59,0,0,1,46,20.53c-.08-.12.4-.24,1.12-.24,13.77-.4,26.33-1.4,40-2.11,11.32-.59,22.08-1.12,32.59-1.9-21.5.28-42.12,1.55-63.42,2.12a10.15,10.15,0,0,1-2.46-.13,1,1,0,0,1-.52.17c-2.66.33-5.56.57-8.53.76a4.09,4.09,0,0,1-1.58-.13c-.29-.1.05-.22.68-.29M418,32.88l.54.14-1.88-.24-2.62-1,4,1.07m32.93-3.57h0l1.51.55-1.49-.55M240.67,37.76c11.31,0,22.5.25,33.67.86l-8.18.16q-12.71-.43-25.49-1M440.1,36.55a62.41,62.41,0,0,1-7.49-1.77c-2,.11-4,.16-6.07.13-5.57-.07-11-.2-16.33-.38.69.34-.59.3-1.24.34L407,35c5.69.24,11.41.51,17.22.8,5.24.26,10.93.41,15.92.79m39.77-1.31.49.13-1.07.51s.25-.27.58-.64m1.68-.86-.82-.07a.65.65,0,0,1,.82.07m-7.48-.65a7.29,7.29,0,0,0,1.06.28l-1.06-.28m-5.31-15-2.92,2.56L469,18.79Z" transform="translate(0 0)"/></g></svg>