<svg id="Слой_1" data-name="Слой 1" xmlns="http://www.w3.org/2000/svg" viewBox="0 0 89.9 89.9"><defs><style>.cls-1{fill:#f17120;}</style></defs><title>icon_8</title><path class="cls-1" d="M55,47.4h8.6a1.75,1.75,0,0,1,1.7,1.7v3.6a1.75,1.75,0,0,1-1.7,1.7H55a1.75,1.75,0,0,1-1.7-1.7V49.1A1.75,1.75,0,0,1,55,47.4Z" transform="translate(-5 -5)"/><path class="cls-1" d="M73.6,47.4h8.6a1.75,1.75,0,0,1,1.7,1.7v3.6a1.75,1.75,0,0,1-1.7,1.7H73.6a1.75,1.75,0,0,1-1.7-1.7V49.1A1.75,1.75,0,0,1,73.6,47.4Z" transform="translate(-5 -5)"/><path class="cls-1" d="M73.6,61.8h8.6a1.75,1.75,0,0,1,1.7,1.7v3.6a1.75,1.75,0,0,1-1.7,1.7H73.6a1.75,1.75,0,0,1-1.7-1.7V63.5A1.69,1.69,0,0,1,73.6,61.8Z" transform="translate(-5 -5)"/><path class="cls-1" d="M55,61.8h8.6a1.75,1.75,0,0,1,1.7,1.7v3.6a1.75,1.75,0,0,1-1.7,1.7H55a1.75,1.75,0,0,1-1.7-1.7V63.5A1.69,1.69,0,0,1,55,61.8Z" transform="translate(-5 -5)"/><path class="cls-1" d="M55,76.1h8.6a1.75,1.75,0,0,1,1.7,1.7v3.6a1.75,1.75,0,0,1-1.7,1.7H55a1.75,1.75,0,0,1-1.7-1.7V77.8A1.75,1.75,0,0,1,55,76.1Z" transform="translate(-5 -5)"/><path class="cls-1" d="M36.4,61.8H45a1.75,1.75,0,0,1,1.7,1.7v3.6A1.75,1.75,0,0,1,45,68.8H36.4a1.75,1.75,0,0,1-1.7-1.7V63.5A1.69,1.69,0,0,1,36.4,61.8Z" transform="translate(-5 -5)"/><path class="cls-1" d="M36.4,76.1H45a1.75,1.75,0,0,1,1.7,1.7v3.6A1.75,1.75,0,0,1,45,83.1H36.4a1.75,1.75,0,0,1-1.7-1.7V77.8A1.75,1.75,0,0,1,36.4,76.1Z" transform="translate(-5 -5)"/><path class="cls-1" d="M17.8,61.8h8.6a1.75,1.75,0,0,1,1.7,1.7v3.6a1.75,1.75,0,0,1-1.7,1.7H17.8a1.75,1.75,0,0,1-1.7-1.7V63.5A1.69,1.69,0,0,1,17.8,61.8Z" transform="translate(-5 -5)"/><path class="cls-1" d="M17.8,76.1h8.6a1.75,1.75,0,0,1,1.7,1.7v3.6a1.75,1.75,0,0,1-1.7,1.7H17.8a1.75,1.75,0,0,1-1.7-1.7V77.8A1.75,1.75,0,0,1,17.8,76.1Z" transform="translate(-5 -5)"/><path class="cls-1" d="M36.4,47.4H45a1.75,1.75,0,0,1,1.7,1.7v3.6A1.75,1.75,0,0,1,45,54.4H36.4a1.75,1.75,0,0,1-1.7-1.7V49.1A1.75,1.75,0,0,1,36.4,47.4Z" transform="translate(-5 -5)"/><path class="cls-1" d="M77.5,21V7.5A2.48,2.48,0,0,0,75,5h0a2.48,2.48,0,0,0-2.5,2.5V21a4,4,0,1,0,5.6.6Z" transform="translate(-5 -5)"/><path class="cls-1" d="M86.8,14.5H82v4.7A8.27,8.27,0,0,1,83.5,24a8.5,8.5,0,0,1-17,0A8.27,8.27,0,0,1,68,19.2V14.5H32v4.7A8.27,8.27,0,0,1,33.5,24a8.5,8.5,0,0,1-17,0A8.27,8.27,0,0,1,18,19.2V14.5H13.2A8.17,8.17,0,0,0,5,22.7H5v64a8.24,8.24,0,0,0,8.2,8.2H86.7a8.17,8.17,0,0,0,8.2-8.2v-64A8.09,8.09,0,0,0,86.8,14.5Zm3.7,72.3a3.8,3.8,0,0,1-3.8,3.8H13.2a3.8,3.8,0,0,1-3.8-3.8v-43A3.8,3.8,0,0,1,13.2,40H86.7a3.8,3.8,0,0,1,3.8,3.8Z" transform="translate(-5 -5)"/><path class="cls-1" d="M27.5,21V7.5A2.48,2.48,0,0,0,25,5h0a2.48,2.48,0,0,0-2.5,2.5V21a4,4,0,1,0,5.6.6Z" transform="translate(-5 -5)"/></svg>