<svg id="Слой_1" data-name="Слой 1" xmlns="http://www.w3.org/2000/svg" viewBox="0 0 51 64"><defs><style>.cls-1{fill:#f17120;}.cls-2{fill:#363636;}</style></defs><title>icon_7</title><path class="cls-1" d="M39.64,21.1l4.34-5a4.28,4.28,0,1,0-1.59-1.21l-4.3,5a4,4,0,0,0-3.22-.12L30.77,15a4.17,4.17,0,1,0-6.35-.17l-4.32,5a4.13,4.13,0,0,0-1.7-.37,4.17,4.17,0,1,0,4.17,4.17,4.12,4.12,0,0,0-.9-2.55l4.33-5a4,4,0,0,0,3.11.08l4.1,4.74a4.17,4.17,0,1,0,6.42.23Zm6-11a2.17,2.17,0,1,1-2.17,2.17A2.17,2.17,0,0,1,45.6,10.07ZM18.41,25.78a2.17,2.17,0,1,1,2.17-2.17A2.17,2.17,0,0,1,18.41,25.78Zm7.1-13.55a2.17,2.17,0,1,1,2.17,2.17A2.17,2.17,0,0,1,25.5,12.24ZM36.33,25.78a2.17,2.17,0,1,1,2.17-2.17A2.17,2.17,0,0,1,36.33,25.78Z" transform="translate(-6.5)"/><rect class="cls-2" x="29.42" y="51.27" width="2" height="3.22"/><rect class="cls-2" x="33.52" y="43.79" width="2" height="10.69"/><rect class="cls-2" x="37.61" y="38.36" width="2" height="16.12"/><rect class="cls-2" x="41.71" y="48.65" width="2" height="5.84"/><path class="cls-2" d="M22.94,37.15a9.15,9.15,0,1,0,9.15,9.15H22.94ZM29.8,48.3a7.15,7.15,0,1,1-8.86-8.86V48.3H29.8Z" transform="translate(-6.5)"/><path class="cls-1" d="M24.46,36.43v8.41h8.41A8.41,8.41,0,0,0,24.46,36.43Z" transform="translate(-6.5)"/><path class="cls-2" d="M57.5,0H6.5V64h51ZM13.67,2,8.5,7.17V2ZM8.5,10l8-8h39V54l-8,8H8.5ZM50.33,62l5.17-5.17V62Z" transform="translate(-6.5)"/></svg>