<svg id="Слой_1" data-name="Слой 1" xmlns="http://www.w3.org/2000/svg" viewBox="0 0 51 64"><defs><style>.cls-1{fill:#f17120;}.cls-2{fill:#363636;}</style></defs><title>icon_6</title><path class="cls-1" d="M24.93,33.55,23.38,32.2l-1.31,1.59-3.15,3.83-.35-.34-1.47-1.43-1.39,1.51-1.26,1.36-1.32,1.43,1.4,1.36,3.31,3.22,1.56,1.51,1.38-1.68,5.78-7L27.8,36l-1.47-1.28Zm-5.69,9.74-3.31-3.22,1.25-1.36,1.9,1.85,4.53-5.51L25,36.27Z" transform="translate(-6.5)"/><path class="cls-1" d="M24.93,46.26l-1.55-1.35L22.08,46.5l-3.15,3.83L18.58,50l-1.47-1.43-1.39,1.51-1.26,1.36-1.32,1.43,1.4,1.36,3.31,3.22,1.56,1.51,1.38-1.68,5.78-7,1.24-1.5-1.47-1.28ZM19.24,56l-3.31-3.22,1.25-1.36,1.9,1.85,4.53-5.51L25,49Z" transform="translate(-6.5)"/><rect class="cls-2" x="25.56" y="36.41" width="17.4" height="2"/><rect class="cls-2" x="25.56" y="39.92" width="17.4" height="2"/><rect class="cls-2" x="25.56" y="49.12" width="17.4" height="2"/><rect class="cls-2" x="25.56" y="52.63" width="17.4" height="2"/><rect class="cls-2" x="28.96" y="22.31" width="2" height="3.22"/><rect class="cls-2" x="33.06" y="14.84" width="2" height="10.69"/><rect class="cls-2" x="37.16" y="9.41" width="2" height="16.12"/><rect class="cls-2" x="41.25" y="19.69" width="2" height="5.84"/><path class="cls-2" d="M23.39,17.91V8.76a9.15,9.15,0,1,0,9.15,9.15Zm0,7.15a7.15,7.15,0,0,1-2-14V19.9h8.86A7.16,7.16,0,0,1,23.39,25.05Z" transform="translate(-6.5)"/><path class="cls-1" d="M25.11,7.82v8.41h8.41A8.41,8.41,0,0,0,25.11,7.82Z" transform="translate(-6.5)"/><path class="cls-2" d="M57.5,0H6.5V64h51ZM13.67,2,8.5,7.17V2ZM8.5,10l8-8h39V54l-8,8H8.5ZM50.33,62l5.17-5.17V62Z" transform="translate(-6.5)"/></svg>