<svg id="Слой_1" data-name="Слой 1" xmlns="http://www.w3.org/2000/svg" viewBox="0 0 51 64"><defs><style>.cls-1{fill:#f17120;}.cls-2{fill:#363636;}</style></defs><title>icon_5</title><path class="cls-1" d="M40.73,25a8,8,0,1,0-8-8A8,8,0,0,0,40.73,25Zm0-14.09a6,6,0,1,1-6,6A6.05,6.05,0,0,1,40.73,10.9Z" transform="translate(-6.5)"/><rect class="cls-2" x="8.74" y="53.55" width="33.53" height="2"/><rect class="cls-2" x="8.74" y="49.45" width="33.53" height="2"/><rect class="cls-2" x="8.74" y="45.35" width="33.53" height="2"/><rect class="cls-2" x="8.74" y="41.25" width="33.53" height="2"/><rect class="cls-2" x="8.74" y="33.06" width="33.53" height="2"/><rect class="cls-2" x="8.74" y="37.15" width="33.53" height="2"/><rect class="cls-2" x="8.74" y="28.95" width="33.53" height="2"/><rect class="cls-2" x="8.74" y="24.86" width="11.59" height="2"/><rect class="cls-2" x="8.74" y="20.76" width="11.59" height="2"/><rect class="cls-2" x="8.74" y="16.66" width="11.59" height="2"/><rect class="cls-2" x="8.74" y="12.56" width="11.59" height="2"/><rect class="cls-2" x="8.74" y="8.46" width="11.59" height="2"/><path class="cls-2" d="M6.5,64h51V0H6.5Zm43.83-2,5.17-5.17V62Zm5.17-8-8,8H8.5V10l8-8h39ZM13.67,2,8.5,7.17V2Z" transform="translate(-6.5)"/></svg>