<svg id="Слой_1" data-name="Слой 1" xmlns="http://www.w3.org/2000/svg" viewBox="0 0 51 64"><defs><style>.cls-1{fill:#f17120;}.cls-2{fill:#363636;}</style></defs><title>icon_3</title><rect class="cls-1" x="28.18" y="24.67" width="2" height="3.21"/><rect class="cls-1" x="31.25" y="17.21" width="2" height="10.66"/><rect class="cls-1" x="34.32" y="11.79" width="2" height="16.08"/><rect class="cls-1" x="37.38" y="16.87" width="2" height="11"/><rect class="cls-1" x="40.45" y="22.05" width="2" height="5.82"/><rect class="cls-2" x="8.83" y="37.49" width="33.4" height="2"/><rect class="cls-2" x="8.83" y="40.98" width="33.4" height="2"/><rect class="cls-2" x="8.83" y="48.17" width="33.4" height="2"/><rect class="cls-2" x="8.83" y="51.67" width="33.4" height="2"/><path class="cls-2" d="M6.5,0V64h51V7.84L49.66,0ZM28.27,2V24.26l-4.45-2.58-1-.58-1,.58-4.45,2.58V2ZM55.5,62H8.5V2h6.87V27.72l7.45-4.31,7.45,4.32V2H48.84L55.5,8.66Z" transform="translate(-6.5)"/></svg>