<svg id="Слой_1" data-name="Слой 1" xmlns="http://www.w3.org/2000/svg" viewBox="0 0 51 64"><defs><style>.cls-1{fill:#363636;}.cls-2{fill:#f17120;}</style></defs><title>icon_4</title><rect class="cls-1" x="9.33" y="10.56" width="32.84" height="2"/><rect class="cls-1" x="9.33" y="22.54" width="32.84" height="2"/><rect class="cls-1" x="9.33" y="16.55" width="32.84" height="2"/><path class="cls-2" d="M24.93,33.55,23.38,32.2l-1.31,1.59-3.15,3.83-.35-.34-1.47-1.43-1.39,1.51-1.26,1.36-1.32,1.43,1.4,1.36,3.31,3.22,1.56,1.51,1.38-1.68,5.78-7L27.8,36l-1.47-1.28Zm-5.69,9.74-3.31-3.22,1.25-1.36,1.9,1.85,4.53-5.51L25,36.27Z" transform="translate(-6.5)"/><path class="cls-2" d="M24.93,46.26l-1.55-1.35L22.08,46.5l-3.15,3.83L18.58,50l-1.47-1.43-1.39,1.51-1.26,1.36-1.32,1.43,1.4,1.36,3.31,3.22,1.56,1.51,1.38-1.68,5.78-7,1.24-1.5-1.47-1.28ZM19.24,56l-3.31-3.22,1.25-1.36,1.9,1.85,4.53-5.51L25,49Z" transform="translate(-6.5)"/><rect class="cls-1" x="24.55" y="36.41" width="18.41" height="2"/><rect class="cls-1" x="24.55" y="39.92" width="18.41" height="2"/><rect class="cls-1" x="24.55" y="49.12" width="18.41" height="2"/><rect class="cls-1" x="24.55" y="52.63" width="18.41" height="2"/><path class="cls-1" d="M6.5,64h51V0H6.5Zm43.83-2,5.17-5.17V62Zm5.17-8-8,8H8.5V10l8-8h39ZM13.67,2,8.5,7.17V2Z" transform="translate(-6.5)"/></svg>