<svg id="Слой_1" data-name="Слой 1" xmlns="http://www.w3.org/2000/svg" viewBox="0 0 95.1 66.7"><defs><style>.cls-1{fill:#3aa6d9;}</style></defs><title>icon_13</title><path class="cls-1" d="M88.1,16.7H11.9a9.39,9.39,0,0,0-9.4,9.4V74a9.39,9.39,0,0,0,9.4,9.4H88.2A9.39,9.39,0,0,0,97.6,74V26A9.52,9.52,0,0,0,88.1,16.7Zm-8,46.6a3,3,0,0,1,.2,4.1,3,3,0,0,1-3.9.4L59.5,55.1,52.8,61a4.28,4.28,0,0,1-5.7,0l-6.7-5.9L23.6,67.8a2.92,2.92,0,0,1-3.7-4.5L34.5,49.8l-14.7-13a3,3,0,0,1-.2-4.2,3,3,0,0,1,4-.4L50,51.9,76.4,32.1a2.89,2.89,0,0,1,4.1.6,3.06,3.06,0,0,1-.4,4l-14.7,13Z" transform="translate(-2.5 -16.7)"/></svg>