<svg id="Режим_изоляции" data-name="Режим изоляции" xmlns="http://www.w3.org/2000/svg" viewBox="0 0 65.9 80.59"><defs><style>.cls-1{fill:#a7e3ff;}.cls-2{fill:#fff;}</style></defs><title>icon_11</title><path class="cls-1" d="M71.83,30.9H51.63A11.15,11.15,0,0,0,40.51,42v8.2a11,11,0,0,0,1.57,5.67A9.34,9.34,0,0,1,38,60.5a.76.76,0,0,0,.22,1.43A10.79,10.79,0,0,0,46.44,60a11,11,0,0,0,5.19,1.29h20.2A11.15,11.15,0,0,0,82.95,50.22V42A11.15,11.15,0,0,0,71.83,30.9ZM51.1,49.49a3.44,3.44,0,0,1-3.42-3v-.82a3.44,3.44,0,1,1,3.42,3.85Zm10.59.22a3.44,3.44,0,1,1,3.44-3.44A3.44,3.44,0,0,1,61.69,49.71Zm10.59.22a3.44,3.44,0,1,1,3.44-3.44A3.45,3.45,0,0,1,72.28,49.93Z" transform="translate(-17.05 -9.71)"/><path class="cls-2" d="M64,25.77v-7.4a8.7,8.7,0,0,0-8.67-8.67H25.72a8.69,8.69,0,0,0-8.67,8.67V81.62a8.69,8.69,0,0,0,8.67,8.67h29.6A8.69,8.69,0,0,0,64,81.62V66.47h-4.6v9.8a2.23,2.23,0,0,1-2.23,2.23H23.88a2.23,2.23,0,0,1-2.23-2.23V23.73a2.23,2.23,0,0,1,2.23-2.23H57.16a2.23,2.23,0,0,1,2.23,2.23v2ZM40.52,80.44a4,4,0,1,1-4,4A4,4,0,0,1,40.52,80.44Z" transform="translate(-17.05 -9.71)"/></svg>