<svg id="Слой_1" data-name="Слой 1" xmlns="http://www.w3.org/2000/svg" viewBox="0 0 93.7 94.98"><defs><style>.cls-1{fill:#a7e3ff;}.cls-2{fill:#fff;}</style></defs><title>icon_10</title><path class="cls-1" d="M31.5,76.8a7.49,7.49,0,0,1-4.6,3.1c-2.3.5-4.6.6-6.3,2a1,1,0,0,1-1.5-.5,8.51,8.51,0,0,1,1.2-5.6,2.66,2.66,0,0,0-1.2.3.92.92,0,0,1-1.3-1c.6-2.3,2.2-5.6,4.8-6.9l-2.9-2.9a8.47,8.47,0,0,1-1.4-1.9C10.1,64.5,5,74.1,3.2,80.7a2.14,2.14,0,0,0,3.1,2.4A6.26,6.26,0,0,1,9,82.5,19.68,19.68,0,0,0,6.3,95.7,2.12,2.12,0,0,0,9.7,97c4-3.3,9.3-3.6,14.7-4.7,4.2-.8,11-4.7,12.3-11a7,7,0,0,1-2.5-1.7Z" transform="translate(-3.12 -2.48)"/><path class="cls-2" d="M90.2,2.5,74.5,3.7a32.93,32.93,0,0,0-21,9.7L39.7,27.1,38,26.5a15.73,15.73,0,0,0-17.4,4.6L10.8,42.6a3.11,3.11,0,0,0,1.3,4.9h0A59.46,59.46,0,0,1,26,54.8l-2.8,2.8a2.6,2.6,0,0,0,0,3.8L37.9,76a2.6,2.6,0,0,0,3.8,0l2.8-2.8a57.73,57.73,0,0,1,7.3,13.9,3.08,3.08,0,0,0,4.9,1.3l11.5-9.8a15.9,15.9,0,0,0,4.6-17.4l-.6-1.7L85.9,45.8a33.44,33.44,0,0,0,9.7-21L96.8,9.1A6.14,6.14,0,0,0,90.2,2.5ZM72.6,39.7a9.19,9.19,0,1,1,0-13A9.17,9.17,0,0,1,72.6,39.7Z" transform="translate(-3.12 -2.48)"/></svg>