<?xml version="1.0" encoding="utf-8"?>
<!-- Generator: Adobe Illustrator 20.1.0, SVG Export Plug-In . SVG Version: 6.00 Build 0)  -->
<svg version="1.1" id="Слой_1" xmlns="http://www.w3.org/2000/svg" xmlns:xlink="http://www.w3.org/1999/xlink" x="0px" y="0px"
	 viewBox="0 0 100 105.6" style="enable-background:new 0 0 100 105.6;" xml:space="preserve">
<style type="text/css">
	.st0{fill:#FFFFFF;}
	.st1{fill:#A7E3FF;}
</style>
<title>icon_9</title>
<path class="st0" d="M0,68.9c0,0,0,0.1,0,0.1c0.2,11,9.3,19.9,20.3,19.7h1.8c-1.7-3.2-2.8-6.7-3.5-10.3c-4-0.5-7.2-3.3-8.2-7.2
	c-1.3-5.1,1.9-10.3,7-11.6V49.3C7.4,50.4-0.1,58.8,0,68.9z"/>
<path class="st1" d="M40.6,38.6c-0.3-0.3-6.3-7.6-0.4-18.3c3.5-6.3,0.7-10.1,0.4-10.5c0,0-0.1-0.1-0.1-0.1C39.3,8.2,39.5,6,41,4.9
	c0,0,0.1-0.1,0.1-0.1c1.5-1.2,3.6-0.9,4.8,0.5c0.3,0.3,6.3,7.6,0.4,18.3c-3.5,6.2-0.8,10-0.4,10.5c0.5,0.6,0.8,1.4,0.8,2.2
	c0,1.9-1.5,3.5-3.5,3.5C42.2,39.8,41.2,39.3,40.6,38.6z"/>
<path class="st1" d="M62.1,0c1.9,0,3.5,1.6,3.5,3.5c0,0.8-0.3,1.6-0.8,2.2c-0.3,0.5-3.1,4.3,0.4,10.5c5.8,10.6-0.2,18-0.5,18.3
	c-1.2,1.5-3.3,1.7-4.8,0.5c0,0-0.1-0.1-0.1-0.1c-1.5-1.2-1.7-3.3-0.5-4.8c0,0,0.1-0.1,0.1-0.1c0.3-0.4,3-4.2-0.4-10.5
	c-5.9-10.7,0.1-18,0.4-18.3C60.1,0.4,61.1,0,62.1,0z"/>
<path class="st1" d="M78.3,38.6C78,38.3,72,31,77.9,20.3c3.4-6.3,0.7-10.1,0.4-10.5c0,0-0.1-0.1-0.1-0.1C77,8.2,77.2,6,78.7,4.9
	c0,0,0.1-0.1,0.1-0.1c1.5-1.2,3.6-0.9,4.8,0.5c0.3,0.3,6.3,7.6,0.4,18.3c-3.5,6.2-0.7,10-0.4,10.5c0.5,0.6,0.8,1.4,0.8,2.2
	c0,1.9-1.5,3.5-3.5,3.5C79.9,39.8,78.9,39.3,78.3,38.6z"/>
<path class="st0" d="M24.3,48.9v20.4c0,14.6,7.3,28.2,19.4,36.3h36.7c12.2-8.1,19.5-21.7,19.6-36.3V48.9H24.3z M73.4,96.6
	c-0.3-0.4-0.1-1,0.3-1.2c7.3-6,11.6-15,11.7-24.5c0-1.5-0.1-3.2-0.2-4.8l-0.3-4.9v-0.3c0,0,0-0.1,0-0.1c0.1-1.4,1.3-2.5,2.8-2.5
	c0,0,0.1,0,0.1,0c1.4,0.1,2.5,1.3,2.5,2.8L89.8,71c-0.2,3.5-1,6.9-2.3,10.1c-1.3,3.2-3,6.2-5.1,8.9c-2.1,2.7-4.6,5-7.4,7
	c-0.5,0.3-1.1,0.2-1.5-0.2C73.5,96.7,73.4,96.7,73.4,96.6z"/>
</svg>
