<?xml version="1.0" encoding="utf-8"?>
<!-- Generator: Adobe Illustrator 21.0.0, SVG Export Plug-In . SVG Version: 6.00 Build 0)  -->
<svg version="1.1"
	 id="Слой_1" xmlns:cc="http://creativecommons.org/ns#" xmlns:dc="http://purl.org/dc/elements/1.1/" xmlns:inkscape="http://www.inkscape.org/namespaces/inkscape" xmlns:rdf="http://www.w3.org/1999/02/22-rdf-syntax-ns#" xmlns:sodipodi="http://sodipodi.sourceforge.net/DTD/sodipodi-0.dtd" xmlns:svg="http://www.w3.org/2000/svg"
	 xmlns="http://www.w3.org/2000/svg" xmlns:xlink="http://www.w3.org/1999/xlink" x="0px" y="0px" viewBox="0 0 12.7 12.7"
	 style="enable-background:new 0 0 12.7 12.7;" xml:space="preserve">
<style type="text/css">
	.st0{fill:#fff;}
</style>
<g transform="translate(0,-284.29999)">
	<path class="st0" d="M6.3,285.1c-2.5,0-4.5,2-4.5,4.5c0,1.7,1.1,3.3,2.2,4.5c1.1,1.2,2.2,2,2.2,2c0.1,0.1,0.2,0.1,0.3,0
		c0,0,1.1-0.8,2.2-2c1.1-1.2,2.2-2.8,2.2-4.5C10.8,287.1,8.8,285.1,6.3,285.1z M6.3,288c0.8,0,1.6,0.8,1.6,1.6
		c0,0.8-0.8,1.6-1.6,1.6c-0.8,0-1.6-0.8-1.6-1.6C4.8,288.8,5.5,288,6.3,288z"/>
</g>
</svg>
