<svg id="Слой_1" data-name="Слой 1" xmlns="http://www.w3.org/2000/svg" viewBox="0 0 88.12 99.98"><defs><style>.cls-1{fill:#fff;}</style></defs><title>icon_12</title><path class="cls-1" d="M37.48,23.7c1.08,5.51-1.29,7.17-1.29,7.17l-6.93,4.35C26.5,36.86,28,40.29,28,40.29,38.82,63.78,50.79,70.84,55.15,74c3.15,2.27,5.07.65,5.07.65l8.92-7.44c3.17-3.1,5.58-1,5.58-1l17.6,13.15c3,2.1,1.65,6.36-.51,10s-11,12.28-22.09,10.29S39,89.84,25.56,69.69C12,49.34,7.27,31.52,7.27,31.52c-5.75-18.52,9-28.38,9-28.38,11.61-7.32,17,.47,17,.47S36.4,18.19,37.48,23.7Z" transform="translate(-5.94 -0.01)"/></svg>