<svg id="Слой_1" data-name="Слой 1" xmlns="http://www.w3.org/2000/svg" viewBox="0 0 213.57 190.39"><defs><style>.cls-1{fill:#fff;}</style></defs><title>icon_14</title><path class="cls-1" d="M192,23,27,92c12,5,25,10,37,15,8-5,92-54,94-54a2.15,2.15,0,0,1,2,2c0,3-57,59-64,66l-8,33,30-25,44,41c3-15,25-127,29-147ZM188,2c16-6,30,4,26,22,0,0-27,137-30,151-2,15-22,21-35,10l-31-28L93,178c-12,9-22-2-26-13-2-6-10-30-13-40-10-4-33-13-39-16-18-7-19-28,0-35C73,50,131,24,189,1Z" transform="translate(-1.12 -0.26)"/></svg>