<?xml version="1.0" encoding="UTF-8"?>
<svg width="180px" height="20px" viewBox="0 0 180 20" version="1.1" xmlns="http://www.w3.org/2000/svg" xmlns:xlink="http://www.w3.org/1999/xlink">
    <!-- Generator: Sketch 52.5 (67469) - http://www.bohemiancoding.com/sketch -->
    <title>Group Copy</title>
    <desc>Created with Sketch.</desc>
    <g id="Page-2" stroke="none" stroke-width="1" fill="none" fill-rule="evenodd">
        <g id="Desktop-HD-(Статья)-Copy" transform="translate(-166.000000, -30.000000)">
            <g id="Group-Copy" transform="translate(166.000000, 30.515464)">
                <path d="M33.3939983,16.8238623 L29.1441624,1.9709825 C29.085654,1.7569053 28.995232,1.57341056 28.8782152,1.42559535 C28.7611985,1.27268307 28.617587,1.16054739 28.4526998,1.0738971 C28.2931314,0.992343879 28.0963305,0.946470194 27.8782538,0.931178965 C27.6548582,0.920984813 27.4048679,0.946470194 27.1176449,1.00763511 C26.1868298,1.21151815 25.2453768,1.38991582 24.3039238,1.53773102 C23.910322,1.59889594 23.5699096,1.68554623 23.2773677,1.79258483 C22.9901447,1.89962343 22.7454733,2.04234156 22.5433535,2.2258363 C22.3465525,2.41442812 22.1763464,2.64379655 22.0380538,2.91903866 C21.8997613,3.19428077 21.7774256,3.52049364 21.6763657,3.90787143 C20.421095,7.47072764 18.7934982,10.9877102 16.7988944,14.4129453 C16.7722997,14.4129453 16.745705,14.4129453 16.7191103,14.4129453 C14.7883337,10.9826131 13.2139264,7.46563057 12.0012073,3.90787143 C11.9054663,3.52049364 11.7831306,3.19428077 11.6342002,2.92413573 C11.4905887,2.6539907 11.2937878,2.42971935 11.0544354,2.24622461 C10.8150829,2.06272987 10.522541,1.91491466 10.1821286,1.80277898 C9.84171623,1.68554623 9.42151969,1.59379886 8.93217688,1.51224564 C8.02263753,1.36952751 7.10777924,1.19112985 6.20355884,0.992343879 C5.73017286,0.88530528 5.3206142,0.910790661 4.96956393,1.0738971 C4.6238326,1.23700353 4.38448014,1.53263395 4.25682549,1.9709825 L0.0123085305,16.8238623 C-0.0142861873,16.9054156 0.00167064338,16.9971629 0.0654979661,17.0889103 C0.124006345,17.1806577 0.256979934,17.267308 0.453780846,17.3641524 C0.655900701,17.4660939 0.927166823,17.5680355 1.27289815,17.6750741 C1.61862949,17.7770156 2.05478286,17.8942483 2.58667721,18.0012869 C3.1345284,18.1185197 3.58131966,18.1949758 3.93236994,18.2357524 C4.28342021,18.276529 4.58128105,18.2918203 4.80999562,18.2918203 C5.0387102,18.2867232 5.20359745,18.2510437 5.29933843,18.1949758 C5.39507941,18.138908 5.44826885,18.0675489 5.46954462,17.9808986 L8.07582697,4.147434 L8.11305957,4.15253108 C9.2885461,9.101792 11.1076248,14.0357617 13.5543388,18.8372074 C13.5915714,18.9391489 13.6766745,19.0207022 13.8096481,19.1022554 C13.9373028,19.1787115 14.1181469,19.2449735 14.3521804,19.3010413 C14.5808949,19.3622063 14.8787558,19.4080799 15.2404439,19.4335653 C15.5968132,19.4641478 16.0276476,19.479439 16.5435851,19.4845361 C17.0542037,19.4845361 17.4903571,19.4743419 17.8520452,19.4539536 C18.2084145,19.4335653 18.5062753,19.3978858 18.7349899,19.346915 C18.9637044,19.2959443 19.1445485,19.2245852 19.2775221,19.1481291 C19.4104957,19.0716729 19.5009177,18.9697314 19.5594261,18.8474016 C22.1284759,14.05615 24.0432955,9.11708323 25.2932473,4.15253108 L25.3251609,4.147434 L27.9367622,17.9808986 C27.9527191,18.0675489 28.0112274,18.138908 28.1122874,18.1949758 C28.2186662,18.2510437 28.3729156,18.2816261 28.5909923,18.2918203 C28.809069,18.2969173 29.0962919,18.2816261 29.4526611,18.2357524 C29.8143493,18.1949758 30.2611406,18.1236168 30.7930349,18.006384 C31.3408861,17.8942483 31.7823584,17.7770156 32.1280898,17.669977 C32.4738211,17.5629384 32.7450872,17.4609969 32.9472071,17.3590553 C33.1493269,17.267308 33.2769816,17.1755606 33.3354899,17.0889103 C33.3939983,17.00226 33.4152741,16.9054156 33.3939983,16.8238623 Z" id="Path" fill="#151515"></path>
                <path d="M35.4782555,12.9241098 C35.2551235,13.8058993 35.1966841,14.5761372 35.3241881,15.2348233 C35.4516921,15.8935095 35.7810775,16.5203238 36.3389076,17.1099541 C36.9020503,17.6995845 37.7095757,18.220159 38.7667965,18.6504298 C39.8240173,19.0700766 41.1840601,19.3675478 42.8256743,19.4631635 C44.2866578,19.5481553 45.7104526,19.3781718 47.0492448,18.9797729 C48.3827243,18.581374 49.6630771,17.9439358 50.8265512,17.0887062 L50.9965566,18.4538864 C51.0071819,18.5441901 51.0603086,18.6132459 51.1559366,18.6716778 C51.2515646,18.7247976 51.4056319,18.7672935 51.6234513,18.7832294 C51.8412706,18.7991654 52.13878,18.7938534 52.5000414,18.7619815 C52.8613028,18.7301096 53.3341301,18.6663658 53.9185235,18.5654381 C54.4604156,18.4645103 54.9119923,18.3688946 55.2626284,18.2679669 C55.6132644,18.1670392 55.8948358,18.0714234 56.1020298,17.9758077 C56.3092238,17.885504 56.4420405,17.7952002 56.5164178,17.7102084 C56.5854825,17.6199047 56.6120458,17.5349129 56.5907952,17.4499212 L53.7060169,5.86979346 C53.6847662,5.7848017 53.6263268,5.71574589 53.5360115,5.66793803 C53.4403835,5.62013016 53.3022541,5.59888222 53.1163108,5.59357024 C52.9303674,5.59357024 52.6859847,5.60950619 52.37785,5.65200207 C52.0697153,5.69449795 51.6872033,5.75824178 51.2196886,5.83260957 C50.7521739,5.90697736 50.3696618,5.97603317 50.0668398,6.03977699 C49.7640177,6.10352081 49.5196351,6.16726464 49.344317,6.23632044 C49.1636863,6.30006426 49.041495,6.36912007 48.977743,6.43817588 C48.913991,6.51254367 48.8874276,6.59222345 48.8927403,6.6825272 L49.6790151,14.5761372 C48.866177,15.2560713 48.0427136,15.7660219 47.2564388,16.1059889 C46.4648514,16.445956 45.657326,16.6159395 44.8551132,16.6053155 C44.2175931,16.5946916 43.6597631,16.5043878 43.1922483,16.3503402 C42.7300463,16.2016046 42.3528469,15.9891252 42.0712755,15.728838 C41.7843915,15.4685507 41.5878228,15.1657675 41.4762568,14.8258005 C41.3646908,14.4858334 41.3381275,14.0024428 41.4071921,13.3809405 L42.0925262,6.67190323 C42.1031516,6.58691146 42.0712755,6.5019197 42.0022109,6.42755191 C41.9331462,6.35318412 41.8056422,6.28412831 41.6303242,6.22038449 C41.4496935,6.15132868 41.2106235,6.08758486 40.9024888,6.02915302 C40.5996667,5.9654092 40.2171547,5.89635339 39.74964,5.81667361 C39.2980632,5.73699384 38.9155512,5.67325001 38.6021038,5.63075413 C38.2939691,5.58825825 38.0389611,5.56701031 37.8477051,5.56701031 C37.6564491,5.56701031 37.5183197,5.58825825 37.4280044,5.6413781 C37.3430017,5.68918597 37.289875,5.75292979 37.2686243,5.84323354 L35.4782555,12.9241098 Z" id="Path" fill="#151515"></path>
                <path d="M60.4986251,0.392294503 L57.5281738,17.6292466 C57.5110695,17.7188302 57.5851882,17.8031443 57.7562315,17.8979976 C57.9215733,17.9875812 58.2180483,18.0824345 58.639955,18.1772878 C59.0618617,18.2721411 59.6320059,18.3564552 60.3503876,18.43023 C61.0687693,18.5040048 61.981,18.556701 63.0927812,18.556701 C64.2045623,18.556701 65.1167931,18.4987351 65.8351747,18.43023 C66.5535564,18.3564552 67.1237006,18.2668715 67.5456073,18.1720182 C67.967514,18.0771649 68.263989,17.9823116 68.4350323,17.8874583 C68.6003741,17.7978746 68.6744928,17.7135606 68.6573885,17.6187073 L65.65843,0.392294503 C65.6413257,0.302710833 65.5900127,0.234205674 65.4987897,0.170970142 C65.4075666,0.10773461 65.2593291,0.0708472163 65.0654801,0.044499078 C64.8659296,0.0181509397 64.6093647,0.00761168439 64.290084,0.00234205674 C63.9708032,-0.00292757092 63.5717023,0.00234205674 63.0870797,0.00234205674 C62.5967557,0.00234205674 62.1976548,-0.00292757092 61.878374,0.00234205674 C61.5590933,0.00761168439 61.2968269,0.0181509397 61.1029779,0.044499078 C60.9034275,0.0708472163 60.7608914,0.113004237 60.6696683,0.170970142 C60.5784453,0.228936046 60.5157294,0.302710833 60.4986251,0.392294503 Z" id="Path" fill="#151515"></path>
                <path d="M70.8474997,9.17833988 L69.8828195,14.9974948 C69.7660424,15.6947679 69.8269696,16.32539 70.0960646,16.889361 C70.3651596,17.4533319 70.8474997,17.9506518 71.5684712,18.3659395 C72.2894428,18.7812272 73.2388912,19.1144828 74.4168165,19.2990551 C75.5896646,19.4887544 77.0062213,19.5502785 78.6207914,19.4015952 C79.2199086,19.3451981 79.8190257,19.263166 80.4029111,19.1503718 C80.9867965,19.0375776 81.5249866,18.9145294 82.0124039,18.7761002 C82.5048986,18.6376709 82.9263115,18.4889877 83.28172,18.3403044 C83.6320512,18.1967482 83.8909917,18.053192 84.0585414,17.9301437 C84.2260912,17.8070955 84.337791,17.6276502 84.3987182,17.4020618 C84.4596453,17.1764735 84.4393363,16.879107 84.337791,16.5150893 C84.2717865,16.2792469 84.2007048,16.0946746 84.1093141,15.9613724 C84.0179233,15.8280702 83.9316098,15.720403 83.8554509,15.6486249 C83.7691374,15.5768467 83.6726694,15.5409577 83.5609695,15.5409577 C83.4492697,15.5409577 83.3324927,15.5512117 83.2157156,15.5819738 C83.0786294,15.6127358 82.9313888,15.6640059 82.7739936,15.730657 C82.6165984,15.7973081 82.4185851,15.8742133 82.1799537,15.9664994 C81.9463995,16.0587856 81.66715,16.1459447 81.3625141,16.2331039 C81.0477237,16.320263 80.6973925,16.3920411 80.3013659,16.4535652 C79.1285178,16.6278835 78.2907692,16.5407244 77.8185836,16.2638659 C77.3413208,15.9870074 77.0925348,15.5255767 77.056994,14.9000816 L76.7472808,9.50134143 C78.2755374,9.41418228 79.7987167,9.1937209 81.2965097,8.84508431 C81.590991,8.7784332 81.7890043,8.62462294 81.8854723,8.38878054 C81.9870176,8.15293813 81.9717858,7.80942855 81.8448542,7.34799777 C81.7788498,7.10702836 81.7077681,6.91220203 81.6265318,6.75326476 C81.5452956,6.59432749 81.4589821,6.4815333 81.3625141,6.40462816 C81.2660461,6.32772303 81.1645008,6.28157996 81.0477237,6.26619893 C80.9309466,6.2508179 80.8090923,6.26107192 80.6669289,6.29183397 C79.3214538,6.6045815 77.9556697,6.79940784 76.5848084,6.87631297 L76.4375677,4.31280861 C76.4324904,4.22564946 76.3867951,4.14874433 76.3106361,4.08722023 C76.2293999,4.02056911 76.1024683,3.97442604 75.9298413,3.92828296 C75.7572143,3.88726689 75.5185829,3.86163184 75.213947,3.8359968 C74.9093112,3.81036176 74.5335936,3.79498073 74.0766398,3.7744727 C73.6349178,3.74883765 73.2642775,3.72832962 72.9596417,3.7180756 C72.6550058,3.70782158 72.4112971,3.70782158 72.2285156,3.72832962 C72.0406568,3.74883765 71.9086479,3.78985372 71.832489,3.84112381 C71.75633,3.89752091 71.7106346,3.96929903 71.6954028,4.05645818 L71.2739899,6.58920048 C70.5327093,6.46615227 69.7914287,6.307215 69.0603027,6.11751568 C68.9232165,6.08162662 68.7962849,6.0713726 68.6845851,6.08162662 C68.567808,6.09700764 68.4611855,6.13802371 68.3647175,6.21492884 C68.2682494,6.29183397 68.1768587,6.40462816 68.0905452,6.55843843 C68.0042317,6.71224869 67.9280727,6.90707502 67.856991,7.14804443 C67.7199049,7.59922119 67.6945186,7.94785779 67.7859093,8.1888272 C67.8773001,8.4297966 68.0753134,8.58873387 68.3647175,8.66563901 C69.1872343,8.86559235 70.0148284,9.03991064 70.8474997,9.17833988 Z" id="Path" fill="#151515"></path>
                <path d="M86.4482286,5.8955949 L84.4353906,17.6239448 C84.4182843,17.7140406 84.4924115,17.7988366 84.6634742,17.8942321 C84.8288348,17.9843279 85.1253436,18.0797234 85.5472983,18.1751189 C85.969253,18.2705145 86.5451641,18.3553105 87.2579255,18.429507 C87.9706868,18.5037035 88.8887234,18.556701 90.0006311,18.556701 C91.1125388,18.556701 92.0248733,18.4984038 92.7433367,18.429507 C93.4618001,18.3606102 94.0320092,18.2652147 94.4539639,18.1698192 C94.8759186,18.0744237 95.1724273,17.9790281 95.3377879,17.8836326 C95.5031486,17.7935368 95.5772758,17.7087408 95.5658716,17.6133453 L93.5359273,5.89029515 C93.5245231,5.80019937 93.4503959,5.73660235 93.330652,5.68360484 C93.2109081,5.63060733 93.011335,5.59880882 92.7376346,5.58290956 C92.4639342,5.56701031 92.1104046,5.56701031 91.6656416,5.56701031 C91.2265806,5.57231006 90.6677757,5.58820931 89.9892269,5.58820931 C89.3106781,5.58820931 88.7518732,5.57760981 88.3128122,5.57231006 C87.8680492,5.56701031 87.5145195,5.56701031 87.2408192,5.58290956 C86.9671188,5.59880882 86.7675457,5.63590708 86.6478018,5.68360484 C86.5337599,5.73660235 86.4653349,5.80549912 86.4482286,5.8955949 Z" id="Path" fill="#151515"></path>
                <path d="M87.7061976,3.37294249 C88.1337249,3.64201465 89.0554073,3.86005589 90.4434832,3.86005589 C91.8204544,3.86005589 92.7476891,3.63737548 93.1974257,3.35902496 C93.6527146,3.07603527 93.7970744,2.63531362 93.6638192,2.05541671 C93.5361162,1.49407651 93.2418441,1.14149919 92.7976598,0.969849704 C92.3534756,0.79820022 91.5983623,0.775004344 90.4879016,0.779643519 C89.3663363,0.779643519 88.5945661,0.80747857 88.1448295,0.988406405 C87.695093,1.16933424 87.3952686,1.53582909 87.2620133,2.12036517 C87.1343103,2.6770662 87.2731179,3.10387032 87.7061976,3.37294249 Z" id="Path" fill="#151515"></path>
                <path d="M95.5670103,2.88583063 C95.5876119,7.53728585 96.0665991,12.2434641 97.0142728,16.9496423 C97.0503256,17.148635 97.1172808,17.312804 97.209988,17.452099 C97.3026952,17.5814442 97.4726584,17.7008399 97.7147272,17.8003362 C97.9619464,17.9048074 98.3018728,18.0043038 98.7448072,18.0938505 C99.1877416,18.1883721 99.7800376,18.2828936 100.531996,18.3774152 C101.242751,18.4719367 101.819596,18.5167101 102.25223,18.5415842 C102.690014,18.5614835 103.035091,18.5515338 103.292611,18.5067605 C103.550131,18.4619871 103.740695,18.3923396 103.864305,18.2828936 C103.987915,18.1784224 104.090923,18.0341527 104.168179,17.8600341 C105.651494,14.7258985 106.918492,11.5370399 107.958873,8.31833234 L107.989776,8.31833234 C109.07136,11.5420147 110.389862,14.7358481 111.940132,17.8650089 C112.017388,18.0490772 112.120396,18.1933469 112.244006,18.3027929 C112.367616,18.4072641 112.568481,18.4769116 112.826001,18.5216849 C113.093822,18.5565086 113.4492,18.5664583 113.897284,18.546559 C114.345369,18.5216849 114.937665,18.4669619 115.679323,18.3774152 C116.338574,18.2928433 116.874216,18.2082714 117.296549,18.1187246 C117.718881,18.0341527 118.053657,17.9396312 118.316328,17.83516 C118.573848,17.7306888 118.759262,17.6063183 118.867421,17.4719982 C118.975579,17.3376781 119.052835,17.1685343 119.088888,16.9695416 C120.067464,12.2683382 120.577353,7.56713476 120.618557,2.93060399 C120.613406,2.62714007 120.587654,2.3933236 120.546451,2.2291546 C120.510398,2.06498559 120.427992,1.95553958 120.299232,1.90081658 C120.175622,1.84609358 119.995358,1.84111876 119.76359,1.88589212 C119.536973,1.92569067 119.222798,2.00528777 118.815917,2.10478414 C118.388433,2.21423014 118.058808,2.30377687 117.821889,2.37839915 C117.590121,2.45302142 117.415008,2.5276437 117.296549,2.60226598 C117.178089,2.68186307 117.105984,2.76643499 117.080232,2.86593135 C117.049329,2.96542772 117.039029,3.07487373 117.039029,3.20421901 C116.833013,7.22387229 116.312822,11.2634248 115.478457,15.2930278 L115.442405,15.2930278 C113.402846,11.6514607 111.698064,7.91039723 110.322907,4.09968632 C110.276553,3.94546695 110.214748,3.82109649 110.142643,3.73154976 C110.070537,3.64200303 109.962379,3.57235557 109.818168,3.5275822 C109.673956,3.48280884 109.46279,3.45793475 109.194969,3.44798511 C108.927148,3.43803547 108.56662,3.43803547 108.118536,3.43803547 C107.696203,3.43803547 107.361427,3.44301029 107.103907,3.45793475 C106.846387,3.4728592 106.650671,3.49773329 106.50131,3.54748148 C106.351948,3.59722966 106.24894,3.6619023 106.181985,3.75642385 C106.11503,3.84597058 106.063526,3.96536622 106.012022,4.11461078 C104.70382,7.92532168 103.060843,11.6813096 101.09854,15.3427759 L101.083089,15.3427759 C100.222972,11.3032234 99.6770296,7.25869602 99.450412,3.2290931 C99.450412,3.07984855 99.4452616,2.95547808 99.4143592,2.86593135 C99.3886072,2.77638462 99.3113512,2.69678753 99.192892,2.62714007 C99.0744328,2.55749261 98.8890184,2.49281997 98.6366488,2.42317251 C98.3894296,2.35352506 98.0443528,2.26895314 97.6168696,2.16448196 C97.1533336,2.05006113 96.7876551,1.9605144 96.5198343,1.9057914 C96.2571639,1.85604321 96.0562983,1.8510684 95.9120871,1.90081658 C95.7730263,1.95056476 95.6803191,2.05006113 95.6391159,2.20925532 C95.5927623,2.36844951 95.5721607,2.59231634 95.5670103,2.88583063 Z" id="Path" fill="#ED6C00"></path>







                <path d="M122.612145,13.8962719 C122.830497,14.7150849 123.329587,15.4732451 124.119813,16.1454804 C124.915238,16.8227701 126.012197,17.4090807 127.40549,17.8387048 C128.793585,18.2733833 130.488411,18.5412665 132.44838,18.5564297 C134.470735,18.5665385 136.238346,18.2936009 137.688826,17.8336504 C139.139307,17.3736999 140.288254,16.7520085 141.120071,16.0342836 C141.951888,15.3165586 142.476972,14.5179633 142.721319,13.6839871 C142.960466,12.8449565 142.934472,11.9907627 142.679728,11.1163513 C142.409387,10.1964503 141.98828,9.43829018 141.4424,8.81659885 C140.891321,8.19490751 140.210271,7.71979381 139.404449,7.36598574 C138.598626,7.01723207 137.67323,6.78978402 136.602266,6.65331519 C135.531301,6.51684636 134.319968,6.48651995 132.916277,6.49662875 C131.481393,6.50168316 130.22327,6.56739037 129.110715,6.73924001 C127.99816,6.91108964 127.020775,7.1688641 126.168163,7.55299858 C125.31555,7.93713306 124.582512,8.42740996 123.995041,9.0592101 C123.40757,9.69101023 122.965668,10.4340072 122.710924,11.313473 C122.440583,12.2182108 122.393793,13.0774589 122.612145,13.8962719 Z M128.819579,14.9324241 C128.486852,14.5685073 128.2685,14.1591008 128.159324,13.6991503 C128.060546,13.2391998 128.044949,12.7438685 128.107336,12.2232652 C128.185319,11.6622266 128.341284,11.1719497 128.580432,10.7524345 C128.81438,10.3329192 129.121112,9.98416549 129.505828,9.70111903 C129.885344,9.41807257 130.342844,9.21589653 130.888723,9.0794277 C131.434603,8.94295887 132.053267,8.88230606 132.755113,8.88230606 C133.550537,8.88230606 134.210792,8.94801327 134.751473,9.09964531 C135.292154,9.25127734 135.739256,9.46861658 136.097977,9.76682625 C136.456698,10.0650359 136.737436,10.418844 136.929793,10.8434137 C137.12735,11.2679834 137.26252,11.7430971 137.330105,12.2637004 C137.402889,12.8247389 137.376895,13.3352334 137.236526,13.8002383 C137.106555,14.2601888 136.851811,14.6695953 136.477493,15.0132946 C136.103175,15.3620482 135.593688,15.6400403 134.954228,15.8371619 C134.319968,16.0342836 133.550537,16.1454804 132.671931,16.1454804 C131.710143,16.1454804 130.909519,16.0241748 130.275258,15.8068355 C129.640998,15.5894963 129.157504,15.2912866 128.819579,14.9324241 Z" id="Shape" fill="#ED6C00"></path>
                <path d="M146.927659,6.38099241 L144.746922,17.373099 C144.726915,17.4527135 144.771931,17.5376356 144.871964,17.6225577 C144.977,17.7127875 145.167064,17.8030172 145.437155,17.8985546 C145.712248,17.9993996 146.077372,18.094937 146.542529,18.1904744 C147.007686,18.2860118 147.602888,18.3762415 148.323131,18.455856 C149.048376,18.5301629 149.648579,18.556701 150.118738,18.556701 C150.588897,18.556701 150.969026,18.5301629 151.254122,18.4930094 C151.539219,18.455856 151.739286,18.3974721 151.854325,18.3390881 C151.969364,18.2700889 152.024383,18.2010897 152.024383,18.1161675 L151.944356,11.1207081 C152.374501,10.7438662 152.759631,10.4201006 153.114751,10.1441038 C153.46487,9.8734145 153.799983,9.63987868 154.11509,9.45941918 C154.430196,9.27895968 154.730298,9.12503834 155.030399,9.01357806 C155.325499,8.90211778 155.615597,8.81719566 155.9207,8.76411934 C156.180788,8.71635065 156.415867,8.68450486 156.635942,8.66858196 C156.856016,8.65265906 157.061086,8.63673616 157.246148,8.6261209 L157.746317,8.59958274 C157.896368,8.58896747 158.031414,8.56773694 158.141451,8.53589115 C158.281498,8.49873772 158.396537,8.44035377 158.476564,8.37666218 C158.556591,8.31297059 158.61161,8.21743321 158.636618,8.09005003 C158.666628,7.97328212 158.666628,7.81405315 158.64162,7.61767075 C158.616612,7.42128836 158.561593,7.1824449 158.481566,6.89052512 C158.396537,6.60391297 158.331515,6.37568478 158.266493,6.21114818 C158.206473,6.04661158 158.156456,5.92453603 158.101437,5.85022918 C158.056422,5.77061469 158.006405,5.71753837 157.966392,5.67507731 C157.916375,5.63792389 157.861356,5.60607809 157.776327,5.59015519 C157.6963,5.56892466 157.57626,5.56361703 157.416206,5.56892466 C157.256152,5.5742323 157.076091,5.59015519 156.86602,5.61138572 C156.655949,5.63261625 156.455881,5.65915441 156.265817,5.69100021 C156.075752,5.722846 155.895692,5.74938416 155.730636,5.78653759 C155.380517,5.85553681 155.025397,5.94576656 154.675279,6.06253447 C154.325161,6.17930239 153.975042,6.32791609 153.624924,6.51899086 C153.274805,6.71006562 152.894677,6.95421671 152.48954,7.24082886 C152.084403,7.527441 151.639252,7.88305237 151.139083,8.29174006 L151.169093,6.89583275 C151.169093,6.81091064 151.134082,6.73660378 151.06906,6.67291219 C151.004038,6.60922061 150.899002,6.55083665 150.753953,6.50306796 C150.608904,6.45529927 150.398833,6.41283821 150.128742,6.37568478 C149.853649,6.33853136 149.513534,6.2960703 149.098393,6.24830161 C148.70326,6.20053291 148.368146,6.15807186 148.103057,6.13684133 C147.832965,6.1156108 147.612891,6.10499553 147.437832,6.11030316 C147.267774,6.12091843 147.13773,6.14745659 147.067707,6.19522528 C146.992681,6.23768634 146.942664,6.30137793 146.927659,6.38099241 Z" id="Path" fill="#ED6C00"></path>
                <path d="M162.499239,2.1392709 L158.665563,17.3028082 C158.644527,17.3827742 158.681339,17.4577422 158.770739,17.5377081 C158.860139,17.6226719 159.023162,17.7026378 159.265068,17.7975974 C159.501714,17.887559 159.822502,17.9825186 160.237948,18.0774781 C160.653395,18.1724376 161.179276,18.272395 161.820851,18.3673545 C162.462427,18.4623141 162.993567,18.5122928 163.414272,18.5372821 C163.834977,18.5622715 164.1768,18.5622715 164.429224,18.54228 C164.686905,18.5272864 164.865705,18.4873034 164.97614,18.4373247 C165.086575,18.3823481 165.144422,18.3223737 165.149681,18.2374099 L165.580904,12.6597871 C167.626583,14.6589351 170.056155,16.4931533 172.843327,18.0574866 C172.969538,18.1474483 173.122044,18.2074227 173.290326,18.2524035 C173.453349,18.3023822 173.679478,18.3223737 173.973972,18.3173758 C174.263207,18.3173758 174.631324,18.2873886 175.078323,18.2324121 C175.520064,18.1724376 176.093274,18.0874738 176.803214,17.9375377 C177.492119,17.8025952 178.044295,17.657657 178.465,17.5377081 C178.885705,17.4177593 179.21701,17.2978104 179.448398,17.197853 C179.685045,17.0978956 179.83755,17.0079339 179.916433,16.9229701 C179.990056,16.8380063 180.01635,16.7630383 179.990056,16.6830724 C179.963762,16.5931107 179.879621,16.5081469 179.758668,16.4231831 C179.632457,16.3332215 179.443139,16.2482577 179.201234,16.1483003 C176.172157,15.0487689 173.448091,13.624376 171.102659,11.9650832 C172.87488,10.6406476 174.431489,9.19126536 175.75671,7.65691929 C175.903957,7.46700024 176.003874,7.29207479 176.061721,7.13714082 C176.119568,6.98220685 176.124827,6.84726437 176.093274,6.73231336 C176.06698,6.64734957 176.009133,6.58737513 175.919733,6.55239004 C175.830334,6.51240708 175.688346,6.49741347 175.488511,6.50740921 C175.293935,6.51240708 175.036253,6.5423943 174.725983,6.592373 C174.410454,6.6423517 174.031819,6.70732401 173.579561,6.7922878 C173.122044,6.87725159 172.743409,6.9422239 172.443657,7.0071962 C172.149163,7.06717064 171.901999,7.12714508 171.702164,7.19211739 C171.507588,7.2570897 171.349824,7.32705988 171.23413,7.4070258 C171.118436,7.49198959 171.013259,7.58195125 170.918601,7.68690651 C169.41458,9.23124832 167.647618,10.6706349 165.633492,11.9400938 L166.338173,2.69403446 C166.348691,2.61406854 166.322397,2.54409836 166.26455,2.47412818 C166.206703,2.40915587 166.112044,2.34918144 165.964797,2.289207 C165.828068,2.23423043 165.633492,2.18425173 165.402104,2.13427303 C165.160199,2.08429433 164.860446,2.0393135 164.492329,1.98433693 C164.129471,1.93435823 163.82446,1.8893774 163.577296,1.87438379 C163.33539,1.85439231 163.140814,1.84939444 162.988308,1.86438805 C162.835803,1.87938166 162.720109,1.90437101 162.646485,1.95434971 C162.572862,2.00432841 162.520274,2.06430285 162.499239,2.1392709 Z" id="Path" fill="#ED6C00"></path>
            </g>
        </g>
    </g>
</svg>
