<svg id="Слой_1" data-name="Слой 1" xmlns="http://www.w3.org/2000/svg" viewBox="0 0 54.1 67.5"><defs><style>.cls-1{fill:#f17120;stroke:#f17120;stroke-miterlimit:10;stroke-width:2.5px;}</style></defs><title>icon_1</title><path class="cls-1" d="M50,17.3A25.86,25.86,0,0,0,24.2,43.1c0,9.2,4.3,18.7,12.6,27.6A70.43,70.43,0,0,0,49.3,81.4l.7.6.8-.5a76.77,76.77,0,0,0,12.4-11c8.2-9,12.6-18.4,12.6-27.3A25.88,25.88,0,0,0,50,17.3Zm0,61a72.86,72.86,0,0,1-11.1-9.7c-5.3-5.8-11.7-14.9-11.7-25.5a22.8,22.8,0,0,1,45.6,0C72.8,60.7,54.1,75.3,50,78.3Zm0-46.5A10.35,10.35,0,1,0,60.3,42.2,10.29,10.29,0,0,0,50,31.8Zm0,17.7a7.3,7.3,0,1,1,7.3-7.3A7.34,7.34,0,0,1,50,49.5Z" transform="translate(-22.95 -16.05)"/></svg>