<svg id="Слой_1" data-name="Слой 1" xmlns="http://www.w3.org/2000/svg" viewBox="0 0 90.02 86.03"><defs><style>.cls-1{fill:#e4ebeb;}</style></defs><title>star_2</title><path class="cls-1" d="M93.7,44.1a4.6,4.6,0,0,0,1.1-4.6,4.32,4.32,0,0,0-3.6-3L67.8,33.1a4.68,4.68,0,0,1-3.4-2.4L54,9.5A4.39,4.39,0,0,0,50,7a4.57,4.57,0,0,0-4,2.5L35.6,30.7a4.34,4.34,0,0,1-3.3,2.4L8.8,36.5a4.32,4.32,0,0,0-3.6,3,4.6,4.6,0,0,0,1.1,4.6L23.2,60.6a4.69,4.69,0,0,1,1.3,3.9l-4,23.3A4.46,4.46,0,0,0,27,92.5l20.9-11a4.26,4.26,0,0,1,4.1,0l20.9,11a4.46,4.46,0,0,0,6.5-4.7l-4-23.3a4.4,4.4,0,0,1,1.3-3.9Z" transform="translate(-4.99 -7)"/></svg>