<?xml version="1.0" encoding="utf-8"?>
<!-- Generator: Adobe Illustrator 23.0.1, SVG Export Plug-In . SVG Version: 6.00 Build 0)  -->
<svg version="1.1" id="Слой_1" xmlns="http://www.w3.org/2000/svg" xmlns:xlink="http://www.w3.org/1999/xlink" x="0px" y="0px"
	 viewBox="0 0 496 496" style="enable-background:new 0 0 496 496;" xml:space="preserve">
<style type="text/css">
	.st0{fill:#8DC348;}
</style>
<path class="st0" d="M248,80c13.2,0,24-10.8,24-24s-10.8-24-24-24s-24,10.8-24,24S234.8,80,248,80z M248,48c4.4,0,8,3.6,8,8
	s-3.6,8-8,8s-8-3.6-8-8S243.6,48,248,48z"/>
<path class="st0" d="M288,192h-16V96h-64v48h16v48h-16v48h80V192z M272,224h-48v-16h16v-80h-16v-16h32v96h16V224z"/>
<path class="st0" d="M464,112V96h-86C360.9,40.5,309.1,0,248,0S135.1,40.5,118,96H32v16H0v352h208.8c3.7,18.2,19.9,32,39.2,32
	s35.5-13.8,39.2-32H496V112H464z M248,16c66.2,0,120,53.8,120,120c0,57-40.5,106.5-96.3,117.6l-3.8,0.8L248,294.1l-19.8-39.7
	l-3.8-0.8C168.5,242.5,128,193,128,136C128,69.8,181.8,16,248,16z M288,265.9c8.4-2.6,16.4-5.9,23.9-9.9H416v96H288V265.9z M48,112
	h66.2c-1.4,7.8-2.2,15.8-2.2,24c0,63.3,44,118.4,105.3,132.5l30.7,61.4l24-48V368h160V240h-96.6c29.9-25.2,48.6-62.8,48.6-104
	c0-8.2-0.9-16.2-2.2-24H448v304H256v-72h-16v72H48V112z M480,448H272v8c0,13.2-10.8,24-24,24s-24-10.8-24-24v-8H16V128h16v304h432
	V128h16V448z"/>
<path class="st0" d="M64,384h160v16H64V384z"/>
<path class="st0" d="M64,352h160v16H64V352z"/>
<path class="st0" d="M64,320h160v16H64V320z"/>
<path class="st0" d="M64,288h144v16H64V288z"/>
<path class="st0" d="M272,384h160v16H272V384z"/>
</svg>
