<?xml version="1.0" encoding="utf-8"?>
<!-- Generator: Adobe Illustrator 22.0.1, SVG Export Plug-In . SVG Version: 6.00 Build 0)  -->
<svg version="1.1" id="Слой_1" xmlns="http://www.w3.org/2000/svg" xmlns:xlink="http://www.w3.org/1999/xlink" x="0px" y="0px"
	 viewBox="0 0 950 356" style="enable-background:new 0 0 950 356;" xml:space="preserve">
<style type="text/css">
	.st0{fill:none;stroke:#000000;stroke-width:2;stroke-miterlimit:10;}
	.st1{fill:none;stroke:#0D75B9;stroke-miterlimit:10;}
	.st2{fill:#0D75B9;}
	.st3{fill:none;stroke:#0D75B9;stroke-width:2;stroke-miterlimit:10;}
	.st4{fill:none;}
	.st5{font-family:'Ubuntu-Medium';}
	.st6{font-size:23px;}
</style>
<g>
	<path class="st0" d="M646.6,303.9c-5.7,0-11.3,0-16.6,0c-1.3-5.6-2-10.9-3.7-15.9c-5.8-17.6-18.2-28.1-36.2-31.9
		c-12-2.5-23.6-1-34.1,5.8c-2,1.3-3.7,3-5.4,4.7c-0.8,0.9-1.3,2.1-2.1,3.6c-5.1,0-10.7,0-15.7,0c-1.1-1.6-1.8-3.1-2.8-4.2
		c-5.9-6.2-13.4-9.3-21.6-10.4c-14.1-1.9-27.1,1.2-38.4,10.1c-10.1,8-15.4,18.8-17.4,31.3c-0.3,1.7-0.3,3.5-0.6,5.1
		c-0.1,0.6-1,1.6-1.6,1.6c-5.1,0.1-10.2,0.1-15.9,0.1c0.5-3.4,0.6-6.7,1.3-9.8c4.7-18.9,13.6-35.3,29.1-47.7
		c6.2-5,13.4-7.5,21.4-7.5c35.7,0.1,71.4,0.2,107.1-0.1c10.8-0.1,19.7,3.9,27.2,11.2c13.7,13.3,22.1,29.4,25.5,48.2
		c0.1,0.3,0.3,0.5,0.4,0.8C646.6,300.6,646.6,302.2,646.6,303.9z"/>
	<path class="st0" d="M645.4,227.2c-154.1,0-308.1,0-462.3,0c0-48.9,0-97.8,0-146.6c154.1,0,308.1,0,462.3,0
		C645.4,129.5,645.4,178.2,645.4,227.2z"/>
	<path class="st0" d="M141.3,117.3c0,40.5,0,80.8,0,121.4c0.8,0,1.7,0,2.6,0c37.7,0,75.4,0.2,113.1-0.1c10.7-0.1,19.4,3.7,26.9,10.9
		c13.1,12.5,21.3,27.8,25.2,45.4c0.6,2.7,0.7,5.5,1.1,8.6c-5.6,0-10.9,0.1-16.1-0.1c-0.5,0-1.3-1.7-1.4-2.6
		c-0.7-7.8-2.7-15.2-6.6-22c-7.2-12.5-17.9-20-32.2-21.7c-18.5-2.2-33.4,5.1-45.6,18.4c-2.5,2.8-4.7,5.9-6.8,9
		c-0.8,1.2-1.6,1.8-3.2,1.8c-19-0.1-38-0.1-57,0c-1.7,0-2.5-0.6-3.2-2c-5.7-10.4-13.2-19.1-23.8-24.6C99,251.7,80.7,254,67.5,265
		C56,274.5,49.3,287,45.3,301.1c-0.6,2.2-1.5,3-3.8,2.9c-5.3-0.2-10.7,0-16-0.1c-6.4-0.1-10.5-4.3-10.9-10.7c0-0.9,0-1.8,0-2.7
		c0-26.7,0-53.3,0.1-80c0-2.3,0.4-4.7,1.2-6.9c10.5-28.3,21.1-56.6,31.6-84.9c0.6-1.6,1.2-2.1,2.9-2.1c22.8,0.1,45.6,0.1,68.4,0.2
		c6.7,0,13.5,0.1,20.2,0.2C139.8,117.1,140.5,117.2,141.3,117.3z"/>
	<path class="st0" d="M94.3,264.3c19.2-0.4,38.2,15.2,38.2,38.2c-0.1,23.2-19.4,38.3-38.7,38C73,340.2,56,323.2,56.1,302.2
		C56.1,281.2,73.2,264.2,94.3,264.3z"/>
	<path class="st0" d="M581.8,264.3c21.3,0.1,38.3,17.1,38.2,38.2c-0.2,22-18.4,38.4-39,38c-20.5-0.4-37.6-17.6-37.4-38.3
		C543.7,281.1,560.8,264.2,581.8,264.3z"/>
	<path class="st0" d="M244.9,264.3c19.1-0.4,38.1,14.9,38.2,37.9c0.1,23.1-19,38.6-38.6,38.3c-20.8-0.3-37.9-17.5-37.8-38.2
		C206.8,281.2,223.9,264.2,244.9,264.3z"/>
	<path class="st0" d="M459.3,302.5c-0.1-21.2,16.7-38.2,37.8-38.2c21.3,0,38.3,16.7,38.4,37.7c0.1,21.2-16.7,38.2-37.6,38.5
		C477.3,340.8,459.1,323.9,459.3,302.5z"/>
</g>
<rect x="720" y="81" class="st0" width="146" height="146"/>
<g>
	<g>
		<line class="st1" x1="190.2" y1="55" x2="637.8" y2="55"/>
		<g>
			<polygon class="st2" points="193.5,59.4 191.6,55 193.5,50.6 183,55 			"/>
		</g>
		<g>
			<polygon class="st2" points="634.5,59.4 636.4,55 634.5,50.6 645,55 			"/>
		</g>
	</g>
</g>
<g>
	<g>
		<line class="st1" x1="726.7" y1="55.5" x2="859.3" y2="55.5"/>
		<g>
			<polygon class="st2" points="730,59.9 728.1,55.5 730,51.1 719.5,55.5 			"/>
		</g>
		<g>
			<polygon class="st2" points="856,59.9 857.9,55.5 856,51.1 866.5,55.5 			"/>
		</g>
	</g>
</g>
<g>
	<g>
		<line class="st1" x1="670.5" y1="219.8" x2="670.5" y2="87.2"/>
		<g>
			<polygon class="st2" points="674.9,216.5 670.5,218.4 666.1,216.5 670.5,227 			"/>
		</g>
		<g>
			<polygon class="st2" points="674.9,90.5 670.5,88.6 666.1,90.5 670.5,80 			"/>
		</g>
	</g>
</g>
<g>
	<g>
		<line class="st1" x1="890.5" y1="219.8" x2="890.5" y2="87.2"/>
		<g>
			<polygon class="st2" points="894.9,216.5 890.5,218.4 886.1,216.5 890.5,227 			"/>
		</g>
		<g>
			<polygon class="st2" points="894.9,90.5 890.5,88.6 886.1,90.5 890.5,80 			"/>
		</g>
	</g>
</g>
<line class="st3" x1="183" y1="30" x2="183" y2="94"/>
<line class="st3" x1="645" y1="30" x2="645" y2="94"/>
<line class="st3" x1="720" y1="30" x2="720" y2="94"/>
<line class="st3" x1="853" y1="81" x2="917" y2="81"/>
<line class="st3" x1="853" y1="227" x2="917" y2="227"/>
<line class="st3" x1="866" y1="30" x2="866" y2="94"/>
<rect x="370" y="17" class="st4" width="88" height="22"/>
<text transform="matrix(1 0 0 1 371.3354 34.8477)" class="st2 st5 st6">Длинна</text>
<rect x="746" y="17" class="st4" width="91" height="22"/>
<text transform="matrix(1 0 0 1 746.0981 34.8477)" class="st2 st5 st6">Ширина</text>
<rect x="909.5" y="107.5" class="st4" width="22" height="91"/>
<text transform="matrix(0 1 -1 0 913.6523 112.3364)" class="st2 st5 st6">Высота</text>
</svg>
