<?xml version="1.0" encoding="utf-8"?>
<!-- Generator: Adobe Illustrator 20.1.0, SVG Export Plug-In . SVG Version: 6.00 Build 0)  -->
<svg version="1.1" id="Слой_1" xmlns="http://www.w3.org/2000/svg" xmlns:xlink="http://www.w3.org/1999/xlink" x="0px" y="0px"
	 viewBox="0 0 193.9 36.8" style="enable-background:new 0 0 193.9 36.8;" xml:space="preserve">
<style type="text/css">
	.st0{fill:none;}
	.st1{fill:#FFFFFF;}
	.st2{fill:#009FE3;}
	.st3{font-family:'Fira Sans'; font-weight: bold;}
	.st4{font-size:7px;}
	.st5{font-size:24px;}
</style>
<title>logo-5</title>
<polygon class="st0" points="27.1,18.7 27,18.6 7.9,24.8 7.9,24.9 "/>
<polygon class="st0" points="22.2,11.1 4.2,14.3 4.2,14.3 22.3,11.1 "/>
<polygon class="st0" points="34.2,8.9 22.9,10.9 22.9,11 34.2,8.9 "/>
<polygon class="st0" points="21.9,10.6 21.9,10.5 4,13.6 4,13.6 "/>
<polygon class="st0" points="27.7,18.4 27.7,18.5 39.1,14.8 39.1,14.7 "/>
<polygon class="st0" points="22.5,10.4 33.8,8.5 33.8,8.5 22.5,10.4 "/>
<path class="st1" d="M30.2,3.6l-0.3-0.3L0,5.2l0.1,0.4v0.1l2.7,8.1l0.2,0.7l3.6,10.8l0.1,0.2L7,26.2l32.9-11.1l-0.4-0.5l0,0
	L30.2,3.6L30.2,3.6z M3.9,13.6l-2.8-8l16.9-1.1l3.9,6.1l0,0L3.9,13.6L3.9,13.6L3.9,13.6z M7.9,24.8L4.2,14.3l0,0l0,0l18-3.3l0,0
	l4.8,7.5l0,0l0,0L7.9,24.9V24.8L7.9,24.8z M27.8,18.4L27.8,18.4L27.8,18.4l-4.8-7.5l0,0l11.3-2l0,0l4.9,5.8l0,0L27.8,18.4z
	 M33.9,8.4L33.9,8.4l-11.3,2.1l0,0l-3.9-6l11.1-0.8L33.9,8.4z"/>
<path class="st2" d="M18.6,4.4l3.9,6l0,0l11.3-1.9l-4.1-4.9L18.6,4.4z M33.4,8.3l-10.8,1.8l-3.6-5.5l10.6-0.8L33.4,8.3z"/>
<path class="st2" d="M22,10.5l-3.9-6.1L1.1,5.7l2.8,8l0,0L22,10.5L22,10.5z M21.5,10.3L4.4,13.2L1.7,5.9l16.2-1.2L21.5,10.3z"/>
<polygon class="st1" points="4.4,13.2 21.5,10.3 17.9,4.7 1.7,5.9 "/>
<polygon class="st1" points="22.7,10.1 33.4,8.3 29.7,3.8 19.1,4.6 "/>
<path class="st2" d="M27.1,18.6l-4.8-7.5l0,0l-18,3.3l0,0L8,24.9l0,0L27.1,18.6L27.1,18.6z M26.5,18.4L8.3,24.2l-3.5-9.6l17.3-3.2
	L26.5,18.4z"/>
<polygon class="st1" points="8.3,24.2 26.5,18.4 22.1,11.4 4.9,14.6 "/>
<path class="st2" d="M34.2,8.9l-11.3,2l0,0l4.8,7.5l0,0l11.4-3.7L34.2,8.9z M38.6,14.6L27.8,18l-4.5-6.8l10.8-2L38.6,14.6z"/>
<polygon class="st1" points="27.8,18 38.6,14.6 34.1,9.2 23.3,11.2 "/>
<polygon class="st0" points="43.2,27.3 43.2,27.3 19,35.1 19,35.2 "/>
<polygon class="st0" points="37.1,17.7 14.3,21.8 14.3,21.8 37.1,17.7 "/>
<polygon class="st0" points="52.2,15 37.9,17.6 37.9,17.6 52.2,15 "/>
<polygon class="st0" points="36.7,17.1 36.7,17.1 14,21 14,21 "/>
<polygon class="st0" points="44,27 44,27.1 58.4,22.4 58.3,22.4 "/>
<polygon class="st0" points="37.5,16.9 51.7,14.5 51.7,14.5 37.5,16.9 "/>
<path class="st1" d="M47.1,8.3l-0.3-0.4L9,10.3l0.2,0.5V11l3.5,10.2l0.3,0.9l4.6,13.6l0.1,0.2l0.3,0.9l41.5-14l-0.5-0.6l0,0
	L47.1,8.3L47.1,8.3z M13.9,21l-3.6-10.1l21.4-1.5l4.9,7.8l0,0l0,0L13.9,21L13.9,21L13.9,21z M19,35.1l-4.7-13.3l0,0l0,0l22.8-4.1
	l0,0l0,0l6.1,9.5l0,0l0,0L19,35.1L19,35.1z M44,27.1L44,27.1L44,27.1l-6.1-9.4l0,0l0,0l14.3-2.6l0,0l6.2,7.4l0,0L44,27.1z
	 M51.7,14.5L51.7,14.5l-14.3,2.4l0,0l0,0l-5-7.6l14.1-1L51.7,14.5z"/>
<path class="st2" d="M32.5,9.3l4.9,7.6l0,0l14.3-2.5l-5.2-6.2L32.5,9.3z M51.2,14.3l-13.6,2.2l-4.5-7l13.4-1L51.2,14.3z"/>
<path class="st2" d="M36.7,17.1l-4.9-7.7l-21.4,1.5L13.9,21l0,0L36.7,17.1L36.7,17.1z M36.1,16.8l-21.6,3.6l-3.3-9.3l20.4-1.5
	L36.1,16.8z"/>
<polygon class="st1" points="14.5,20.4 36.1,16.8 31.6,9.7 11.1,11.2 "/>
<polygon class="st1" points="37.6,16.5 51.2,14.3 46.5,8.5 33,9.5 "/>
<path class="st2" d="M43.2,27.3l-6.1-9.6l0,0l-22.9,4.1l0,0L19,35.1l0,0L43.2,27.3L43.2,27.3z M42.5,27l-23,7.3l-4.4-12.1l21.8-4
	L42.5,27z"/>
<polygon class="st1" points="19.5,34.3 42.5,27 36.9,18.1 15.1,22.2 "/>
<path class="st2" d="M52.2,15l-14.3,2.6l0,0L44,27l0,0l14.4-4.7L52.2,15z M57.8,22.1l-13.7,4.4l-5.6-8.6l13.7-2.5L57.8,22.1z"/>
<polygon class="st1" points="44.1,26.5 57.8,22.1 52.1,15.3 38.5,17.8 "/>
<text transform="matrix(1 0 0 1 65 5.1)" class="st1 st3 st4">Быстрая помощь Вашим окнам</text>
<text transform="matrix(1 0 0 1 64 25.1)" class="st1 st3 st5">ОкноПрав</text>
</svg>
