<svg id="Слой_1" data-name="Слой 1" xmlns="http://www.w3.org/2000/svg" viewBox="0 0 193.93 36.83"><defs><style>.cls-1{fill:none}.cls-2{fill:#fff}.cls-3{fill:#009fe3}</style></defs><path class="cls-1" d="M27.08 18.67l-.03-.04-19.13 6.21.02.05 19.14-6.22zm-4.84-7.61L4.2 14.32l.01.02 18.04-3.27-.01-.01zM34.17 8.9l-11.31 2.04.01.02 11.31-2.05-.01-.01zm-12.25 1.66l-.01-.01-17.95 3.08v.02l17.96-3.09zm5.78 7.86l.02.04 11.36-3.7-.02-.02-11.36 3.68zm-5.15-7.97l11.29-1.94-.01-.01-11.29 1.94.01.01z"/><path class="cls-2" d="M46.18 7.48l-.28-.33L16 9.12l.14.42v.1l2.73 8.09.23.68 3.64 10.76.06.19.25.73L55.9 19l-.39-.46-9.33-11zm-26.24 10l-2.82-8 16.95-1.13 3.88 6.09L20 17.55zm4 11.21l-3.75-10.45 18-3.26L43 22.53l-19.06 6.26v-.05zm19.81-6.39l-4.82-7.47 11.3-2 4.88 5.82zm6.11-10l-11.31 2.05-3.9-6 11.13-.8z" transform="translate(-16 -3.9)"/><path class="cls-3" d="M34.61 8.31l3.9 6 11.32-1.91-4.1-4.89zm14.83 3.92L38.66 14l-3.6-5.5 10.6-.8zm-11.49 2.21l-3.88-6.09-16.95 1.22 2.82 8 18-3.08zm-.5-.2l-17.09 2.85-2.64-7.28 16.16-1.22z" transform="translate(-16 -3.9)"/><path class="cls-2" d="M4.36 13.19l17.09-2.85-3.56-5.65L1.73 5.91l2.63 7.28zm18.3-3.06l10.78-1.8-3.78-4.53-10.6.8 3.6 5.53z"/><path class="cls-3" d="M43.09 22.52L38.28 15l-18 3.26L24 28.77l19.13-6.21zm-.55-.22l-18.2 5.78-3.47-9.58 17.25-3.2z" transform="translate(-16 -3.9)"/><path class="cls-2" d="M8.34 24.19l18.2-5.79-4.43-7.01L4.87 14.6l3.47 9.59z"/><path class="cls-3" d="M50.18 12.81l-11.3 2 4.82 7.47 11.36-3.69zm4.45 5.65l-10.84 3.45-4.45-6.84 10.8-2z" transform="translate(-16 -3.9)"/><path class="cls-2" d="M27.79 18.01l10.84-3.45-4.5-5.4-10.79 2.01 4.45 6.84z"/><path class="cls-1" d="M43.19 27.33l-.03-.05-24.19 7.85.03.07 24.19-7.87zm-6.12-9.62l-22.81 4.12.01.02 22.81-4.12-.01-.02zm15.09-2.73l-14.3 2.59.01.01L52.17 15l-.01-.02zm-15.49 2.1l-.01-.02-22.7 3.9.01.02 22.7-3.9zm7.3 9.94l.03.05 14.36-4.68-.03-.03-14.36 4.66zm-6.51-10.08l14.28-2.45-.01-.02-14.28 2.46.01.01z"/><path class="cls-2" d="M63.11 12.16l-.35-.42L25 14.23l.18.53v.13l3.46 10.22.29.86 4.6 13.61.08.24.31.92 41.49-14-.5-.59-11.8-14zm-33.17 12.7l-3.56-10.07 21.42-1.54L52.7 21 30 24.89zM35 39l-4.7-13.28 22.8-4.12 6.08 9.55L35 39.1V39zm25-8l-6.1-9.44 14.29-2.58 6.17 7.36zm7.73-12.59l-14.27 2.43-4.98-7.64 14.07-1z" transform="translate(-16 -3.9)"/><path class="cls-3" d="M48.48 13.2l4.93 7.63 14.28-2.45-5.18-6.18zm18.75 5l-13.62 2.24-4.55-7 13.4-1zM52.7 21l-4.9-7.7-21.42 1.49 3.56 10.07L52.66 21zm-.63-.26l-21.6 3.61-3.33-9.25 20.43-1.54z" transform="translate(-16 -3.9)"/><path class="cls-2" d="M14.47 20.41l21.6-3.61-4.5-7.14-20.44 1.54 3.34 9.21zm23.14-3.87l13.62-2.28-4.77-5.72-13.41 1 4.56 7z"/><path class="cls-3" d="M59.21 31.17l-6.08-9.55-22.86 4.13L35 39l24.18-7.85zm-.7-.27l-23 7.31-4.4-12.13 21.8-4z" transform="translate(-16 -3.9)"/><path class="cls-2" d="M19.5 34.31L42.51 27l-5.6-8.87-21.8 4.05 4.39 12.13z"/><path class="cls-3" d="M68.17 18.9l-14.3 2.58 6.1 9.44 14.36-4.66zM73.8 26l-13.71 4.39-5.63-8.65 13.65-2.53z" transform="translate(-16 -3.9)"/><path class="cls-2" d="M44.09 26.49l13.71-4.35-5.69-6.83-13.65 2.54 5.63 8.64z"/><text transform="translate(64 25.1)" font-family="Montserrat-Black,Montserrat" font-size="23" fill="#fff">ОкноПрав</text><text transform="translate(65 5.1)" font-size="6" font-family="Montserrat-Black,Montserrat" fill="#fff">Быстрая помощь Вашим окнам</text></svg>