<?xml version="1.0" encoding="iso-8859-1"?>
<!-- Generator: Adobe Illustrator 19.0.0, SVG Export Plug-In . SVG Version: 6.00 Build 0)  -->
<svg xmlns="http://www.w3.org/2000/svg" xmlns:xlink="http://www.w3.org/1999/xlink" version="1.1" id="Layer_1" x="0px" y="0px" viewBox="0 0 511 511" style="enable-background:new 0 0 511 511;" xml:space="preserve" width="512" height="512" fill="#005caa" >
<g>
	<rect x="176" y="128" width="16" height="15"/>
	<rect x="208" y="128" width="16" height="15"/>
	<rect x="240" y="128" width="16" height="15"/>
	<path d="M368,496H63V111h65v25H88v335h255V136h-40v-25h49V96h-81V48H160v48H48v415h335V167h-15V496z M328,151v305H103V151h25v24   h175v-24H328z M288,160H143v-49h145V160z M175,63h81v33h-81V63z"/>
	<path d="M128,247h47v-47h-47V247z M143,215h17v17h-17V215z"/>
	<path d="M128,423h47v-47h-47V423z M143,391h17v17h-17V391z"/>
	<path d="M128,335h47v-47h-47V335z M143,303h17v17h-17V303z"/>
	<rect x="200" y="200" width="104" height="15"/>
	<rect x="200" y="232" width="88" height="15"/>
	<rect x="200" y="288" width="104" height="15"/>
	<rect x="200" y="320" width="88" height="15"/>
	<rect x="200" y="376" width="104" height="15"/>
	<rect x="200" y="408" width="88" height="15"/>
	<path d="M463,32h-8V0h-47v32h-8v32h-32v87h15V79h17v195.106l24,24V311h15v-12.894l24-24V32z M423,15h17v17h-17V15z M415,47h33v17   h-33V47z M448,79v145h-33V79H448z M431.5,284.394l-16.5-16.5V239h33v28.894L431.5,284.394z" />
</g>















</svg>
