<svg id="icons" enable-background="new 0 0 64 64" height="512" viewBox="0 0 64 64" width="512" xmlns="http://www.w3.org/2000/svg" fill="#005caa"><path d="m63 58h-3v-36.805c1.792-1.039 3-2.978 3-5.195v-2c0-.185-.051-.365-.147-.522l-7.963-13c-.182-.297-.505-.478-.853-.478h-44.074c-.348 0-.671.181-.852.478l-7.963 13c-.097.157-.148.337-.148.522v2c0 2.216 1.208 4.156 3 5.195v5.805h2v-5.084c.325.055.659.084 1 .084 2.085 0 3.924-1.069 5-2.687 1.076 1.618 2.915 2.687 5 2.687s3.924-1.069 5-2.687c1.076 1.618 2.915 2.687 5 2.687s3.924-1.069 5-2.687c1.076 1.618 2.915 2.687 5 2.687s3.924-1.069 5-2.687c1.076 1.618 2.915 2.687 5 2.687s3.924-1.069 5-2.687c1.076 1.618 2.915 2.687 5 2.687.341 0 .675-.029 1-.084v36.084h-4v-24h-2v10h-16v-16h16v4h2v-5c0-.552-.448-1-1-1h-26v2h7v30h-12v2h40v2h-60v-2h8v-2h-9c-.552 0-1 .448-1 1v4c0 .552.448 1 1 1h62c.552 0 1-.448 1-1v-4c0-.552-.448-1-1-1zm-2.173-44h-8.069l-3.368-12h4.087zm-13.515-12 3.368 12h-7.807l-1.629-12zm-14.312 0h6.226l1.629 12h-7.855zm-2 12h-7.855l1.629-12h6.226zm-9.874 0h-7.807l3.368-12h6.068zm-10.603-12h4.087l-3.368 12h-8.069zm-3.523 18c-2.206 0-4-1.794-4-4h8c0 2.206-1.794 4-4 4zm10 0c-2.206 0-4-1.794-4-4h8c0 2.206-1.794 4-4 4zm10 0c-2.206 0-4-1.794-4-4h8c0 2.206-1.794 4-4 4zm10 0c-2.206 0-4-1.794-4-4h8c0 2.206-1.794 4-4 4zm10 0c-2.206 0-4-1.794-4-4h8c0 2.206-1.794 4-4 4zm6-4h8c0 2.206-1.794 4-4 4s-4-1.794-4-4zm-17 42v-8h2v-2h-2v-2h16v2h-12v2h12v8z"/><path d="m1.356 40.781c1.096 6.217 4.469 11.744 9.496 15.564l4.543 3.452c.179.135.392.203.605.203.211 0 .422-.066.6-.2l4.413-3.31c5.097-3.822 8.513-9.382 9.62-15.655l1.352-7.661c.075-.426-.132-.853-.514-1.056l-15-8c-.294-.157-.647-.157-.941 0l-15 8c-.382.204-.589.63-.514 1.056zm14.644-14.648 13.889 7.408-1.226 6.946c-1.018 5.771-4.161 10.886-8.85 14.403l-3.809 2.857-3.942-2.995c-4.625-3.514-7.727-8.599-8.736-14.319l-1.215-6.892z"/><path d="m4.998 41.057c.816 4.625 3.325 8.738 7.065 11.58l3.332 2.531c.179.136.392.204.605.204.211 0 .422-.066.6-.2l3.236-2.427c3.792-2.844 6.333-6.98 7.157-11.647l.992-5.618c.075-.426-.132-.853-.514-1.056l-5.002-2.668-.941 1.765 4.362 2.327-.866 4.903c-.735 4.166-3.003 7.857-6.387 10.396l-2.632 1.974-2.73-2.075c-3.338-2.536-5.577-6.206-6.305-10.334l-.86-4.866 4.361-2.326-.941-1.765-5.001 2.667c-.382.204-.589.63-.514 1.056z"/><path d="m15.999 30.572 3.531 1.883.941-1.765-4.002-2.134c-.294-.157-.647-.157-.941 0l-3.999 2.133.941 1.765z"/><path d="m14.962 46h.038c.288 0 .562-.124.752-.341l7-8-1.505-1.317-6.188 7.072-2.259-3.014-1.6 1.2 3 4c.181.241.461.388.762.4z"/><path d="m15 33h2v2h-2z"/><path d="m15 48h2v2h-2z"/></svg>