<svg height="511pt" viewBox="1 -28 511.999 511" width="511pt" xmlns="http://www.w3.org/2000/svg" fill="#005caa"><path d="m481.414062.5h-450.828124c-16.863282 0-30.585938 13.71875-30.585938 30.585938v40.296874c0 4.144532 3.355469 7.5 7.5 7.5s7.5-3.355468 7.5-7.5v-40.296874c0-8.59375 6.992188-15.585938 15.585938-15.585938h450.828124c8.59375 0 15.585938 6.992188 15.585938 15.585938v288.253906c0 8.59375-6.992188 15.585937-15.585938 15.585937h-19.734374c42.65625-61.554687-.621094-149.085937-78.28125-149.085937-18.859376 0-36.453126 5.519531-51.253907 15.027344h-239.957031c-4.140625 0-7.5 3.355468-7.5 7.5 0 4.140624 3.359375 7.5 7.5 7.5h221.933594c-31.160156 33.160156-34.039063 82.929687-9.003906 119.058593h-274.53125c-8.59375 0-15.585938-6.992187-15.585938-15.585937v-222.710938c0-4.140625-3.355469-7.5-7.5-7.5s-7.5 3.359375-7.5 7.5v222.710938c0 16.863281 13.722656 30.585937 30.585938 30.585937h287.449218c3.519532 3.335938 7.292969 6.402344 11.289063 9.171875v89.042969c0 6.160156 7.054687 9.703125 11.996093 6.003906l42.078126-31.507812 42.074218 31.507812c4.894532 3.664063 11.996094.210938 11.996094-6.003906v-34.949219c0-4.140625-3.355469-7.5-7.5-7.5s-7.5 3.359375-7.5 7.5v19.964844l-34.578125-25.894531c-2.664063-1.992188-6.324219-1.992188-8.988281 0l-34.578125 25.894531v-65.523438c11.992187 5.410157 25.378906 8.382813 39.074219 8.382813 13.789062 0 27.148437-3.003906 39.070312-8.382813v20.316407c0 4.140625 3.355469 7.5 7.5 7.5s7.5-3.359375 7.5-7.5v-28.847657c3.996094-2.773437 7.769531-5.839843 11.289062-9.175781h32.652344c16.867188 0 30.589844-13.71875 30.589844-30.585937v-288.253906c0-16.867188-13.722656-30.585938-30.585938-30.585938zm-98.015624 200.339844c44.160156 0 80.085937 35.925781 80.085937 80.085937 0 43.726563-35.480469 80.089844-80.085937 80.089844-44.222657 0-80.089844-36.007813-80.089844-80.089844 0-44.160156 35.929687-80.085937 80.089844-80.085937zm0 0"/><path d="m383.398438 342.113281c1.894531 0 3.789062-.734375 5.21875-2.121093 2.355468-2.269532-8.046876 8.046874 28.46875-28.457032 16.875-16.878906 16.875-44.339844 0-61.214844l-28.386719-28.382812c-2.929688-2.929688-7.675781-2.929688-10.605469 0l-28.382812 28.382812c-16.875 16.875-16.875 44.335938 0 61.214844 31.496093 31.46875 29.578124 30.578125 33.6875 30.578125zm-23.082032-81.183593 23.082032-23.082032 23.078124 23.082032c11.027344 11.027343 11.027344 28.972656 0 39.996093l-15.578124 15.582031v-35.582031c0-4.140625-3.359376-7.5-7.5-7.5-4.144532 0-7.5 3.359375-7.5 7.5v35.582031l-15.582032-15.582031c-11.027344-11.027343-11.027344-28.96875 0-39.996093zm0 0"/><path d="m354.8125 69.960938c4.140625 0 7.5-3.359376 7.5-7.5 0-4.144532-3.359375-7.5-7.5-7.5h-197.625c-4.140625 0-7.5 3.355468-7.5 7.5 0 4.140624 3.359375 7.5 7.5 7.5zm0 0"/><path d="m84.6875 113.589844c0 4.144531 3.359375 7.5 7.5 7.5h327.621094c4.144531 0 7.5-3.355469 7.5-7.5 0-4.140625-3.355469-7.5-7.5-7.5h-327.621094c-4.140625 0-7.5 3.359375-7.5 7.5zm0 0"/><path d="m92.1875 168.476562h327.621094c4.144531 0 7.5-3.355468 7.5-7.5 0-4.140624-3.355469-7.5-7.5-7.5h-327.621094c-4.140625 0-7.5 3.359376-7.5 7.5 0 4.144532 3.359375 7.5 7.5 7.5zm0 0"/><path d="m197.625 283.253906c4.140625 0 7.5-3.355468 7.5-7.5 0-4.140625-3.359375-7.5-7.5-7.5h-105.4375c-4.140625 0-7.5 3.359375-7.5 7.5 0 4.144532 3.359375 7.5 7.5 7.5zm0 0"/></svg>