<?xml version="1.0"?>
<svg xmlns="http://www.w3.org/2000/svg" height="512px" viewBox="0 -7 481.5572 481" width="512px"><path d="m8.417969 467.804688h286.21875c4.578125-.195313 8.230469-3.894532 8.363281-8.476563v-21.722656c-.113281-14.003907-11.027344-25.535157-25-26.421875v-13.542969c0-14.609375-11.816406-26.835937-26.425781-26.835937h-200.089844c-14.613281 0-26.484375 12.226562-26.484375 26.835937v13.546875c-13.972656.882812-24.886719 12.414062-25 26.417969v21.722656c.15625 4.589844 3.828125 8.285156 8.417969 8.476563zm43.066406-81h200.089844c5.785156 0 10.425781 5.050781 10.425781 10.835937v13.164063h-221v-13.164063c-.023438-5.855469 4.628906-10.664063 10.484375-10.835937zm-35.484375 50.800781c.179688-5.9375 4.980469-10.6875 10.914062-10.800781h249.226563c5.925781.117187 10.707031 4.875 10.859375 10.800781v14.199219h-271zm0 0" fill="#FFFFFF"/><path d="m91.339844 209.621094 83.792968 74.117187c3.308594 2.925781 8.363282 2.617188 11.292969-.695312l26.941407-30.457031c2.925781-3.308594 2.617187-8.363282-.691407-11.292969l-3.765625-3.328125c15.335938-7.515625 29.722656-16.828125 42.859375-27.738282l42.320313 37.433594-2.839844 3.207032c-2.925781 3.3125-2.617188 8.367187.691406 11.292968l115.074219 101.789063c8.167969 7.265625 18.722656 11.269531 29.65625 11.253906.929687 0 1.863281-.027344 2.796875-.085937 11.882812-.695313 22.992188-6.113282 30.851562-15.050782 16.382813-18.5625 14.648438-46.886718-3.878906-63.308594l-115.070312-101.785156c-3.308594-2.925781-8.363282-2.617187-11.292969.691406l-2.835937 3.210938-42.320313-37.433594c9.226563-14.371094 16.714844-29.785156 22.300781-45.925781l3.761719 3.332031c3.3125 2.925782 8.367187 2.617188 11.292969-.691406l26.945312-30.460938c2.925782-3.308593 2.617188-8.363281-.695312-11.292968l-83.792969-74.117188c-3.308594-2.925781-8.363281-2.617187-11.292969.695313l-26.941406 30.457031c-2.925781 3.308594-2.617188 8.367188.691406 11.292969l4.726563 4.179687c-50.921875 24.828125-89.882813 68.878906-108.308594 122.449219l-4.726563-4.183594c-3.308593-2.925781-8.363281-2.617187-11.289062.691407l-26.945312 30.460937c-2.925782 3.308594-2.617188 8.363281.691406 11.292969zm367 139.847656c-10.554688 11.9375-28.789063 13.058594-40.722656 2.5l-83-73.417969 38.230468-43.21875 83 73.417969c11.914063 10.566406 13.027344 28.78125 2.492188 40.71875zm-111.574219-137.210938 14.09375 12.464844-38.230469 43.222656-14.101562-12.46875zm-20.125-1.398437-21.953125 24.816406-40.914062-36.191406c3.980468-3.84375 7.804687-7.832031 11.476562-11.964844 3.660156-4.140625 7.152344-8.421875 10.476562-12.855469zm-56.511719-191.289063 71.804688 63.515626-16.339844 18.476562-71.808594-63.515625zm-82.566406 90.386719c18.710938-21.089843 41.691406-37.960937 67.414062-49.496093l49.183594 43.5c-16.726562 54.542968-56.21875 99.1875-108.308594 122.453124l-49.179687-43.5c8.304687-26.945312 22.242187-51.8125 40.890625-72.957031zm-63.285156 74.5 71.804687 63.515625-16.339843 18.476563-71.808594-63.519531zm0 0" fill="#FFFFFF"/><path d="m17 293.804688h60c4.417969 0 8-3.582032 8-8 0-4.417969-3.582031-8-8-8h-60c-4.417969 0-8 3.582031-8 8 0 4.417968 3.582031 8 8 8zm0 0" fill="#FFFFFF"/><path d="m45.253906 230.726562 38.933594 20.492188c3.910156 2.058594 8.746094.554688 10.804688-3.355469 2.058593-3.90625.554687-8.746093-3.355469-10.804687l-38.933594-20.488282c-3.90625-2.058593-8.746094-.558593-10.804687 3.351563-2.058594 3.910156-.554688 8.746094 3.355468 10.804687zm0 0" fill="#FFFFFF"/><path d="m84.1875 319.023438-38.933594 20.488281c-3.910156 2.058593-5.414062 6.898437-3.355468 10.808593 2.058593 3.910157 6.894531 5.410157 10.804687 3.351563l38.933594-20.488281c3.910156-2.058594 5.414062-6.898438 3.355469-10.804688-2.058594-3.910156-6.894532-5.414062-10.804688-3.355468zm0 0" fill="#FFFFFF"/></svg>
