<?xml version="1.0" encoding="utf-8"?>
<!-- Generator: Adobe Illustrator 23.0.1, SVG Export Plug-In . SVG Version: 6.00 Build 0)  -->
<svg version="1.1" id="Слой_1" xmlns="http://www.w3.org/2000/svg" xmlns:xlink="http://www.w3.org/1999/xlink" x="0px" y="0px"
	 viewBox="0 0 512 512" style="enable-background:new 0 0 512 512;" xml:space="preserve">
<style type="text/css">
	.st0{fill:#FFFFFF;}
</style>
<title>008 - Checklist</title>
<desc>Created with Sketch.</desc>
<g id="Page-1">
	<g>
		<path id="Shape" class="st0" d="M42.7,68.3h136.5c4.7,0,8.5-3.8,8.5-8.5s-3.8-8.5-8.5-8.5H42.7c-4.7,0-8.5,3.8-8.5,8.5
			S38,68.3,42.7,68.3z"/>
		<path class="st0" d="M42.7,153.6h76.8c4.7,0,8.5-3.8,8.5-8.5c0-4.7-3.8-8.5-8.5-8.5H42.7c-4.7,0-8.5,3.8-8.5,8.5
			C34.1,149.8,38,153.6,42.7,153.6z"/>
		<path class="st0" d="M204.8,136.5h-51.2c-4.7,0-8.5,3.8-8.5,8.5c0,4.7,3.8,8.5,8.5,8.5h51.2c4.7,0,8.5-3.8,8.5-8.5
			C213.3,140.4,209.5,136.5,204.8,136.5z"/>
		<path class="st0" d="M264.5,136.5h-17.1c-4.7,0-8.5,3.8-8.5,8.5c0,4.7,3.8,8.5,8.5,8.5h17.1c4.7,0,8.5-3.8,8.5-8.5
			C273.1,140.4,269.2,136.5,264.5,136.5z"/>
		<path class="st0" d="M204.8,170.7H42.7c-4.7,0-8.5,3.8-8.5,8.5s3.8,8.5,8.5,8.5h162.1c4.7,0,8.5-3.8,8.5-8.5
			S209.5,170.7,204.8,170.7z"/>
		<path class="st0" d="M264.5,170.7h-17.1c-4.7,0-8.5,3.8-8.5,8.5s3.8,8.5,8.5,8.5h17.1c4.7,0,8.5-3.8,8.5-8.5
			S269.2,170.7,264.5,170.7z"/>
		<path class="st0" d="M42.7,221.9h76.8c4.7,0,8.5-3.8,8.5-8.5s-3.8-8.5-8.5-8.5H42.7c-4.7,0-8.5,3.8-8.5,8.5S38,221.9,42.7,221.9z"
			/>
		<path class="st0" d="M204.8,204.8h-51.2c-4.7,0-8.5,3.8-8.5,8.5s3.8,8.5,8.5,8.5h51.2c4.7,0,8.5-3.8,8.5-8.5
			S209.5,204.8,204.8,204.8z"/>
		<path class="st0" d="M264.5,204.8h-17.1c-4.7,0-8.5,3.8-8.5,8.5s3.8,8.5,8.5,8.5h17.1c4.7,0,8.5-3.8,8.5-8.5
			S269.2,204.8,264.5,204.8z"/>
		<path class="st0" d="M204.8,238.9H42.7c-4.7,0-8.5,3.8-8.5,8.5c0,4.7,3.8,8.5,8.5,8.5h162.1c4.7,0,8.5-3.8,8.5-8.5
			C213.3,242.8,209.5,238.9,204.8,238.9z"/>
		<path class="st0" d="M264.5,238.9h-17.1c-4.7,0-8.5,3.8-8.5,8.5c0,4.7,3.8,8.5,8.5,8.5h17.1c4.7,0,8.5-3.8,8.5-8.5
			C273.1,242.8,269.2,238.9,264.5,238.9z"/>
		<path class="st0" d="M42.7,290.1h76.8c4.7,0,8.5-3.8,8.5-8.5s-3.8-8.5-8.5-8.5H42.7c-4.7,0-8.5,3.8-8.5,8.5S38,290.1,42.7,290.1z"
			/>
		<path class="st0" d="M204.8,273.1h-51.2c-4.7,0-8.5,3.8-8.5,8.5s3.8,8.5,8.5,8.5h51.2c4.7,0,8.5-3.8,8.5-8.5
			S209.5,273.1,204.8,273.1z"/>
		<path class="st0" d="M264.5,273.1h-17.1c-4.7,0-8.5,3.8-8.5,8.5s3.8,8.5,8.5,8.5h17.1c4.7,0,8.5-3.8,8.5-8.5
			S269.2,273.1,264.5,273.1z"/>
		<path class="st0" d="M204.8,307.2H42.7c-4.7,0-8.5,3.8-8.5,8.5c0,4.7,3.8,8.5,8.5,8.5h162.1c4.7,0,8.5-3.8,8.5-8.5
			C213.3,311,209.5,307.2,204.8,307.2z"/>
		<path class="st0" d="M264.5,307.2h-17.1c-4.7,0-8.5,3.8-8.5,8.5c0,4.7,3.8,8.5,8.5,8.5h17.1c4.7,0,8.5-3.8,8.5-8.5
			C273.1,311,269.2,307.2,264.5,307.2z"/>
		<path class="st0" d="M42.7,358.4h76.8c4.7,0,8.5-3.8,8.5-8.5c0-4.7-3.8-8.5-8.5-8.5H42.7c-4.7,0-8.5,3.8-8.5,8.5
			C34.1,354.6,38,358.4,42.7,358.4z"/>
		<path class="st0" d="M204.8,341.3h-51.2c-4.7,0-8.5,3.8-8.5,8.5c0,4.7,3.8,8.5,8.5,8.5h51.2c4.7,0,8.5-3.8,8.5-8.5
			C213.3,345.2,209.5,341.3,204.8,341.3z"/>
		<path class="st0" d="M264.5,341.3h-17.1c-4.7,0-8.5,3.8-8.5,8.5c0,4.7,3.8,8.5,8.5,8.5h17.1c4.7,0,8.5-3.8,8.5-8.5
			C273.1,345.2,269.2,341.3,264.5,341.3z"/>
		<path class="st0" d="M204.8,375.5H42.7c-4.7,0-8.5,3.8-8.5,8.5s3.8,8.5,8.5,8.5h162.1c4.7,0,8.5-3.8,8.5-8.5
			S209.5,375.5,204.8,375.5z"/>
		<path class="st0" d="M264.5,375.5h-17.1c-4.7,0-8.5,3.8-8.5,8.5s3.8,8.5,8.5,8.5h17.1c4.7,0,8.5-3.8,8.5-8.5
			S269.2,375.5,264.5,375.5z"/>
		<path class="st0" d="M42.7,426.7h76.8c4.7,0,8.5-3.8,8.5-8.5s-3.8-8.5-8.5-8.5H42.7c-4.7,0-8.5,3.8-8.5,8.5S38,426.7,42.7,426.7z"
			/>
		<path class="st0" d="M204.8,409.6h-51.2c-4.7,0-8.5,3.8-8.5,8.5s3.8,8.5,8.5,8.5h51.2c4.7,0,8.5-3.8,8.5-8.5
			S209.5,409.6,204.8,409.6z"/>
		<path class="st0" d="M264.5,409.6h-17.1c-4.7,0-8.5,3.8-8.5,8.5s3.8,8.5,8.5,8.5h17.1c4.7,0,8.5-3.8,8.5-8.5
			S269.2,409.6,264.5,409.6z"/>
		<path class="st0" d="M204.8,443.7H42.7c-4.7,0-8.5,3.8-8.5,8.5s3.8,8.5,8.5,8.5h162.1c4.7,0,8.5-3.8,8.5-8.5
			S209.5,443.7,204.8,443.7z"/>
		<path class="st0" d="M264.5,443.7h-17.1c-4.7,0-8.5,3.8-8.5,8.5s3.8,8.5,8.5,8.5h17.1c4.7,0,8.5-3.8,8.5-8.5
			S269.2,443.7,264.5,443.7z"/>
		<path class="st0" d="M486.4,136.5H366.9c-14.1,0-25.6,11.5-25.6,25.6v119.5c0,2.9,0.6,5.8,1.6,8.5h-27.2c-2.9,0-5.8,0.6-8.5,1.6
			V93.9c0-0.2-0.1-0.3-0.1-0.5c0-0.8-0.2-1.5-0.4-2.2c-0.1-0.3-0.2-0.5-0.3-0.8c-0.4-0.9-1-1.8-1.7-2.5L219.3,2.5
			c-0.7-0.7-1.5-1.3-2.5-1.6c-0.3-0.1-0.6-0.2-0.9-0.3c-0.7-0.2-1.4-0.4-2.1-0.4c-0.2,0-0.4-0.1-0.6-0.1H25.6C11.5,0,0,11.5,0,25.6
			v460.8C0,500.5,11.5,512,25.6,512h256c6.3,0,12.4-2.4,17.1-6.7c4.7,4.3,10.7,6.6,17.1,6.7h170.7c14.1,0,25.6-11.5,25.6-25.6V315.7
			c0-6.3-2.4-12.4-6.7-17.1c4.3-4.7,6.6-10.7,6.7-17.1V162.1C512,148,500.5,136.5,486.4,136.5z M443.7,153.6v26.7l-12.3-8.2
			c-2.9-1.9-6.6-1.9-9.5,0l-12.3,8.2v-26.7H443.7z M358.4,162.1c0-4.7,3.8-8.5,8.5-8.5h25.6v42.7c0,3.1,1.7,6,4.5,7.5
			c2.8,1.5,6.1,1.3,8.8-0.4l20.9-13.9l20.9,13.9c2.6,1.7,6,1.9,8.8,0.4c2.8-1.5,4.5-4.4,4.5-7.5v-42.7h25.6c4.7,0,8.5,3.8,8.5,8.5
			v119.5c0,4.7-3.8,8.5-8.5,8.5H366.9c-4.7,0-8.5-3.8-8.5-8.5V162.1z M366.9,307.2h68.3v44.7L405.5,334c-2.7-1.6-6.1-1.6-8.8,0
			l-29.7,17.8V307.2z M278.1,85.3h-56.2V29.1L278.1,85.3z M281.6,494.9h-256c-4.7,0-8.5-3.8-8.5-8.5V25.6c0-4.7,3.8-8.5,8.5-8.5
			h179.2v76.8c0,4.7,3.8,8.5,8.5,8.5h76.8v384C290.1,491.1,286.3,494.9,281.6,494.9z M494.9,486.4c0,4.7-3.8,8.5-8.5,8.5H315.7
			c-4.7,0-8.5-3.8-8.5-8.5V315.7c0-4.7,3.8-8.5,8.5-8.5h34.1v59.7c0,3.1,1.7,5.9,4.3,7.4c2.7,1.5,6,1.5,8.6-0.1l38.3-23l38.3,23
			c2.6,1.6,5.9,1.6,8.6,0.1c2.7-1.5,4.3-4.4,4.3-7.4v-59.7h34.1c4.7,0,8.5,3.8,8.5,8.5V486.4z"/>
	</g>
</g>
</svg>
