<?xml version="1.0" encoding="utf-8"?>
<!-- Generator: Adobe Illustrator 23.0.1, SVG Export Plug-In . SVG Version: 6.00 Build 0)  -->
<svg version="1.1" id="Layer_1_1_" xmlns="http://www.w3.org/2000/svg" xmlns:xlink="http://www.w3.org/1999/xlink" x="0px" y="0px"
	 viewBox="0 0 512 512" style="enable-background:new 0 0 512 512;" xml:space="preserve">
<style type="text/css">
	.st0{fill:#FFFFFF;}
</style>
<g>
	<path class="st0" d="M464,104h-80V8H64v181L8,253v251h432V253l-56-64v-5h80c22.1,0,40-17.9,40-40S486.1,104,464,104z M216,163.1
		L177.9,144l38.1-19.1V163.1z M232,152h192v16H232V152z M424,136H232v-16h192V136z M424,273.4v207.3l-134.5-93.1
		c3.5-2.4,6.8-4.9,10-7.6L424,273.4z M224,408c17.5,0,34.7-4,50.3-11.5L406.4,488H41.6l132.1-91.5C189.3,404,206.5,408,224,408z
		 M224,392c-23.2,0-45.7-8.1-63.6-22.9C163.9,336.8,191,312,224,312c33,0,60.1,24.8,63.6,57.1C269.7,383.9,247.2,392,224,392z
		 M148.4,380c3.2,2.7,6.6,5.2,10,7.6L24,480.7V273.4L148.4,380z M64,286.6l-36.7-31.4L64,213.3V286.6z M420.7,255.2L384,286.6v-73.3
		L420.7,255.2z M368,300.3l-66.2,56.8c-8.5-35.3-40.1-61.1-77.8-61.1c-37.6,0-69.3,25.8-77.8,61.1L80,300.3V24h288v80H222.1l-80,40
		l80,40H368V300.3z M464,168h-24v-48h24c13.2,0,24,10.8,24,24S477.2,168,464,168z"/>
	<rect x="336" y="40" class="st0" width="16" height="16"/>
	<rect x="200" y="40" class="st0" width="120" height="16"/>
	<rect x="200" y="72" class="st0" width="152" height="16"/>
	<rect x="96" y="104" class="st0" width="40" height="16"/>
	<rect x="96" y="136" class="st0" width="40" height="16"/>
	<rect x="96" y="168" class="st0" width="40" height="16"/>
	<rect x="96" y="200" class="st0" width="256" height="16"/>
	<rect x="96" y="232" class="st0" width="16" height="16"/>
	<rect x="128" y="232" class="st0" width="224" height="16"/>
	<rect x="336" y="264" class="st0" width="16" height="16"/>
	<rect x="96" y="264" class="st0" width="224" height="16"/>
</g>
</svg>
