<?xml version="1.0" encoding="utf-8"?>
<!-- Generator: Adobe Illustrator 23.0.1, SVG Export Plug-In . SVG Version: 6.00 Build 0)  -->
<svg version="1.1" id="Слой_1" xmlns="http://www.w3.org/2000/svg" xmlns:xlink="http://www.w3.org/1999/xlink" x="0px" y="0px"
	 viewBox="0 0 496 496" style="enable-background:new 0 0 496 496;" xml:space="preserve">
<style type="text/css">
	.st0{fill:#FFFFFF;}
</style>
<path class="st0" d="M456,184c-8.5,0-16.9,2.8-23.8,8H400V0H64C28.7,0,0,28.7,0,64v376c0,30.9,25.1,56,56,56h344v-16
	c-22.1,0-40-17.9-40-40s17.9-40,40-40V256h32.2c6.9,5.2,15.3,8,23.8,8c22.1,0,40-17.9,40-40S478.1,184,456,184z M349.5,416H80v16
	h264.6c-0.4,2.6-0.6,5.3-0.6,8s0.3,5.4,0.6,8H304v16h45.5c2.9,6,6.7,11.4,11.4,16H56c-13,0-24.5-6.3-31.8-16H288v-16H16.8
	c-0.5-2.6-0.8-5.3-0.8-8s0.3-5.4,0.8-8H64v-16H24.2c7.3-9.7,18.8-16,31.8-16h304.8C356.2,404.6,352.3,410,349.5,416z M384,384H64
	V144H48v240.6c-12.5,1.8-23.6,7.6-32,16.2V64c0-20.9,13.4-38.6,32-45.2V128h16V16h320v176h-32V48H96v176h56v48c-8.8,0-16,7.2-16,16
	v16c0,8.8,7.2,16,16,16h128c8.8,0,16-7.2,16-16v-16c0-8.8-7.2-16-16-16v-16h104V384z M152,160v-16h128l0,16H152z M280,288l0,16H152
	v-16H280z M168,272v-96h96v96H168z M280,176c8.8,0,16-7.2,16-16v-16c0-8.8-7.2-16-16-16H152c-8.8,0-16,7.2-16,16v16
	c0,8.8,7.2,16,16,16v32h-40V64h224v128h-56V176z M456,248c-7.3,0-12.6-3.3-15.7-6l-2.3-2H280v-32h158l2.3-2c3.2-2.7,8.4-6,15.7-6
	c13.2,0,24,10.8,24,24S469.2,248,456,248z"/>
<path class="st0" d="M352,336h16v16h-16V336z"/>
<path class="st0" d="M320,336h16v16h-16V336z"/>
<path class="st0" d="M144,336h160v16H144V336z"/>
<path class="st0" d="M112,336h16v16h-16V336z"/>
<path class="st0" d="M80,336h16v16H80V336z"/>
</svg>
