<?xml version="1.0" encoding="utf-8"?>
<!-- Generator: Adobe Illustrator 23.0.1, SVG Export Plug-In . SVG Version: 6.00 Build 0)  -->
<svg version="1.1" id="Layer_1" xmlns="http://www.w3.org/2000/svg" xmlns:xlink="http://www.w3.org/1999/xlink" x="0px" y="0px"
	 viewBox="0 0 512 512" style="enable-background:new 0 0 512 512;" xml:space="preserve">
<style type="text/css">
	.st0{fill:#FFFFFF;}
</style>
<g>
	<g>
		<rect x="39" y="154.6" class="st0" width="154.5" height="15.6"/>
	</g>
</g>
<g>
	<g>
		<rect x="39" y="217" class="st0" width="184" height="15.6"/>
	</g>
</g>
<g>
	<g>
		<rect x="39" y="248.2" class="st0" width="218.3" height="15.6"/>
	</g>
</g>
<g>
	<g>
		<rect x="39" y="279.4" class="st0" width="249.5" height="15.6"/>
	</g>
</g>
<g>
	<g>
		<rect x="39" y="310.6" class="st0" width="249.5" height="15.6"/>
	</g>
</g>
<g>
	<g>
		<rect x="39" y="341.8" class="st0" width="249.5" height="15.6"/>
	</g>
</g>
<g>
	<g>
		<rect x="39" y="373" class="st0" width="197.5" height="15.6"/>
	</g>
</g>
<g>
	<g>
		<rect x="163.7" y="435.3" class="st0" width="124.8" height="15.6"/>
	</g>
</g>
<g>
	<g>
		<path class="st0" d="M428.5,276.1l-9.4,4.4l-20.5-44c49.2-33.9,68.3-99.5,42.2-155.4v0C411.8,18.8,337.4-8.3,275,20.8
			c-41.9,19.6-67.9,59.6-71.6,102.7H91V139h112.1c0.6,15.7,4.3,31.6,11.2,46.8H39v15.6h183.9c20.3,31.6,53.3,51.5,89,56.1v229.8
			H88.4v-72.8H15.6V87.1h187.9V71.5H0v354.1l77.3,77.3h250.1V258.6c0.1,0,0.3,0,0.4,0c11,0,22.1-1.5,33-4.5l15,32.2l14.1-6.6
			L375.7,249c1.6-0.7,3.2-1.4,4.8-2.1c1.6-0.7,3.1-1.5,4.7-2.3l19.8,42.5l-33,15.4l83.5,179l56.5-26.4L428.5,276.1z M72.8,476.3
			l-46.2-46.2h46.2V476.3z M373.9,232.8c-54.6,25.4-119.6,1.8-145.1-52.8c-25.4-54.6-1.8-119.6,52.8-145.1
			c14.9-6.9,30.5-10.2,46-10.2c41.1,0,80.6,23.3,99.1,63C452.1,142.3,428.4,207.3,373.9,232.8z M449.8,432.5L392.7,310l28.3-13.2
			l57.1,122.5L449.8,432.5z M456.4,446.7l28.3-13.2l6.6,14.1L463,460.8L456.4,446.7z"/>
	</g>
</g>
<g>
	<g>
		<path class="st0" d="M327.8,48.1c-47.3,0-85.8,38.5-85.8,85.8s38.5,85.8,85.8,85.8s85.8-38.5,85.8-85.8S375,48.1,327.8,48.1z
			 M327.8,63.7c26.9,0,50.3,15.2,62,37.4c-17.8-17-38.3-26.3-59.6-27c-0.8,0-1.6-0.1-2.5-0.1c-26.9,0-47.7,13.2-61.9,26.8
			C277.6,78.8,301,63.7,327.8,63.7z M358.9,120.8c0,17.2-14,31.2-31.2,31.2s-31.2-14-31.2-31.2s14-31.2,31.2-31.2c0.5,0,1.1,0,1.6,0
			C345.8,90.5,358.9,104.2,358.9,120.8z M283.2,106.4c-1.5,4.5-2.3,9.4-2.3,14.4c0,25.8,21,46.8,46.8,46.8s46.8-21,46.8-46.8
			c0-5-0.8-9.9-2.3-14.4c2.4,2,4.9,4.1,7.3,6.4l10.7-11c4.7,9.1,7.4,19.2,7.7,30c-5.1,8.5-29.9,46.2-70.1,46.2
			c-18.6,0-36.1-7.9-52-23.4c-8.2-8-13.9-16.2-16.8-20.7C262.6,128,270.9,116.3,283.2,106.4z M327.8,204
			c-26.8,0-50.1-15.1-61.9-37.2c14.3,13.6,35,26.8,61.9,26.8c26.9,0,47.7-13.2,61.9-26.8C377.9,188.9,354.5,204,327.8,204z"/>
	</g>
</g>
<g>
	<g>
		<path class="st0" d="M327.8,97.4c-12.9,0-23.4,10.5-23.4,23.4s10.5,23.4,23.4,23.4s23.4-10.5,23.4-23.4S340.7,97.4,327.8,97.4z
			 M327.8,128.6c-4.3,0-7.8-3.5-7.8-7.8s3.5-7.8,7.8-7.8s7.8,3.5,7.8,7.8S332.1,128.6,327.8,128.6z"/>
	</g>
</g>
</svg>
