<?xml version="1.0" encoding="utf-8"?>
<!-- Generator: Adobe Illustrator 23.0.1, SVG Export Plug-In . SVG Version: 6.00 Build 0)  -->
<svg version="1.1" id="Слой_1" xmlns="http://www.w3.org/2000/svg" xmlns:xlink="http://www.w3.org/1999/xlink" x="0px" y="0px"
	 viewBox="0 0 480 480" style="enable-background:new 0 0 480 480;" xml:space="preserve">
<style type="text/css">
	.st0{fill:#FFFFFF;}
</style>
<path class="st0" d="M448,48h-96v-8c0-22.1-17.9-40-40-40s-40,17.9-40,40v8h-80v16h32.6c-1.9,3.3-3.2,7-3.8,10.7l-0.9,5.3H184
	c-4.4,0-8,3.6-8,8v8h41.2l-1.1,6.7c-0.4,2.3,0.3,4.7,1.8,6.5s3.8,2.8,6.1,2.8h176c2.4,0,4.6-1,6.1-2.8s2.2-4.2,1.8-6.5l-1.1-6.7H432
	v280h-48c-4.4,0-8,3.6-8,8v48H208v16h232c4.4,0,8-3.6,8-8V88c0-4.4-3.6-8-8-8h-35.9l-0.9-5.3c-0.6-3.8-1.9-7.4-3.8-10.7H448
	c8.8,0,16,7.2,16,16v368c0,8.8-7.2,16-16,16H224v16h224c17.7,0,32-14.3,32-32V80C480,62.3,465.7,48,448,48z M392,392h28.7L392,420.7
	V392z M432,432h-28.7l28.7-28.7V432z M233.4,96l3.1-18.6c1.3-7.7,8-13.4,15.8-13.4H280c4.4,0,8-3.6,8-8V40c0-13.3,10.7-24,24-24
	s24,10.7,24,24v16c0,4.4,3.6,8,8,8h27.7c7.8,0,14.5,5.6,15.8,13.4l3.1,18.6H233.4z"/>
<path class="st0" d="M248,176h56v16h-56V176z"/>
<path class="st0" d="M320,176h88v16h-88V176z"/>
<path class="st0" d="M248,208h32v16h-32V208z"/>
<path class="st0" d="M296,208h112v16H296V208z"/>
<path class="st0" d="M248,256h160v16H248V256z"/>
<path class="st0" d="M248,288h96v16h-96V288z"/>
<path class="st0" d="M360,288h48v16h-48V288z"/>
<path class="st0" d="M216,336h16v16h-16V336z"/>
<path class="st0" d="M248,336h160v16H248V336z"/>
<path class="st0" d="M248,368h48v16h-48V368z"/>
<path class="st0" d="M312,368h48v16h-48V368z"/>
<path class="st0" d="M256,136h64v16h-64V136z"/>
<path class="st0" d="M336,136h32v16h-32V136z"/>
<path class="st0" d="M304,32h16v16h-16V32z"/>
<path class="st0" d="M8,400h72v45.6l-14.7,22c-1.6,2.5-1.8,5.6-0.4,8.2s4.1,4.2,7,4.2h128c2.9,0,5.7-1.6,7.1-4.2s1.2-5.8-0.4-8.2
	l-14.7-22V320h32c4.4,0,8-3.6,8-8V168c0-30.9-25.1-56-56-56H96c-30.9,0-56,25.1-56,56v136H8c-4.4,0-8,3.6-8,8v80
	C0,396.4,3.6,400,8,400z M128,464H87l7.7-11.6c0.9-1.3,1.3-2.9,1.3-4.4v-48h32V464z M144,464V304H96v-16h80v160
	c0,1.6,0.5,3.1,1.3,4.4L185,464H144z M216,304h-24v-16h24V304z M56,168c0-22.1,17.9-40,40-40h32v128h16V128h32c22.1,0,40,17.9,40,40
	v104h-24V168h-16v104H96V168H80v104H56V168z M56,288h24v16H56V288z M16,320h112v10.5l-56,21l-56-21V320z M16,347.5l53.2,20
	c1.8,0.7,3.8,0.7,5.6,0l53.2-20V384H16V347.5z"/>
<path class="st0" d="M176,56V40c0-22.1-17.9-40-40-40S96,17.9,96,40v16c0,22.1,17.9,40,40,40S176,78.1,176,56z M112,56V40
	c0-13.3,10.7-24,24-24s24,10.7,24,24v16c0,13.3-10.7,24-24,24S112,69.3,112,56z"/>
</svg>
