<?xml version="1.0" encoding="utf-8"?>
<!-- Generator: Adobe Illustrator 23.0.1, SVG Export Plug-In . SVG Version: 6.00 Build 0)  -->
<svg version="1.1" id="Слой_1" xmlns="http://www.w3.org/2000/svg" xmlns:xlink="http://www.w3.org/1999/xlink" x="0px" y="0px"
	 viewBox="0 0 496 496" style="enable-background:new 0 0 496 496;" xml:space="preserve">
<style type="text/css">
	.st0{fill:#FFFFFF;}
</style>
<path class="st0" d="M496,176h-16v-32h-32V96h-64V0H0v394.9L84.2,496H384v-64h112V176z M464,176H304v-16h160V176z M432,144h-96v-32
	h96V144z M80,465.9L25.1,400H80V465.9z M368,480H96v-96H16V16h352v80h-48v48h-32v32h-16v256h96V480z M408,416h-48v-40
	c0-13.2,10.8-24,24-24s24,10.8,24,24V416z M480,416h-56v-40c0-22.1-17.9-40-40-40s-40,17.9-40,40v40h-56V192h192V416z"/>
<path class="st0" d="M464,208H304v48h160V208z M400,224v16h-32v-16H400z M320,224h32v16h-32V224z M448,240h-32v-16h32V240z"/>
<path class="st0" d="M464,272H304v48h160V272z M400,288v16h-32v-16H400z M320,288h32v16h-32V288z M448,304h-32v-16h32V304z"/>
<path class="st0" d="M192,64h-25.9l16.7-27.9l-13.7-8.2L147.5,64H32v128h160V64z M176,176H48V80h89.9L101,141.5l-25.4-12.7
	l-7.2,14.3l38.6,19.3L156.5,80H176V176z"/>
<path class="st0" d="M336,448h16v16h-16V448z"/>
<path class="st0" d="M112,448h208v16H112V448z"/>
<path class="st0" d="M112,416h144v16H112V416z"/>
<path class="st0" d="M112,384h144v16H112V384z"/>
<path class="st0" d="M32,208h160v16H32V208z"/>
<path class="st0" d="M32,240h16v16H32V240z"/>
<path class="st0" d="M64,240h128v16H64V240z"/>
<path class="st0" d="M32,272h160v16H32V272z"/>
<path class="st0" d="M32,304h128v16H32V304z"/>
<path class="st0" d="M176,304h16v16h-16V304z"/>
</svg>
