<?xml version="1.0" encoding="utf-8"?>
<!-- Generator: Adobe Illustrator 23.0.1, SVG Export Plug-In . SVG Version: 6.00 Build 0)  -->
<svg version="1.1" id="Layer_1_1_" xmlns="http://www.w3.org/2000/svg" xmlns:xlink="http://www.w3.org/1999/xlink" x="0px" y="0px"
	 viewBox="0 0 512 512" style="enable-background:new 0 0 512 512;" xml:space="preserve">
<style type="text/css">
	.st0{fill:#FFFFFF;}
</style>
<g>
	<path class="st0" d="M368,152c-37.4,0-71.4,15.2-96,39.8v-77.4c0-8.5-2.6-16.6-7.6-23.5l-53.1-73c-4.5-6.2-11.7-9.8-19.3-9.8
		c-12.2,0-22.2,9.2-23.6,21c-0.1,0-0.1-0.1-0.2-0.1L109.5,9.4c-2.8-0.9-5.7-1.4-8.7-1.4h-1.5C84.3,8,72,20.3,72,35.4
		c0,10.8,6.4,20.6,16.3,25l52,23.1c4.2,1.8,7.7,4.8,10.2,8.6l21.5,32.2c2.6,4,4,8.6,4,13.3v19.9l-10.2-15.3
		c-6-8.9-15.9-14.2-26.6-14.2H60c-22.1,0-40,17.9-40,40c0,0.2,0,0.3,0,0.5c-6.9,1.8-12,8-12,15.5v81c0,5.7,1.3,11.5,3.7,16.8
		l40.4,87.5c3.4,7.3,7.6,14.2,12.6,20.4l5.1,6.4c10.1,12.6,16.2,28,17.8,44H72v64h176v-64h-16v-5.8c0-11,2.2-21.8,6.4-32l16.3-39.1
		c24.4,36.7,66,60.9,113.3,60.9c75,0,136-61,136-136S443,152,368,152z M232,488H88v-32h144V488z M223.6,396.1
		c-5.1,12.1-7.6,25-7.6,38.2v5.8H103.7c-1.6-19.6-9.1-38.6-21.4-54l-5.1-6.4c-4.2-5.2-7.8-11-10.6-17.1L26.2,275
		c-1.4-3.1-2.2-6.6-2.2-10.1v-81c17.6,0,32,14.4,32,32v32c0,7.5,3.6,14.7,9.6,19.2l16,12c7.6,5.7,16.9,8.8,26.4,8.8
		c24.3,0,44-19.7,44-44v-32c0-24.3-19.7-44-44-44H36c0-13.2,10.8-24,24-24h79.2c5.4,0,10.3,2.7,13.3,7.1l20.8,31.3
		c1.8,2.6,2.7,5.7,2.7,8.9V232h16v-40.7v-53.6c0-7.9-2.3-15.6-6.7-22.2l-21.5-32.2c-4.2-6.3-10.1-11.3-17-14.4l-52-23.1
		C90.7,44,88,39.9,88,35.4C88,29.1,93.1,24,99.4,24h1.5c1.2,0,2.4,0.2,3.6,0.6l58.6,19.5c5,1.7,9.4,5,12.4,9.4l25.9,38.9l0,0
		l10.6,15.9c2.6,4,4,8.6,4,13.3V232h16V121.7c0-7.9-2.3-15.6-6.7-22.2l-36.5-54.8c0,0-0.1-0.1-0.1-0.1l-3.3-5
		c-0.9-1.3-1.3-2.8-1.3-4.4v-3.3c0-4.4,3.5-7.9,7.9-7.9c2.5,0,4.9,1.2,6.4,3.2l53.1,73c3,4.1,4.6,9,4.6,14.1V211
		c-15.1,21.9-24,48.4-24,77c0,20.5,4.7,39.8,12.8,57.3L223.6,396.1z M59.8,184H108c15.4,0,28,12.6,28,28v32c0,15.4-12.6,28-28,28
		c-6,0-12-2-16.8-5.6l-16-12c-2-1.5-3.2-3.9-3.2-6.4v-32C72,203.7,67.4,192.5,59.8,184z M368,408c-66.2,0-120-53.8-120-120
		s53.8-120,120-120s120,53.8,120,120S434.2,408,368,408z"/>
	<polygon class="st0" points="418.3,234.3 336,316.7 317.7,298.3 306.3,309.7 336,339.3 429.7,245.7 	"/>
	<path class="st0" d="M368,376c-48.5,0-88-39.5-88-88c0-20.8,7.4-40.9,20.8-56.8l-12.2-10.3C272.8,239.6,264,263.5,264,288
		c0,57.3,46.7,104,104,104c24.5,0,48.4-8.8,67.1-24.6l-10.3-12.2C408.9,368.6,388.8,376,368,376z"/>
	<path class="st0" d="M368,184c-24.5,0-48.4,8.8-67.1,24.6l10.3,12.2c15.9-13.4,36-20.8,56.8-20.8c48.5,0,88,39.5,88,88
		c0,20.8-7.4,40.9-20.8,56.8l12.2,10.3c15.9-18.8,24.6-42.6,24.6-67.1C472,230.7,425.3,184,368,184z"/>
</g>
</svg>
