<?xml version="1.0" encoding="utf-8"?>
<!-- Generator: Adobe Illustrator 23.0.1, SVG Export Plug-In . SVG Version: 6.00 Build 0)  -->
<svg version="1.1" id="Capa_1" xmlns="http://www.w3.org/2000/svg" xmlns:xlink="http://www.w3.org/1999/xlink" x="0px" y="0px"
	 viewBox="0 0 463 463" style="enable-background:new 0 0 463 463;" xml:space="preserve">
<style type="text/css">
	.st0{fill:#FFFFFF;}
</style>
<g>
	<path class="st0" d="M398.9,333.6l-29.3-7.3c-0.2-2.9-2.1-5.6-5.1-6.6l-45.8-15.3c-1.7-2.7-4-5.1-6.8-7l-11.4-7.6
		C326.4,265,343,226.6,343,183.5c0-6.3-0.7-12.9-1.9-19.5c0.2-0.5,0.3-1,0.4-1.5c0-0.4,5-37.9,7.7-83.1c1.1-18.1-4.6-35.7-15.9-49.8
		C321.8,15.6,305.6,6.5,287.7,4c-19.1-2.6-38-4-56.2-4c-14.5,0-50.2,2.4-74.9,24h-2.8c-13.2,0-25.8,5.5-34.8,15.1
		c-8.9,9.6-13.5,22.6-12.6,35.7c2.1,29.2,6,70.6,12.8,102.3c0.2,0.8,0.5,1.6,0.9,2.3c0,1.4-0.1,2.8-0.1,4.2
		c0,43.1,16.6,81.5,42.5,106.3l-11.4,7.6c-2.8,1.9-5.1,4.3-6.8,7l-45.8,15.3c-3,1-4.9,3.7-5.1,6.6l-29.3,7.3
		C35.8,340.7,16,366,16,395.2v44.3c0,13,10.5,23.5,23.5,23.5h384c13,0,23.5-10.5,23.5-23.5v-44.3C447,366,427.2,340.7,398.9,333.6z
		 M313.3,371.7l13.6,20.4l-28.4,56H279c-0.1-10.9,0.5-34.6,7.7-53.9c0.1-0.3,0.2-0.6,0.3-0.9c0.1-0.1,0.1-0.2,0.2-0.4l11.6-23.3
		c7-14,15.4-30.9,21.1-42.1c1-2,1.7-4,2.1-6.1l30.8,10.3l-7.1,21.6l-28,7c-2.4,0.6-4.3,2.3-5.2,4.6
		C311.6,367.1,311.9,369.6,313.3,371.7z M254.2,448l-6.5-51.4c4.4-2.7,7.3-7.6,7.3-13.1v-2.8c5,3.5,10.4,7.9,16,13.1
		c-6.5,20.4-7.2,43.1-7,54.2H254.2z M199.2,448c0.1-11.2-0.5-33.9-7.1-54.4c5.6-5.2,10.9-9.4,15.8-12.9v2.8c0,5.5,2.9,10.4,7.3,13.1
		l-6.5,51.4H199.2z M231.5,367.5c1.9,0.7,4.8,2,8.5,4v12.1c0,0.3-0.2,0.5-0.5,0.5h-16c-0.3,0-0.5-0.2-0.5-0.5v-12.1
		C226.7,369.5,229.7,368.2,231.5,367.5z M230.1,399h2.8l6.2,49h-15.2L230.1,399z M306.5,320.8c-13.9,27.9-23.9,47.8-29.2,58.4
		c-12.9-11.3-24.6-18.3-32.6-22.2l51.8-51.8l7.1,4.8C307.1,312.3,308.4,317,306.5,320.8z M327.5,184H303v-8.5c0-4.1-3.4-7.5-7.5-7.5
		h-48c-4.1,0-7.5,3.4-7.5,7.5v2.1c-2.6-1-5.5-1.6-8.5-1.6s-5.9,0.6-8.5,1.6v-2.1c0-4.1-3.4-7.5-7.5-7.5h-48c-4.1,0-7.5,3.4-7.5,7.5
		v8.5h-24.5c-0.2,0-0.3,0-0.5,0c0-0.2,0-0.3,0-0.5c0-25.9,6.4-50.3,18.7-71.1c47.2,14.7,100.2,14.6,156.1,14.6l4.6,0
		c5.8,14.6,13.5,37.7,13.5,56.5c0,0.2,0,0.4,0,0.5C327.8,184,327.7,184,327.5,184z M121.4,73.7c-0.6-9.1,2.4-17.7,8.6-24.4
		c6.2-6.7,14.7-10.4,23.8-10.4h5.7c1.9,0,3.8-0.7,5.2-2.1C185.5,17.1,218.3,15,231.5,15c17.6,0,35.8,1.3,54.2,3.8
		c14.1,2,26.9,9.2,35.9,20.3c9,11.1,13.5,25.1,12.6,39.4c-1.1,17.8-2.5,34.5-3.8,48c-1.3-3.5-2.6-6.8-3.9-9.9
		c-1.2-2.8-3.9-4.6-6.9-4.6l-9.7,0c-56.9,0.1-110.7,0.1-157-15.6c-3.2-1.1-6.8,0.1-8.7,3c-7.1,10.9-12.7,22.9-16.8,35.6
		C124.6,113.4,122.6,91.3,121.4,73.7z M135.8,199H160v0.5c0,4.1,3.4,7.5,7.5,7.5s7.5-3.4,7.5-7.5V183h9v8.5c0,4.1,3.4,7.5,7.5,7.5
		s7.5-3.4,7.5-7.5V183h9v16.5c0,4.1,3.4,7.5,7.5,7.5s7.5-3.4,7.5-7.5c0-4.7,3.8-8.5,8.5-8.5s8.5,3.8,8.5,8.5c0,4.1,3.4,7.5,7.5,7.5
		s7.5-3.4,7.5-7.5V183h9v8.5c0,4.1,3.4,7.5,7.5,7.5s7.5-3.4,7.5-7.5V183h9v16.5c0,4.1,3.4,7.5,7.5,7.5s7.5-3.4,7.5-7.5V199h24.2
		c-6.1,59.1-46.7,105-95.7,105S141.9,258.1,135.8,199z M231.5,319c13.3,0,26.1-2.9,38-8.1l-38,38l-38-38
		C205.4,316.1,218.2,319,231.5,319z M159.4,309.9l7.1-4.8l51.8,51.8c-8,4-19.8,10.9-32.6,22.2c-5.4-10.8-15.5-31.1-29.2-58.4
		C154.6,317,155.9,312.3,159.4,309.9z M141,321.3c0.4,2.1,1.1,4.2,2.1,6.1c5.6,11.3,14,28.1,21.1,42.1l11.6,23.3
		c0.3,0.5,0.5,1,0.8,1.5c7.1,19.2,7.8,42.8,7.6,53.6h-19.6l-28.4-56l13.6-20.4c1.4-2,1.6-4.6,0.8-6.9c-0.9-2.3-2.8-4-5.2-4.6l-28-7
		l-7.1-21.6L141,321.3z M31,439.5v-44.3c0-22.3,15.1-41.6,36.7-47.1l29.7-7.4l6.9,21.1c0.8,2.5,2.8,4.3,5.3,4.9l21.7,5.4l-10.1,15.1
		c-1.5,2.3-1.7,5.1-0.4,7.6l27,53.1H103v-24.5c0-4.1-3.4-7.5-7.5-7.5s-7.5,3.4-7.5,7.5V448H39.5C34.8,448,31,444.2,31,439.5z
		 M432,439.5c0,4.7-3.8,8.5-8.5,8.5H375v-24.5c0-4.1-3.4-7.5-7.5-7.5s-7.5,3.4-7.5,7.5V448h-44.8l27-53.1c1.2-2.4,1.1-5.3-0.4-7.6
		l-10.1-15.1l21.7-5.4c2.5-0.6,4.5-2.5,5.3-4.9l6.9-21.1l29.7,7.4c21.6,5.4,36.7,24.8,36.7,47.1L432,439.5L432,439.5z"/>
	<path class="st0" d="M195.3,261.5c8.9,6,22.1,9.5,36.2,9.5s27.3-3.5,36.2-9.5c3.4-2.3,4.3-7,2-10.4c-2.3-3.4-7-4.3-10.4-2
		c-6.4,4.3-16.8,6.9-27.8,6.9s-21.4-2.6-27.8-6.9c-3.4-2.3-8.1-1.4-10.4,2C191,254.5,191.9,259.1,195.3,261.5z"/>
</g>
</svg>
