<?xml version="1.0" encoding="utf-8"?>
<!-- Generator: Adobe Illustrator 23.0.1, SVG Export Plug-In . SVG Version: 6.00 Build 0)  -->
<svg version="1.1" id="Capa_1" xmlns="http://www.w3.org/2000/svg" xmlns:xlink="http://www.w3.org/1999/xlink" x="0px" y="0px"
	 viewBox="0 0 512 512" style="enable-background:new 0 0 512 512;" xml:space="preserve">
<style type="text/css">
	.st0{fill:#FFFFFF;}
</style>
<g>
	<g>
		<path class="st0" d="M509.1,98.9l-96-96C411.2,1.1,408.7,0,406,0H138c-16.5,0-30,13.5-30,30v293.9c0,5.5,4.5,10,10,10
			s10-4.5,10-10V30c0-5.5,4.5-10,10-10h258v66c0,16.5,13.5,30,30,30h66v226.4c0,5.5,4.5,10,10,10s10-4.5,10-10V106
			C512,103.4,510.9,100.8,509.1,98.9z M426,96c-5.5,0-10-4.5-10-10V34.1L477.9,96H426z"/>
	</g>
</g>
<g>
	<g>
		<path class="st0" d="M509.1,381.9c-1.9-1.9-4.4-2.9-7.1-2.9s-5.2,1.1-7.1,2.9c-1.9,1.9-2.9,4.4-2.9,7.1s1.1,5.2,2.9,7.1
			c1.9,1.9,4.4,2.9,7.1,2.9s5.2-1.1,7.1-2.9c1.9-1.9,2.9-4.4,2.9-7.1S510.9,383.8,509.1,381.9z"/>
	</g>
</g>
<g>
	<g>
		<path class="st0" d="M502,430.5c-5.5,0-10,4.5-10,10V482c0,5.5-4.5,10-10,10H354c-5.5,0-10,4.5-10,10s4.5,10,10,10h128
			c16.5,0,30-13.5,30-30v-41.5C512,435,507.5,430.5,502,430.5z"/>
	</g>
</g>
<g>
	<g>
		<path class="st0" d="M377.2,420h-10.1c-5-40.5-39.5-72-81.4-72c-36,0-66.6,23.3-77.6,55.7c-4.3-2.3-9.2-3.7-14.4-3.7
			s-10.1,1.3-14.4,3.7c-11-32.3-41.6-55.7-77.6-55.7c-41.8,0-76.4,31.5-81.4,72H10c-5.5,0-10,4.5-10,10s4.5,10,10,10h10.4
			c5,40.5,39.5,72,81.4,72c45.2,0,82-36.8,82-82c0-5.5,4.5-10,10-10s10,4.5,10,10c0,45.2,36.8,82,82,82c41.8,0,76.4-31.5,81.4-72
			h10.1c5.5,0,10-4.5,10-10S382.7,420,377.2,420z M101.7,492c-3.3,0-6.6-0.3-9.8-0.8l43.6-43.6c3.9-3.9,3.9-10.2,0-14.1
			c-3.9-3.9-10.2-3.9-14.1,0L71,483.8C52.3,473.1,39.7,453,39.7,430c0-34.2,27.8-62,62-62c6.6,0,12.9,1,18.9,2.9L71,420.5
			c-3.9,3.9-3.9,10.2,0,14.1c2,2,4.5,2.9,7.1,2.9s5.1-1,7.1-2.9l54-54c14.9,11.3,24.5,29.2,24.5,49.4
			C163.7,464.2,135.9,492,101.7,492z M285.8,492c-3.3,0-6.6-0.3-9.8-0.8l43.6-43.6c3.9-3.9,3.9-10.2,0-14.1
			c-3.9-3.9-10.2-3.9-14.1,0l-50.4,50.4c-18.7-10.7-31.3-30.8-31.3-53.8c0-34.2,27.8-62,62-62c6.6,0,12.9,1,18.9,2.9l-49.5,49.5
			c-3.9,3.9-3.9,10.2,0,14.1c2,2,4.5,2.9,7.1,2.9s5.1-1,7.1-2.9l54-54c14.9,11.3,24.5,29.2,24.5,49.4C347.8,464.2,320,492,285.8,492
			z"/>
	</g>
</g>
<g>
	<g>
		<path class="st0" d="M232.3,54H174c-5.5,0-10,4.5-10,10s4.5,10,10,10h58.3c5.5,0,10-4.5,10-10S237.9,54,232.3,54z"/>
	</g>
</g>
<g>
	<g>
		<path class="st0" d="M280.8,104.9c-1.9-1.9-4.4-2.9-7.1-2.9s-5.2,1.1-7.1,2.9c-1.9,1.9-2.9,4.4-2.9,7.1s1.1,5.2,2.9,7.1
			s4.4,2.9,7.1,2.9s5.2-1.1,7.1-2.9c1.9-1.9,2.9-4.4,2.9-7.1S282.7,106.8,280.8,104.9z"/>
	</g>
</g>
<g>
	<g>
		<path class="st0" d="M373.5,102h-55.8c-5.5,0-10,4.5-10,10s4.5,10,10,10h45.8v28H184v-28h38c5.5,0,10-4.5,10-10s-4.5-10-10-10h-48
			c-5.5,0-10,4.5-10,10v48c0,5.5,4.5,10,10,10h199.5c5.5,0,10-4.5,10-10v-48C383.5,106.5,379,102,373.5,102z"/>
	</g>
</g>
<g>
	<g>
		<path class="st0" d="M446,246H334.2c-5.5,0-10,4.5-10,10c0,5.5,4.5,10,10,10H446c5.5,0,10-4.5,10-10S451.5,246,446,246z"/>
	</g>
</g>
<g>
	<g>
		<path class="st0" d="M446,198H334.2c-5.5,0-10,4.5-10,10s4.5,10,10,10H446c5.5,0,10-4.5,10-10S451.5,198,446,198z"/>
	</g>
</g>
<g>
	<g>
		<path class="st0" d="M446,294H334.2c-5.5,0-10,4.5-10,10s4.5,10,10,10H446c5.5,0,10-4.5,10-10S451.5,294,446,294z"/>
	</g>
</g>
<g>
	<g>
		<path class="st0" d="M285.8,198H174c-5.5,0-10,4.5-10,10v96c0,5.5,4.5,10,10,10h111.8c5.5,0,10-4.5,10-10v-96
			C295.8,202.5,291.3,198,285.8,198z M275.8,294H184v-76h91.8V294z"/>
	</g>
</g>
</svg>
