<?xml version="1.0" encoding="utf-8"?>
<!-- Generator: Adobe Illustrator 23.0.1, SVG Export Plug-In . SVG Version: 6.00 Build 0)  -->
<svg version="1.1" id="Слой_1" xmlns="http://www.w3.org/2000/svg" xmlns:xlink="http://www.w3.org/1999/xlink" x="0px" y="0px"
	 viewBox="0 0 496 496" style="enable-background:new 0 0 496 496;" xml:space="preserve">
<style type="text/css">
	.st0{fill:#FFFFFF;}
</style>
<path class="st0" d="M496,184c0-63.5-49.6-115.4-112-119.6V0H0v432h336v24c0,22.1,17.9,40,40,40s40-17.9,40-40V336h-16v-34.4
	C454.7,290.4,496,242,496,184z M480,184c0,57.3-46.7,104-104,104s-104-46.7-104-104S318.7,80,376,80S480,126.7,480,184z M336,336v80
	H16V16h352v48.4c-62.4,4.1-112,56.1-112,119.6c0,58,41.3,106.4,96,117.6V336H336z M400,456c0,13.2-10.8,24-24,24s-24-10.8-24-24V352
	h48V456z M384,336h-16v-32.4c2.7,0.2,5.3,0.4,8,0.4s5.3-0.2,8-0.4V336z"/>
<path class="st0" d="M288,184c0,48.5,39.5,88,88,88s88-39.5,88-88s-39.5-88-88-88S288,135.5,288,184z M448,184c0,39.7-32.3,72-72,72
	s-72-32.3-72-72s32.3-72,72-72S448,144.3,448,184z"/>
<path class="st0" d="M384,456c0,4.4-3.6,8-8,8s-8-3.6-8-8s3.6-8,8-8S384,451.6,384,456z"/>
<path class="st0" d="M348.4,201.3l-8.9,13.3l31.5,21l44.1-88.1l-14.3-7.1l-35.9,71.9L348.4,201.3z"/>
<path class="st0" d="M143.4,267.1l-14.8-6.2L117.3,288H32v112h128V288h-25.3L143.4,267.1z M144,304v80H48v-80h62.7l-17.5,41.9
	l-15.6-15.6l-11.3,11.3l32.4,32.4L128,304H144z"/>
<path class="st0" d="M143.4,115.1l-14.8-6.2L117.3,136H32v112h128V136h-25.3L143.4,115.1z M144,152v80H48v-80h62.7l-17.5,41.9
	l-15.6-15.6l-11.3,11.3l32.4,32.4L128,152H144z"/>
<path class="st0" d="M224,64h16v16h-16V64z"/>
<path class="st0" d="M32,64h176v16H32V64z"/>
<path class="st0" d="M176,288h96v16h-96V288z"/>
<path class="st0" d="M176,320h96v16h-96V320z"/>
<path class="st0" d="M176,352h96v16h-96V352z"/>
<path class="st0" d="M176,384h96v16h-96V384z"/>
<path class="st0" d="M176,136h64v16h-64V136z"/>
<path class="st0" d="M176,168h64v16h-64V168z"/>
<path class="st0" d="M176,200h64v16h-64V200z"/>
<path class="st0" d="M176,232h64v16h-64V232z"/>
<path class="st0" d="M32,32h208v16H32V32z"/>
</svg>
