<?xml version="1.0"?>
<svg xmlns="http://www.w3.org/2000/svg" height="512px" viewBox="-20 -20 640 640" width="512px"><path d="m300 100c27.613281 0 50-22.386719 50-50s-22.386719-50-50-50-50 22.386719-50 50c.035156 27.601562 22.398438 49.964844 50 50zm0-80c16.566406 0 30 13.433594 30 30s-13.433594 30-30 30-30-13.433594-30-30 13.433594-30 30-30zm0 0" fill="#Ffffff"/><path d="m600 320v-80c-.046875-38.636719-31.363281-69.953125-70-70h-80c-14.304688-.003906-28.273438 4.382812-40 12.578125v-2.578125c-.046875-38.636719-31.363281-69.953125-70-70h-80c-38.636719.046875-69.953125 31.363281-70 70v2.578125c-11.726562-8.195313-25.695312-12.582031-40-12.578125h-80c-38.636719.046875-69.953125 31.363281-70 70v80c.0351562 27.601562 22.398438 49.964844 50 50v130h-30v80h-20v20h600v-20h-20v-80h-30v-130c27.601562-.035156 49.964844-22.398438 50-50zm-100.421875-43.71875-9.578125 9.578125-9.578125-9.578125 8.625-86.28125h1.90625zm-69.578125 223.71875h-20v-40h-50v-150c6.890625-.003906 13.703125-1.449219 20-4.238281v14.238281c.035156 27.601562 22.398438 49.964844 50 50zm-210-180v-14.238281c6.296875 2.789062 13.109375 4.234375 20 4.238281v150h-50v40h-20v-130c27.601562-.035156 49.964844-22.398438 50-50zm-10 160h180v100h-180zm99.578125-263.71875-9.578125 9.578125-9.578125-9.578125 8.625-86.28125h1.90625zm-99.578125-36.28125c.035156-27.601562 22.398438-49.964844 50-50h19l-9.371094 93.71875 30.371094 30.421875 30.421875-30.421875-9.421875-93.71875h19c27.601562.035156 49.964844 22.398438 50 50v80c0 16.566406-13.433594 30-30 30v-130h-20v300h-30v-150h-20v150h-30v-300h-20v130c-16.566406 0-30-13.433594-30-30zm-90.421875 96.28125-9.578125 9.578125-9.578125-9.578125 8.625-86.28125h1.90625zm-69.578125-56.28125v130c-16.566406 0-30-13.433594-30-30v-80c.035156-27.601562 22.398438-49.964844 50-50h19l-9.371094 93.71875 30.371094 30.421875 30.421875-30.421875-9.371094-93.71875h18.949219c15.785156.007812 30.628906 7.507812 40 20.210938v49.789062c.035156 10.71875 3.539062 21.136719 10 29.691406v30.308594c0 16.566406-13.433594 30-30 30v-130h-20v280h-30v-130h-20v130h-30v-280zm-10 300h150v60h-150zm520 60h-150v-60h150zm-30-360v280h-30v-130h-20v130h-30v-280h-20v130c-16.566406 0-30-13.433594-30-30v-30.308594c6.460938-8.554687 9.964844-18.972656 10-29.691406v-49.789062c9.371094-12.703126 24.214844-20.203126 40-20.210938h19l-9.371094 93.71875 30.371094 30.421875 30.421875-30.421875-9.371094-93.71875h18.949219c27.601562.035156 49.964844 22.398438 50 50v80c0 16.566406-13.433594 30-30 30v-130zm0 0" fill="#Ffffff"/><path d="m110 160c27.613281 0 50-22.386719 50-50s-22.386719-50-50-50-50 22.386719-50 50c.035156 27.601562 22.398438 49.964844 50 50zm0-80c16.566406 0 30 13.433594 30 30s-13.433594 30-30 30-30-13.433594-30-30 13.433594-30 30-30zm0 0" fill="#Ffffff"/><path d="m490 160c27.613281 0 50-22.386719 50-50s-22.386719-50-50-50-50 22.386719-50 50c.035156 27.601562 22.398438 49.964844 50 50zm0-80c16.566406 0 30 13.433594 30 30s-13.433594 30-30 30-30-13.433594-30-30 13.433594-30 30-30zm0 0" fill="#Ffffff"/></svg>
