<?xml version="1.0" encoding="utf-8"?>
<!-- Generator: Adobe Illustrator 23.0.1, SVG Export Plug-In . SVG Version: 6.00 Build 0)  -->
<svg version="1.1" id="Слой_1" xmlns="http://www.w3.org/2000/svg" xmlns:xlink="http://www.w3.org/1999/xlink" x="0px" y="0px"
	 viewBox="0 0 480 480" style="enable-background:new 0 0 480 480;" xml:space="preserve">
<style type="text/css">
	.st0{fill:#FFFFFF;}
</style>
<path class="st0" d="M456,152H232c-13.3,0-24,10.8-24,24v280c0,13.3,10.8,24,24,24h224c13.3,0,24-10.8,24-24V176
	C480,162.8,469.3,152,456,152z M464,456c0,4.4-3.6,8-8,8H232c-4.4,0-8-3.6-8-8V176c0-4.4,3.6-8,8-8h224c4.4,0,8,3.6,8,8V456z"/>
<path class="st0" d="M424,184H264c-13.3,0-24,10.8-24,24v24c0,13.3,10.8,24,24,24h160c13.3,0,24-10.8,24-24v-24
	C448,194.8,437.3,184,424,184z M432,232c0,4.4-3.6,8-8,8H264c-4.4,0-8-3.6-8-8v-24c0-4.4,3.6-8,8-8h160c4.4,0,8,3.6,8,8V232z"/>
<path class="st0" d="M288,272h-16c-8.8,0-16,7.2-16,16v16c0,8.8,7.2,16,16,16h16c8.8,0,16-7.2,16-16v-16
	C304,279.2,296.8,272,288,272z M272,304v-16h16l0,16H272z"/>
<path class="st0" d="M352,272h-16c-8.8,0-16,7.2-16,16v16c0,8.8,7.2,16,16,16h16c8.8,0,16-7.2,16-16v-16
	C368,279.2,360.8,272,352,272z M336,304v-16h16l0,16H336z"/>
<path class="st0" d="M416,272h-16c-8.8,0-16,7.2-16,16v16c0,8.8,7.2,16,16,16h16c8.8,0,16-7.2,16-16v-16
	C432,279.2,424.8,272,416,272z M400,304v-16h16l0,16H400z"/>
<path class="st0" d="M288,336h-16c-8.8,0-16,7.2-16,16v16c0,8.8,7.2,16,16,16h16c8.8,0,16-7.2,16-16v-16
	C304,343.2,296.8,336,288,336z M272,368v-16h16l0,16H272z"/>
<path class="st0" d="M352,336h-16c-8.8,0-16,7.2-16,16v16c0,8.8,7.2,16,16,16h16c8.8,0,16-7.2,16-16v-16
	C368,343.2,360.8,336,352,336z M336,368v-16h16l0,16H336z"/>
<path class="st0" d="M416,336h-16c-8.8,0-16,7.2-16,16v16c0,8.8,7.2,16,16,16h16c8.8,0,16-7.2,16-16v-16
	C432,343.2,424.8,336,416,336z M400,368v-16h16l0,16H400z"/>
<path class="st0" d="M288,400h-16c-8.8,0-16,7.2-16,16v16c0,8.8,7.2,16,16,16h16c8.8,0,16-7.2,16-16v-16
	C304,407.2,296.8,400,288,400z M272,432v-16h16l0,16H272z"/>
<path class="st0" d="M352,400h-16c-8.8,0-16,7.2-16,16v16c0,8.8,7.2,16,16,16h16c8.8,0,16-7.2,16-16v-16
	C368,407.2,360.8,400,352,400z M336,432v-16h16l0,16H336z"/>
<path class="st0" d="M416,400h-16c-8.8,0-16,7.2-16,16v16c0,8.8,7.2,16,16,16h16c8.8,0,16-7.2,16-16v-16
	C432,407.2,424.8,400,416,400z M400,432v-16h16l0,16H400z"/>
<path class="st0" d="M16,440V112h72c13.3,0,24-10.8,24-24V16h200c4.4,0,8,3.6,8,8v112h16V24c0-13.3-10.8-24-24-24H110.6
	c-6.4,0-12.5,2.5-17,7L7,93.7c-4.5,4.5-7,10.6-7,17V440c0,13.3,10.8,24,24,24l168,0v-16l-168,0C19.6,448,16,444.4,16,440z M96,27.3
	V88c0,4.4-3.6,8-8,8H27.3L96,27.3z"/>
<path class="st0" d="M176,200c0-35.3-28.7-64-64-64s-64,28.7-64,64s28.7,64,64,64C147.3,264,176,235.3,176,200z M104,152.7V184
	c0,4.4-3.6,8-8,8H64.7C68.2,171.9,83.9,156.2,104,152.7z M112,248c-23.4,0-43.4-16.9-47.3-40H96c13.3,0,24-10.8,24-24v-31.3
	c24.6,4.1,41.9,26.5,39.8,51.3C157.7,228.9,136.9,248,112,248z"/>
<path class="st0" d="M172,88c6.6,0,12-5.4,12-12V52c0-6.6-5.4-12-12-12h-24c-6.6,0-12,5.4-12,12v24c0,6.6,5.4,12,12,12H172z M152,56
	h16v16h-16V56z"/>
<path class="st0" d="M200,40h16v16h-16V40z"/>
<path class="st0" d="M232,40h72v16h-72V40z"/>
<path class="st0" d="M200,72h16v16h-16V72z"/>
<path class="st0" d="M232,72h72v16h-72V72z"/>
<path class="st0" d="M136,104h16v16h-16V104z"/>
<path class="st0" d="M168,104h104v16H168V104z"/>
<path class="st0" d="M288,104h16v16h-16V104z"/>
<path class="st0" d="M180,280h-24c-6.6,0-12,5.4-12,12v24c0,6.6,5.4,12,12,12h24c6.6,0,12-5.4,12-12v-24
	C192,285.4,186.6,280,180,280z M176,312h-16v-16h16V312z"/>
<path class="st0" d="M112,280h16v16h-16V280z"/>
<path class="st0" d="M32,280h64v16H32V280z"/>
<path class="st0" d="M112,312h16v16h-16V312z"/>
<path class="st0" d="M32,312h64v16H32V312z"/>
<path class="st0" d="M32,412c0,6.6,5.4,12,12,12h24c6.6,0,12-5.4,12-12v-24c0-6.6-5.4-12-12-12H44c-6.6,0-12,5.4-12,12V412z M48,392
	h16v16H48V392z"/>
<path class="st0" d="M96,376h16v16H96V376z"/>
<path class="st0" d="M128,376h64v16h-64V376z"/>
<path class="st0" d="M96,408h16v16H96V408z"/>
<path class="st0" d="M128,408h64v16h-64V408z"/>
<path class="st0" d="M176,344h16v16h-16V344z"/>
<path class="st0" d="M64,344h96v16H64V344z"/>
<path class="st0" d="M32,344h16v16H32V344z"/>
</svg>
